<svg width="125" height="181" viewBox="0 0 125 181" fill="none" xmlns="http://www.w3.org/2000/svg">
<rect width="124.294" height="180.332" rx="8.01898" fill="#FFF9FC"/>
<path opacity="0.36" d="M15.8994 95.2694L47.4727 96.5628C47.4995 96.564 47.5264 96.5642 47.5533 96.5634L97.9241 95.2423C98.4556 95.2283 98.9088 94.8673 99.0225 94.3672L99.1778 93.6843C99.3368 92.9856 98.7803 92.3259 98.0375 92.3323L15.9381 93.0429C15.8177 93.044 15.6983 93.0631 15.584 93.0996C14.3646 93.4895 14.6155 95.2168 15.8994 95.2694Z" fill="#212940"/>
<path d="M38.1837 61.1957C38.1616 61.1706 38.1385 61.145 38.1111 61.1279C37.8558 60.9687 37.6274 61.0386 37.3392 60.9557C37.2106 60.9187 37.1111 60.5895 36.9003 60.7727C36.8226 60.8403 36.6552 61.0332 36.4908 61.179C36.251 61.3916 35.8186 61.5162 35.4569 61.5517C34.0362 61.6914 32.6167 61.4404 31.2205 61.1481C31.1409 61.1315 31.0581 61.1128 30.9951 61.0614C30.8824 60.9692 30.8682 60.8054 30.8598 60.66C30.821 59.9858 30.7194 59.3153 30.5569 58.6599C30.4118 58.0751 30.2104 57.488 29.8273 57.0229C29.4443 56.5579 28.8484 56.2321 28.2505 56.3065C27.8027 56.3622 27.3899 56.6478 27.1798 57.0473C26.6589 58.0376 27.6975 59.2998 28.1566 60.1419C28.5909 60.9386 29.081 61.7049 29.6224 62.4331C29.6892 62.523 29.7594 62.6147 29.8562 62.6711C29.9594 62.7312 30.0821 62.7452 30.2009 62.7575C31.7302 62.9161 33.2649 62.9389 34.8079 62.9306C35.2319 62.9283 35.6009 62.7035 35.993 62.7049C36.2432 62.7058 36.4389 62.8865 36.6749 62.9396C36.9083 62.9922 37.2281 63.0016 37.4642 62.9644C37.9298 62.891 38.1536 62.4585 38.3861 62.0999C38.4441 62.0105 38.4834 61.9504 38.4923 61.8511C38.5067 61.6895 38.4226 61.5565 38.344 61.4213C38.2978 61.3412 38.2447 61.2646 38.1837 61.1957Z" fill="#EAC5B0"/>
<path d="M27.5837 60.3541C28.0343 60.8056 28.528 61.2059 28.881 61.7703C29.1265 62.1632 29.3309 62.6095 29.7182 62.8639C30.0195 63.0618 30.3908 63.1142 30.7492 63.1528C31.0319 63.1831 31.3151 63.2077 31.5987 63.2266C31.7426 62.5609 31.8865 61.8951 32.0303 61.2294C31.7617 61.122 31.4728 61.0653 31.1836 61.0632C30.8555 59.0064 30.637 56.9403 30.3301 54.8816C30.192 53.9559 30.0419 52.9977 29.5298 52.2143C28.4362 50.5416 25.8519 51.0346 25.6203 53.0891C25.4395 54.6937 25.6781 56.3473 26.2139 57.8654C26.4483 58.5298 26.735 59.3552 27.1778 59.907C27.305 60.0655 27.4422 60.2123 27.5837 60.3541Z" fill="#EBB044"/>
<path d="M18.4992 91.7503C18.1758 91.7718 17.8799 91.6582 17.5664 91.6229C17.5813 90.5157 17.7013 89.4539 17.9398 88.3606C18.4274 88.9017 18.8378 88.5872 18.8212 89.604C18.8159 89.9332 18.4357 91.2496 18.4992 91.7503Z" fill="#E5D1BD"/>
<path d="M17.496 91.0721C17.1282 90.9405 17.0453 91.8188 17.0424 92.0254C17.0407 92.1495 17.0553 92.276 17.0238 92.3961C16.9892 92.5282 16.902 92.6393 16.8169 92.7463C16.6388 92.9701 16.4608 93.194 16.2827 93.4178C16.2027 93.5185 16.1212 93.6216 16.0782 93.7428C15.9719 94.0433 16.1476 94.3996 16.4321 94.5434C17.4192 95.0421 18.321 93.8345 18.5349 93.0374C18.5676 92.9152 18.5916 92.7909 18.6154 92.6666C18.6648 92.4097 18.8593 91.8493 18.7573 91.5982C18.6383 91.3053 18.2778 91.5176 18.0416 91.4071C17.8226 91.3045 17.6449 91.1255 17.496 91.0721Z" fill="#1A3151"/>
<path d="M24.5085 73.5052C23.5882 76.0108 22.5262 78.4615 21.9206 81.0843C21.1724 84.3243 19.9662 87.4839 19.3471 90.7312C18.947 90.7443 18.5461 90.7272 18.1486 90.6803C17.6929 90.6265 16.9697 90.5036 16.8052 90.006C16.7211 89.7516 16.8103 89.3381 16.8231 89.0739C16.8642 88.2278 16.9247 87.3825 16.9869 86.5377C17.163 84.1474 17.2837 81.7278 17.7233 79.3714C18.1858 76.8925 18.6287 74.405 19.0356 71.9266C19.2459 70.6455 19.5049 69.3725 19.8236 68.1139C19.9057 67.7896 20.7606 64.4472 20.9285 64.4739C22.9205 64.7909 24.784 65.4505 26.5187 66.4794C26.6873 66.5794 26.85 66.6985 26.9087 66.8765C26.9673 67.0546 26.9142 67.2079 26.8598 67.3695C26.3414 68.9101 25.6501 70.355 25.0974 71.8897C24.905 72.4233 24.7099 72.9572 24.5085 73.5052Z" fill="#1A3151"/>
<path d="M24.6816 91.5704C24.984 91.6871 25.3004 91.6666 25.6101 91.7262C25.9251 90.6647 26.1264 89.6152 26.2238 88.5005C25.5975 88.8722 25.2991 88.4498 25.0125 89.4255C24.9197 89.7413 24.8911 91.1112 24.6816 91.5704Z" fill="#E5D1BD"/>
<path d="M25.9266 91.4067C25.9273 92.007 26.3999 92.6535 26.6613 93.1935C26.6921 93.2569 26.7234 93.323 26.7248 93.3936C26.7266 93.4984 26.6626 93.5915 26.6012 93.6765C26.516 93.7946 26.4233 93.9185 26.2878 93.9716C26.1546 94.0238 26.0049 93.9976 25.8653 93.9669C25.6315 93.9156 25.4001 93.8537 25.172 93.7812C25.1152 93.7632 25.0572 93.7437 25.0108 93.7062C24.956 93.6618 24.923 93.5965 24.8916 93.5332C24.7304 93.2086 24.5931 92.9782 24.6019 92.6166C24.6109 92.243 24.658 91.8561 24.5898 91.4859C24.556 91.3063 24.5113 91.0767 24.6651 90.9782C24.784 90.902 25.0017 91.0069 25.1312 91.0281C25.3596 91.0653 25.5707 91.0512 25.7811 91.1711C25.824 91.1956 25.8657 91.225 25.8921 91.2666C25.9189 91.3088 25.9266 91.3567 25.9266 91.4067Z" fill="#1A3151"/>
<path d="M24.3685 72.3636C24.5021 75.0295 24.7871 77.6852 24.5853 80.3694C24.336 83.6854 24.5481 87.0608 24.1733 90.3452C24.5514 90.4765 24.9392 90.5795 25.3327 90.653C25.7838 90.7371 26.5109 90.8349 26.8159 90.4087C26.9718 90.1909 27.0097 89.7695 27.076 89.5135C27.2885 88.6935 27.4822 87.8684 27.674 87.0433C28.2168 84.7088 28.8212 82.3628 29.1023 79.9823C29.398 77.478 29.7149 74.9714 30.0636 72.484C30.2438 71.1984 30.3751 69.906 30.4452 68.6096C30.4632 68.2756 30.6411 64.8301 30.4729 64.8057C28.4768 64.5159 26.5015 64.5915 24.5392 65.0578C24.3485 65.1032 24.1577 65.1685 24.0487 65.321C23.9398 65.4735 23.9449 65.6358 23.9488 65.8061C23.9857 67.4312 24.2159 69.0162 24.2873 70.6459C24.3118 71.2128 24.3394 71.7806 24.3685 72.3636Z" fill="#1A3151"/>
<path d="M23.2492 50.9706C23.2167 50.9816 23.1845 50.9932 23.1524 51.0053C22.6166 51.2086 22.1607 51.5746 21.7148 51.9348C21.0451 52.4757 20.7153 52.7129 20.4565 53.5141C20.2153 54.2613 20.0643 55.0504 19.9165 55.8203C19.1581 59.7734 19.0116 63.7098 18.4672 67.6927C18.3191 68.7769 18.2047 70.0513 19.0064 70.796C20.429 69.6888 22.2173 69.6249 23.9427 69.6233C25.1544 69.6223 26.3389 69.2298 27.5536 69.365C28.7143 69.4942 29.7282 69.2041 30.9061 69.2808C31.1901 69.2993 31.552 69.2962 31.664 69.0345C31.2564 67.8126 31.2634 66.4985 31.1711 65.2136C30.9324 61.8901 29.8314 58.7009 29.387 55.3999C29.236 54.2778 29.1555 52.4155 28.2865 51.5661C27.3422 50.6431 25.1883 50.6243 23.9749 50.8049C23.7292 50.8415 23.4843 50.8911 23.2492 50.9706Z" fill="#EBB044"/>
<path d="M26.3526 54.6743C26.1953 54.5678 26.0381 54.4613 25.8809 54.3548C26.1988 54.0368 26.5166 53.7187 26.8344 53.4007C26.967 53.268 27.1028 53.1308 27.1766 52.9583C27.2567 52.771 27.2561 52.5605 27.2524 52.3568C27.2472 52.0767 27.2368 51.7888 27.1258 51.5316C26.9225 51.0609 26.2109 50.7969 25.725 50.8193C25.1942 50.8437 24.6742 51.066 24.1999 51.2896C24.0475 51.3615 23.8938 51.4385 23.7739 51.5569C23.5121 51.8152 23.4602 52.2322 23.5594 52.5863C23.6586 52.9405 23.8852 53.2441 24.1222 53.5253C24.3592 53.8066 24.6138 54.0786 24.7865 54.4033C24.3599 54.6475 23.9332 54.8916 23.5067 55.1358C23.449 55.1689 23.3858 55.2091 23.3719 55.2742C23.3589 55.3352 23.3945 55.395 23.428 55.4478C23.8741 56.1496 24.391 57.0975 24.3957 57.9423C24.4014 58.9721 24.4936 60.0097 24.5353 61.0418C24.6218 63.1899 24.6483 65.3404 24.6148 67.49C24.607 67.9844 24.5961 68.4788 24.5821 68.973C25.1342 69.0079 25.6889 69.0019 26.2401 68.9549C26.359 68.9447 26.4872 68.9287 26.5745 68.8471C26.6801 68.7485 26.6918 68.5878 26.6953 68.4433C26.7043 68.0836 26.7064 67.7237 26.7032 67.364C26.6842 65.2428 26.4777 63.1297 26.3733 61.0122C26.2846 59.2122 26.0393 57.0857 27.2203 55.5664C27.256 55.5205 27.2945 55.4707 27.2959 55.4125C27.2979 55.3242 27.2166 55.2596 27.1435 55.21C26.8797 55.0314 26.6162 54.8529 26.3526 54.6743Z" fill="white"/>
<path d="M24.5626 51.0181C24.5825 51.0569 24.6092 51.0941 24.645 51.1294C24.786 51.2685 24.9814 51.3473 25.1754 51.3752C25.431 51.4117 25.6908 51.3694 25.9444 51.3209C26.287 51.2556 26.2749 51.055 26.3246 50.7439C26.3518 50.5739 26.3687 50.4026 26.3816 50.2311C26.3886 50.137 26.3522 49.8003 26.4121 49.7343C26.4528 49.6896 26.6184 49.7047 26.691 49.6668C26.806 49.6068 26.9021 49.4961 26.9713 49.3887C27.0827 49.2154 27.1441 49.0154 27.2041 48.8183C27.3086 48.4754 27.413 48.1325 27.5175 47.7897C27.6242 47.4393 27.7316 47.0861 27.7659 46.7214C27.8175 46.1718 27.7287 45.396 27.3138 44.9941C26.9354 44.6275 26.3833 44.4991 25.877 44.4344C25.2065 44.3488 24.5115 44.4714 23.9325 44.8273C23.6986 44.971 23.477 45.1573 23.339 45.4136C23.1261 45.8086 23.1423 46.3017 23.1651 46.7629C23.1863 47.1885 23.2074 47.6141 23.2285 48.0396C23.2528 48.5291 23.3138 49.0932 23.6805 49.3586C23.8752 49.4995 24.1298 49.5298 24.2965 49.7104C24.5053 49.9368 24.4918 50.2764 24.5004 50.5635C24.5054 50.7275 24.4931 50.8828 24.5626 51.0181Z" fill="#EAC5B0"/>
<path d="M26.6852 45.5164C26.7083 45.5563 26.7277 45.5978 26.7426 45.6408C26.8207 45.8665 26.7679 46.1212 26.8442 46.3474C26.9653 46.7061 27.3838 46.9218 27.447 47.295C27.4985 47.6003 27.2899 47.8905 27.2723 48.1996C27.2531 48.5374 27.4693 48.8569 27.4358 49.1903C27.4066 49.4799 27.2229 49.8867 27.0501 50.1189C27.1036 50.047 27.5883 50.0726 27.7141 49.9958C27.9068 49.8781 27.9287 49.8039 27.9861 49.6032C28.043 49.4039 27.9989 49.2074 28.0875 49.0032C28.1963 48.7527 28.4199 48.5688 28.4982 48.3017C28.6051 47.9372 28.411 47.5526 28.4263 47.1729C28.4491 46.5984 28.9458 46.0571 28.7655 45.5111C28.6598 45.1908 28.3487 44.986 28.1739 44.6976C28.041 44.4786 27.992 44.2204 27.8999 43.9814C27.8078 43.7423 27.6494 43.5033 27.4037 43.4307C27.2673 43.3904 27.1205 43.4069 26.9805 43.3809C26.7386 43.3359 26.5377 43.169 26.3046 43.0902C25.9713 42.9774 25.3832 43.3145 25.1887 43.597C24.9956 43.8774 25.093 44.1157 25.2905 44.3637C25.6193 44.7767 26.4139 45.0469 26.6852 45.5164Z" fill="#1A3151"/>
<path d="M22.1955 43.8196C21.9957 43.9662 21.7491 44.072 21.5666 44.2432C21.211 44.5771 21.1434 45.1111 21.1306 45.5989C21.1191 46.0331 20.9292 46.4189 20.9762 46.8714C21.0078 47.1754 21.137 47.4827 21.3843 47.6622C21.6923 47.8857 22.1759 47.9222 22.3133 48.2771C22.4626 48.6626 22.0633 49.148 22.3056 49.4828C22.4394 49.6675 22.7014 49.6947 22.8927 49.8188C23.1062 49.9573 23.2159 50.2046 23.3462 50.4231C23.4765 50.6416 23.6723 50.8605 23.9267 50.8659C23.9369 50.479 23.9484 50.1724 23.7832 49.8186C23.6869 49.6125 23.4034 49.2322 23.6212 49.009C23.7586 48.8235 24.0826 48.7631 24.091 48.5324C24.0949 48.4242 24.0193 48.3319 23.9597 48.2414C23.7288 47.8912 23.7054 47.4244 23.8619 47.0352C24.0184 46.646 24.3408 46.335 24.7184 46.1522C25.1609 45.9379 25.0895 45.8298 25.2181 45.4062C25.3364 45.0163 25.5577 44.9249 25.9086 44.7827C26.2238 44.6552 26.325 44.5757 26.4413 44.2807C26.5264 44.0649 26.6312 43.8065 26.5078 43.5655C26.4097 43.3741 26.2331 43.2373 26.0621 43.1068C25.7048 42.8344 25.3033 42.548 24.8551 42.5803C24.6062 42.5982 24.3721 42.7152 24.123 42.7292C23.9568 42.7387 23.7916 42.7019 23.6252 42.6963C23.3416 42.6869 23.0425 42.773 22.8129 42.9419C22.5813 43.1122 22.5878 43.2905 22.4592 43.5321C22.3961 43.6506 22.3025 43.741 22.1955 43.8196Z" fill="#1A3151"/>
<path d="M23.2021 42.2288C23.2457 41.9593 23.2178 41.608 22.9603 41.517C22.8193 41.4671 22.6612 41.5217 22.5146 41.4919C22.2021 41.4284 22.0957 41.0501 21.9319 40.7765C21.9074 40.7355 21.8782 40.6941 21.8346 40.6747C21.7723 40.6469 21.7008 40.6716 21.633 40.6798C21.3221 40.7177 21.0859 40.411 20.7931 40.2997C20.4307 40.162 19.9747 40.3886 19.8655 40.7606C19.8207 40.9135 19.8284 41.0777 19.7864 41.2313C19.6158 41.8538 18.7042 42.1186 18.6812 42.7636C18.6657 43.1994 19.0922 43.617 18.9264 44.0204C18.8204 44.2784 18.4885 44.4542 18.5265 44.7305C18.5509 44.9083 18.7401 45.0293 18.9195 45.0268C19.099 45.0243 19.2638 44.9259 19.3989 44.8079C19.6134 44.6206 19.775 44.3802 19.9794 44.1818C20.1837 43.9835 20.4562 43.8226 20.7389 43.8579C21.0126 43.892 21.2602 44.1051 21.5323 44.0595C21.7499 44.0231 21.9114 43.829 22.1251 43.7742C22.3251 43.7231 22.533 43.8015 22.739 43.814C22.9451 43.8264 23.1982 43.7191 23.2036 43.5128C23.2049 43.4628 23.1909 43.4111 23.2066 43.3636C23.2506 43.2306 23.4778 43.2382 23.5209 43.1049C23.4133 42.939 23.2617 42.9985 23.1845 42.7819C23.1249 42.6144 23.1748 42.3981 23.2021 42.2288Z" fill="#1A3151"/>
<path d="M48.7696 46.2944C48.5229 46.8336 48.1198 47.2829 47.7907 47.776C47.4705 48.2559 47.3554 48.69 47.2705 49.2463C47.2092 49.648 47.0655 49.9622 46.5815 50.0309C45.6687 50.1606 45.9297 49.4064 45.7223 48.8577C45.4853 48.2305 44.9799 47.735 44.6266 47.1752C43.6061 45.5576 43.8973 42.3604 46.0187 41.6782C48.3382 40.9324 49.5181 44.6584 48.7696 46.2944Z" fill="#EAC5B0"/>
<path d="M45.0732 44.7294C44.8098 44.7399 44.5202 44.7608 44.325 44.9377C44.1297 45.1145 44.1508 45.5002 44.4086 45.542C44.6424 45.5798 44.945 45.3358 45.0878 45.5139C45.1712 45.618 45.0979 45.7701 45.0346 45.8919C44.7917 46.3588 44.719 46.9002 44.8324 47.3975C44.7362 47.4866 44.5863 47.3941 44.5018 47.3013C44.0824 46.8407 43.7548 46.3027 43.5402 45.7222C43.4559 45.8627 43.3324 45.9823 43.1868 46.0644C43.2741 45.8461 43.2189 45.6073 43.1649 45.3846C42.9668 44.5664 42.8318 43.6077 43.4032 42.9391C43.709 42.5814 44.1739 42.3755 44.6414 42.2891C45.109 42.2026 45.5855 42.2235 46.0567 42.2449C46.2584 42.254 46.5067 42.2975 46.5551 42.4839C46.1129 42.6613 45.6555 43.0065 45.4342 43.4252C45.366 43.5538 45.1 44.7282 45.0732 44.7294Z" fill="#1A3151"/>
<path d="M46.0077 42.7635C45.9915 42.7752 45.9757 42.787 45.9602 42.7988C45.7598 42.9513 45.5718 43.1369 45.3293 43.2045C44.9797 43.3021 44.6042 43.1335 44.26 43.2526C43.8753 43.3857 43.6224 43.8457 43.3415 44.1181C42.881 44.5646 42.3101 44.8928 41.6971 45.0793C41.384 45.1746 41.0596 45.2332 40.7329 45.2516C40.5847 45.26 40.3866 45.2881 40.2422 45.2492C40.0484 45.1971 40.055 45.1089 40.2615 45.0428C40.9091 44.8353 41.1121 43.9257 41.0632 43.3228C41.0245 42.8469 40.8603 42.3494 41.0418 41.9078C41.1805 41.5704 41.4782 41.3963 41.766 41.2033C42.0834 40.9905 42.4277 41.0478 42.7881 40.9454C43.1641 40.8387 43.4704 40.5426 43.854 40.467C44.2591 40.3872 44.6639 40.5668 45.0692 40.6455C45.404 40.7105 45.7522 40.7063 46.0853 40.633C46.3838 40.5673 46.6751 40.4465 46.9808 40.4493C47.4315 40.4535 47.8461 40.7347 48.109 41.1008C48.4811 41.6187 48.7216 42.5046 48.5905 43.1863C48.6109 43.0805 48.2549 42.6972 48.1816 42.6148C48.027 42.4409 47.8404 42.2777 47.6044 42.2496C47.0704 42.186 46.4371 42.4517 46.0077 42.7635Z" fill="#1A3151"/>
<path d="M107.58 60.2047C107.553 60.177 107.525 60.1485 107.492 60.1303C107.188 59.9598 106.927 60.0529 106.589 59.9724C106.438 59.9365 106.305 59.5608 106.071 59.7843C105.985 59.8668 105.802 60.0989 105.619 60.2766C105.353 60.5356 104.859 60.7031 104.443 60.7637C102.806 61.0018 101.149 60.7878 99.5172 60.5247C99.4241 60.5097 99.3273 60.4926 99.2517 60.4364C99.1162 60.3358 99.091 60.1469 99.0735 59.9791C98.9923 59.2009 98.8386 58.4302 98.6151 57.6804C98.4156 57.0113 98.1508 56.3426 97.6824 55.8248C97.214 55.3071 96.5067 54.9621 95.8186 55.0804C95.3034 55.1691 94.8408 55.5219 94.6193 55.9954C94.0696 57.1698 95.3399 58.575 95.9166 59.5249C96.4622 60.4237 97.0707 61.2843 97.7366 62.0979C97.8188 62.1985 97.9051 62.3008 98.0202 62.3608C98.1429 62.4248 98.2856 62.4343 98.4238 62.4422C100.203 62.5434 101.98 62.4871 103.766 62.3945C104.257 62.369 104.672 62.0888 105.125 62.0694C105.415 62.0569 105.651 62.2556 105.927 62.3044C106.2 62.3526 106.571 62.3464 106.842 62.2906C107.377 62.1806 107.613 61.6679 107.863 61.2402C107.925 61.1337 107.967 61.0619 107.972 60.9465C107.98 60.7587 107.876 60.6091 107.778 60.457C107.719 60.3671 107.654 60.2813 107.58 60.2047Z" fill="#EAC5B0"/>
<path d="M95.0569 59.6329C95.4575 60.2376 95.8607 60.8436 96.2101 61.4948C96.4421 61.9271 96.6693 62.3904 97.0739 62.668C97.3303 62.8438 97.6367 62.929 97.9388 63.0022C99.8103 63.4558 101.766 63.5606 103.675 63.3095C103.854 63.286 104.041 63.2558 104.182 63.1441C104.426 62.9508 104.447 62.5941 104.447 62.2823C104.447 61.9162 104.447 61.5502 104.447 61.184C104.447 61.0753 104.444 60.9574 104.376 60.8724C104.313 60.7929 104.209 60.7613 104.11 60.7347C102.931 60.4135 101.73 60.1687 100.519 60.002C100.133 59.9489 99.7206 59.893 99.4261 59.6377C98.7954 59.0906 98.7809 57.0505 98.6367 56.2078C98.472 55.2462 98.3383 54.2759 98.1497 53.3187C97.94 52.2546 97.7147 51.1536 97.0796 50.2744C95.7237 48.3971 92.759 49.1069 92.6016 51.4975C92.4828 53.3017 92.8209 55.1371 93.4755 56.817C93.8771 57.8477 94.4645 58.7389 95.0569 59.6329Z" fill="url(#paint0_linear_593_8818)"/>
<path d="M60.5242 48.7827C60.5616 48.785 60.6001 48.7879 60.6341 48.8005C60.9503 48.9176 61.0451 49.168 61.3163 49.3666C61.4372 49.4551 61.7974 49.3176 61.7795 49.6301C61.7729 49.7455 61.7168 50.0261 61.7003 50.2719C61.6763 50.6303 61.8625 51.0992 62.0791 51.4442C62.93 52.7995 64.1262 53.8857 65.3432 54.923C65.4125 54.9821 65.4858 55.0427 65.5747 55.0632C65.7337 55.1 65.8887 55.0001 66.0232 54.9078C66.6475 54.4797 67.3117 54.1097 68.0042 53.8043C68.6221 53.5317 69.2808 53.3076 69.9559 53.3281C70.631 53.3486 71.3286 53.6534 71.6728 54.2345C71.9306 54.6696 71.9606 55.2317 71.7507 55.6918C71.23 56.833 69.3985 56.7781 68.337 56.9489C67.3328 57.1104 66.3173 57.2017 65.3003 57.2213C65.1747 57.2237 65.0452 57.2244 64.9288 57.1772C64.8048 57.127 64.7082 57.0277 64.6159 56.9309C63.426 55.684 62.353 54.3391 61.3018 52.9654C61.013 52.588 60.9591 52.1066 60.6889 51.7599C60.5164 51.5387 60.222 51.4892 60.0131 51.3165C59.8063 51.1457 59.5786 50.8687 59.4496 50.6338C59.1952 50.1706 59.4251 49.6756 59.5835 49.2233C59.623 49.1106 59.6493 49.0344 59.7313 48.9585C59.8646 48.8348 60.0403 48.8181 60.214 48.7951C60.3168 48.7814 60.4212 48.7759 60.5242 48.7827Z" fill="#EAC5B0"/>
<path d="M68.8036 57.7775C67.9256 57.8808 67.0459 57.8997 66.1888 57.8307C65.8833 57.806 65.5743 57.7688 65.2908 57.6526C64.8487 57.4715 64.5055 57.1157 64.1762 56.7696C62.9922 55.5252 61.7999 54.27 60.8848 52.8165C61.3121 52.5602 61.7395 52.3041 62.167 52.048C62.2484 51.9991 62.336 51.9486 62.431 51.952C62.5528 51.9563 62.652 52.0469 62.7392 52.1321C63.4898 52.8657 64.2404 53.5992 64.9909 54.3329C65.1084 54.4477 65.2358 54.5679 65.3972 54.5989C65.5181 54.6221 65.6423 54.5918 65.7606 54.5577C67.8185 53.9645 69.6543 52.4505 71.5059 51.4129C72.4213 50.9002 73.3737 50.376 74.4195 50.2925C76.6527 50.1145 77.9886 52.7437 76.3261 54.3584C74.3548 56.2729 71.5879 57.4497 68.8036 57.7775Z" fill="#B25CDD"/>
<path d="M71.4168 90.1146L71.4529 92.6605L69.9443 92.6805L69.9043 89.858L71.4168 90.1146Z" fill="#EAC5B0"/>
<path d="M70.0789 92.282L71.3911 92.7157L71.7822 93.1367L71.716 94.1345L68.1693 94.4101C67.8696 93.9737 68.0646 93.382 68.5646 93.2102L68.7296 93.1536L70.0789 92.282Z" fill="#1A3151"/>
<path d="M82.2877 87.6743L83.287 90.0162L81.8988 90.6072L80.791 88.0108L82.2877 87.6743Z" fill="#EAC5B0"/>
<path d="M81.9272 90.6512C81.977 90.5963 82.035 90.544 82.1023 90.4948C82.2691 90.3729 83.614 89.6603 83.7294 89.9815C83.7482 90.0337 83.7422 90.091 83.7356 90.1461C83.6249 91.0703 83.4081 91.9818 83.0908 92.8569C82.955 93.2313 82.7491 93.6459 82.3619 93.7392C82.1922 93.7801 82.0141 93.75 81.8439 93.7113C81.5927 93.6544 81.3456 93.5794 81.1052 93.4873C81.0173 93.4537 80.9238 93.412 80.8782 93.3297C80.7869 93.1648 80.9462 92.9695 81.1124 92.8806C81.2787 92.7918 81.4817 92.7279 81.5629 92.5578C81.5993 92.4815 81.6044 92.3947 81.609 92.3103C81.6427 91.684 81.5364 91.0826 81.9272 90.6512Z" fill="#1A3151"/>
<path d="M72.8125 78.3166C73.3075 80.58 74.7224 82.2058 76.2339 83.8701C77.9634 85.7746 79.5905 87.7723 81.1053 89.8517C81.7601 89.5787 82.415 89.3056 83.0698 89.0325C82.5223 85.852 81.0137 82.9339 79.8446 79.9259C79.0322 77.8355 78.3741 75.6252 78.3384 73.3662C78.3207 72.2428 78.5928 71.2154 78.7385 70.1227C78.9191 68.7693 78.9294 67.382 79.0925 66.0222C79.1473 65.5663 79.1783 65.027 78.8277 64.7304C78.6717 64.5984 78.4658 64.5428 78.2652 64.504C70.8194 63.0621 71.8714 74.013 72.8125 78.3166Z" fill="#3ABABA"/>
<path d="M78.8747 66.4484C78.8786 65.0752 78.711 63.7517 78.4542 62.7423C76.3362 62.6289 73.9425 62.8632 71.8478 63.2882C69.8004 63.7036 68.5236 64.1493 68.5088 66.3693C68.4815 70.4545 66.8849 73.9343 66.1955 77.8609C65.7949 80.1427 66.4872 82.1838 67.2542 84.2971C68.1319 86.7155 68.8795 89.181 69.4922 91.6797C70.2017 91.6754 70.9112 91.6712 71.6205 91.667C72.3206 88.5166 72.0319 85.2442 72.0913 82.0175C72.1326 79.7753 72.3622 77.4805 73.1862 75.3768C74.092 73.0643 75.3964 73.9846 76.8935 72.6436C78.349 71.3401 78.8679 68.8203 78.8747 66.4484Z" fill="#3ABABA"/>
<path d="M76.4719 50.7267C76.7058 50.908 76.9114 51.1267 77.1144 51.3432C77.2963 51.5373 77.4783 51.7313 77.6602 51.9254C78.2905 52.5976 78.6019 53.5928 78.8721 54.4517C80.2939 58.9714 80.8055 65.1722 79.8823 69.8948C76.3804 70.1973 72.3273 69.3144 68.8331 68.837C68.4933 68.7907 68.1085 68.7145 67.9321 68.4205C67.8253 68.2422 67.8222 68.0227 67.8223 67.8149C67.8227 64.8169 68.4562 61.5947 69.0504 58.6392C69.3012 57.392 69.6102 56.1555 70.0063 54.9462C70.4257 53.666 70.8985 52.2838 71.88 51.3154C72.9302 50.2792 74.9409 49.7674 76.2556 50.5764C76.3308 50.6226 76.4026 50.673 76.4719 50.7267Z" fill="#C1A0FD"/>
<path d="M76.1544 51.37C76.2437 50.9626 76.2254 50.4851 76.28 50.1334C76.365 50.0928 76.446 50.0478 76.5208 50C77.9813 49.0674 80.4311 44.0604 76.538 42.9396C73.0031 41.9219 73.187 46.7847 73.8768 48.8123C73.9948 49.1593 74.1527 49.4871 74.3864 49.7714C74.5462 49.9658 74.5821 49.929 74.559 50.1554C74.5232 50.4965 74.2585 50.7842 74.2123 51.1347C74.1407 51.6777 74.3381 52.3788 74.461 52.9055C74.8913 52.6211 75.3215 52.3366 75.7518 52.0523C75.9783 51.9025 76.0923 51.6533 76.1544 51.37Z" fill="#EAC5B0"/>
<path d="M73.0455 46.9756C73.262 47.6224 73.5649 48.2402 73.9438 48.8073C73.9235 47.6105 74.0684 46.411 74.3734 45.2536C74.3967 45.1653 74.4194 45.0654 74.3715 44.9876C74.3267 44.915 74.2358 44.8879 74.1525 44.8699C72.6639 44.548 72.6682 45.8479 73.0455 46.9756Z" fill="#1A3151"/>
<path d="M76.957 48.7789C77.196 49.1148 77.7191 49.0244 78.0875 48.8392C79.6005 48.0786 80.4911 46.2477 80.1555 44.5878C79.8746 43.199 78.1239 42.1574 77.7698 43.8781C77.6444 44.4882 78.0159 45.3336 77.9308 46.0105C77.8093 46.9779 77.3584 47.9029 76.957 48.7789Z" fill="#1A3151"/>
<path d="M73.062 41.6643C72.8925 41.7313 72.7199 41.802 72.5382 41.873C72.1619 42.0201 71.8894 42.0698 71.5015 41.8494C71.3905 41.7864 70.6471 41.0836 70.826 40.9376C69.6403 41.905 70.6155 43.317 71.0602 44.3165C71.3599 44.9902 71.4216 45.9413 72.0954 46.3816C72.8365 46.8659 73.3448 46.2536 74.0177 45.9792C74.6112 45.7371 75.2527 45.6061 75.8567 45.3906C76.8588 45.0331 78.3498 44.4051 78.0179 43.0738C77.6303 41.5189 76.055 41.1314 74.6397 41.2502C74.035 41.3009 73.5616 41.4668 73.062 41.6643Z" fill="#1A3151"/>
<path d="M73.931 54.6247C73.769 55.6475 73.7695 56.6986 73.6232 57.7271C73.543 58.2914 73.4186 58.8483 73.3177 59.4093C73.0314 61 72.9341 62.6179 72.8374 64.2313C72.8184 64.5496 72.7992 64.868 72.7802 65.1863C72.7681 65.3881 72.6854 65.7209 72.7843 65.9138C72.8851 66.1104 73.133 66.1306 73.3195 66.2066C73.5887 66.3164 73.8406 66.4693 74.061 66.6591C74.4713 66.5376 74.7469 66.1336 74.842 65.7165C74.9372 65.2993 74.8848 64.8645 74.8382 64.4391C74.4296 60.7095 74.5021 56.9275 75.0535 53.2162C75.219 53.2908 75.4196 53.1689 75.4961 53.0043C75.5727 52.8397 75.5589 52.6493 75.5436 52.4684C75.5463 52.4996 74.6824 52.4656 74.6169 52.4623C74.1029 52.4367 73.9497 52.5564 73.9494 53.1267C74.2 53.2465 74.1535 53.6102 74.0839 53.8791C74.0201 54.1255 73.9706 54.3743 73.931 54.6247Z" fill="#3ABABA"/>
<path d="M51.6672 92.6995C51.9866 92.7103 52.2934 92.6387 52.6071 92.6097C52.769 89.5001 52.4751 86.241 52.3477 83.1166C51.5488 83.1592 50.75 83.2018 49.9512 83.2444C50.5074 84.9143 50.9046 86.637 51.1368 88.3816C51.1736 88.6581 51.6217 92.698 51.6672 92.6995Z" fill="#EAC5B0"/>
<path d="M52.7062 92.0063C52.9034 91.9712 53.0197 92.0589 53.1512 92.1791C53.2275 92.2489 53.2794 92.3476 53.3715 92.3976C53.4635 92.4475 53.5539 92.4573 53.6633 92.4683C54.2396 92.5262 55.5673 92.5021 54.86 93.466C54.2177 94.3412 52.5118 93.9929 51.5264 93.7551C51.4616 93.7394 51.3931 93.7297 51.3456 93.6795C51.2981 93.6294 51.2661 93.5578 51.2459 93.4838C51.1335 93.072 50.9798 92.5577 51.4861 92.3852C51.7022 92.3115 51.9011 92.4545 52.1298 92.3753C52.317 92.3103 52.5091 92.0414 52.7062 92.0063Z" fill="#1A3151"/>
<path d="M54.1402 84.9921C52.5111 84.9605 50.8821 84.929 49.2529 84.8974C47.9351 78.6238 46.7746 72.3173 45.7728 65.9856C45.6952 65.4947 45.6195 64.9842 45.761 64.5077C46.0285 63.6066 46.9936 63.0923 47.9177 62.9196C49.3537 62.6514 51.9921 63.025 52.7284 64.5179C53.5066 66.0958 53.376 68.9139 53.5648 70.6574C54.0799 75.4154 54.2727 80.2081 54.1402 84.9921Z" fill="#1A3151"/>
<path d="M42.3526 92.6995C42.0333 92.7103 41.7264 92.6387 41.4127 92.6097C41.2508 89.5001 41.5447 86.241 41.6722 83.1166C42.471 83.1592 43.2698 83.2018 44.0686 83.2444C43.5124 84.9143 43.1152 86.637 42.883 88.3816C42.8463 88.6581 42.3982 92.698 42.3526 92.6995Z" fill="#EAC5B0"/>
<path d="M41.3153 92.0063C41.1181 91.9712 41.0018 92.0589 40.8703 92.1791C40.794 92.2489 40.742 92.3476 40.65 92.3976C40.558 92.4475 40.4676 92.4573 40.3582 92.4683C39.7819 92.5262 38.4542 92.5021 39.1615 93.466C39.8038 94.3412 41.5097 93.9929 42.4951 93.7551C42.5599 93.7394 42.6283 93.7297 42.6759 93.6795C42.7234 93.6294 42.7554 93.5578 42.7756 93.4838C42.888 93.072 43.0417 92.5577 42.5354 92.3852C42.3194 92.3115 42.1204 92.4545 41.8917 92.3753C41.7044 92.3103 41.5125 92.0414 41.3153 92.0063Z" fill="#1A3151"/>
<path d="M39.8803 84.992C41.5094 84.9604 43.1385 84.9288 44.7676 84.8973C46.0854 78.6237 47.246 72.3171 48.2477 65.9855C48.3254 65.4946 48.401 64.9841 48.2595 64.5075C47.992 63.6064 47.0269 63.0922 46.1028 62.9195C44.6669 62.6513 42.0284 63.0249 41.292 64.5178C40.5138 66.0957 40.6444 68.9137 40.4556 70.6573C39.9408 75.4153 39.7479 80.208 39.8803 84.992Z" fill="#1A3151"/>
<path d="M54.9822 40.5925C54.9605 40.616 54.9381 40.6404 54.9245 40.6682C54.7968 40.9269 54.8851 41.1382 54.8334 41.4211C54.8103 41.5473 54.5056 41.6736 54.7004 41.8573C54.7724 41.9251 54.9722 42.0664 55.127 42.2095C55.3527 42.4181 55.5126 42.819 55.5809 43.1607C55.849 44.5032 55.7443 45.8815 55.598 47.2416C55.5898 47.3192 55.5798 47.3999 55.5366 47.465C55.4594 47.5813 55.3044 47.6104 55.1664 47.6322C54.5268 47.7332 53.8965 47.8938 53.2867 48.1112C52.7424 48.3052 52.2013 48.5532 51.7938 48.9628C51.3863 49.3725 51.132 49.972 51.2598 50.5355C51.3554 50.9575 51.6673 51.3243 52.0682 51.4869C53.0627 51.8899 54.1686 50.7789 54.9286 50.2609C55.6476 49.7708 56.3324 49.2303 56.9758 48.6446C57.0552 48.5722 57.1361 48.4965 57.1807 48.3988C57.2282 48.2946 57.2299 48.1762 57.2304 48.0617C57.2366 46.5873 57.1126 45.1207 56.9582 43.649C56.9158 43.2446 56.6661 42.9138 56.6303 42.5396C56.6074 42.3007 56.7613 42.0968 56.7897 41.8666C56.8176 41.6389 56.7963 41.3328 56.7384 41.1111C56.6242 40.6737 56.1902 40.5013 55.8259 40.3134C55.7352 40.2666 55.674 40.2347 55.5784 40.2357C55.4228 40.2373 55.3038 40.3302 55.1824 40.4181C55.1103 40.4698 55.0423 40.5278 54.9822 40.5925Z" fill="#EAC5B0"/>
<path d="M55.1008 51.0743C55.738 50.6254 56.3342 50.1212 56.9553 49.619C57.0675 49.5282 57.1834 49.4331 57.246 49.3029C57.3015 49.1876 57.3098 49.056 57.3164 48.9283C57.4063 47.1902 57.3694 45.4457 57.2063 43.7129C56.6519 43.7556 56.0974 43.7983 55.543 43.8411C55.5259 44.6639 55.5087 45.4868 55.4916 46.3096C55.4864 46.5566 55.4776 46.817 55.3479 47.0274C55.2039 47.2611 54.9397 47.3874 54.6899 47.5014C53.9184 47.8534 53.2696 47.8806 52.4476 47.8886C51.0351 47.9024 49.6246 48.1176 48.2729 48.5275C48.0149 48.6057 47.7325 48.7132 47.6161 48.9564C47.5518 49.0907 47.5499 49.2454 47.5494 49.3942C47.547 50.085 47.5453 50.7824 47.6937 51.457C47.8112 51.9909 48.1337 52.9703 48.6675 53.2475C49.1834 53.5153 50.0884 53.2358 50.6327 53.1161C51.7771 53.1161 53.07 52.2532 54.0373 51.7363C54.4102 51.537 54.7613 51.3135 55.1008 51.0743Z" fill="#9EA6AD"/>
<path d="M44.057 50.5907C43.7008 51.0367 43.2568 51.422 42.9072 51.8834C42.1727 52.853 41.5924 53.94 41.1843 55.0854C40.1409 58.0144 40.1208 61.1417 40.1112 64.2062C40.108 65.2262 40.1049 66.2462 40.1016 67.266C40.0984 68.2696 40.1873 68.4856 41.2778 68.3532C43.2988 68.108 45.3997 67.6914 47.2309 66.7933C48.1023 66.366 48.9166 65.8262 49.8303 65.4897C51.1592 65.0003 52.5216 65.2219 53.8364 64.9034C53.2655 63.178 52.8571 61.7084 52.5641 59.9307C52.2625 58.1002 51.9883 56.1036 51.5462 54.2977C51.281 53.2141 50.7877 52.2017 50.286 51.2053C50.0979 50.8318 49.9066 50.4576 49.6713 50.1109C49.5482 49.9294 49.4136 49.755 49.2621 49.596C49.1531 49.4817 49.0465 49.2811 48.8956 49.2366C48.4812 49.1144 48.0595 49.0167 47.6336 48.9441C47.5585 48.8631 47.6116 48.6946 47.5108 48.6494C47.4838 48.6373 47.4528 48.6392 47.4233 48.6414C46.8251 48.6856 46.227 48.7298 45.6288 48.774C45.6072 48.8838 45.642 48.9956 45.6591 49.106C45.6763 49.2166 45.6699 49.3442 45.5875 49.4198C45.5379 49.4655 45.4697 49.4834 45.4051 49.5029C45.3839 49.5093 45.3629 49.5159 45.3419 49.5229C44.7658 49.7152 44.4447 50.0942 44.087 50.5523C44.0773 50.5652 44.0671 50.578 44.057 50.5907Z" fill="#9EA6AD"/>
<path d="M61.3288 27.7302L41.2789 27.7834C39.8375 27.7873 38.672 28.9745 38.6758 30.4352L38.6982 39.0943C38.7019 40.555 39.8735 41.736 41.315 41.7322L61.3648 41.679C62.8062 41.6752 63.9717 40.4879 63.9679 39.0272L63.9455 30.3682C63.9417 28.9075 62.7702 27.7264 61.3288 27.7302Z" fill="url(#paint1_linear_593_8818)"/>
<g opacity="0.08">
<path d="M61.2426 27.7304L51.291 27.7568L51.327 41.7055L61.2787 41.6791C62.7656 41.6752 63.9678 40.4504 63.964 38.9437L63.942 30.4515C63.9381 28.9448 62.7296 27.7264 61.2426 27.7304Z" fill="black"/>
</g>
<path d="M60.9425 28.6509L41.6658 28.702C40.6109 28.7048 39.755 29.5767 39.7578 30.6456L39.7791 38.878C39.7819 39.9468 40.6423 40.8142 41.6971 40.8114L60.9739 40.7603C62.0286 40.7575 62.8845 39.8855 62.8818 38.8167L62.8605 30.5843C62.8577 29.5154 61.9974 28.6481 60.9425 28.6509Z" fill="url(#paint2_linear_593_8818)"/>
<path opacity="0.11" d="M60.9411 28.651L51.3027 28.6766L51.334 40.7858L60.9724 40.7603C62.0272 40.7575 62.8831 39.8856 62.8804 38.8167L62.8591 30.5843C62.8563 29.5155 61.9959 28.6482 60.9411 28.651Z" fill="#C1A0FD"/>
<path d="M50.2853 36.8086C50.2867 37.3109 50.1133 37.737 49.7654 38.0874C49.4174 38.4378 48.9977 38.6137 48.5062 38.615L48.417 38.6152C47.9214 38.6166 47.5009 38.4409 47.1551 38.0884C46.8093 37.7358 46.6359 37.3124 46.6346 36.8184L46.6328 36.1315C46.6317 35.6696 46.7831 35.2654 47.0875 34.9191C47.218 34.7703 47.3702 34.6473 47.5444 34.5504C47.2427 34.3945 47.0081 34.1341 46.8407 33.7689C46.7569 33.5804 46.7147 33.3435 46.714 33.0582L46.7129 32.6484C46.7117 32.1584 46.8533 31.7523 47.1378 31.4302C47.454 31.0679 47.8737 30.886 48.397 30.8846L48.4861 30.8844C49.0133 30.883 49.4359 31.0627 49.754 31.4234C50.0403 31.7479 50.1841 32.1534 50.1853 32.6393L50.1863 33.0491C50.1876 33.519 50.0497 33.9091 49.7732 34.2191C49.6506 34.356 49.5141 34.4649 49.3637 34.5455C49.6972 34.7335 49.9556 35.02 50.1389 35.4051C50.2346 35.6017 50.2827 35.8406 50.2835 36.1217L50.2853 36.8086ZM49.1873 32.9523C49.178 32.4356 49.0166 32.1116 48.7032 31.9803C48.6318 31.9485 48.5464 31.9326 48.4474 31.9329C48.2532 31.9335 48.0946 31.988 47.9722 32.0964C47.8732 32.1848 47.8032 32.2982 47.7619 32.4365C47.7206 32.5748 47.7042 32.748 47.7127 32.9562C47.7255 33.2846 47.7775 33.5208 47.8692 33.6647C47.9886 33.8566 48.183 33.9522 48.4525 33.9515C48.722 33.9507 48.918 33.8481 49.0405 33.6436C49.143 33.4711 49.1918 33.2406 49.1873 32.9523ZM49.1602 36.2754C49.159 35.8255 49.0572 35.5246 48.8547 35.3724C48.7593 35.3003 48.6264 35.2645 48.456 35.265C48.1586 35.2659 47.9568 35.395 47.8504 35.6522C47.7874 35.8091 47.7563 36.0181 47.7569 36.2791L47.7579 36.6406C47.7585 36.8897 47.8343 37.0903 47.9853 37.2425C48.1125 37.3708 48.2712 37.4386 48.4614 37.4462C48.7667 37.4294 48.9783 37.2761 49.0965 36.9865C49.1398 36.89 49.1614 36.7734 49.161 36.6369L49.1602 36.2754Z" fill="white"/>
<path d="M45.6073 36.799C45.6086 37.3012 45.4353 37.7273 45.0874 38.0778C44.7394 38.4281 44.3217 38.604 43.8342 38.6054C43.3387 38.6067 42.917 38.4322 42.5694 38.0815C42.2215 37.731 42.0471 37.3067 42.0458 36.8085L42.0352 32.6871C42.0338 32.185 42.2071 31.7579 42.5551 31.4053C42.9029 31.0529 43.3226 30.8761 43.8142 30.8748C44.3097 30.8734 44.7303 31.0491 45.0761 31.4016C45.4219 31.7542 45.5954 32.1795 45.5968 32.6776L45.6073 36.799ZM44.4312 32.6567C44.4308 32.4759 44.3669 32.3215 44.2398 32.1932C44.1126 32.065 43.9599 32.0012 43.7815 32.0016C43.6031 32.0021 43.4516 32.0668 43.3271 32.1956C43.2026 32.3245 43.1405 32.4793 43.141 32.66L43.1516 36.7874C43.1521 36.9682 43.215 37.1226 43.3401 37.2509C43.4653 37.3792 43.6171 37.4429 43.7955 37.4425C43.9738 37.442 44.1262 37.3774 44.2529 37.2485C44.3793 37.1196 44.4424 36.9649 44.4419 36.7841L44.4312 32.6567Z" fill="white"/>
<path d="M56.0858 36.782C56.0872 37.2843 55.9138 37.7104 55.5659 38.0608C55.218 38.4113 54.8002 38.5871 54.3127 38.5884C53.8172 38.5898 53.3955 38.4152 53.0479 38.0645C52.7 37.714 52.5256 37.2897 52.5243 36.7916L52.5137 32.6702C52.5124 32.1681 52.6856 31.7409 53.0336 31.3884C53.3815 31.036 53.8012 30.8591 54.2927 30.8578C54.7882 30.8564 55.2088 31.0321 55.5546 31.3847C55.9004 31.7373 56.0739 32.1626 56.0753 32.6606L56.0858 36.782ZM54.9098 32.6397C54.9093 32.459 54.8455 32.3045 54.7183 32.1762C54.5911 32.0481 54.4384 31.9842 54.26 31.9846C54.0816 31.9851 53.9302 32.0498 53.8056 32.1786C53.6811 32.3075 53.6191 32.4623 53.6195 32.643L53.6301 36.7704C53.6305 36.9512 53.6934 37.1058 53.8187 37.2339C53.9438 37.3622 54.0956 37.426 54.2741 37.4256C54.4525 37.4251 54.6049 37.3604 54.7314 37.2316C54.8578 37.1027 54.9209 36.9479 54.9204 36.7671L54.9098 32.6397Z" fill="white"/>
<path d="M60.6151 36.7702C60.6165 37.2724 60.4431 37.6985 60.0952 38.049C59.7473 38.3994 59.3295 38.5752 58.842 38.5766C58.3465 38.5779 57.9248 38.4034 57.5772 38.0527C57.2293 37.7022 57.055 37.2779 57.0536 36.7797L57.043 32.6583C57.0416 32.1562 57.2149 31.7291 57.5629 31.3765C57.9108 31.0241 58.3305 30.8473 58.822 30.846C59.3175 30.8446 59.7381 31.0203 60.0839 31.3728C60.4297 31.7254 60.6032 32.1508 60.6046 32.6488L60.6151 36.7702ZM59.439 32.6278C59.4385 32.447 59.3748 32.2926 59.2476 32.1643C59.1204 32.0361 58.9677 31.9722 58.7893 31.9727C58.6109 31.9731 58.4595 32.0378 58.3349 32.1667C58.2104 32.2956 58.1484 32.4503 58.1488 32.6311L58.1594 36.7585C58.1598 36.9393 58.2227 37.0938 58.348 37.222C58.4731 37.3503 58.6249 37.414 58.8033 37.4136C58.9817 37.4131 59.134 37.3485 59.2607 37.2196C59.3872 37.0907 59.4502 36.9359 59.4497 36.7552L59.439 32.6278Z" fill="white"/>
<path d="M50.8555 32.9561L51.7757 32.9536L51.7781 33.8912L50.8578 33.8936L50.8555 32.9561ZM50.8622 35.5813L51.7825 35.5788L51.7848 36.5065L50.8646 36.509L50.8622 35.5813Z" fill="white"/>
<path d="M62.4071 92.0283C72.8586 91.031 80.5227 81.7497 79.5253 71.2981C78.5279 60.8465 69.2467 53.1823 58.7952 54.1797C48.3437 55.1771 40.6796 64.4583 41.677 74.9099C42.6744 85.3616 51.9556 93.0257 62.4071 92.0283Z" fill="url(#paint3_linear_593_8818)"/>
<path d="M60.9262 89.5726C70.0233 89.3943 77.2534 81.8749 77.0751 72.7777C76.8967 63.6805 69.3775 56.4503 60.2804 56.6286C51.1833 56.807 43.9532 64.3263 44.1315 73.4235C44.3099 82.5208 51.8291 89.7509 60.9262 89.5726Z" fill="#C1A0FD"/>
<g opacity="0.07">
<path d="M67.1449 58.0627C70.416 59.9237 72.814 63.012 74.4646 66.7195C76.8387 72.0522 72.9965 83.874 64.6503 87.8512C60.6984 89.7344 56.2159 89.1172 52.4883 87.5148C56.5515 89.8263 61.5659 90.4036 66.3001 88.6723C74.8455 85.5471 79.2394 76.0861 76.1142 67.5406C74.4926 63.1065 71.165 59.7908 67.1449 58.0627Z" fill="#EBB044"/>
</g>
<path d="M59.5012 73.4851L59.6994 74.1063C59.7519 74.2708 59.9276 74.3616 60.0922 74.3091L75.1359 69.5105C75.3004 69.458 75.3911 69.2822 75.3388 69.1177L75.1406 68.4965C75.0881 68.332 74.9122 68.2412 74.7478 68.2937L59.7039 73.0923C59.5395 73.1448 59.4487 73.3207 59.5012 73.4851Z" fill="white"/>
<path d="M60.8206 71.8528L58.0414 64.2532C57.9212 63.9245 57.5574 63.7556 57.2287 63.8758C56.9 63.996 56.731 64.3599 56.8512 64.6886L59.6304 72.288C59.3502 72.6238 59.2508 73.0951 59.4118 73.5353C59.6522 74.1927 60.3799 74.5306 61.0373 74.2903C61.6947 74.0499 62.0326 73.322 61.7922 72.6647C61.6313 72.2245 61.2514 71.9288 60.8206 71.8528Z" fill="#EBB044"/>
<path d="M14.184 60.4641L34.2788 58.0874C35.6166 57.9292 36.8285 58.8779 36.9857 60.2064L38.603 73.8785C38.7602 75.207 37.803 76.4121 36.4652 76.5703L16.3704 78.947C15.0326 79.1051 13.8207 78.1565 13.6635 76.828L12.0462 63.156C11.889 61.8276 12.8462 60.6224 14.184 60.4641Z" fill="url(#paint4_linear_593_8818)"/>
<path d="M30.4006 68.5626L35.1896 67.9962C35.5504 67.9536 35.8084 67.6286 35.766 67.2704L35.2034 62.5149C35.1611 62.1567 34.8343 61.9008 34.4735 61.9435L29.6845 62.5099C29.3237 62.5526 29.0657 62.8775 29.1081 63.2357L29.6706 67.9912C29.7131 68.3494 30.0399 68.6053 30.4006 68.5626Z" fill="white"/>
<path d="M31.2912 75.7507L36.0801 75.1843C36.4409 75.1417 36.6989 74.8167 36.6565 74.4584L36.094 69.703C36.0516 69.3448 35.7249 69.0889 35.364 69.1316L30.5752 69.698C30.2145 69.7407 29.9563 70.0656 29.9987 70.4238L30.5613 75.1793C30.6036 75.5377 30.9305 75.7934 31.2912 75.7507Z" fill="white"/>
<path d="M22.9241 69.4466L27.713 68.8802C28.0737 68.8375 28.3318 68.5126 28.2894 68.1543L27.7269 63.3988C27.6845 63.0406 27.3577 62.7847 26.9969 62.8274L22.208 63.3938C21.8472 63.4366 21.5892 63.7615 21.6315 64.1198L22.1941 68.8752C22.2365 69.2335 22.5633 69.4893 22.9241 69.4466Z" fill="white"/>
<path d="M23.8146 76.6352L28.6035 76.0688C28.9643 76.0262 29.2224 75.7012 29.18 75.343L28.6174 70.5875C28.5751 70.2293 28.2482 69.9735 27.8874 70.0161L23.0986 70.5825C22.7378 70.6252 22.4797 70.9502 22.5221 71.3085L23.0847 76.064C23.127 76.4221 23.4538 76.6779 23.8146 76.6352Z" fill="white"/>
<path d="M15.4475 70.331L20.2365 69.7646C20.5972 69.722 20.8552 69.397 20.8129 69.0387L20.2503 64.2832C20.208 63.925 19.8811 63.6691 19.5203 63.7118L14.7314 64.2782C14.3706 64.3209 14.1125 64.6458 14.155 65.0042L14.7175 69.7596C14.76 70.1179 15.0868 70.3737 15.4475 70.331Z" fill="white"/>
<path d="M16.338 77.5193L21.127 76.9529C21.4877 76.9102 21.7458 76.5851 21.7034 76.2269L21.1409 71.4714C21.0985 71.1132 20.7717 70.8574 20.4109 70.9L15.622 71.4664C15.2612 71.5091 15.0031 71.8341 15.0456 72.1924L15.6082 76.9479C15.6505 77.3062 15.9772 77.562 16.338 77.5193Z" fill="white"/>
<path d="M31.3805 56.4343L32.079 56.3517C32.4609 56.3066 32.8068 56.5773 32.8516 56.9564L33.1554 59.5246C33.2003 59.9037 32.9272 60.2476 32.5453 60.2929L31.8467 60.3755C31.4649 60.4206 31.1191 60.1499 31.0742 59.7708L30.7704 57.2026C30.7256 56.8235 30.9987 56.4795 31.3805 56.4343Z" fill="#9EA6AD"/>
<path d="M15.734 58.2848L16.4326 58.2022C16.8144 58.157 17.1603 58.4278 17.2051 58.8069L17.509 61.375C17.5538 61.7542 17.2807 62.0981 16.8989 62.1432L16.2003 62.2258C15.8184 62.271 15.4726 62.0002 15.4277 61.6211L15.124 59.053C15.079 58.674 15.3523 58.33 15.734 58.2848Z" fill="#9EA6AD"/>
<path d="M24.9072 65.8351C24.9056 65.8018 24.9034 65.7673 24.8926 65.7369C24.792 65.4535 24.5697 65.3659 24.3959 65.1216C24.3183 65.0126 24.4454 64.693 24.1664 64.7052C24.0634 64.7097 23.8124 64.7564 23.5929 64.7681C23.2729 64.7852 22.8569 64.6135 22.5518 64.4161C21.3531 63.6408 20.3986 62.5607 19.488 61.4628C19.4361 61.4001 19.3829 61.3341 19.3656 61.2546C19.3348 61.1123 19.4257 60.9752 19.5096 60.8563C19.899 60.3046 20.237 59.7166 20.5178 59.1025C20.7683 58.5545 20.9762 57.9697 20.9661 57.3673C20.9559 56.7648 20.6924 56.1389 20.1782 55.8249C19.7932 55.5898 19.1989 55.4196 18.8792 55.7379C18.3099 56.3048 17.8818 57.823 17.7168 58.7678C17.5607 59.6617 17.4671 60.5664 17.4374 61.4733C17.4337 61.5853 17.4316 61.7008 17.4723 61.8052C17.5156 61.9165 17.6029 62.0038 17.6882 62.0873C18.7862 63.1636 19.973 64.137 21.1857 65.0912C21.5188 65.3535 21.9476 65.4072 22.2536 65.6525C22.4488 65.809 22.4894 66.0722 22.641 66.2607C22.7909 66.4472 23.0353 66.6537 23.2432 66.7716C23.6533 67.0041 24.0976 66.8049 24.5029 66.6691C24.6039 66.6353 24.6721 66.6128 24.7409 66.5405C24.8529 66.423 24.8699 66.2666 24.8925 66.1119C24.9058 66.0201 24.9119 65.927 24.9072 65.8351Z" fill="#EAC5B0"/>
<path d="M17.4099 58.6454C17.4091 58.6496 17.4084 58.6537 17.4075 58.6578C17.2185 59.6605 17.1304 60.6928 17.1724 61.713C17.1919 62.1863 17.4729 62.3056 17.8232 62.6017C18.2248 62.941 18.6264 63.2804 19.0281 63.6198C19.4589 63.0995 19.9405 62.6216 20.4637 62.1945C20.2546 61.9277 19.7519 61.4382 19.82 61.1183C19.8998 60.7427 20.2983 60.2799 20.4687 59.9232C20.869 59.0852 21.1916 58.2131 21.5086 57.3411C21.9594 56.101 22.4004 54.8574 22.8315 53.6104C22.9372 53.3045 23.0435 52.9918 23.0468 52.6682C23.05 52.3445 22.9324 52.0023 22.669 51.8143C22.3924 51.6169 22.0073 51.6285 21.6959 51.7642C21.3845 51.8998 21.1328 52.1416 20.9001 52.3892C20.4846 52.831 20.1057 53.3074 19.7687 53.8115C19.4537 54.2829 19.1756 54.7777 18.8979 55.2719C18.6604 55.6946 18.4229 56.1175 18.1854 56.5402C18.0484 56.7841 17.9111 57.0285 17.7995 57.285C17.6109 57.7185 17.4979 58.181 17.4099 58.6454Z" fill="#EBB044"/>
<path d="M45.5278 63.7792C45.5323 63.7475 45.5368 63.7147 45.5322 63.6842C45.49 63.3988 45.2971 63.2752 45.1788 63.0132C45.126 62.8963 45.3047 62.6191 45.0399 62.5789C44.9422 62.5641 44.6974 62.5615 44.4887 62.532C44.1845 62.4888 43.8248 62.2502 43.5744 62.008C43.2377 61.6826 42.8888 61.3303 42.6068 60.9613C42.0142 60.1858 41.44 59.2575 41.0052 58.3824C42.4184 57.6 43.3233 55.9795 43.248 54.3659C43.2401 54.1972 43.2204 54.0228 43.1337 53.8779C43.0603 53.7556 42.9444 53.6642 42.8226 53.5899C41.5336 52.8041 40.8442 54.059 40.2463 55.047C39.8732 55.6636 39.5336 56.3131 39.2554 56.9784C38.8657 57.9101 39.1732 58.7236 39.7125 59.5469C40.2841 60.4193 40.8788 61.2929 41.6258 62.0269C41.9888 62.3837 42.3929 62.6464 42.7953 62.9497C43.1931 63.2496 43.0374 63.4099 43.3182 63.7617C43.475 63.958 43.5976 64.1877 43.7888 64.352C44.1316 64.6467 44.5866 64.5416 44.9931 64.4888C45.0944 64.4757 45.1627 64.4671 45.2409 64.4119C45.3679 64.322 45.4129 64.178 45.4628 64.0366C45.4921 63.953 45.5151 63.8666 45.5278 63.7792Z" fill="#EAC5B0"/>
<path d="M43.6478 49.5649C41.9904 50.68 40.6862 52.3539 39.9154 54.1893C39.5681 55.0164 38.9881 55.6709 38.8284 56.5858C38.6686 57.5017 38.8114 58.4718 39.1823 59.3208C39.8258 60.7938 41.045 61.9342 42.316 62.9183C42.6014 62.487 42.8869 62.0558 43.1723 61.6245C43.2233 61.5473 43.2761 61.4652 43.2809 61.3729C43.286 61.2761 43.2374 61.1854 43.1904 61.1006C42.7832 60.3666 42.3762 59.6325 41.969 58.8985C41.8853 58.7477 41.7999 58.5912 41.7848 58.4195C41.7428 57.9412 42.2419 57.5703 42.3132 57.1015C42.3598 57.1389 42.4064 57.1764 42.4529 57.2139C42.4095 57.179 45.108 54.2968 45.2628 54.1197C45.8534 53.444 46.4604 52.7392 46.7148 51.8785C47.2581 50.0404 45.2929 48.4581 43.6478 49.5649Z" fill="#9EA6AD"/>
<path d="M75.873 68.4224C75.8512 68.3919 75.8292 68.3602 75.8175 68.3261C75.7086 68.0069 75.8429 67.7753 75.8257 67.4395C75.818 67.2898 75.4838 67.0974 75.7376 66.9139C75.8311 66.8462 76.0843 66.7126 76.2852 66.5701C76.5783 66.3624 76.8243 65.9219 76.9551 65.5362C77.2025 64.8062 77.0497 62.5708 78.0103 62.3221C80.2675 61.7379 78.1723 66.0007 78.0775 66.4148C78.0149 66.6882 78.1624 66.9478 78.1604 67.2189C78.1585 67.4871 78.0875 67.8386 77.9868 68.087C77.7883 68.5767 77.2592 68.711 76.8086 68.8737C76.6963 68.9143 76.6207 68.9419 76.5099 68.9264C76.3298 68.9011 76.2058 68.7755 76.0784 68.6553C76.003 68.584 75.9328 68.5065 75.873 68.4224Z" fill="#EAC5B0"/>
<path d="M78.1387 52.3935C78.2187 52.5046 78.304 52.6709 78.4316 52.8622C79.1014 53.866 79.3992 55.4001 79.6359 56.5648C80.1403 59.046 80.1005 61.6405 79.4892 64.0992C79.4668 64.1894 79.4374 64.288 79.3584 64.337C79.2805 64.3852 79.1804 64.3687 79.0905 64.3504C78.5295 64.2367 77.9685 64.1229 77.4075 64.0091C77.2867 63.9846 77.16 63.9572 77.0673 63.8761C76.8863 63.7177 76.9096 63.435 76.9435 63.1969C77.1651 61.6379 77.1835 60.0504 77.0017 58.4863C76.9157 57.7472 76.5386 56.838 76.5838 56.1092C76.6245 55.4538 77.0041 54.7467 77.0565 54.0294C77.088 53.5993 77.1351 52.96 77.4398 52.6198C77.8431 52.1697 77.9801 52.173 78.1387 52.3935Z" fill="#B25CDD"/>
<path d="M94.5684 80.4149L94.6439 85.0093C94.6131 86.2841 94.7279 87.5548 94.8054 88.8254C94.8775 90.0055 94.6396 91.2219 95.1995 92.3157C95.3751 92.6587 95.7487 92.8975 96.033 92.5014C96.252 92.1961 96.1512 91.6678 96.2054 91.3134C96.612 88.65 97.369 86.0526 97.7467 83.3842C98.1423 80.5889 97.0609 80.6627 94.5684 80.4149Z" fill="#EAC5B0"/>
<path d="M94.8266 91.5301L94.5312 92.2965L95.9848 93.5759L97.3164 93.6308L97.747 92.9283L95.9561 91.3711L94.8266 91.5301Z" fill="#1A3151"/>
<path d="M91.3138 80.4595L90.4757 84.9776C90.1852 86.9987 89.5249 88.967 89.2345 90.9883C89.1677 91.453 89.2014 91.9614 89.0071 92.3998C88.8172 92.8286 88.4452 92.8456 88.117 92.5547C87.6773 92.1649 87.8801 91.4684 87.8882 90.9359C87.9419 87.3889 87.663 83.8922 87.5958 80.3394C87.595 80.2928 87.597 80.2394 87.633 80.2099C87.6623 80.1859 87.704 80.1864 87.7418 80.1889C88.0868 80.2119 91.2956 80.5571 91.3138 80.4595Z" fill="#EAC5B0"/>
<path d="M87.8767 91.719L87.416 92.399L88.5432 93.9734L89.828 94.3274L90.4061 93.7402L89.013 91.819L87.8767 91.719Z" fill="#1A3151"/>
<path d="M96.9906 91.4006L98.0259 82.3936L98.3713 72.5016L97.3549 69.0159L91.867 68.1642L85.082 69.3271L84.7559 70.6454L87.5695 84.4642V91.7112L89.433 91.8147L91.2965 84.6713L92.6424 72.9725L94.2988 82.4971L94.5059 91.2971L96.9906 91.4006Z" fill="#C1A0FD"/>
<path d="M98.6199 58.3612C98.6173 58.3309 98.6143 58.3004 98.6088 58.2705C98.0501 55.2374 99.2071 52.9227 97.0045 50.2139C95.8187 48.7556 95.2089 48.9305 93.628 48.5429C93.2629 48.4534 92.5123 48.1858 92.5549 48.748C92.0528 48.7333 91.5495 48.7814 91.0606 48.8925L91.0436 48.6807C90.1649 48.8863 89.006 48.9487 88.1964 49.3154C87.3276 49.7089 86.5407 50.9865 86.0942 51.7835C84.5599 54.5227 85.1831 57.8738 85.186 60.8943C85.1868 61.7341 84.6192 70.7335 85.0505 70.7553C87.7398 70.891 90.3708 69.9579 93.0333 70.2099C94.6101 70.3591 96.1681 70.7501 97.714 70.967C97.8191 70.9818 97.9366 70.9839 98.0192 70.9172C98.1115 70.8427 98.1272 70.7104 98.136 70.592C98.2985 68.3966 98.302 66.1333 98.4237 63.9144C98.5233 62.0983 98.7775 60.1794 98.6199 58.3612Z" fill="#B25CDD"/>
<path d="M93.5254 35.935L95.3164 43.7765C95.8129 45.9497 97.8696 47.397 100.059 47.2138C99.9341 47.2569 99.812 47.3052 99.6931 47.3584C97.8469 48.1846 96.7829 50.1967 97.2493 52.2385L99.0404 60.08L110.319 57.7097L108.528 49.8682C108.031 47.6949 105.975 46.2476 103.785 46.4309C103.91 46.3878 104.032 46.3395 104.151 46.2863C105.997 45.46 107.061 43.448 106.595 41.4062L104.804 33.5647L93.5254 35.935Z" fill="white"/>
<path d="M106.198 33.9738L92.4123 36.871C92.0302 36.9514 91.6505 36.7108 91.5644 36.3336C91.4783 35.9564 91.7182 35.5856 92.1004 35.5054L105.886 32.6081C106.268 32.5278 106.648 32.7685 106.734 33.1456C106.82 33.5226 106.58 33.8934 106.198 33.9738Z" fill="#1A3151"/>
<path d="M111.714 58.1191L97.9279 61.0164C97.5458 61.0967 97.1661 60.8561 97.08 60.479C96.9939 60.1018 97.2339 59.731 97.616 59.6506L111.402 56.7534C111.784 56.673 112.164 56.9137 112.25 57.2908C112.336 57.6681 112.096 58.0389 111.714 58.1191Z" fill="#1A3151"/>
<path d="M108.273 50.5508C107.225 47.6385 105 47.5428 104.706 47.5131C104.557 47.5095 104.423 47.4063 104.389 47.2566C104.349 47.0814 104.46 46.9091 104.638 46.8717C104.659 46.8674 104.68 46.8652 104.7 46.8648C104.7 46.8644 104.701 46.864 104.701 46.8636C104.705 46.8641 104.709 46.8646 104.714 46.865C104.733 46.8654 104.752 46.8673 104.771 46.8709C107.61 47.2875 108.273 50.5508 108.273 50.5508Z" fill="#F7F7F8"/>
<path d="M103.981 47.3792C103.843 47.4082 103.705 47.3213 103.674 47.1851C103.643 47.0488 103.73 46.9149 103.868 46.8858C104.006 46.8568 104.143 46.9438 104.174 47.08C104.205 47.2162 104.119 47.3502 103.981 47.3792Z" fill="#F7F7F8"/>
<path d="M95.6836 42.3945L95.9679 43.6393C96.1887 44.6063 96.778 45.4353 97.627 45.9735C98.4761 46.5118 99.4833 46.6947 100.463 46.4888L100.654 46.4487C101.172 46.503 101.639 46.9049 101.758 47.4239L102.793 51.9592C102.938 52.5924 102.535 53.2152 101.893 53.3501L102.024 53.3226C101.044 53.5285 100.209 54.0988 99.6723 54.9282C99.1356 55.7576 98.9616 56.747 99.1826 57.714L99.4668 58.9587L109.44 56.8629L109.155 55.6182C108.934 54.6511 108.345 53.8222 107.496 53.2839C106.647 52.7457 105.64 52.5627 104.66 52.7686L104.739 52.752C104.098 52.8869 103.46 52.4828 103.316 51.8495L102.28 47.3142C102.161 46.7956 102.392 46.2469 102.832 45.991L103.099 45.935C104.079 45.7291 104.914 45.1589 105.451 44.3295C105.988 43.5001 106.162 42.5107 105.941 41.5436L105.656 40.2986L95.6836 42.3945Z" fill="url(#paint5_linear_593_8818)"/>
<path d="M90.5911 52.5792C90.3964 53.7138 90.4739 54.8752 90.5519 56.0238C90.5849 56.5086 90.6194 57.0011 90.7875 57.4572C90.9962 58.0236 91.3956 58.4947 91.756 58.979C92.5676 60.0698 93.4409 66.6159 93.8889 67.8997C94.2585 66.4982 94.3992 59.7655 94.7688 58.3642C95.0187 57.4164 95.2703 56.4575 95.2886 55.4774C95.3245 53.5598 94.473 51.7507 93.6403 50.023C93.5164 49.766 93.3899 49.505 93.1985 49.2933C92.6623 48.7 91.4524 48.6214 91.0223 49.3687C90.8221 49.7165 90.9185 50.1759 90.8977 50.5517C90.8592 51.2414 90.7075 51.9001 90.5911 52.5792Z" fill="white"/>
<path d="M93.2027 52.9682C93.3647 53.991 93.3642 55.0421 93.5104 56.0706C93.5907 56.6349 93.715 57.1918 93.816 57.7528C94.1022 59.3435 94.1995 60.9614 94.2962 62.5748C94.3153 62.8931 94.3344 63.2115 94.3535 63.5298C94.3656 63.7316 94.4482 64.0644 94.3493 64.2573C94.2485 64.4539 94.0007 64.4741 93.8142 64.5501C93.5449 64.6599 93.293 64.8129 93.0726 65.0026C92.6623 64.8811 92.3867 64.4771 92.2916 64.06C92.1965 63.6428 92.2488 63.2081 92.2954 62.7827C92.7041 59.053 92.6316 55.271 92.0802 51.5597C91.9147 51.6343 91.714 51.5124 91.6375 51.3478C91.561 51.1832 91.5748 50.9928 91.5901 50.8119C91.5874 50.8431 92.4512 50.8091 92.5168 50.8058C93.0308 50.7802 93.1839 50.8999 93.1842 51.4703C92.9337 51.59 92.9802 51.9537 93.0497 52.2226C93.1135 52.469 93.163 52.7178 93.2027 52.9682Z" fill="#3ABABA"/>
<path d="M103.906 56.9833C103.871 56.9664 103.835 56.9493 103.798 56.9432C103.454 56.8866 103.241 57.063 102.896 57.1025C102.742 57.1202 102.489 56.8123 102.345 57.1022C102.292 57.2091 102.198 57.4899 102.087 57.7191C101.926 58.0533 101.518 58.3792 101.147 58.5782C99.6896 59.3602 98.0595 59.7237 96.4356 60.0326C96.343 60.0502 96.2461 60.0672 96.1559 60.0401C95.9943 59.9918 95.9062 59.8227 95.8324 59.671C95.4908 58.967 95.0836 58.2949 94.6178 57.6661C94.2023 57.1051 93.7253 56.5666 93.1085 56.2396C92.4917 55.9126 91.7091 55.8293 91.1026 56.1751C90.6484 56.434 90.3339 56.9234 90.287 57.4442C90.1707 58.7356 91.8438 59.6235 92.7098 60.32C93.5291 60.9789 94.3946 61.5806 95.298 62.1185C95.4095 62.185 95.5256 62.2517 95.6543 62.269C95.7914 62.2873 95.9289 62.2476 96.0614 62.2079C97.7681 61.6968 99.42 61.0379 101.067 60.342C101.52 60.1508 101.814 59.7459 102.235 59.5729C102.503 59.4626 102.792 59.5687 103.068 59.5205C103.342 59.4728 103.688 59.3406 103.924 59.1957C104.389 58.9098 104.436 58.3476 104.525 57.8603C104.548 57.739 104.563 57.6571 104.528 57.5469C104.472 57.3675 104.322 57.2626 104.178 57.1531C104.093 57.0883 104.002 57.0299 103.906 56.9833Z" fill="#EAC5B0"/>
<path d="M91.9362 60.7152C92.5191 61.1471 93.1046 61.5793 93.655 62.0723C94.0206 62.3997 94.392 62.7578 94.8671 62.8808C95.168 62.9586 95.4851 62.9343 95.794 62.9001C97.7081 62.6886 99.5822 62.1205 101.292 61.2337C101.451 61.1508 101.617 61.0586 101.712 60.9054C101.876 60.6404 101.773 60.2979 101.667 60.0049C101.542 59.6607 101.418 59.3165 101.293 58.9724C101.256 58.8702 101.213 58.7604 101.12 58.7035C101.034 58.6503 100.924 58.6563 100.823 58.6647C99.6044 58.765 98.3922 58.9441 97.1966 59.2003C96.8156 59.282 96.4092 59.3699 96.0453 59.2302C95.2659 58.9311 94.5569 57.0179 94.134 56.2749C93.6514 55.427 93.195 54.5605 92.6913 53.7249C92.1314 52.796 91.5443 51.8378 90.6476 51.2278C88.733 49.9252 86.1877 51.6032 86.8547 53.9042C87.3581 55.6408 88.3016 57.251 89.4897 58.6072C90.2185 59.439 91.0745 60.0766 91.9362 60.7152Z" fill="url(#paint6_linear_593_8818)"/>
<path d="M93.7322 42.9659C94.0058 43.4452 94.1376 43.9973 94.1618 44.5485C94.1682 44.6951 94.1782 44.8643 94.2968 44.9508C94.4236 45.0434 94.3121 45.2467 94.4086 45.1227C94.5051 44.9988 94.8328 44.5684 94.8476 44.412C94.882 44.0456 94.8815 43.676 94.846 43.3098C94.8151 42.9912 94.75 42.6583 94.5415 42.4156C94.4179 42.2716 94.253 42.1704 94.0906 42.0722C93.855 41.9298 93.6123 41.7863 93.3417 41.7359C92.8754 41.649 92.5894 41.8163 93.0009 42.1414C93.2957 42.3745 93.545 42.6376 93.7322 42.9659Z" fill="#212940"/>
<path d="M90.8061 49.2193C90.806 49.4116 90.8102 49.5929 90.8373 49.7457C91.3094 50.112 91.7558 50.5114 92.1722 50.9399C92.4374 50.5844 92.7099 50.2126 92.7946 49.7772C92.8306 49.5921 92.825 47.7381 92.9275 47.7205C93.4862 47.6247 94.1433 47.444 94.3343 46.8588C94.3945 46.6744 94.3967 46.474 94.398 46.2778C94.4039 45.4669 94.4099 44.6561 94.4158 43.8452C94.4179 43.5648 94.4185 43.2758 94.3224 43.0156C94.1539 42.5589 93.7258 42.2867 93.3059 42.1155C92.2344 41.6784 90.9855 41.6959 89.9965 42.3175C89.7333 42.4829 89.4848 42.6957 89.3333 42.9846C89.0995 43.43 89.1289 43.9799 89.1652 44.4939C89.1988 44.9682 89.2322 45.4427 89.2658 45.9171C89.3043 46.4627 89.3863 47.0908 89.81 47.3789C90.035 47.5319 90.3257 47.56 90.5196 47.758C90.8388 48.0841 90.8063 48.6925 90.8061 49.2193Z" fill="#EAC5B0"/>
<path d="M94.5948 45.9545C94.5856 45.8042 94.52 45.3636 94.2939 45.6405C94.2348 45.7129 94.2202 45.8153 94.2166 45.9116C94.2129 46.008 94.2173 46.1073 94.187 46.198C94.1172 46.4064 93.8866 46.5011 93.6812 46.4975C93.5995 46.4961 93.5163 46.4826 93.444 46.4415C93.3739 46.4015 93.3182 46.3382 93.264 46.2759C93.1322 46.1246 93.0003 45.9733 92.8685 45.822C92.6419 45.5619 92.1925 45.6744 91.8871 45.7142C91.5352 45.7602 91.1831 45.8664 90.8956 46.0979C90.8666 46.1213 90.8382 46.1458 90.8098 46.1704C90.7405 46.2301 90.6708 46.2894 90.5903 46.3286C90.3185 46.4609 89.9819 46.3228 89.7914 46.0752C89.704 45.9618 89.6227 45.8158 89.487 45.7968C89.381 45.782 89.2777 45.858 89.2233 45.9573C89.1688 46.0566 89.1542 46.1749 89.1469 46.2899C89.12 46.7087 89.1778 47.1406 89.3593 47.5121C89.753 48.3177 90.5141 48.4165 91.2789 48.3985C91.5812 48.3914 91.8836 48.3842 92.186 48.3771C92.7388 48.364 93.3231 48.3411 93.7887 48.0198C94.1994 47.7363 94.4436 47.2544 94.5436 46.7497C94.5953 46.4891 94.6107 46.2203 94.5948 45.9545ZM92.5724 47.0962C92.2813 47.2919 91.9605 47.3024 91.636 47.2048C91.4981 47.1633 91.5566 46.9318 91.6947 46.9734C91.9636 47.0544 92.2174 47.0523 92.4597 46.8894C92.5817 46.8074 92.6937 47.0147 92.5724 47.0962Z" fill="#1A3151"/>
<path d="M94.7136 41.561C94.767 41.3645 94.8064 41.1643 94.8316 40.9622C94.6445 41.0279 94.4408 41.0454 94.2453 41.0124C94.2449 40.8959 94.2444 40.7793 94.244 40.6627C94.2431 40.5657 92.9312 40.4978 92.8247 40.4891C91.8268 40.4072 90.9142 40.3294 90.0118 40.8649C89.241 41.3224 88.7468 42.0056 88.6286 42.8948C88.5156 43.7444 88.7936 44.8539 89.2848 45.5589C89.282 45.3327 89.1519 44.7992 89.2052 44.5843C89.2379 44.369 89.3124 44.1612 89.415 43.9694C89.6199 43.5866 89.9376 43.2643 90.3044 43.0345C90.8893 42.668 91.5693 42.4741 92.2484 42.3795C92.8708 42.2929 93.629 42.2129 94.2438 42.3777C94.5392 42.4569 94.5883 42.531 94.7672 42.2327C94.7988 42.1801 95.0489 41.5661 95.0245 41.5657C94.9208 41.5642 94.8172 41.5626 94.7136 41.561Z" fill="#1A3151"/>
<path d="M35.9016 138.486C35.9016 139.754 35.661 140.834 35.18 141.724C34.7027 142.614 34.0512 143.294 33.2254 143.764C32.4035 144.23 31.4792 144.463 30.4527 144.463C29.4186 144.463 28.4906 144.228 27.6686 143.758C26.8466 143.289 26.197 142.609 25.7197 141.718C25.2425 140.828 25.0038 139.751 25.0038 138.486C25.0038 137.217 25.2425 136.137 25.7197 135.247C26.197 134.357 26.8466 133.679 27.6686 133.213C28.4906 132.743 29.4186 132.508 30.4527 132.508C31.4792 132.508 32.4035 132.743 33.2254 133.213C34.0512 133.679 34.7027 134.357 35.18 135.247C35.661 136.137 35.9016 137.217 35.9016 138.486ZM33.4072 138.486C33.4072 137.664 33.2841 136.97 33.0379 136.406C32.7955 135.842 32.4527 135.414 32.0095 135.122C31.5663 134.83 31.0474 134.684 30.4527 134.684C29.858 134.684 29.3391 134.83 28.8959 135.122C28.4527 135.414 28.108 135.842 27.8618 136.406C27.6194 136.97 27.4982 137.664 27.4982 138.486C27.4982 139.307 27.6194 140.001 27.8618 140.565C28.108 141.129 28.4527 141.557 28.8959 141.849C29.3391 142.141 29.858 142.287 30.4527 142.287C31.0474 142.287 31.5663 142.141 32.0095 141.849C32.4527 141.557 32.7955 141.129 33.0379 140.565C33.2841 140.001 33.4072 139.307 33.4072 138.486ZM40.6002 139.258V144.304H38.1797V135.576H40.4866V137.116H40.5888C40.782 136.609 41.1059 136.207 41.5604 135.912C42.015 135.612 42.5661 135.463 43.2138 135.463C43.8199 135.463 44.3483 135.595 44.7991 135.861C45.2498 136.126 45.6002 136.504 45.8502 136.997C46.1002 137.486 46.2252 138.069 46.2252 138.747V144.304H43.8047V139.179C43.8085 138.645 43.6722 138.228 43.3956 137.929C43.1191 137.626 42.7385 137.474 42.2536 137.474C41.9278 137.474 41.64 137.544 41.39 137.684C41.1438 137.825 40.9506 138.029 40.8104 138.298C40.6741 138.563 40.604 138.883 40.6002 139.258ZM54.0715 138.565V140.486H48.7647V138.565H54.0715ZM55.7531 134.696V132.667H65.31V134.696H61.7475V144.304H59.3156V134.696H55.7531ZM67.3395 144.304V135.576H69.76V144.304H67.3395ZM68.5555 134.451C68.1956 134.451 67.8869 134.332 67.6293 134.093C67.3755 133.851 67.2486 133.561 67.2486 133.224C67.2486 132.891 67.3755 132.605 67.6293 132.366C67.8869 132.124 68.1956 132.003 68.5555 132.003C68.9153 132.003 69.2221 132.124 69.4759 132.366C69.7335 132.605 69.8623 132.891 69.8623 133.224C69.8623 133.561 69.7335 133.851 69.4759 134.093C69.2221 134.332 68.9153 134.451 68.5555 134.451ZM72.2001 144.304V135.576H74.5069V137.116H74.6092C74.791 136.605 75.094 136.201 75.5183 135.906C75.9425 135.611 76.4501 135.463 77.041 135.463C77.6395 135.463 78.149 135.612 78.5694 135.912C78.9899 136.207 79.2702 136.609 79.4103 137.116H79.5012C79.6793 136.616 80.0012 136.217 80.4672 135.917C80.9369 135.614 81.4918 135.463 82.1319 135.463C82.9463 135.463 83.6073 135.722 84.1149 136.241C84.6262 136.756 84.8819 137.487 84.8819 138.434V144.304H82.4672V138.912C82.4672 138.427 82.3384 138.063 82.0808 137.821C81.8232 137.578 81.5012 137.457 81.1149 137.457C80.6755 137.457 80.3327 137.597 80.0865 137.878C79.8403 138.154 79.7172 138.52 79.7172 138.974V144.304H77.3706V138.861C77.3706 138.432 77.2475 138.092 77.0012 137.838C76.7588 137.584 76.4387 137.457 76.041 137.457C75.7721 137.457 75.5297 137.525 75.3137 137.662C75.1016 137.794 74.9331 137.982 74.8081 138.224C74.6831 138.463 74.6206 138.743 74.6206 139.065V144.304H72.2001ZM91.2723 144.474C90.3746 144.474 89.6019 144.292 88.9541 143.929C88.3102 143.561 87.814 143.042 87.4655 142.372C87.117 141.698 86.9428 140.9 86.9428 139.98C86.9428 139.082 87.117 138.294 87.4655 137.616C87.814 136.938 88.3045 136.41 88.9371 136.031C89.5735 135.652 90.3197 135.463 91.1757 135.463C91.7515 135.463 92.2875 135.556 92.7837 135.741C93.2837 135.923 93.7193 136.198 94.0905 136.565C94.4655 136.932 94.7572 137.395 94.9655 137.951C95.1738 138.504 95.278 139.152 95.278 139.895V140.559H87.9087V139.059H92.9996C92.9996 138.711 92.9238 138.402 92.7723 138.133C92.6208 137.864 92.4106 137.654 92.1416 137.503C91.8765 137.347 91.5678 137.27 91.2155 137.27C90.8481 137.27 90.5223 137.355 90.2382 137.525C89.9579 137.692 89.7382 137.917 89.5791 138.201C89.42 138.482 89.3386 138.794 89.3348 139.139V140.565C89.3348 140.997 89.4144 141.37 89.5735 141.684C89.7363 141.999 89.9655 142.241 90.261 142.412C90.5564 142.582 90.9068 142.667 91.3121 142.667C91.581 142.667 91.8272 142.629 92.0507 142.554C92.2742 142.478 92.4655 142.364 92.6246 142.213C92.7837 142.061 92.9049 141.876 92.9882 141.656L95.2269 141.804C95.1132 142.342 94.8803 142.811 94.528 143.213C94.1795 143.611 93.7288 143.921 93.1757 144.145C92.6265 144.364 91.992 144.474 91.2723 144.474ZM45.2961 156.014C45.2506 155.556 45.0556 155.2 44.7109 154.946C44.3662 154.692 43.8984 154.565 43.3075 154.565C42.9059 154.565 42.5669 154.622 42.2904 154.736C42.0139 154.845 41.8018 154.999 41.6541 155.196C41.5101 155.393 41.4381 155.616 41.4381 155.866C41.4306 156.075 41.4741 156.256 41.5688 156.412C41.6673 156.567 41.8018 156.701 41.9722 156.815C42.1427 156.925 42.3397 157.022 42.5631 157.105C42.7866 157.184 43.0253 157.253 43.2791 157.309L44.3245 157.559C44.8321 157.673 45.298 157.825 45.7222 158.014C46.1465 158.203 46.5139 158.436 46.8245 158.713C47.1351 158.989 47.3756 159.315 47.5461 159.69C47.7203 160.065 47.8094 160.495 47.8131 160.98C47.8094 161.692 47.6275 162.309 47.2677 162.832C46.9116 163.351 46.3965 163.754 45.7222 164.042C45.0518 164.326 44.2431 164.468 43.2961 164.468C42.3567 164.468 41.5385 164.325 40.8416 164.037C40.1484 163.749 39.6067 163.323 39.2166 162.758C38.8302 162.19 38.6275 161.487 38.6086 160.65H40.9893C41.0158 161.04 41.1275 161.366 41.3245 161.628C41.5253 161.885 41.7923 162.08 42.1256 162.213C42.4628 162.342 42.8434 162.406 43.2677 162.406C43.6844 162.406 44.0461 162.345 44.3529 162.224C44.6635 162.103 44.9041 161.934 45.0745 161.718C45.245 161.503 45.3302 161.254 45.3302 160.974C45.3302 160.713 45.2525 160.493 45.0972 160.315C44.9457 160.137 44.7222 159.986 44.4268 159.861C44.1351 159.736 43.7772 159.622 43.3529 159.52L42.0859 159.201C41.1048 158.963 40.3302 158.59 39.762 158.082C39.1938 157.575 38.9116 156.891 38.9154 156.031C38.9116 155.326 39.0991 154.711 39.4779 154.184C39.8605 153.658 40.3851 153.247 41.0518 152.951C41.7184 152.656 42.476 152.508 43.3245 152.508C44.1881 152.508 44.9419 152.656 45.5859 152.951C46.2336 153.247 46.7374 153.658 47.0972 154.184C47.4571 154.711 47.6427 155.321 47.6541 156.014H45.2961ZM53.901 164.474C53.0033 164.474 52.2305 164.292 51.5828 163.929C50.9389 163.561 50.4426 163.042 50.0942 162.372C49.7457 161.698 49.5714 160.9 49.5714 159.98C49.5714 159.082 49.7457 158.294 50.0942 157.616C50.4426 156.938 50.9332 156.41 51.5658 156.031C52.2021 155.652 52.9483 155.463 53.8044 155.463C54.3801 155.463 54.9161 155.556 55.4123 155.741C55.9123 155.923 56.3479 156.198 56.7192 156.565C57.0942 156.932 57.3858 157.395 57.5942 157.951C57.8025 158.504 57.9067 159.152 57.9067 159.895V160.559H50.5373V159.059H55.6283C55.6283 158.711 55.5525 158.402 55.401 158.133C55.2495 157.864 55.0392 157.654 54.7703 157.503C54.5051 157.347 54.1964 157.27 53.8442 157.27C53.4767 157.27 53.151 157.355 52.8669 157.525C52.5866 157.692 52.3669 157.917 52.2078 158.201C52.0487 158.482 51.9673 158.794 51.9635 159.139V160.565C51.9635 160.997 52.043 161.37 52.2021 161.684C52.365 161.999 52.5942 162.241 52.8896 162.412C53.1851 162.582 53.5354 162.667 53.9408 162.667C54.2097 162.667 54.4559 162.629 54.6794 162.554C54.9029 162.478 55.0942 162.364 55.2533 162.213C55.4123 162.061 55.5336 161.876 55.6169 161.656L57.8555 161.804C57.7419 162.342 57.5089 162.811 57.1567 163.213C56.8082 163.611 56.3574 163.921 55.8044 164.145C55.2551 164.364 54.6207 164.474 53.901 164.474ZM64.6294 155.576V157.395H59.3738V155.576H64.6294ZM60.5669 153.486H62.9874V161.622C62.9874 161.845 63.0215 162.02 63.0897 162.145C63.1578 162.266 63.2525 162.351 63.3738 162.4C63.4988 162.45 63.6427 162.474 63.8056 162.474C63.9192 162.474 64.0328 162.465 64.1465 162.446C64.2601 162.423 64.3472 162.406 64.4078 162.395L64.7885 164.196C64.6673 164.234 64.4969 164.277 64.2772 164.326C64.0575 164.379 63.7904 164.412 63.476 164.423C62.8927 164.446 62.3813 164.368 61.9419 164.19C61.5063 164.012 61.1673 163.736 60.9249 163.361C60.6825 162.986 60.5632 162.512 60.5669 161.94V153.486ZM72.3039 160.588V155.576H74.7244V164.304H72.4005V162.718H72.3096C72.1126 163.23 71.785 163.641 71.3266 163.951C70.8721 164.262 70.3172 164.417 69.6619 164.417C69.0785 164.417 68.5653 164.285 68.1221 164.02C67.6789 163.754 67.3323 163.378 67.0823 162.889C66.8361 162.4 66.7111 161.815 66.7073 161.133V155.576H69.1278V160.701C69.1316 161.217 69.2698 161.624 69.5426 161.923C69.8153 162.222 70.1808 162.372 70.6391 162.372C70.9308 162.372 71.2035 162.306 71.4573 162.173C71.7111 162.037 71.9157 161.836 72.071 161.571C72.2301 161.306 72.3077 160.978 72.3039 160.588ZM77.1616 167.576V155.576H79.548V157.042H79.656C79.762 156.807 79.9154 156.569 80.1162 156.326C80.3207 156.08 80.5859 155.876 80.9116 155.713C81.2412 155.546 81.6503 155.463 82.1389 155.463C82.7753 155.463 83.3624 155.629 83.9003 155.963C84.4382 156.292 84.8681 156.79 85.1901 157.457C85.512 158.12 85.673 158.951 85.673 159.951C85.673 160.925 85.5158 161.747 85.2014 162.417C84.8908 163.084 84.4666 163.59 83.9287 163.934C83.3946 164.275 82.7961 164.446 82.1332 164.446C81.6635 164.446 81.2639 164.368 80.9344 164.213C80.6086 164.057 80.3416 163.862 80.1332 163.628C79.9249 163.389 79.7658 163.148 79.656 162.906H79.5821V167.576H77.1616ZM79.531 159.94C79.531 160.459 79.6029 160.912 79.7469 161.298C79.8908 161.684 80.0991 161.986 80.3719 162.201C80.6446 162.414 80.976 162.52 81.3662 162.52C81.7601 162.52 82.0935 162.412 82.3662 162.196C82.6389 161.976 82.8454 161.673 82.9855 161.287C83.1294 160.897 83.2014 160.448 83.2014 159.94C83.2014 159.436 83.1313 158.993 82.9912 158.611C82.851 158.228 82.6446 157.929 82.3719 157.713C82.0991 157.497 81.7639 157.389 81.3662 157.389C80.9722 157.389 80.6389 157.493 80.3662 157.701C80.0972 157.91 79.8908 158.205 79.7469 158.588C79.6029 158.97 79.531 159.421 79.531 159.94Z" fill="#5E213E"/>
<defs>
<linearGradient id="paint0_linear_593_8818" x1="104.447" y1="56.286" x2="92.5781" y2="56.286" gradientUnits="userSpaceOnUse">
<stop stop-color="#B15CDE"/>
<stop offset="1" stop-color="#EC4899"/>
</linearGradient>
<linearGradient id="paint1_linear_593_8818" x1="63.9679" y1="34.6942" x2="38.6758" y2="34.6942" gradientUnits="userSpaceOnUse">
<stop stop-color="#B15CDE"/>
<stop offset="1" stop-color="#EC4899"/>
</linearGradient>
<linearGradient id="paint2_linear_593_8818" x1="62.8818" y1="34.699" x2="39.7578" y2="34.699" gradientUnits="userSpaceOnUse">
<stop stop-color="#B15CDE"/>
</linearGradient>
<linearGradient id="paint3_linear_593_8818" x1="79.5157" y1="71.198" x2="41.6675" y2="74.8098" gradientUnits="userSpaceOnUse">
<stop stop-color="#B15CDE"/>
<stop offset="1" stop-color="#EC4899"/>
</linearGradient>
<linearGradient id="paint4_linear_593_8818" x1="38.6199" y1="68.4619" x2="12.0293" y2="68.4619" gradientUnits="userSpaceOnUse">
<stop stop-color="#B15CDE"/>
<stop offset="1" stop-color="#EC4899"/>
</linearGradient>
<linearGradient id="paint5_linear_593_8818" x1="109.44" y1="49.5793" x2="95.6836" y2="49.5793" gradientUnits="userSpaceOnUse">
<stop stop-color="#B15CDE"/>
<stop offset="1" stop-color="#EC4899"/>
</linearGradient>
<linearGradient id="paint6_linear_593_8818" x1="101.798" y1="56.8202" x2="86.7461" y2="56.8202" gradientUnits="userSpaceOnUse">
<stop stop-color="#B15CDE"/>
<stop offset="1" stop-color="#EC4899"/>
</linearGradient>
</defs>
</svg>
