<svg width="125" height="181" viewBox="0 0 125 181" fill="none" xmlns="http://www.w3.org/2000/svg">
<rect width="124.294" height="180.332" rx="8.01898" fill="#FFF9FC"/>
<path d="M34.9318 52.6116C30.8343 53.8735 26.4928 54.1995 22.3953 55.4637C18.2978 56.7279 14.2354 59.2235 12.6945 63.2248C11.4725 66.3983 12.0518 70.0361 13.4778 73.1203C16.6888 80.0653 23.7158 84.5052 30.9117 87.1017C42.0127 91.1077 54.2349 91.5956 65.8168 89.3205C74.7155 87.5731 83.3797 84.1745 90.6225 78.7166C99.099 72.3323 105.389 63.2835 109.25 53.3974C111.033 48.8307 112.332 43.9991 112.264 39.0994C112.196 34.2255 110.784 29.4666 109.044 24.9117C106.633 18.5907 102.73 14.6409 96.0311 12.9733C92.2643 12.0351 88.338 11.946 84.4586 12.0609C78.5785 12.2345 72.3372 13.0155 67.7753 16.7284C65.9974 18.1732 64.3064 20.0355 62.817 21.7711C60.5513 24.4121 59.0619 27.5973 57.5725 30.7097C56.0269 33.937 54.2725 36.7633 52.2694 39.7022C48.2306 45.6315 41.8392 50.4843 34.9318 52.6116Z" fill="#FCDEF9"/>
<path d="M41.499 19.2102C37.6595 22.6862 35.0326 27.4756 34.1647 32.5817C33.7707 34.906 33.7543 37.4016 34.8238 39.5031C36.2428 42.2919 39.6156 43.9361 42.6858 43.3356C44.9398 42.8947 46.8349 41.4288 48.6386 40.0074C50.3226 38.6799 52.0301 37.3289 53.2826 35.5862C54.779 33.5034 55.5413 30.9633 55.8485 28.4161C56.191 25.5852 55.9588 22.5572 54.4178 20.1578C52.8839 17.7701 50.6627 17.1298 48.0264 16.8037C45.3784 16.4777 43.495 17.4018 41.499 19.2078V19.2102Z" fill="#FCDEF9"/>
<path d="M18.7954 43.352C18.0284 46.0117 18.8634 49.1148 20.9931 50.8809C23.1228 52.6494 26.4627 52.8581 28.6886 51.214C30.3984 49.9521 31.3108 47.8224 31.5125 45.7045C31.6391 44.3652 31.5055 42.9767 30.9261 41.7617C30.1873 40.2114 28.7472 39.0457 27.1218 38.4945C23.1322 37.1412 19.9236 39.4304 18.793 43.3496L18.7954 43.352Z" fill="#FCDEF9"/>
<path d="M75.6472 76.6061C75.673 75.8509 75.7669 75.0229 76.311 74.4975C77.146 73.6907 78.6377 74.0847 79.3648 74.9901C80.0919 75.8954 80.2608 77.1127 80.4038 78.2643C79.4328 72.5625 78.6729 66.0187 82.4233 61.6139C82.8572 61.1026 83.3802 60.6171 84.0346 60.4717C85.0267 60.2512 86.0517 60.9032 86.5677 61.7781C87.0837 62.653 87.1986 63.7014 87.2643 64.717C87.4613 67.7895 87.3042 70.8832 86.7976 73.9206C86.7788 71.2631 88.0172 68.6245 90.0742 66.9428C90.1938 67.5479 90.3158 68.1531 90.4354 68.7582C90.1023 63.9031 91.2962 58.9542 93.8035 54.7839C94.9269 52.9146 96.7587 51.0101 98.9095 51.3642C100.711 51.6621 101.884 53.4705 102.325 55.2389C103.328 59.2567 101.726 63.4668 99.6648 67.0577C97.575 70.6979 94.9785 74.0472 91.9763 76.9814C92.7973 75.8321 94.6854 75.8391 95.7103 76.8125C96.7353 77.7835 96.9346 79.4113 96.4843 80.7482C96.034 82.0851 95.0325 83.1711 93.9348 84.06C91.7066 85.8613 88.9601 87.0106 86.115 87.3366C78.9614 88.1552 75.4385 83.0092 75.6496 76.6038L75.6472 76.6061Z" fill="#C1A0FD"/>
<path d="M81.2363 85.2864C81.2363 85.2864 97.9102 71.0448 98.452 53.0176" stroke="#B25CDD" stroke-width="0.199364" stroke-linecap="round" stroke-linejoin="round"/>
<path d="M94.5781 56.8945C94.5781 56.8945 94.8572 61.8786 96.2059 63.9825" stroke="#B25CDD" stroke-width="0.199364" stroke-linecap="round" stroke-linejoin="round"/>
<path d="M94.1328 68.6644C94.1328 68.6644 95.6597 69.49 97.4634 67.7896" stroke="#B25CDD" stroke-width="0.199364" stroke-linecap="round" stroke-linejoin="round"/>
<path d="M84.0322 62.8452C84.0322 62.8452 81.9541 72.206 85.5168 80.9991" stroke="#B25CDD" stroke-width="0.199364" stroke-linecap="round" stroke-linejoin="round"/>
<path d="M83.4297 83.2108C83.4297 83.2108 88.7187 83.9356 94.5777 79.4299" stroke="#B25CDD" stroke-width="0.199364" stroke-linecap="round" stroke-linejoin="round"/>
<path d="M77.2734 75.4636C77.2734 75.4636 78.5212 82.2162 82.0887 84.5171" stroke="#B25CDD" stroke-width="0.199364" stroke-linecap="round" stroke-linejoin="round"/>
<path d="M83.4809 71.4083C83.4809 71.4083 81.2363 70.0432 81.2363 65.7675" stroke="#B25CDD" stroke-width="0.199364" stroke-linecap="round" stroke-linejoin="round"/>
<path d="M89.002 82.4391C89.002 82.4391 89.3843 84.156 92.5037 83.2553" stroke="#B25CDD" stroke-width="0.199364" stroke-linecap="round" stroke-linejoin="round"/>
<path d="M89.8468 75.633C89.8468 75.633 88.5615 72.49 89.1362 69.1548" stroke="#B25CDD" stroke-width="0.199364" stroke-linecap="round" stroke-linejoin="round"/>
<path d="M53.186 79.9672C53.1602 79.2119 53.0664 78.384 52.5223 77.8586C51.6873 77.0518 50.1956 77.4458 49.4685 78.3512C48.7414 79.2565 48.5725 80.4738 48.4294 81.6254C49.4004 75.9236 50.1604 69.3798 46.41 64.975C45.9761 64.4637 45.453 63.9782 44.7987 63.8328C43.8065 63.6123 42.7816 64.2643 42.2656 65.1392C41.7496 66.014 41.6346 67.0625 41.5689 68.078C41.3719 71.1506 41.5291 74.2443 42.0357 77.2816C42.0545 74.6242 40.8161 71.9856 38.7591 70.3039C38.6395 70.909 38.5175 71.5141 38.3979 72.1193C38.7309 67.2642 37.5371 62.3152 35.0298 58.145C33.9063 56.2757 32.0745 54.3712 29.9237 54.7253C28.1224 55.0232 26.9497 56.8315 26.5087 58.6C25.5049 62.6178 27.1068 66.8279 29.1685 70.4188C31.2583 74.059 33.8547 77.4083 36.8569 80.3425C36.036 79.1932 34.1479 79.2002 33.1229 80.1736C32.098 81.1446 31.8986 82.7724 32.3489 84.1093C32.8016 85.4462 33.8008 86.5321 34.8985 87.4211C37.1266 89.2224 39.8708 90.3717 42.7182 90.6977C49.8719 91.5162 53.3948 86.3703 53.1837 79.9648L53.186 79.9672Z" fill="#C1A0FD"/>
<path d="M47.5946 88.65C47.5946 88.65 30.9207 74.4083 30.3789 56.3811" stroke="#B25CDD" stroke-width="0.199364" stroke-linecap="round" stroke-linejoin="round"/>
<path d="M34.2547 60.2585C34.2547 60.2585 33.9756 65.2427 32.627 67.3465" stroke="#B25CDD" stroke-width="0.199364" stroke-linecap="round" stroke-linejoin="round"/>
<path d="M34.7017 72.0255C34.7017 72.0255 33.1748 72.8487 31.3711 71.1506" stroke="#B25CDD" stroke-width="0.199364" stroke-linecap="round" stroke-linejoin="round"/>
<path d="M44.7991 66.2063C44.7991 66.2063 46.8772 75.567 43.3145 84.3602" stroke="#B25CDD" stroke-width="0.199364" stroke-linecap="round" stroke-linejoin="round"/>
<path d="M45.4038 86.5718C45.4038 86.5718 40.1148 87.2965 34.2559 82.7909" stroke="#B25CDD" stroke-width="0.199364" stroke-linecap="round" stroke-linejoin="round"/>
<path d="M51.5613 78.8247C51.5613 78.8247 50.3135 85.5773 46.7461 87.8782" stroke="#B25CDD" stroke-width="0.199364" stroke-linecap="round" stroke-linejoin="round"/>
<path d="M45.3496 74.7694C45.3496 74.7694 47.5942 73.4043 47.5942 69.1285" stroke="#B25CDD" stroke-width="0.199364" stroke-linecap="round" stroke-linejoin="round"/>
<path d="M39.8279 85.8002C39.8279 85.8002 39.4456 87.5171 36.3262 86.6164" stroke="#B25CDD" stroke-width="0.199364" stroke-linecap="round" stroke-linejoin="round"/>
<path d="M38.9863 78.9939C38.9863 78.9939 40.2716 75.851 39.697 72.5157" stroke="#B25CDD" stroke-width="0.199364" stroke-linecap="round" stroke-linejoin="round"/>
<path d="M47.0465 73.1162L45.4023 75.7572H48.0598V72.7362L47.0465 73.1162Z" fill="#C98935"/>
<path d="M55.315 87.571L47.0332 91.115V73.1159L55.315 70.0527V87.571Z" fill="#6D460C"/>
<path d="M82.1344 70.0527H55.3281V87.51H82.1344V70.0527Z" fill="#6D460C"/>
<g filter="url(#filter0_d_593_8839)">
<path d="M81.8032 55.2797L58.1465 54.8254L57.6923 78.4821L81.3489 78.9363L81.8032 55.2797Z" fill="white"/>
<path d="M80.5346 56.6663L59.3613 56.2598L59.0583 72.0418L80.2316 72.4484L80.5346 56.6663Z" fill="url(#paint0_linear_593_8839)"/>
<path d="M79.2891 71.7088L79.3993 66.0093L76.308 62.7984C75.8881 62.3622 75.1915 62.3481 74.7553 62.7679L69.4498 67.874C69.03 68.2774 68.3639 68.2657 67.9581 67.8458L65.1154 64.8929C64.7308 64.4942 64.0952 64.4825 63.6964 64.8648L60.0938 68.3314L60.0352 71.3406L79.2891 71.7088Z" fill="white"/>
<path d="M64.169 59.7777C64.1526 60.6432 63.4372 61.3304 62.5717 61.314C61.7062 61.2976 61.019 60.5822 61.0354 59.7167C61.0519 58.8513 61.7672 58.164 62.6327 58.1805C63.4982 58.1969 64.1854 58.9123 64.169 59.7777Z" fill="white"/>
</g>
<g filter="url(#filter1_d_593_8839)">
<path d="M81.272 59.5148L57.8945 55.8623L54.2421 79.2397L77.6195 82.8922L81.272 59.5148Z" fill="white"/>
<path d="M79.8296 60.7196L58.9062 57.4506L56.4696 73.0463L77.3929 76.3153L79.8296 60.7196Z" fill="url(#paint1_linear_593_8839)"/>
<path d="M76.5596 75.4523L77.4391 69.8185L74.8122 66.2182C74.4534 65.728 73.7662 65.6201 73.276 65.979L67.3279 70.3204C66.8564 70.6628 66.1973 70.5597 65.8549 70.0906L63.4391 66.7788C63.1131 66.3308 62.4845 66.2323 62.0365 66.5606L57.9976 69.5089L57.5332 72.4829L76.5596 75.4546V75.4523Z" fill="white"/>
<path d="M63.1951 61.5835C63.0615 62.4396 62.2593 63.0237 61.4056 62.89C60.5495 62.7563 59.9654 61.9541 60.0991 61.1004C60.2328 60.2443 61.035 59.6603 61.8887 59.794C62.7448 59.9276 63.3288 60.7298 63.1951 61.5835Z" fill="white"/>
</g>
<g filter="url(#filter2_d_593_8839)">
<path d="M67.258 53.0794L44.2383 58.5508L49.7096 81.5705L72.7294 76.0992L67.258 53.0794Z" fill="white"/>
<path d="M66.3747 54.738L45.7715 59.635L49.4216 74.9922L70.0248 70.0952L66.3747 54.738Z" fill="url(#paint2_linear_593_8839)"/>
<path d="M68.922 69.6257L67.6038 64.0786L63.8089 61.7402C63.2929 61.4212 62.615 61.5831 62.2961 62.0991L58.4331 68.3685C58.1282 68.8634 57.4785 69.0182 56.9836 68.7133L53.4935 66.5625C53.0221 66.2716 52.4029 66.4194 52.1144 66.8908L49.4922 71.1479L50.1888 74.0773L68.9243 69.6257H68.922Z" fill="white"/>
<path d="M51.299 61.8481C51.4984 62.6901 50.9777 63.5345 50.1357 63.7362C49.2937 63.9356 48.4493 63.4149 48.2476 62.5728C48.0482 61.7308 48.5689 60.8865 49.4109 60.6847C50.253 60.483 51.0973 61.0061 51.299 61.8481Z" fill="white"/>
</g>
<path d="M73.8512 73.1161H47.0449V91.1152H73.8512V73.1161Z" fill="#FAB442"/>
<path d="M82.1353 87.571L73.8535 91.115V73.1159L82.1353 70.0527V87.571Z" fill="#EAA43F"/>
<path d="M73.8535 73.1159L75.6173 76.6787L84.6638 73.1159L82.1353 70.0527L73.8535 73.1159Z" fill="#FAB442"/>
<path d="M54.3194 87.0738L51.1742 83.9309L48.0312 87.0738H49.4878V90.0713H52.8629V87.0738H54.3194Z" fill="#B57324"/>
<path d="M62.0293 89.4056V90.0714H62.695" stroke="#B57324" stroke-width="0.234546" stroke-miterlimit="10"/>
<path d="M63.9785 90.0718H71.0548" stroke="#B57324" stroke-width="0.234546" stroke-miterlimit="10" stroke-dasharray="1.29 1.29"/>
<path d="M71.7012 90.0714H72.3646V89.4056" stroke="#B57324" stroke-width="0.234546" stroke-miterlimit="10"/>
<path d="M72.3652 88.1178V81.0415" stroke="#B57324" stroke-width="0.234546" stroke-miterlimit="10" stroke-dasharray="1.29 1.29"/>
<path d="M72.3646 80.3985V79.7351H71.7012" stroke="#B57324" stroke-width="0.234546" stroke-miterlimit="10"/>
<path d="M70.4122 79.7351H63.3359" stroke="#B57324" stroke-width="0.234546" stroke-miterlimit="10" stroke-dasharray="1.29 1.29"/>
<path d="M62.695 79.7351H62.0293V80.3985" stroke="#B57324" stroke-width="0.234546" stroke-miterlimit="10"/>
<path d="M62.0293 81.6865V88.7628" stroke="#B57324" stroke-width="0.234546" stroke-miterlimit="10" stroke-dasharray="1.29 1.29"/>
<path d="M69.8448 84.2993C69.697 84.2993 69.5563 84.3204 69.4226 84.3626C69.1787 83.3376 68.2569 82.573 67.1569 82.573C66.0569 82.573 65.1468 83.3259 64.8958 84.3415C64.7833 84.3133 64.6636 84.2969 64.5417 84.2969C63.7395 84.2969 63.0898 84.9466 63.0898 85.7487C63.0898 86.5509 63.7395 87.2006 64.5417 87.2006H66.8004C66.9153 87.2194 67.0349 87.2264 67.1545 87.2264C67.2741 87.2264 67.3938 87.217 67.5087 87.2006H69.8401C70.6422 87.2006 71.2919 86.5509 71.2919 85.7487C71.2919 84.9466 70.6422 84.2969 69.8401 84.2969L69.8448 84.2993Z" fill="#B57324"/>
<path d="M57.3174 64.1C57.4206 64.2314 57.5262 64.3721 57.5496 64.5363C57.5731 64.7028 57.4863 64.8951 57.3221 64.9303C57.0712 64.9842 56.9 64.67 56.6584 64.5879C56.4754 64.5269 56.2714 64.6066 56.126 64.7333C55.9805 64.8599 55.8726 65.0218 55.746 65.1672C55.1338 65.8591 53.9939 66.0022 53.2316 65.4838C53.0886 65.3853 52.9502 65.2563 52.915 65.0851C52.8705 64.8693 53.0041 64.6629 53.1285 64.4823C53.4639 63.9968 53.8063 63.509 54.2425 63.1126C54.6366 62.7561 55.3426 62.2166 55.8492 62.5731C56.4004 62.9625 56.9 63.577 57.3174 64.1Z" fill="#EEB399"/>
<path d="M33.7402 98.8149V99.4201C33.7402 99.4201 37.1951 99.9337 39.374 99.4201L39.9041 99.2324L39.557 98.8384L33.7426 98.8149H33.7402Z" fill="black"/>
<path d="M41.5312 98.6509V99.256C41.5312 99.256 44.9861 99.7697 47.165 99.256L47.8734 99.0684L47.165 98.6532H41.5312V98.6509Z" fill="black"/>
<path d="M37.8752 62.8073C37.8423 62.8073 37.8095 62.8073 37.779 62.8073C36.1419 62.7276 34.9034 62.2116 34.099 61.271C33.3766 60.4267 33.1936 59.4134 33.264 58.7497C33.271 58.6793 33.2827 58.6113 33.2968 58.5433C34.0216 55.1846 36.7399 50.8666 36.8549 50.686C37.4319 49.7712 38.6421 49.4992 39.5568 50.0785C40.4716 50.6578 40.7437 51.8681 40.1643 52.7805C39.5381 53.7702 37.908 56.6153 37.2724 58.7919C37.4225 58.8341 37.6476 58.8787 37.9666 58.8927C39.0479 58.9467 39.8805 59.8637 39.8289 60.945C39.7773 61.9934 38.9118 62.8073 37.8752 62.8073Z" fill="#F6B345"/>
<path d="M39.2754 45.8147L39.4536 49.2367L41.1049 50.5901L42.5872 49.5768L42.4816 47.5198L39.2754 45.8147Z" fill="#EEB399"/>
<path d="M42.7859 48.7577L41.9029 48.8036C40.5443 48.8744 39.3813 47.8287 39.3105 46.4678L39.1345 43.0879C39.0637 41.727 40.1095 40.5664 41.4704 40.4955L42.3534 40.4496C43.7119 40.3788 44.8749 41.4245 44.9458 42.7854L45.1217 46.1653C45.1924 47.5238 44.1468 48.6868 42.7859 48.7577Z" fill="#EEB399"/>
<path d="M47.0691 65.0283L47.1653 98.6506C47.1653 98.6506 43.5087 99.0704 41.5315 98.6506V69.7662L39.5566 98.8359C39.5566 98.8359 36.0126 99.0657 33.7422 98.8359L36.8241 65.8563L47.0691 65.026V65.0283Z" fill="#F26739"/>
<path d="M39.68 49.1709C39.68 49.1709 36.3589 49.1709 36.6098 52.7431C36.8631 56.3152 37.3252 58.4402 36.903 60.7575C36.4832 63.0749 36.5958 66.1169 36.5958 66.1169C36.5958 66.1169 43.4633 68.3662 47.2043 65.9035C47.2043 65.9035 46.6578 54.2887 46.5311 52.5015C46.4045 50.7143 44.7251 49.1522 42.0748 49.1709L39.4244 49.1897" fill="#F6B345"/>
<path d="M42.301 65.9738C38.9728 65.9738 36.5898 64.7799 36.557 64.7635C36.5242 64.7471 36.5124 64.7072 36.5289 64.6767C36.5453 64.6439 36.5851 64.6322 36.6156 64.6486C36.6649 64.6744 41.52 67.0996 47.0459 64.9699C47.0787 64.9559 47.1163 64.9746 47.1303 65.0075C47.1444 65.0403 47.1257 65.0802 47.0928 65.0919C45.3947 65.7463 43.7576 65.9761 42.301 65.9761V65.9738Z" fill="#BC802A"/>
<path d="M36.6502 63.0796H36.6479C36.6127 63.0796 36.5845 63.0468 36.5845 63.0116C36.6361 61.8553 36.8402 60.7553 36.8425 60.7459C37.1428 59.09 36.9926 57.5654 36.7862 55.4545C36.7088 54.6571 36.6197 53.7517 36.547 52.7479C36.5447 52.7127 36.5728 52.6798 36.608 52.6775C36.6361 52.6775 36.676 52.7009 36.6784 52.7385C36.7487 53.7423 36.8378 54.6453 36.9152 55.4428C37.117 57.4833 37.2741 59.0947 36.9715 60.7693C36.9715 60.7811 36.7651 61.8717 36.7159 63.0186C36.7159 63.0538 36.6854 63.082 36.6502 63.082V63.0796Z" fill="#BC802A"/>
<path d="M42.0273 69.9825C39.2245 69.9825 37.578 68.1601 37.5592 68.1366C37.5357 68.1108 37.5381 68.0686 37.5639 68.0452C37.592 68.0217 37.6319 68.024 37.6554 68.0498C37.6788 68.0756 39.9516 70.59 43.7043 69.6354C43.7395 69.626 43.7747 69.6494 43.784 69.6823C43.7934 69.7175 43.7723 69.7526 43.7371 69.762C43.1273 69.9168 42.5574 69.9825 42.0273 69.9825Z" fill="#AF4022"/>
<path d="M36.9133 66.175C36.8781 66.175 36.8477 66.1469 36.8477 66.1093V65.1975C36.8477 65.1623 36.8758 65.1318 36.9133 65.1318C36.9508 65.1318 36.9789 65.16 36.9789 65.1975V66.1093C36.9789 66.1445 36.9508 66.175 36.9133 66.175Z" fill="#BC802A"/>
<path d="M37.343 66.1236C37.3078 66.1236 37.2773 66.0954 37.2773 66.0579V65.4133C37.2773 65.3781 37.3055 65.3477 37.343 65.3477C37.3805 65.3477 37.4086 65.3758 37.4086 65.4133V66.0579C37.4086 66.0931 37.3805 66.1236 37.343 66.1236Z" fill="#BC802A"/>
<path d="M37.8059 66.3557C37.7707 66.3557 37.7402 66.3276 37.7402 66.2901V65.5446C37.7402 65.5095 37.7684 65.479 37.8059 65.479C37.8434 65.479 37.8715 65.5071 37.8715 65.5446V66.2901C37.8715 66.3252 37.8434 66.3557 37.8059 66.3557Z" fill="#BC802A"/>
<path d="M38.3527 66.4564C38.3176 66.4564 38.2871 66.4283 38.2871 66.3908V65.7954C38.2871 65.7602 38.3152 65.7297 38.3527 65.7297C38.3903 65.7297 38.4184 65.7579 38.4184 65.7954V66.3908C38.4184 66.4259 38.3903 66.4564 38.3527 66.4564Z" fill="#BC802A"/>
<path d="M38.8488 66.5715C38.8137 66.5715 38.7832 66.5434 38.7832 66.5059V65.8425C38.7832 65.8073 38.8113 65.7769 38.8488 65.7769C38.8863 65.7769 38.9145 65.805 38.9145 65.8425V66.5059C38.9145 66.541 38.8863 66.5715 38.8488 66.5715Z" fill="#BC802A"/>
<path d="M39.3293 66.6912C39.2941 66.6912 39.2637 66.663 39.2637 66.6255V65.9598C39.2637 65.9246 39.2918 65.8942 39.3293 65.8942C39.3668 65.8942 39.3949 65.9223 39.3949 65.9598V66.6255C39.3949 66.6607 39.3668 66.6912 39.3293 66.6912Z" fill="#BC802A"/>
<path d="M39.8938 66.689C39.8586 66.689 39.8281 66.6608 39.8281 66.6233V65.9928C39.8281 65.9576 39.8563 65.9271 39.8938 65.9271C39.9313 65.9271 39.9594 65.9553 39.9594 65.9928V66.6233C39.9594 66.6585 39.9313 66.689 39.8938 66.689Z" fill="#BC802A"/>
<path d="M40.3703 66.719C40.3352 66.719 40.3047 66.6908 40.3047 66.6533V66.1071C40.3047 66.072 40.3328 66.0415 40.3703 66.0415C40.4078 66.0415 40.436 66.0696 40.436 66.1071V66.6533C40.436 66.6885 40.4078 66.719 40.3703 66.719Z" fill="#BC802A"/>
<path d="M40.802 66.8906C40.7668 66.8906 40.7363 66.8625 40.7363 66.8249V66.1756C40.7363 66.1405 40.7645 66.11 40.802 66.11C40.8395 66.11 40.8676 66.1381 40.8676 66.1756V66.8249C40.8676 66.8601 40.8395 66.8906 40.802 66.8906Z" fill="#BC802A"/>
<path d="M41.382 66.7688C41.3469 66.7688 41.3164 66.7407 41.3164 66.7032V66.2883C41.3164 66.2531 41.3445 66.2227 41.382 66.2227C41.4195 66.2227 41.4477 66.2508 41.4477 66.2883V66.7032C41.4477 66.7384 41.4195 66.7688 41.382 66.7688Z" fill="#BC802A"/>
<path d="M41.7766 66.9021C41.7414 66.9021 41.7109 66.874 41.7109 66.8364V66.3231C41.7109 66.2879 41.7391 66.2574 41.7766 66.2574C41.8141 66.2574 41.8422 66.2856 41.8422 66.3231V66.8364C41.8422 66.8716 41.8141 66.9021 41.7766 66.9021Z" fill="#BC802A"/>
<path d="M42.1574 66.9537C42.1223 66.9537 42.0918 66.9256 42.0918 66.8881V66.2387C42.0918 66.2036 42.1199 66.1731 42.1574 66.1731C42.1949 66.1731 42.2231 66.2012 42.2231 66.2387V66.8881C42.2231 66.9232 42.1949 66.9537 42.1574 66.9537Z" fill="#BC802A"/>
<path d="M42.5735 66.9746C42.5383 66.9746 42.5078 66.9465 42.5078 66.909V66.2409C42.5078 66.2058 42.5359 66.1753 42.5735 66.1753C42.611 66.1753 42.6391 66.2034 42.6391 66.2409V66.909C42.6391 66.9442 42.611 66.9746 42.5735 66.9746Z" fill="#BC802A"/>
<path d="M43.0168 66.8365C42.9816 66.8365 42.9512 66.8084 42.9512 66.7708V66.2387C42.9512 66.2036 42.9793 66.1731 43.0168 66.1731C43.0543 66.1731 43.0824 66.2012 43.0824 66.2387V66.7708C43.0824 66.806 43.0543 66.8365 43.0168 66.8365Z" fill="#BC802A"/>
<path d="M43.4504 66.7685C43.4152 66.7685 43.3848 66.7404 43.3848 66.7029V66.2387C43.3848 66.2036 43.4129 66.1731 43.4504 66.1731C43.4879 66.1731 43.516 66.2012 43.516 66.2387V66.7029C43.516 66.738 43.4879 66.7685 43.4504 66.7685Z" fill="#BC802A"/>
<path d="M43.9621 66.8905C43.927 66.8905 43.8965 66.8624 43.8965 66.8249V66.192C43.8965 66.1568 43.9246 66.1263 43.9621 66.1263C43.9996 66.1263 44.0278 66.1545 44.0278 66.192V66.8249C44.0278 66.8601 43.9996 66.8905 43.9621 66.8905Z" fill="#BC802A"/>
<path d="M44.4445 66.7778C44.4094 66.7778 44.3789 66.7497 44.3789 66.7122V66.0254C44.3789 65.9902 44.407 65.9597 44.4445 65.9597C44.482 65.9597 44.5102 65.9878 44.5102 66.0254V66.7122C44.5102 66.7473 44.482 66.7778 44.4445 66.7778Z" fill="#BC802A"/>
<path d="M44.8059 66.6678C44.7707 66.6678 44.7402 66.6397 44.7402 66.6022V65.9763C44.7402 65.9411 44.7684 65.9106 44.8059 65.9106C44.8434 65.9106 44.8715 65.9388 44.8715 65.9763V66.6022C44.8715 66.6373 44.8434 66.6678 44.8059 66.6678Z" fill="#BC802A"/>
<path d="M45.2688 66.6044C45.2336 66.6044 45.2031 66.5763 45.2031 66.5388V65.859C45.2031 65.8238 45.2313 65.7933 45.2688 65.7933C45.3063 65.7933 45.3344 65.8215 45.3344 65.859V66.5388C45.3344 66.5739 45.3063 66.6044 45.2688 66.6044Z" fill="#BC802A"/>
<path d="M45.6672 66.5061C45.632 66.5061 45.6016 66.478 45.6016 66.4405V65.7771C45.6016 65.7419 45.6297 65.7114 45.6672 65.7114C45.7047 65.7114 45.7328 65.7396 45.7328 65.7771V66.4405C45.7328 66.4756 45.7047 66.5061 45.6672 66.5061Z" fill="#BC802A"/>
<path d="M46.1301 66.3885C46.0949 66.3885 46.0645 66.3604 46.0645 66.3229V65.7275C46.0645 65.6923 46.0926 65.6619 46.1301 65.6619C46.1676 65.6619 46.1957 65.69 46.1957 65.7275V66.3229C46.1957 66.3581 46.1676 66.3885 46.1301 66.3885Z" fill="#BC802A"/>
<path d="M46.5774 66.1397C46.5422 66.1397 46.5117 66.1116 46.5117 66.0741V65.4622C46.5117 65.4271 46.5398 65.3966 46.5774 65.3966C46.6149 65.3966 46.643 65.4247 46.643 65.4622V66.0741C46.643 66.1092 46.6149 66.1397 46.5774 66.1397Z" fill="#BC802A"/>
<path d="M46.9055 66.0251C46.8703 66.0251 46.8398 65.997 46.8398 65.9594V65.3125C46.8398 65.2773 46.868 65.2468 46.9055 65.2468C46.943 65.2468 46.9711 65.275 46.9711 65.3125V65.9594C46.9711 65.9946 46.943 66.0251 46.9055 66.0251Z" fill="#BC802A"/>
<path d="M55.9124 62.5942L50.2106 57.8305L45.651 50.576C45.0646 49.6425 43.8332 49.3634 42.8997 49.9498C41.9663 50.5361 41.6871 51.7675 42.2735 52.701L47.002 60.2229C47.1122 60.3988 47.2506 60.5583 47.4124 60.692L53.3558 65.6597C55.2721 64.4096 55.9147 62.5989 55.9147 62.5989L55.9124 62.5942Z" fill="#F6B345"/>
<path d="M47.0005 60.2182L42.272 52.6963C42.272 52.6963 41.6739 51.9387 42.0914 50.9396" stroke="#BC802A" stroke-width="0.133691" stroke-linecap="round" stroke-linejoin="round"/>
<path d="M45.303 41.9658C45.303 41.9658 45.2866 41.9869 45.2772 41.9963C44.9911 42.3223 44.7003 42.6648 44.332 42.9017C43.7644 43.2652 42.9247 43.1526 42.8731 44.0322C42.8731 44.0627 42.8731 44.0932 42.8591 44.1213C42.8192 44.2245 42.6621 44.2269 42.5753 44.1588C42.4861 44.0908 42.4416 43.9829 42.3712 43.8962C42.1437 43.6147 41.7778 43.9548 41.6746 44.194C41.3275 45.0149 42.0968 44.8601 42.458 45.3621C42.6175 45.5849 42.5612 45.8898 42.4979 46.1572C42.3478 46.7998 42.2305 47.6677 41.5456 47.9702C41.2008 48.1227 40.8091 48.1227 40.4315 48.0851C40.1946 48.0617 39.9554 48.0218 39.749 47.9069C39.1978 47.6043 39.036 46.8983 38.9468 46.2745C38.7123 44.6608 38.2502 42.6953 38.7522 41.1097C39.0594 40.1364 40.0445 39.475 41.0578 39.3483C42.5635 39.1583 44.1069 39.9816 45.2233 40.9268C45.3804 41.0605 45.5423 41.22 45.5564 41.424C45.5728 41.6281 45.4391 41.8087 45.303 41.9635V41.9658Z" fill="black"/>
<path d="M38.4806 39.1559C37.9083 38.9987 37.2562 39.1864 36.8552 39.6226C36.4189 40.0987 36.304 40.786 36.2782 41.431C36.2242 42.8289 36.4963 44.2361 36.2946 45.6176C36.1421 46.659 35.7246 47.6488 35.1523 48.533C35.4854 48.5213 35.7856 48.3055 35.985 48.0358C36.1843 47.7661 36.2969 47.4447 36.4048 47.1304C36.6675 46.3752 36.9302 45.6223 37.1929 44.8671C37.3782 44.3323 37.5682 43.7811 37.54 43.2182C37.526 42.9227 37.4532 42.6225 37.5236 42.3363C37.5963 42.0502 37.8918 41.7851 38.1686 41.8883C38.3774 41.9657 38.4712 42.2026 38.64 42.3504C39.013 42.6787 39.6674 42.4161 39.855 41.9563C40.0567 41.4568 39.8034 40.8258 39.6439 40.338C39.4633 39.7868 39.0528 39.3154 38.4806 39.1559Z" fill="black"/>
<path d="M101.33 45.2548C100.387 44.9287 99.3547 45.426 99.0217 46.3689C99.0123 46.3947 98.0741 48.9723 95.7287 49.9457C94.0774 50.6306 92.0205 50.4007 89.614 49.2585L88.0566 52.5398C89.3936 53.1754 90.6812 53.5976 91.9102 53.8087C93.8007 54.1347 95.5598 53.9588 97.1664 53.2786C101.015 51.6532 102.394 47.7175 102.451 47.551C102.772 46.6058 102.27 45.5831 101.327 45.2571L101.33 45.2548Z" fill="#1F2233"/>
<path d="M105.571 85.9086L105.834 86.502C105.834 86.502 102.522 88.6012 98.8535 88.6903L100.139 87.7052L105.571 85.9109V85.9086Z" fill="#171E26"/>
<path d="M89.5628 87.2782V87.9654C89.5628 87.9654 86.7576 88.5143 82.7305 87.9654L84.1331 87.2782H89.5628Z" fill="#171E26"/>
<path d="M102.169 61.0607C102.169 61.0607 90.4679 73.8692 89.5626 87.2806C89.5626 87.2806 86.8465 88.2563 84.1328 87.2806C84.1328 87.2806 86.0936 75.171 90.2427 68.8312C94.3919 62.4914 96.036 59.4705 96.036 59.4705L102.172 61.063L102.169 61.0607Z" fill="#B5603A"/>
<path d="M94.4902 62.1021C95.5574 60.336 96.0312 59.4681 96.0312 59.4681L102.167 61.0607C102.167 61.0607 98.2383 65.367 94.7576 71.5918C94.9593 67.9962 94.6919 64.2177 94.4902 62.1021Z" fill="#9E5133"/>
<path d="M104.023 45.292C103.674 45.1349 103.28 44.9918 102.83 44.8698C99.6866 44.4758 98.2606 46.5398 97.7727 47.4991C97.6554 47.8134 97.5358 48.2168 97.4162 48.6812L96.6657 52.2627C96.0488 55.6965 95.5586 59.468 95.5586 59.468C96.3514 60.0309 97.1043 60.5492 98.7039 60.9081C100.271 61.2599 101.399 61.2177 102.17 61.0606C103.231 60.2209 102.998 58.3375 102.998 58.3375C103.048 54.2915 104.596 50.2198 105.21 48.2168C105.808 46.263 104.108 45.3366 104.023 45.292Z" fill="#31354F"/>
<g filter="url(#filter3_d_593_8839)">
<path d="M72.4377 58.1117L96.0781 59.0984L97.0648 35.4579L73.4244 34.4713L72.4377 58.1117Z" fill="white"/>
<path d="M73.9487 51.7033L95.1074 52.5864L95.7657 36.8152L74.6069 35.9321L73.9487 51.7033Z" fill="url(#paint3_linear_593_8839)"/>
<path d="M74.9383 51.024L75.1752 45.3268L78.4565 42.3082C78.9021 41.8978 79.5987 41.9259 80.0092 42.3739L84.9933 47.7943C85.3873 48.2235 86.0534 48.2516 86.4826 47.8576L89.4989 45.0829C89.907 44.7076 90.5403 44.7334 90.9156 45.1415L94.3001 48.8216L94.1734 51.8285L74.9336 51.024H74.9383Z" fill="white"/>
<path d="M90.7572 40.0359C90.722 40.9013 91.3928 41.6308 92.2583 41.6683C93.1238 41.7035 93.8532 41.0327 93.8907 40.1672C93.9259 39.3017 93.2551 38.5723 92.3896 38.5348C91.5241 38.4996 90.7947 39.1704 90.7572 40.0359Z" fill="white"/>
</g>
<path d="M103.103 44.9496C103.103 44.9496 101.449 46.6618 100.377 45.8526C100.037 45.4937 100.164 45.0434 100.164 45.0434L100.548 43.2445L103.731 42.1538L103.1 44.9496H103.103Z" fill="#EEB399"/>
<path d="M103.011 43.6362L100.405 43.9224L100.191 44.9169C101.587 45.0271 103.011 43.6386 103.011 43.6386V43.6362Z" fill="#CC957F"/>
<path d="M100.715 36.7315L101.685 36.7556C102.905 36.7858 103.87 37.7998 103.839 39.0191L103.758 42.3064C103.728 43.5257 102.714 44.4906 101.494 44.4604L100.524 44.4363C99.3043 44.4061 98.3394 43.3921 98.3696 42.1728L98.4511 38.8855C98.4813 37.6662 99.4953 36.7013 100.715 36.7315Z" fill="#EEB399"/>
<path d="M91.334 55.0564C91.1182 54.9954 90.8954 54.9274 90.7336 54.7749C90.5717 54.6201 90.499 54.3504 90.6304 54.1698C90.6984 54.076 90.8157 54.0103 90.8391 53.8977C90.8696 53.7547 90.7336 53.6374 90.6703 53.506C90.553 53.2668 90.6914 52.9572 90.9212 52.8212C90.9963 52.7766 91.0877 52.7391 91.1253 52.657C91.2074 52.4787 90.9541 52.2723 91.0385 52.0964C91.1042 51.9604 91.3176 51.958 91.3856 51.8243C91.4231 51.7516 91.4044 51.6625 91.4208 51.5851C91.4513 51.4514 91.5873 51.3646 91.7234 51.3482C91.8594 51.3318 91.9954 51.3693 92.1268 51.4045C92.3332 51.4631 92.5396 51.5218 92.7483 51.5804C92.8703 51.6156 92.9946 51.6508 93.0955 51.7282C93.3112 51.8947 93.3535 52.1996 93.3675 52.4717C93.3933 52.9947 93.3746 53.5248 93.2127 54.022C93.0814 54.4278 92.8445 54.8406 92.495 55.0963C92.176 55.3308 91.6812 55.1549 91.3317 55.0564H91.334Z" fill="#EEB399"/>
<path d="M103.816 45.754C102.831 45.5921 101.897 46.2582 101.728 47.241C101.724 47.2691 101.236 49.9688 99.0896 51.3244C97.5791 52.279 95.5127 52.3987 92.9468 51.6833L91.9688 55.1804C93.3948 55.5791 94.734 55.7785 95.9818 55.7785C97.9004 55.7785 99.6056 55.307 101.071 54.3665C104.59 52.1125 105.282 48.0009 105.31 47.825C105.467 46.8399 104.798 45.9181 103.813 45.754H103.816Z" fill="#EEB399"/>
<path d="M101.645 47.0538C101.828 45.9842 102.841 45.2618 103.913 45.4378C104.983 45.616 105.71 46.6175 105.539 47.6894C105.513 47.8465 104.985 50.9777 102.597 53.4334L99.8789 50.5696C101.284 49.0474 101.64 47.0796 101.645 47.0561V47.0538Z" fill="#31354F"/>
<path d="M95.5586 59.4681C95.5586 59.4681 95.9128 74.9458 100.142 87.7052C100.142 87.7052 103.296 87.5715 105.574 85.9109C105.574 85.9109 100.142 77.106 102.173 61.0607L95.5609 59.4681H95.5586Z" fill="#B5603A"/>
<path d="M100.566 86.5395C100.566 86.5395 100.578 86.5395 100.582 86.5372C100.615 86.5278 100.631 86.4926 100.622 86.4621C96.1516 71.6763 96.6325 60.7066 96.6371 60.5987C96.6371 60.5659 96.6137 60.5377 96.5785 60.5354H96.5762C96.5433 60.5354 96.5175 60.5612 96.5152 60.594C96.5105 60.7043 96.0297 71.6928 100.505 86.4997C100.512 86.5255 100.538 86.5419 100.563 86.5419L100.566 86.5395Z" fill="#824229"/>
<path d="M84.8112 86.8748C84.8417 86.8748 84.8675 86.8537 84.8722 86.8232C86.7134 74.4532 94.0171 63.9057 94.0898 63.8001C94.1086 63.772 94.1016 63.7344 94.0758 63.7157C94.05 63.6969 94.0101 63.704 93.9913 63.7298C93.9186 63.8353 86.5984 74.404 84.7526 86.8021C84.7479 86.8349 84.7713 86.8654 84.8042 86.8701C84.8065 86.8701 84.8088 86.8701 84.8135 86.8701L84.8112 86.8748Z" fill="#824229"/>
<path d="M97.9419 36.323C97.9115 36.3676 97.8857 36.4192 97.881 36.4755C97.8692 36.6959 98.1953 36.7499 98.336 36.9187C98.0475 37.104 97.7637 37.3292 97.63 37.6435C97.4963 37.9578 97.5643 38.3823 97.8599 38.5535C98.0053 38.638 98.1788 38.6497 98.3477 38.6591C98.6362 38.6755 98.9693 38.6755 99.1592 38.4574C99.2554 38.6544 99.3868 38.8655 99.5978 38.9194C99.7761 38.964 99.959 38.8842 100.119 38.7951C100.278 38.706 100.44 38.6004 100.623 38.5911C100.806 38.5817 101.012 38.713 101.003 38.896C101.451 38.957 101.983 38.7764 102.314 39.086C102.516 39.2759 102.548 39.5832 102.537 39.86C102.525 40.1367 102.48 40.4229 102.57 40.6832C102.659 40.9459 102.95 41.1664 103.208 41.0655C103.397 40.9905 103.543 40.7583 103.742 40.8005C103.93 40.8404 103.979 41.1031 103.902 41.279C103.824 41.4549 103.674 41.5933 103.597 41.7692C103.475 42.0483 103.566 42.386 103.768 42.6135C103.97 42.841 104.263 42.9653 104.561 43.0263C104.842 43.085 105.147 43.085 105.401 42.9513C105.654 42.8176 105.837 42.5244 105.773 42.2429C105.71 41.9638 105.347 41.7762 105.11 41.938C105.37 41.6566 105.309 41.1453 104.988 40.9342C105.262 40.8779 105.393 40.5355 105.332 40.2634C105.269 39.989 105.072 39.7708 104.892 39.5574C104.711 39.344 104.533 39.1024 104.516 38.8209C104.498 38.455 104.756 38.1431 104.887 37.803C105.119 37.2002 104.906 36.4543 104.392 36.065C104.291 35.9876 104.171 35.9219 104.045 35.9243C103.918 35.9243 103.787 36.0181 103.777 36.1447C103.763 35.8938 103.632 35.6358 103.405 35.5255C103.177 35.4153 102.86 35.4974 102.757 35.7273C102.71 35.8328 102.708 35.9548 102.642 36.0486C102.41 36.3816 101.685 36.0744 101.39 36.0157C101 35.9383 100.677 35.9501 100.287 35.9806C99.558 36.0369 98.4486 35.5396 97.9396 36.3207L97.9419 36.323Z" fill="black"/>
<path d="M104.472 41.3887C104.395 41.7451 104.046 41.9724 103.689 41.8951C103.333 41.8177 103.106 41.4684 103.183 41.1121C103.26 40.7558 103.61 40.5285 103.966 40.6058C104.322 40.6832 104.55 41.0324 104.472 41.3887Z" fill="#EEB399"/>
<path d="M103.433 52.4458L102.593 53.4286L99.875 50.5647C99.875 50.5647 101.172 49.0378 101.554 47.4265" stroke="#565F89" stroke-width="0.133691" stroke-linecap="round" stroke-linejoin="round"/>
<path d="M78.7383 31.4908H79.4017L78.9328 31.0197" stroke="#B25CDD" stroke-width="0.199364" stroke-linecap="round" stroke-linejoin="round"/>
<path d="M78.0093 30.0956L63.6621 15.7484" stroke="#B25CDD" stroke-width="0.199364" stroke-linecap="round" stroke-linejoin="round" stroke-dasharray="1.31 1.31"/>
<path d="M63.1955 15.2836L62.7266 14.8148L62.2578 15.2836" stroke="#B25CDD" stroke-width="0.199364" stroke-linecap="round" stroke-linejoin="round"/>
<path d="M61.3316 16.2103L46.9844 30.5575" stroke="#B25CDD" stroke-width="0.199364" stroke-linecap="round" stroke-linejoin="round" stroke-dasharray="1.31 1.31"/>
<path d="M46.5196 31.0197L46.0508 31.4908H46.7142" stroke="#B25CDD" stroke-width="0.199364" stroke-linecap="round" stroke-linejoin="round"/>
<path d="M47.9941 31.4911H52.4763" stroke="#B25CDD" stroke-width="0.199364" stroke-linecap="round" stroke-linejoin="round" stroke-dasharray="1.28 1.28"/>
<path d="M53.1191 31.4911H53.7825V32.1545" stroke="#B25CDD" stroke-width="0.199364" stroke-linecap="round" stroke-linejoin="round"/>
<path d="M53.7812 33.4778V46.0471" stroke="#B25CDD" stroke-width="0.199364" stroke-linecap="round" stroke-linejoin="round" stroke-dasharray="1.32 1.32"/>
<path d="M53.7812 46.7086V47.3744H54.4446" stroke="#B25CDD" stroke-width="0.199364" stroke-linecap="round" stroke-linejoin="round"/>
<path d="M55.7227 47.3748H70.3724" stroke="#B25CDD" stroke-width="0.199364" stroke-linecap="round" stroke-linejoin="round" stroke-dasharray="1.27 1.27"/>
<path d="M71.0098 47.3744H71.6732V46.7086" stroke="#B25CDD" stroke-width="0.199364" stroke-linecap="round" stroke-linejoin="round"/>
<path d="M71.6738 45.3856V32.8163" stroke="#B25CDD" stroke-width="0.199364" stroke-linecap="round" stroke-linejoin="round" stroke-dasharray="1.32 1.32"/>
<path d="M71.6738 32.1545V31.4911H72.3372" stroke="#B25CDD" stroke-width="0.199364" stroke-linecap="round" stroke-linejoin="round"/>
<path d="M73.6191 31.4911H78.1013" stroke="#B25CDD" stroke-width="0.199364" stroke-linecap="round" stroke-linejoin="round" stroke-dasharray="1.28 1.28"/>
<path d="M48.4533 35.4783C48.4533 35.7104 48.2634 35.9003 48.0313 35.9003C47.7993 35.9003 47.6094 35.7104 47.6094 35.4783C47.6094 35.2463 47.7993 35.0564 48.0313 35.0564C48.2634 35.0564 48.4533 35.2463 48.4533 35.4783Z" fill="white"/>
<path d="M30.8009 49.5603C30.8009 49.7923 30.611 49.9822 30.379 49.9822C30.1469 49.9822 29.957 49.7923 29.957 49.5603C29.957 49.3282 30.1469 49.1383 30.379 49.1383C30.611 49.1383 30.8009 49.3282 30.8009 49.5603Z" fill="#C1A0FD"/>
<path d="M34.7305 40.6034C34.7305 40.7206 34.6368 40.8144 34.5196 40.8144C34.4024 40.8144 34.3086 40.7206 34.3086 40.6034C34.3086 40.4862 34.4024 40.3925 34.5196 40.3925C34.6368 40.3925 34.7305 40.4862 34.7305 40.6034Z" fill="#C1A0FD"/>
<path d="M104.277 64.1258C104.277 64.243 104.184 64.3367 104.066 64.3367C103.949 64.3367 103.855 64.243 103.855 64.1258C103.855 64.0086 103.949 63.9148 104.066 63.9148C104.184 63.9148 104.277 64.0086 104.277 64.1258Z" fill="#C1A0FD"/>
<path d="M27.0684 37.4106C27.1849 37.4106 27.2794 37.3161 27.2794 37.1996C27.2794 37.0831 27.1849 36.9886 27.0684 36.9886C26.9519 36.9886 26.8574 37.0831 26.8574 37.1996C26.8574 37.3161 26.9519 37.4106 27.0684 37.4106Z" fill="#C1A0FD"/>
<path d="M62.2227 43.0801C62.3392 43.0801 62.4337 42.9857 62.4337 42.8692C62.4337 42.7527 62.3392 42.6582 62.2227 42.6582C62.1062 42.6582 62.0117 42.7527 62.0117 42.8692C62.0117 42.9857 62.1062 43.0801 62.2227 43.0801Z" fill="#C1A0FD"/>
<path d="M90.5606 32.9172C90.6771 32.9172 90.7716 32.8227 90.7716 32.7062C90.7716 32.5897 90.6771 32.4952 90.5606 32.4952C90.4441 32.4952 90.3496 32.5897 90.3496 32.7062C90.3496 32.8227 90.4441 32.9172 90.5606 32.9172Z" fill="#C1A0FD"/>
<path d="M109.455 61.3884C109.572 61.3884 109.666 61.2939 109.666 61.1774C109.666 61.0609 109.572 60.9664 109.455 60.9664C109.339 60.9664 109.244 61.0609 109.244 61.1774C109.244 61.2939 109.339 61.3884 109.455 61.3884Z" fill="#C1A0FD"/>
<path d="M101.598 33.1278C101.714 33.1278 101.809 33.0333 101.809 32.9168C101.809 32.8003 101.714 32.7058 101.598 32.7058C101.481 32.7058 101.387 32.8003 101.387 32.9168C101.387 33.0333 101.481 33.1278 101.598 33.1278Z" fill="#C1A0FD"/>
<path d="M26.2032 78.7801C26.3197 78.7801 26.4141 78.6856 26.4141 78.5691C26.4141 78.4526 26.3197 78.3582 26.2032 78.3582C26.0866 78.3582 25.9922 78.4526 25.9922 78.5691C25.9922 78.6856 26.0866 78.7801 26.2032 78.7801Z" fill="#C1A0FD"/>
<path d="M109.455 39.7C109.455 39.9321 109.265 40.122 109.033 40.122C108.801 40.122 108.611 39.9321 108.611 39.7C108.611 39.468 108.801 39.2781 109.033 39.2781C109.265 39.2781 109.455 39.468 109.455 39.7Z" fill="#C1A0FD"/>
<path d="M103.854 74.2463C103.854 74.4784 103.664 74.6682 103.432 74.6682C103.2 74.6682 103.01 74.4784 103.01 74.2463C103.01 74.0142 103.2 73.8243 103.432 73.8243C103.664 73.8243 103.854 74.0142 103.854 74.2463Z" fill="#C1A0FD"/>
<path d="M71.2306 54.685C71.2306 54.9171 71.0407 55.107 70.8087 55.107C70.5766 55.107 70.3867 54.9171 70.3867 54.685C70.3867 54.4529 70.5766 54.2631 70.8087 54.2631C71.0407 54.2631 71.2306 54.4529 71.2306 54.685Z" fill="#C1A0FD"/>
<path d="M55.7482 51.3217C55.7482 51.5538 55.5583 51.7437 55.3262 51.7437C55.0942 51.7437 54.9043 51.5538 54.9043 51.3217C54.9043 51.0897 55.0942 50.8998 55.3262 50.8998C55.5583 50.8998 55.7482 51.0897 55.7482 51.3217Z" fill="#C1A0FD"/>
<path d="M22.5275 69.3749C22.5275 69.607 22.3376 69.7969 22.1055 69.7969C21.8735 69.7969 21.6836 69.607 21.6836 69.3749C21.6836 69.1429 21.8735 68.953 22.1055 68.953C22.3376 68.953 22.5275 69.1429 22.5275 69.3749Z" fill="#C1A0FD"/>
<path d="M46.0216 33.3391C46.0216 33.5711 45.8317 33.761 45.5997 33.761C45.3676 33.761 45.1777 33.5711 45.1777 33.3391C45.1777 33.107 45.3676 32.9171 45.5997 32.9171C45.8317 32.9171 46.0216 33.107 46.0216 33.3391Z" fill="#C1A0FD"/>
<path d="M69.3439 52.166C69.3439 52.398 69.154 52.5879 68.9219 52.5879C68.6899 52.5879 68.5 52.398 68.5 52.166C68.5 51.9339 68.6899 51.744 68.9219 51.744C69.154 51.744 69.3439 51.9339 69.3439 52.166Z" fill="white"/>
<path d="M28.7676 37.8325C29.0007 37.8325 29.1896 37.6436 29.1896 37.4106C29.1896 37.1776 29.0007 36.9886 28.7676 36.9886C28.5346 36.9886 28.3457 37.1776 28.3457 37.4106C28.3457 37.6436 28.5346 37.8325 28.7676 37.8325Z" fill="white"/>
<path d="M105.756 72.6818C105.756 72.9139 105.566 73.1038 105.334 73.1038C105.102 73.1038 104.912 72.9139 104.912 72.6818C104.912 72.4498 105.102 72.2599 105.334 72.2599C105.566 72.2599 105.756 72.4498 105.756 72.6818Z" fill="white"/>
<path d="M22.5275 73.5895C22.5275 73.8216 22.3376 74.0115 22.1055 74.0115C21.8735 74.0115 21.6836 73.8216 21.6836 73.5895C21.6836 73.3575 21.8735 73.1676 22.1055 73.1676C22.3376 73.1676 22.5275 73.3575 22.5275 73.5895Z" fill="white"/>
<path d="M95.7267 27.7266C95.7267 27.9587 95.5368 28.1486 95.3048 28.1486C95.0727 28.1486 94.8828 27.9587 94.8828 27.7266C94.8828 27.4946 95.0727 27.3047 95.3048 27.3047C95.5368 27.3047 95.7267 27.4946 95.7267 27.7266Z" fill="white"/>
<path d="M88.4767 62.8452C88.4767 63.0772 88.2868 63.2671 88.0548 63.2671C87.8227 63.2671 87.6328 63.0772 87.6328 62.8452C87.6328 62.6131 87.8227 62.4232 88.0548 62.4232C88.2868 62.4232 88.4767 62.6131 88.4767 62.8452Z" fill="white"/>
<path d="M31.7931 51.3217C31.7931 51.5538 31.6032 51.7437 31.3712 51.7437C31.1391 51.7437 30.9492 51.5538 30.9492 51.3217C30.9492 51.0897 31.1391 50.8998 31.3712 50.8998C31.6032 50.8998 31.7931 51.0897 31.7931 51.3217Z" fill="white"/>
<path d="M39.2447 138.486C39.2447 139.754 39.0042 140.834 38.5231 141.724C38.0459 142.614 37.3943 143.294 36.5686 143.764C35.7466 144.23 34.8224 144.463 33.7959 144.463C32.7618 144.463 31.8337 144.228 31.0118 143.758C30.1898 143.289 29.5402 142.609 29.0629 141.718C28.5856 140.828 28.347 139.751 28.347 138.486C28.347 137.217 28.5856 136.137 29.0629 135.247C29.5402 134.357 30.1898 133.679 31.0118 133.213C31.8337 132.743 32.7618 132.508 33.7959 132.508C34.8224 132.508 35.7466 132.743 36.5686 133.213C37.3943 133.679 38.0459 134.357 38.5231 135.247C39.0042 136.137 39.2447 137.217 39.2447 138.486ZM36.7504 138.486C36.7504 137.664 36.6273 136.97 36.3811 136.406C36.1387 135.842 35.7959 135.414 35.3527 135.122C34.9095 134.83 34.3906 134.684 33.7959 134.684C33.2012 134.684 32.6822 134.83 32.239 135.122C31.7959 135.414 31.4512 135.842 31.2049 136.406C30.9625 136.97 30.8413 137.664 30.8413 138.486C30.8413 139.307 30.9625 140.001 31.2049 140.565C31.4512 141.129 31.7959 141.557 32.239 141.849C32.6822 142.141 33.2012 142.287 33.7959 142.287C34.3906 142.287 34.9095 142.141 35.3527 141.849C35.7959 141.557 36.1387 141.129 36.3811 140.565C36.6273 140.001 36.7504 139.307 36.7504 138.486ZM41.5229 144.304V135.576H43.8695V137.099H43.9604C44.1195 136.557 44.3865 136.148 44.7615 135.872C45.1365 135.592 45.5684 135.451 46.057 135.451C46.1782 135.451 46.3089 135.459 46.449 135.474C46.5892 135.489 46.7123 135.51 46.8184 135.537V137.684C46.7047 137.65 46.5475 137.62 46.3468 137.593C46.146 137.567 45.9623 137.554 45.7956 137.554C45.4396 137.554 45.1214 137.631 44.8411 137.787C44.5646 137.938 44.3449 138.15 44.182 138.423C44.0229 138.696 43.9434 139.01 43.9434 139.366V144.304H41.5229ZM48.571 144.304V135.576H50.9914V144.304H48.571ZM49.7869 134.451C49.427 134.451 49.1183 134.332 48.8607 134.093C48.6069 133.851 48.48 133.561 48.48 133.224C48.48 132.891 48.6069 132.605 48.8607 132.366C49.1183 132.124 49.427 132.003 49.7869 132.003C50.1467 132.003 50.4535 132.124 50.7073 132.366C50.9649 132.605 51.0937 132.891 51.0937 133.224C51.0937 133.561 50.9649 133.851 50.7073 134.093C50.4535 134.332 50.1467 134.451 49.7869 134.451ZM57.3633 147.758C56.5792 147.758 55.9069 147.65 55.3463 147.434C54.7895 147.222 54.3463 146.932 54.0167 146.565C53.6872 146.198 53.4732 145.785 53.3747 145.326L55.6133 145.025C55.6815 145.2 55.7895 145.362 55.9372 145.514C56.0849 145.665 56.28 145.787 56.5224 145.878C56.7686 145.972 57.0679 146.02 57.4202 146.02C57.9467 146.02 58.3804 145.891 58.7213 145.633C59.066 145.379 59.2383 144.953 59.2383 144.355V142.758H59.1361C59.03 143.001 58.8709 143.23 58.6588 143.446C58.4467 143.662 58.1739 143.838 57.8406 143.974C57.5073 144.111 57.1095 144.179 56.6474 144.179C55.9921 144.179 55.3955 144.027 54.8577 143.724C54.3236 143.417 53.8974 142.95 53.5792 142.321C53.2649 141.688 53.1077 140.889 53.1077 139.923C53.1077 138.934 53.2686 138.109 53.5906 137.446C53.9126 136.783 54.3406 136.287 54.8747 135.957C55.4126 135.628 56.0016 135.463 56.6417 135.463C57.1304 135.463 57.5395 135.546 57.869 135.713C58.1986 135.876 58.4637 136.08 58.6645 136.326C58.869 136.569 59.0262 136.807 59.1361 137.042H59.227V135.576H61.6304V144.389C61.6304 145.131 61.4486 145.753 61.0849 146.253C60.7213 146.753 60.2175 147.128 59.5736 147.378C58.9334 147.631 58.1967 147.758 57.3633 147.758ZM57.4145 142.361C57.8046 142.361 58.1342 142.264 58.4031 142.071C58.6758 141.874 58.8842 141.593 59.0281 141.23C59.1758 140.862 59.2497 140.423 59.2497 139.912C59.2497 139.4 59.1777 138.957 59.0338 138.582C58.8899 138.203 58.6815 137.91 58.4088 137.701C58.1361 137.493 57.8046 137.389 57.4145 137.389C57.0167 137.389 56.6815 137.497 56.4088 137.713C56.1361 137.925 55.9296 138.22 55.7895 138.599C55.6493 138.978 55.5792 139.415 55.5792 139.912C55.5792 140.415 55.6493 140.851 55.7895 141.218C55.9334 141.582 56.1399 141.864 56.4088 142.065C56.6815 142.262 57.0167 142.361 57.4145 142.361ZM64.0577 144.304V135.576H66.4782V144.304H64.0577ZM65.2736 134.451C64.9138 134.451 64.6051 134.332 64.3475 134.093C64.0937 133.851 63.9668 133.561 63.9668 133.224C63.9668 132.891 64.0937 132.605 64.3475 132.366C64.6051 132.124 64.9138 132.003 65.2736 132.003C65.6335 132.003 65.9403 132.124 66.1941 132.366C66.4516 132.605 66.5804 132.891 66.5804 133.224C66.5804 133.561 66.4516 133.851 66.1941 134.093C65.9403 134.332 65.6335 134.451 65.2736 134.451ZM71.3387 139.258V144.304H68.9183V135.576H71.2251V137.116H71.3274C71.5205 136.609 71.8444 136.207 72.2989 135.912C72.7535 135.612 73.3046 135.463 73.9524 135.463C74.5584 135.463 75.0868 135.595 75.5376 135.861C75.9883 136.126 76.3387 136.504 76.5887 136.997C76.8387 137.486 76.9637 138.069 76.9637 138.747V144.304H74.5433V139.179C74.5471 138.645 74.4107 138.228 74.1342 137.929C73.8577 137.626 73.477 137.474 72.9921 137.474C72.6664 137.474 72.3785 137.544 72.1285 137.684C71.8823 137.825 71.6891 138.029 71.5489 138.298C71.4126 138.563 71.3425 138.883 71.3387 139.258ZM81.8612 144.468C81.3044 144.468 80.8082 144.372 80.3726 144.179C79.937 143.982 79.5923 143.692 79.3385 143.309C79.0885 142.923 78.9635 142.442 78.9635 141.866C78.9635 141.381 79.0525 140.974 79.2305 140.645C79.4086 140.315 79.651 140.05 79.9578 139.849C80.2646 139.648 80.6131 139.497 81.0033 139.395C81.3972 139.292 81.8101 139.22 82.2419 139.179C82.7495 139.126 83.1586 139.076 83.4692 139.031C83.7798 138.982 84.0052 138.91 84.1453 138.815C84.2855 138.72 84.3555 138.58 84.3555 138.395V138.361C84.3555 138.001 84.2419 137.722 84.0146 137.525C83.7911 137.328 83.473 137.23 83.0601 137.23C82.6245 137.23 82.2779 137.326 82.0203 137.52C81.7627 137.709 81.5923 137.948 81.5089 138.236L79.2703 138.054C79.3839 137.523 79.6074 137.065 79.9408 136.679C80.2741 136.289 80.704 135.989 81.2305 135.781C81.7608 135.569 82.3745 135.463 83.0714 135.463C83.5563 135.463 84.0203 135.52 84.4635 135.633C84.9105 135.747 85.3063 135.923 85.651 136.162C85.9995 136.4 86.2741 136.707 86.4749 137.082C86.6756 137.453 86.776 137.898 86.776 138.417V144.304H84.4805V143.093H84.4124C84.2722 143.366 84.0847 143.607 83.8499 143.815C83.615 144.02 83.3328 144.181 83.0033 144.298C82.6737 144.412 82.293 144.468 81.8612 144.468ZM82.5544 142.798C82.9105 142.798 83.2249 142.728 83.4976 142.588C83.7703 142.444 83.9843 142.251 84.1396 142.008C84.2949 141.766 84.3726 141.491 84.3726 141.184V140.258C84.2968 140.307 84.1927 140.353 84.0601 140.395C83.9313 140.432 83.7855 140.468 83.6226 140.503C83.4597 140.533 83.2968 140.561 83.1339 140.588C82.9711 140.611 82.8233 140.631 82.6908 140.65C82.4067 140.692 82.1586 140.758 81.9464 140.849C81.7343 140.94 81.5695 141.063 81.4521 141.218C81.3347 141.37 81.276 141.559 81.276 141.787C81.276 142.116 81.3953 142.368 81.6339 142.542C81.8764 142.713 82.1832 142.798 82.5544 142.798ZM91.5755 132.667V144.304H89.155V132.667H91.5755ZM34.3658 164.304V152.667H38.9567C39.8393 152.667 40.5912 152.836 41.2124 153.173C41.8336 153.506 42.3071 153.97 42.6329 154.565C42.9624 155.156 43.1272 155.838 43.1272 156.611C43.1272 157.383 42.9605 158.065 42.6272 158.656C42.2939 159.247 41.8109 159.707 41.1783 160.037C40.5495 160.366 39.7882 160.531 38.8942 160.531H35.9681V158.559H38.4965C38.97 158.559 39.3601 158.478 39.667 158.315C39.9776 158.148 40.2086 157.919 40.3601 157.628C40.5154 157.332 40.5931 156.993 40.5931 156.611C40.5931 156.224 40.5154 155.887 40.3601 155.599C40.2086 155.307 39.9776 155.082 39.667 154.923C39.3563 154.76 38.9624 154.679 38.4851 154.679H36.826V164.304H34.3658ZM47.6014 159.258V164.304H45.1809V152.667H47.5332V157.116H47.6355C47.8324 156.601 48.1506 156.198 48.59 155.906C49.0294 155.611 49.5805 155.463 50.2434 155.463C50.8495 155.463 51.3779 155.595 51.8287 155.861C52.2832 156.122 52.6355 156.499 52.8855 156.991C53.1393 157.48 53.2643 158.065 53.2605 158.747V164.304H50.84V159.179C50.8438 158.641 50.7074 158.222 50.4309 157.923C50.1582 157.624 49.7756 157.474 49.2832 157.474C48.9537 157.474 48.662 157.544 48.4082 157.684C48.1582 157.825 47.9612 158.029 47.8173 158.298C47.6771 158.563 47.6052 158.883 47.6014 159.258ZM59.6097 164.474C58.7271 164.474 57.9638 164.287 57.3199 163.912C56.6797 163.533 56.1854 163.006 55.8369 162.332C55.4885 161.654 55.3142 160.868 55.3142 159.974C55.3142 159.073 55.4885 158.285 55.8369 157.611C56.1854 156.932 56.6797 156.406 57.3199 156.031C57.9638 155.652 58.7271 155.463 59.6097 155.463C60.4922 155.463 61.2536 155.652 61.8938 156.031C62.5377 156.406 63.0339 156.932 63.3824 157.611C63.7309 158.285 63.9051 159.073 63.9051 159.974C63.9051 160.868 63.7309 161.654 63.3824 162.332C63.0339 163.006 62.5377 163.533 61.8938 163.912C61.2536 164.287 60.4922 164.474 59.6097 164.474ZM59.621 162.599C60.0225 162.599 60.3578 162.486 60.6267 162.258C60.8957 162.027 61.0983 161.713 61.2347 161.315C61.3748 160.917 61.4449 160.465 61.4449 159.957C61.4449 159.45 61.3748 158.997 61.2347 158.599C61.0983 158.201 60.8957 157.887 60.6267 157.656C60.3578 157.425 60.0225 157.309 59.621 157.309C59.2157 157.309 58.8748 157.425 58.5983 157.656C58.3256 157.887 58.1191 158.201 57.979 158.599C57.8426 158.997 57.7744 159.45 57.7744 159.957C57.7744 160.465 57.8426 160.917 57.979 161.315C58.1191 161.713 58.3256 162.027 58.5983 162.258C58.8748 162.486 59.2157 162.599 59.621 162.599ZM70.6222 155.576V157.395H65.3665V155.576H70.6222ZM66.5597 153.486H68.9802V161.622C68.9802 161.845 69.0143 162.02 69.0824 162.145C69.1506 162.266 69.2453 162.351 69.3665 162.4C69.4915 162.45 69.6355 162.474 69.7984 162.474C69.912 162.474 70.0256 162.465 70.1393 162.446C70.2529 162.423 70.34 162.406 70.4006 162.395L70.7813 164.196C70.6601 164.234 70.4896 164.277 70.2699 164.326C70.0503 164.379 69.7832 164.412 69.4688 164.423C68.8855 164.446 68.3741 164.368 67.9347 164.19C67.4991 164.012 67.1601 163.736 66.9177 163.361C66.6753 162.986 66.5559 162.512 66.5597 161.94V153.486ZM76.5495 164.474C75.667 164.474 74.9037 164.287 74.2598 163.912C73.6196 163.533 73.1253 163.006 72.7768 162.332C72.4283 161.654 72.2541 160.868 72.2541 159.974C72.2541 159.073 72.4283 158.285 72.7768 157.611C73.1253 156.932 73.6196 156.406 74.2598 156.031C74.9037 155.652 75.667 155.463 76.5495 155.463C77.4321 155.463 78.1935 155.652 78.8336 156.031C79.4776 156.406 79.9738 156.932 80.3223 157.611C80.6708 158.285 80.845 159.073 80.845 159.974C80.845 160.868 80.6708 161.654 80.3223 162.332C79.9738 163.006 79.4776 163.533 78.8336 163.912C78.1935 164.287 77.4321 164.474 76.5495 164.474ZM76.5609 162.599C76.9624 162.599 77.2976 162.486 77.5666 162.258C77.8355 162.027 78.0382 161.713 78.1745 161.315C78.3147 160.917 78.3848 160.465 78.3848 159.957C78.3848 159.45 78.3147 158.997 78.1745 158.599C78.0382 158.201 77.8355 157.887 77.5666 157.656C77.2976 157.425 76.9624 157.309 76.5609 157.309C76.1556 157.309 75.8147 157.425 75.5382 157.656C75.2654 157.887 75.059 158.201 74.9189 158.599C74.7825 158.997 74.7143 159.45 74.7143 159.957C74.7143 160.465 74.7825 160.917 74.9189 161.315C75.059 161.713 75.2654 162.027 75.5382 162.258C75.8147 162.486 76.1556 162.599 76.5609 162.599ZM90.1814 158.065L87.9655 158.201C87.9276 158.012 87.8462 157.842 87.7212 157.69C87.5962 157.535 87.4314 157.412 87.2269 157.321C87.0261 157.226 86.7856 157.179 86.5053 157.179C86.1303 157.179 85.814 157.258 85.5564 157.417C85.2988 157.573 85.17 157.781 85.17 158.042C85.17 158.251 85.2534 158.427 85.42 158.571C85.5867 158.715 85.8727 158.83 86.278 158.917L87.8575 159.236C88.706 159.41 89.3386 159.69 89.7553 160.076C90.1719 160.463 90.3803 160.97 90.3803 161.599C90.3803 162.171 90.2117 162.673 89.8746 163.105C89.5413 163.537 89.0829 163.874 88.4996 164.116C87.92 164.355 87.2515 164.474 86.4939 164.474C85.3386 164.474 84.4182 164.234 83.7325 163.753C83.0507 163.268 82.6511 162.609 82.5337 161.775L84.9144 161.65C84.9863 162.003 85.1606 162.272 85.4371 162.457C85.7136 162.639 86.0678 162.73 86.4996 162.73C86.9238 162.73 87.2647 162.648 87.5223 162.486C87.7837 162.319 87.9163 162.105 87.92 161.843C87.9163 161.624 87.8235 161.444 87.6416 161.304C87.4598 161.16 87.1795 161.05 86.8007 160.974L85.2894 160.673C84.4371 160.503 83.8026 160.207 83.386 159.787C82.9731 159.366 82.7666 158.83 82.7666 158.179C82.7666 157.618 82.9182 157.135 83.2212 156.73C83.528 156.325 83.9579 156.012 84.511 155.792C85.0678 155.573 85.7193 155.463 86.4655 155.463C87.5678 155.463 88.4352 155.696 89.0678 156.162C89.7041 156.628 90.0754 157.262 90.1814 158.065Z" fill="#5E213E"/>
<defs>
<filter id="filter0_d_593_8839" x="57.4569" y="54.5909" width="25.9877" height="25.9872" filterUnits="userSpaceOnUse" color-interpolation-filters="sRGB">
<feFlood flood-opacity="0" result="BackgroundImageFix"/>
<feColorMatrix in="SourceAlpha" type="matrix" values="0 0 0 0 0 0 0 0 0 0 0 0 0 0 0 0 0 0 127 0" result="hardAlpha"/>
<feOffset dx="0.703639" dy="0.703639"/>
<feGaussianBlur stdDeviation="0.469092"/>
<feColorMatrix type="matrix" values="0 0 0 0 0 0 0 0 0 0 0 0 0 0 0 0 0 0 0.4 0"/>
<feBlend mode="normal" in2="BackgroundImageFix" result="effect1_dropShadow_593_8839"/>
<feBlend mode="normal" in="SourceGraphic" in2="effect1_dropShadow_593_8839" result="shape"/>
</filter>
<filter id="filter1_d_593_8839" x="54.0076" y="55.6278" width="28.9057" height="28.9063" filterUnits="userSpaceOnUse" color-interpolation-filters="sRGB">
<feFlood flood-opacity="0" result="BackgroundImageFix"/>
<feColorMatrix in="SourceAlpha" type="matrix" values="0 0 0 0 0 0 0 0 0 0 0 0 0 0 0 0 0 0 127 0" result="hardAlpha"/>
<feOffset dx="0.703639" dy="0.703639"/>
<feGaussianBlur stdDeviation="0.469092"/>
<feColorMatrix type="matrix" values="0 0 0 0 0 0 0 0 0 0 0 0 0 0 0 0 0 0 0.4 0"/>
<feBlend mode="normal" in2="BackgroundImageFix" result="effect1_dropShadow_593_8839"/>
<feBlend mode="normal" in="SourceGraphic" in2="effect1_dropShadow_593_8839" result="shape"/>
</filter>
<filter id="filter2_d_593_8839" x="44.0037" y="52.8449" width="30.3666" height="30.3675" filterUnits="userSpaceOnUse" color-interpolation-filters="sRGB">
<feFlood flood-opacity="0" result="BackgroundImageFix"/>
<feColorMatrix in="SourceAlpha" type="matrix" values="0 0 0 0 0 0 0 0 0 0 0 0 0 0 0 0 0 0 127 0" result="hardAlpha"/>
<feOffset dx="0.703639" dy="0.703639"/>
<feGaussianBlur stdDeviation="0.469092"/>
<feColorMatrix type="matrix" values="0 0 0 0 0 0 0 0 0 0 0 0 0 0 0 0 0 0 0.4 0"/>
<feBlend mode="normal" in2="BackgroundImageFix" result="effect1_dropShadow_593_8839"/>
<feBlend mode="normal" in="SourceGraphic" in2="effect1_dropShadow_593_8839" result="shape"/>
</filter>
<filter id="filter3_d_593_8839" x="72.203" y="34.2366" width="26.5033" height="26.5036" filterUnits="userSpaceOnUse" color-interpolation-filters="sRGB">
<feFlood flood-opacity="0" result="BackgroundImageFix"/>
<feColorMatrix in="SourceAlpha" type="matrix" values="0 0 0 0 0 0 0 0 0 0 0 0 0 0 0 0 0 0 127 0" result="hardAlpha"/>
<feOffset dx="0.703639" dy="0.703639"/>
<feGaussianBlur stdDeviation="0.469092"/>
<feColorMatrix type="matrix" values="0 0 0 0 0 0 0 0 0 0 0 0 0 0 0 0 0 0 0.4 0"/>
<feBlend mode="normal" in2="BackgroundImageFix" result="effect1_dropShadow_593_8839"/>
<feBlend mode="normal" in="SourceGraphic" in2="effect1_dropShadow_593_8839" result="shape"/>
</filter>
<linearGradient id="paint0_linear_593_8839" x1="80.3839" y1="64.5156" x2="59.2106" y2="64.109" gradientUnits="userSpaceOnUse">
<stop stop-color="#B15CDE"/>
<stop offset="1" stop-color="#EC4899"/>
</linearGradient>
<linearGradient id="paint1_linear_593_8839" x1="78.6177" y1="68.4762" x2="57.6944" y2="65.2072" gradientUnits="userSpaceOnUse">
<stop stop-color="#B15CDE"/>
<stop offset="1" stop-color="#EC4899"/>
</linearGradient>
<linearGradient id="paint2_linear_593_8839" x1="68.1901" y1="62.376" x2="47.5869" y2="67.273" gradientUnits="userSpaceOnUse">
<stop stop-color="#B15CDE"/>
<stop offset="1" stop-color="#EC4899"/>
</linearGradient>
<linearGradient id="paint3_linear_593_8839" x1="74.276" y1="43.8594" x2="95.4348" y2="44.7425" gradientUnits="userSpaceOnUse">
<stop stop-color="#B15CDE"/>
<stop offset="1" stop-color="#EC4899"/>
</linearGradient>
</defs>
</svg>
