<svg width="125" height="181" viewBox="0 0 125 181" fill="none" xmlns="http://www.w3.org/2000/svg">
<rect width="124.294" height="180.332" rx="8.01898" fill="#FFF9FC"/>
<path d="M4.48366 33.53C2.83959 33.53 1.50195 34.8677 1.50195 36.5117C1.50195 38.1558 2.83959 39.4934 4.48366 39.4934C6.12772 39.4934 7.46536 38.1558 7.46536 36.5117C7.46536 34.8677 6.12772 33.53 4.48366 33.53ZM1.69158 36.6043H2.92669C2.94183 37.124 3.07405 37.5918 3.25454 37.9916H2.1148C1.86092 37.5864 1.70843 37.1126 1.69158 36.6043ZM4.57618 34.838V33.8133C4.76238 33.9941 5.09222 34.3516 5.36951 34.838H4.57618ZM5.46775 35.023C5.66908 35.4223 5.82187 35.8943 5.83757 36.4192H4.5759V35.023H5.46775ZM4.39113 33.7965V34.838H3.58095C3.86681 34.3365 4.20893 33.9715 4.39113 33.7965ZM4.39113 35.023V36.4192H3.11175C3.12774 35.8949 3.28052 35.4225 3.48214 35.023H4.39113ZM2.92669 36.4192H1.69158C1.70843 35.9072 1.86292 35.4303 2.12023 35.023H3.27024C3.08005 35.4251 2.94126 35.896 2.92669 36.4192ZM3.11203 36.6043H4.39113V37.9916H3.465C3.27367 37.5941 3.12888 37.1251 3.11203 36.6043ZM4.39113 38.1764V39.277C4.24263 39.1345 3.86624 38.7418 3.55867 38.1764H4.39113ZM4.57618 39.2598V38.1764H5.39093C5.09393 38.7232 4.73411 39.1059 4.57618 39.2598ZM4.57618 37.9913V36.604H5.83757C5.82101 37.1249 5.67594 37.5938 5.48489 37.9913H4.57618ZM6.02263 36.6043H7.27545C7.2586 37.1126 7.1061 37.5864 6.85222 37.9916H5.69478C5.87555 37.5918 6.00749 37.124 6.02263 36.6043ZM6.02291 36.4192C6.00835 35.896 5.86956 35.4251 5.67936 35.023H6.84708C7.10439 35.43 7.25889 35.9069 7.27573 36.4192H6.02291ZM6.71886 34.838H5.58655C5.31126 34.3239 4.97171 33.9421 4.75609 33.7288C5.55799 33.8068 6.25965 34.2263 6.71886 34.838ZM4.1918 33.7305C3.97619 33.9444 3.63778 34.3254 3.36305 34.8383H2.24816C2.70394 34.2311 3.39789 33.813 4.1918 33.7305ZM2.24188 38.1764H3.34363C3.60637 38.6898 3.92992 39.0708 4.13554 39.2841C3.36134 39.1873 2.68624 38.7735 2.24188 38.1764ZM4.8115 39.2872C5.01683 39.0745 5.34238 38.6924 5.60626 38.1764H6.72543C6.27707 38.7789 5.59398 39.1953 4.8115 39.2872Z" fill="white"/>
<path d="M109.279 76.9885C104.277 84.8438 95.4845 85.0683 87.5806 82.4239C86.7036 82.1289 85.8374 81.8013 84.9873 81.452C76.8586 77.8926 68.9953 83.2386 61.9735 86.8332C61.1371 87.3204 60.2709 87.813 59.3831 88.2759C53.1601 91.5215 45.8379 93.159 40.9791 87.2798C38.0097 83.6878 38.7216 78.913 38.7054 74.6145C38.6891 69.826 36.9839 65.644 34.4203 61.6568C31.0125 56.3542 26.4404 51.322 25.2467 44.942C23.5333 35.7981 26.9493 26.0023 36.5558 23.2305C42.6517 21.471 48.8693 23.6717 54.9055 24.5867C59.8346 25.3337 64.8613 24.3105 69.4656 22.5699C70.3075 22.2532 71.1465 21.9177 71.9859 21.5738C77.5537 19.2867 83.0759 16.5822 88.9525 15.6647C94.1983 14.8445 98.9625 16.2196 100.963 21.5684C102.717 26.2567 101.477 31.4753 102.268 36.3181C102.703 38.9871 103.718 41.426 104.926 43.7917C107.018 47.89 109.679 51.7632 110.889 56.2268C111.235 57.5045 111.53 58.8281 111.758 60.1735C112.719 65.9013 112.416 72.0674 109.279 76.9885Z" fill="#FCDEF9"/>
<path d="M45.5305 104.64C45.5305 105.377 38.964 105.974 30.8639 105.974C22.7638 105.974 16.1973 105.377 16.1973 104.64C16.1973 103.904 22.7638 103.307 30.8639 103.307C38.964 103.307 45.5305 103.904 45.5305 104.64Z" fill="url(#paint0_linear_593_8811)"/>
<path d="M90.5328 61.6216C85.044 63.4587 84.7724 67.2114 83.3009 66.5249C83.2246 66.4895 83.1595 66.4509 83.1024 66.4047C82.1095 65.6185 83.9851 63.3633 82.481 58.043C81.532 54.676 79.6001 48.4985 81.8581 47.2305C83.7915 46.1467 84.4937 51.4296 87.3075 50.0854C89.3531 49.1087 85.4053 45.9868 87.1042 44.6897C88.9858 43.2527 90.0773 47.3556 91.552 45.7318C93.0233 44.1092 92.5904 40.3607 94.4806 40.8901C94.5103 40.8981 94.5386 40.9087 94.5646 40.9178C96.338 41.5067 95.4376 44.2808 94.7582 46.0696C94.0682 47.887 93.7393 48.3914 94.3144 48.5584C94.8896 48.7255 97.5608 47.5321 97.8864 49.3595C98.2105 51.1892 93.3949 52.1984 92.4467 54.4961C91.4969 56.7962 95.8183 54.5804 95.4456 57.0015C95.2291 58.3928 93.2598 60.7114 90.5328 61.6216Z" fill="url(#paint1_linear_593_8811)"/>
<path d="M93.3266 57.3819L87.48 58.5951L90.1313 52.628L90.1342 52.6345L94.5583 50.5587L90.3561 52.1216L93.4526 45.1527L91.4413 49.1436L89.3671 46.9316L91.2522 49.5189L88.1837 55.6074L83.5742 51.1118L88.0046 55.9626L84.1676 63.6449L84.8973 63.9908L87.2864 59.0303L93.3266 57.3819Z" fill="url(#paint2_linear_593_8811)"/>
<path d="M90.4327 37.7403C90.4327 37.7403 90.1537 34.0293 91.4074 34.4422C92.6611 34.8552 90.4499 37.7638 90.4499 37.7638" fill="#C1A0FD"/>
<path d="M90.1443 39.699C90.1443 39.699 87.5539 37.0269 88.7813 36.5414C90.0087 36.0559 90.1723 39.7059 90.1723 39.7059" fill="#C1A0FD"/>
<path d="M89.1102 41.7848C89.1102 41.7848 86.478 39.1538 87.6974 38.6492C88.9171 38.1443 89.1382 41.7914 89.1382 41.7914" fill="#C1A0FD"/>
<path d="M87.3407 43.912C87.3407 43.912 84.7123 41.2773 85.9326 40.7741C87.1528 40.2709 87.369 43.9183 87.369 43.9183" fill="#C1A0FD"/>
<path d="M85.4671 45.6003C85.4671 45.6003 83.1168 42.7146 84.3816 42.3368C85.6465 41.9589 85.4945 45.6095 85.4945 45.6095" fill="#C1A0FD"/>
<path d="M83.5685 46.9651C83.5685 46.9651 81.3647 43.966 82.647 43.6516C83.9292 43.3372 83.5954 46.9757 83.5954 46.9757" fill="#C1A0FD"/>
<path d="M81.5215 48.2676C81.5215 48.2676 79.318 45.2685 80.6 44.9541C81.8819 44.6397 81.5487 48.2782 81.5487 48.2782" fill="#C1A0FD"/>
<path d="M90.1588 39.7338C90.1588 39.7338 92.1758 36.6061 92.9263 37.6919C93.6768 38.7777 90.1582 39.7626 90.1582 39.7626" fill="#C1A0FD"/>
<path d="M89.042 41.8031C89.042 41.8031 91.7147 39.2132 92.1999 40.4406C92.6851 41.6681 89.0352 41.8311 89.0352 41.8311" fill="#C1A0FD"/>
<path d="M87.293 43.9422C87.293 43.9422 90.506 42.0642 90.6845 43.3719C90.863 44.6798 87.2793 43.9679 87.2793 43.9679" fill="#C1A0FD"/>
<path d="M85.4078 45.6456C85.4078 45.6456 88.8641 44.2654 88.8464 45.5853C88.8287 46.9053 85.3906 45.669 85.3906 45.669" fill="#C1A0FD"/>
<path d="M83.5494 46.9285C83.5494 46.9285 87.269 46.8034 86.8044 48.0388C86.34 49.2745 83.5254 46.9445 83.5254 46.9445" fill="#C1A0FD"/>
<path d="M81.5357 48.3279C81.5357 48.3279 85.2553 48.2028 84.7907 49.4382C84.3264 50.6739 81.5117 48.3442 81.5117 48.3442" fill="#C1A0FD"/>
<path d="M79.9457 49.138C79.9271 49.0823 79.9508 49.0198 80.0045 48.9912C85.8237 45.8922 88.3399 42.9319 89.426 40.9939C90.598 38.903 90.3995 37.5248 90.3972 37.5111C90.3869 37.4442 90.4324 37.3814 90.4992 37.3708C90.566 37.36 90.6294 37.4063 90.6394 37.4722C90.6488 37.5308 90.8564 38.9298 89.6542 41.0882C88.5558 43.061 86.0099 46.0706 80.1196 49.2077C80.0599 49.2394 79.9854 49.2168 79.9537 49.1572C79.9506 49.1509 79.948 49.1446 79.9457 49.138Z" fill="#C1A0FD"/>
<path d="M33.9443 53.8634H31.5215V57.8338H33.9443V53.8634Z" fill="#EDB39F"/>
<path opacity="0.5" d="M31.5215 53.8631V54.5513C31.9941 54.7124 32.7786 55.5034 33.163 55.4954C33.5291 55.4903 33.8067 55.3121 33.9443 55.169V54.2263L32.1812 53.8628H31.5215V53.8631Z" fill="#D7CFBB"/>
<path d="M30.4844 51.5034C30.4844 53.0866 32.3689 55.0785 33.6925 55.0617C34.6895 55.0488 35.2775 53.0866 35.2775 51.5034C35.2775 49.9201 34.2046 48.6365 32.8809 48.6365C31.5573 48.6368 30.4844 49.9201 30.4844 51.5034Z" fill="#EDB39F"/>
<path d="M29.5048 78.5388C29.4343 83.0535 30.1457 86.7254 31.0938 86.7403C32.0419 86.7551 32.8678 83.1072 32.9383 78.5925C33.0088 74.0778 32.2975 70.4059 31.3494 70.391C30.401 70.3762 29.5754 74.0241 29.5048 78.5388Z" fill="#EDB39F"/>
<path d="M34.822 78.5652C35.2572 83.0593 36.3752 86.6288 37.3191 86.5371C38.2629 86.4457 38.6753 82.7284 38.2398 78.234C37.8045 73.7398 36.6865 70.1707 35.7427 70.2621C34.7989 70.3538 34.3865 74.0711 34.822 78.5652Z" fill="#EDB39F"/>
<path d="M31.7315 85.4189C30.138 82.9156 24.6575 97.1444 23.9718 100.243C23.2865 103.341 25.1407 100.598 27.6592 96.2671C30.1777 91.9366 32.3586 86.4039 31.7315 85.4189Z" fill="#EDB39F"/>
<path d="M37.6805 85.1993C35.3682 83.3393 33.7507 98.4977 34.0951 101.652C34.4395 104.807 35.3159 101.613 36.3123 96.7037C37.3087 91.7947 38.59 85.9312 37.6805 85.1993Z" fill="#EDB39F"/>
<path d="M33.2502 77.9571C33.2502 77.9571 33.4156 84.2369 32.5871 86.4741C31.7587 88.7111 25.5714 101.577 25.5714 101.577L23.1445 100.548C23.1445 100.548 26.7668 88.4797 29.4598 85.4558C29.4598 85.4558 27.4099 70.5684 31.2203 70.0238C33.8302 69.6508 33.2502 77.9571 33.2502 77.9571Z" fill="#EDB39F"/>
<path d="M38.3174 76.4517C38.3174 76.4517 38.9525 82.9697 38.7041 85.6761C38.4556 88.3828 35.6002 102.706 35.6002 102.706L33.0371 102.256C33.0371 102.256 33.7642 91.6127 35.3109 86.0614C35.3109 86.0614 32.2018 70.5957 35.7212 69.8506C38.069 69.3537 38.3174 76.4517 38.3174 76.4517Z" fill="#EDB39F"/>
<path d="M33.0371 102.256L33.0273 103.168L35.4585 104.305L37.3016 103.991L36.3166 103.529C36.3166 103.529 35.6744 103.148 35.6252 102.756C35.5761 102.364 33.0371 102.256 33.0371 102.256Z" fill="#EDB39F"/>
<path d="M33.0167 102.558C33.0167 102.558 34.7659 104.511 36.3183 103.529C36.3183 103.529 38.4775 104.113 38.4013 104.776C38.325 105.439 36.8509 105.097 36.8509 105.097L32.7817 104.572C32.7817 104.572 32.5672 103.633 33.0167 102.558Z" fill="url(#paint3_linear_593_8811)"/>
<path d="M23.1433 100.548L22.9434 101.437L25.0838 103.056L26.9517 103.134L26.085 102.476C26.085 102.476 25.5361 101.97 25.5701 101.576C25.6041 101.182 23.1433 100.548 23.1433 100.548Z" fill="#EDB39F"/>
<path d="M23.0588 100.838C23.0588 100.838 24.3619 103.113 26.085 102.476C26.085 102.476 28.0749 103.497 27.8619 104.13C27.6488 104.763 26.2784 104.121 26.2784 104.121L22.4082 102.759C22.4082 102.759 22.3948 101.795 23.0588 100.838Z" fill="url(#paint4_linear_593_8811)"/>
<path d="M34.0487 56.4756C33.7968 56.8425 33.8159 57.3329 34.035 57.7178C35.0182 59.4467 38.7487 66.1615 40.0618 65.5098C41.6056 64.7436 37.8023 58.9524 36.6669 57.6559C35.7205 56.5752 34.6573 55.5883 34.0487 56.4756Z" fill="#EDB39F"/>
<path d="M38.0781 59.3406L40.1816 62.7386L42.0719 61.1817L43.5049 62.6213C43.5049 62.6213 41.1526 65.9143 39.9189 65.7726C38.6852 65.631 37.2085 63.4263 37.2085 63.4263L36.2578 59.7147L38.0781 59.3406Z" fill="#EDB39F"/>
<path d="M39.9895 65.6809C40.4121 65.7543 40.8365 65.5592 41.1175 65.2348C42.4306 63.7184 47.0686 58.2768 46.6922 57.4957C46.2542 56.5864 39.1679 64.163 39.2967 64.6834C39.3932 65.0735 39.412 65.5806 39.9895 65.6809Z" fill="#EDB39F"/>
<path d="M40.1836 62.739L45.3502 57.9976L46.3106 58.8557L43.5068 62.6216L40.1836 62.739Z" fill="#EDB39F"/>
<path d="M34.897 59.9341C35.0955 60.2534 35.427 60.802 35.84 61.4451L38.2068 59.3498C38.1434 59.2504 38.0872 59.1596 38.0321 59.0779C37.3964 58.1212 35.505 54.9879 34.2256 55.938C32.9494 56.8876 34.1442 58.7215 34.897 59.9341Z" fill="#B25CDD"/>
<path d="M37.1396 65.6134C37.3432 67.6144 37.5177 68.3463 37.5177 68.3463C37.5177 68.3463 35.2162 68.7025 32.8011 68.6331C31.6214 68.6008 30.4163 68.4666 29.4379 68.1382C29.4379 68.1382 29.5998 66.8891 29.4773 64.6244C29.4402 63.9442 29.3454 63.1092 29.2343 62.2302C29.1209 61.3117 28.9938 60.3448 28.9081 59.4566C28.9081 59.4544 28.9081 59.4544 28.9081 59.4544C28.8016 58.3626 28.7602 57.3839 28.8873 56.7665C29.0701 55.8552 31.5106 55.4757 31.5106 55.4757C31.5106 55.4757 33.021 56.7388 33.6873 56.3593C33.9948 56.1859 33.9371 55.5057 33.9371 55.5057C34.9641 55.6608 35.3944 55.9312 35.686 56.255C36.6784 57.3491 37.9646 59.9007 37.9646 61.4922C37.9643 63.375 36.9337 63.6146 37.1396 65.6134Z" fill="#C1A0FD"/>
<path d="M34.6569 50.3745C34.6569 50.3745 34.3514 50.7626 33.7488 51.081C33.4475 51.2404 32.9589 51.5074 32.5682 51.6508C31.3954 52.0809 31.5636 53.888 31.5636 53.888C31.5636 53.888 29.5625 52.5375 30.6417 49.9939C31.5116 47.9431 34.4116 48.5231 34.6395 49.4967C34.6395 49.4967 35.5691 49.905 35.2955 51.1365C35.2955 51.1365 35.165 50.5019 34.6569 50.3745Z" fill="url(#paint5_linear_593_8811)"/>
<path d="M29.098 57.2083C28.8447 57.5744 28.8618 58.0647 29.0792 58.4505C30.0556 60.1831 33.8223 67.2006 35.1382 66.554C36.6852 65.7938 32.8419 59.7002 31.7116 58.3991C30.7695 57.3148 29.7103 56.3235 29.098 57.2083Z" fill="#EDB39F"/>
<path d="M30.4316 61.5757C30.4316 61.5757 32.9093 65.8485 33.7589 66.5464C34.6085 67.2444 37.8923 67.7376 37.8923 67.7376L38.4038 65.692L35.4581 64.4683L33.0158 60.0841L30.4316 61.5757Z" fill="#EDB39F"/>
<path d="M30.6712 49.3863C30.5827 49.3369 30.4962 49.2938 30.4116 49.255C29.8019 48.9762 29.1897 48.7532 28.5186 48.9954C27.7878 49.2592 27.4813 49.9692 27.4074 50.6946C27.362 51.14 27.404 51.589 27.4199 52.035C27.4357 52.4723 27.3571 52.9152 27.2792 53.3438C27.1549 54.0278 26.8599 54.7626 27.0424 55.4608C27.2172 56.1294 27.8892 56.5886 28.5665 56.5971C29.3342 56.6068 29.78 55.924 29.905 55.2366C29.9859 54.7914 29.9436 54.2894 29.8328 53.8442C29.7234 53.4047 29.5409 52.9957 29.5389 52.5337C29.5364 51.9831 29.6726 51.4076 30.0333 50.9787" fill="url(#paint6_linear_593_8811)"/>
<path d="M30.9099 49.5251C30.9099 49.5251 30.4681 50.1758 30.3739 51.0309L30.0137 50.9859C30.0137 50.9859 30.3573 49.6438 30.6601 49.4106L30.9099 49.5251Z" fill="url(#paint7_linear_593_8811)"/>
<path d="M33.9025 65.8047C34.0159 66.2185 34.3734 66.5195 34.7864 66.6354C36.7175 67.1783 43.6156 69.0594 44.1624 68.3863C44.7987 67.603 34.9269 64.4148 34.5108 64.7529C34.1987 65.0065 33.7477 65.2395 33.9025 65.8047Z" fill="#EDB39F"/>
<path d="M37.8926 67.7375L42.7657 68.7067L43.0764 67.4896L38.404 65.6919L37.8926 67.7375Z" fill="#EDB39F"/>
<path d="M30.3942 61.7173L33.1475 60.069C32.8682 59.5727 30.521 55.6003 29.0635 56.5461C27.7421 57.4051 29.5132 60.3374 30.3942 61.7173Z" fill="#EA499B"/>
<path d="M37.5187 68.3464C37.5187 68.3464 39.7867 80.6733 39.261 84.9447C38.7889 88.7811 36.7924 99.2438 36.3909 101.335C36.3521 101.537 36.155 101.667 35.9531 101.624L33.0374 101.013C32.9006 100.984 32.8078 100.856 32.8229 100.717L34.4639 85.5364L33.847 76.1381C33.847 76.1381 33.9381 83.9591 33.3467 85.7334C32.8047 87.3595 27.7668 98.5864 26.9301 100.448C26.865 100.593 26.6947 100.656 26.5502 100.589L23.4466 99.1681C23.3092 99.1053 23.2441 98.9462 23.2984 98.8051L28.7303 84.6494C28.7303 84.6494 27.5015 71.8344 29.4383 68.1388" fill="url(#paint8_linear_593_8811)"/>
<path d="M45.4479 58.1081L45.3499 57.997L45.3477 57.9964L45.3482 57.9941L45.4288 57.409C45.4507 57.2591 45.5067 57.1171 45.5958 56.9952L46.1084 56.5651C46.1084 56.5651 46.314 56.5808 46.0939 56.8912C46.0365 56.9723 46.0268 57.1306 46.0259 57.2602L46.2826 56.9846L46.9617 56.3569C47.1345 56.1947 47.4766 56.1342 47.6774 56.3309C47.6774 56.3309 47.9358 56.6297 47.7531 57.0377L47.548 57.6272C47.3884 57.9133 47.3184 58.1646 47.06 58.3665L46.31 58.8551L45.4479 58.1081Z" fill="#EDB39F"/>
<path d="M86.2018 83.0452H44.6887C44.2361 83.0452 43.8691 82.6782 43.8691 82.2256V28.6129C43.8691 28.1603 44.2361 27.7933 44.6887 27.7933H86.2015C86.6542 27.7933 87.0212 28.1603 87.0212 28.6129V82.2256C87.0214 82.6782 86.6545 83.0452 86.2018 83.0452Z" fill="white"/>
<path d="M42.9466 67.5799L42.9895 67.438L42.9889 67.4357L42.9912 67.4352L43.5306 67.1947C43.6697 67.1342 43.8196 67.107 43.9701 67.1182L44.6058 67.3266C44.6058 67.3266 44.7009 67.5094 44.3211 67.4863C44.222 67.4803 44.0824 67.5557 43.9719 67.6234L44.3417 67.6959L45.2332 67.9415C45.462 68.0026 45.6942 68.2613 45.6331 68.5358C45.6331 68.5358 45.5157 68.913 45.0728 68.973L44.4639 69.1098C44.1366 69.1252 43.8862 69.1983 43.5783 69.0855L42.7676 68.7063L42.9466 67.5799Z" fill="#EDB39F"/>
<path d="M77.0948 73.8049L72.2514 72.9664L68.9875 76.4978L63.6016 60.284L71.7085 57.5907L77.0948 73.8049Z" fill="#C1A0FD"/>
<path d="M53.793 73.8049L58.6361 72.9664L61.8999 76.4978L67.2862 60.284L59.1789 57.5907L53.793 73.8049Z" fill="#B25CDD"/>
<path d="M81.8009 52.6115L80.3319 54.5571C79.9146 55.11 79.6947 55.7868 79.7076 56.479L79.7527 58.9153C79.7784 60.2989 78.8823 61.5312 77.5584 61.9336L75.2289 62.6415C74.5644 62.8434 73.9869 63.2632 73.5897 63.8329L72.1998 65.8268C71.4073 66.9637 69.9557 67.4352 68.6467 66.9811L66.3503 66.1844C65.6932 65.9565 64.9787 65.9565 64.3216 66.1844L62.0253 66.9811C60.7159 67.4352 59.2646 66.9637 58.4722 65.8268L57.0822 63.8326C56.685 63.2629 56.1079 62.8431 55.4433 62.6412L53.1139 61.9333C51.79 61.5309 50.8938 60.2986 50.9195 58.915L50.9646 56.479C50.9775 55.7865 50.7576 55.1097 50.3401 54.5568L48.8711 52.6112C48.0378 51.5077 48.0378 49.9853 48.8711 48.8816L50.3401 46.9359C50.7576 46.3831 50.9772 45.7063 50.9646 45.0137L50.9195 42.5778C50.8938 41.1941 51.79 39.9619 53.1139 39.5595L55.4433 38.8516C56.1079 38.6497 56.6853 38.2299 57.0822 37.6601L58.4722 35.6662C59.2646 34.5294 60.7162 34.0579 62.0253 34.5119L64.3216 35.3087C64.9787 35.5366 65.6932 35.5366 66.3503 35.3087L68.6467 34.5119C69.956 34.0579 71.4076 34.5294 72.1998 35.6662L73.5897 37.6604C73.9869 38.2301 74.5641 38.6499 75.2286 38.8518L77.5581 39.5598C78.882 39.9622 79.7781 41.1947 79.7524 42.5781L79.7073 45.014C79.6945 45.7065 79.9144 46.3834 80.3319 46.9362L81.8009 48.8819C82.6342 49.9853 82.6342 51.5077 81.8009 52.6115Z" fill="url(#paint9_linear_593_8811)"/>
<path opacity="0.5" d="M78.8754 52.2801L77.6672 53.8802C77.3239 54.3348 77.1431 54.8914 77.1537 55.4611L77.1908 57.4647C77.212 58.6027 76.4749 59.6162 75.386 59.9472L73.4701 60.5295C72.9235 60.6957 72.4485 61.0407 72.1218 61.5096L70.9787 63.1497C70.327 64.0847 69.133 64.4725 68.0561 64.0989L66.1676 63.4438C65.6273 63.2565 65.0396 63.2565 64.499 63.4438L62.6102 64.0989C61.5332 64.4725 60.3395 64.0847 59.6879 63.1497L58.5447 61.5096C58.218 61.041 57.7434 60.6957 57.1968 60.5298L55.2808 59.9475C54.1919 59.6165 53.4549 58.603 53.476 57.465L53.5131 55.4614C53.5237 54.8917 53.3429 54.3351 52.9997 53.8804L51.7914 52.2804C51.106 51.3728 51.106 50.1205 51.7914 49.2127L52.9997 47.6126C53.3429 47.158 53.5237 46.6014 53.5131 46.0317L53.476 44.0281C53.4549 42.89 54.1919 41.8765 55.2808 41.5455L57.1968 40.9633C57.7434 40.797 58.2183 40.4521 58.545 39.9832L59.6881 38.3431C60.3398 37.4081 61.5338 37.0203 62.6104 37.3938L64.4992 38.0489C65.0396 38.2366 65.6273 38.2366 66.1679 38.0489L68.0567 37.3938C69.1336 37.0203 70.3273 37.4081 70.9793 38.3431L72.1224 39.9832C72.4491 40.4518 72.924 40.797 73.4706 40.963L75.3866 41.5453C76.4755 41.8762 77.2125 42.8898 77.1914 44.0278L77.1543 46.0314C77.1437 46.6008 77.3245 47.1577 77.6677 47.6123L78.876 49.2124C79.5608 50.1203 79.5608 51.3725 78.8754 52.2801Z" fill="#111125"/>
<path d="M77.1028 50.7468C77.1028 57.2463 71.8331 62.516 65.3336 62.516C61.4975 62.516 58.0897 60.6803 55.9424 57.8391C54.4492 55.8672 53.5645 53.4104 53.5645 50.7468C53.5645 44.2474 58.8342 38.9777 65.3336 38.9777C68.0015 38.9777 70.4609 39.8647 72.4348 41.3599C75.2717 43.5098 77.1028 46.9153 77.1028 50.7468Z" fill="#C1A0FD"/>
<path d="M74.8108 48.4545C74.8108 54.9539 69.543 60.2237 63.0436 60.2237C60.3757 60.2237 57.9164 59.3367 55.9425 57.8391C54.4492 55.8672 53.5645 53.4104 53.5645 50.7468C53.5645 44.2474 58.8342 38.9777 65.3336 38.9777C68.0015 38.9777 70.4609 39.8647 72.4348 41.3599C73.926 43.3318 74.8108 45.7912 74.8108 48.4545Z" fill="white"/>
<path d="M61.2356 54.9726L59.1055 49.0483L63.2992 51.711L65.3627 47.3843L67.4263 51.711L71.6197 49.0483L69.4896 54.9726H61.2356Z" fill="#B25CDD"/>
<path d="M71.562 49.9963C72.0385 49.9963 72.4248 49.61 72.4248 49.1334C72.4248 48.6569 72.0385 48.2706 71.562 48.2706C71.0855 48.2706 70.6992 48.6569 70.6992 49.1334C70.6992 49.61 71.0855 49.9963 71.562 49.9963Z" fill="url(#paint10_linear_593_8811)"/>
<path d="M66.2237 47.3837C66.2237 47.8603 65.8372 48.2465 65.3609 48.2465C64.8842 48.2465 64.498 47.86 64.498 47.3837C64.498 46.907 64.8845 46.5209 65.3609 46.5209C65.8375 46.5209 66.2237 46.907 66.2237 47.3837Z" fill="url(#paint11_linear_593_8811)"/>
<path d="M59.105 49.9103C59.5815 49.9103 59.9678 49.524 59.9678 49.0475C59.9678 48.571 59.5815 48.1847 59.105 48.1847C58.6285 48.1847 58.2422 48.571 58.2422 49.0475C58.2422 49.524 58.6285 49.9103 59.105 49.9103Z" fill="url(#paint12_linear_593_8811)"/>
<path d="M57.2712 20.61L61.7782 16.103C62.4861 16.3058 63.2797 16.1285 63.8378 15.5707C64.3764 15.0321 64.5603 14.2731 64.3895 13.584L62.7254 15.248L62.6795 15.202L61.2444 13.7673L61.1985 13.7213L62.8625 12.0573C62.1734 11.8865 61.4146 12.0704 60.8761 12.6087C60.3183 13.1665 60.141 13.9601 60.3437 14.668L55.8365 19.1753C55.1288 18.9722 54.3349 19.1496 53.7775 19.7073C52.9596 20.5255 52.9596 21.8514 53.7775 22.6693C54.5954 23.4872 55.9213 23.4872 56.7395 22.6693C57.2966 22.1116 57.474 21.3179 57.2712 20.61ZM54.9363 22.3883L54.0579 21.5099L54.3795 20.3099L54.8778 20.1762L55.5795 19.988L56.4579 20.8665L56.2697 21.5681L56.1363 22.0664L54.9363 22.3883Z" fill="#C1A0FD"/>
<path d="M60.4543 19.6739L56.8923 16.1122L55.4333 15.1226L53.9531 12.93L54.5154 12.3677L56.7081 13.8478L57.6976 15.3071L61.2593 18.8688" fill="#C1A0FD"/>
<path d="M59.5449 19.9526L62.0905 22.4982C62.6411 23.0491 63.5341 23.0491 64.085 22.4982C64.6356 21.9476 64.6359 21.0543 64.0853 20.5038L61.5397 17.9581L59.5449 19.9526ZM62.6643 21.8651L62.4449 22.0844L60.5127 20.1522L60.7321 19.9329L62.6643 21.8651ZM63.1677 21.3616L62.9484 21.5809L61.0162 19.6487L61.2355 19.4294L63.1677 21.3616ZM63.6712 20.8579L63.4519 21.0772L61.5197 19.145L61.739 18.9257L63.6712 20.8579Z" fill="#C1A0FD"/>
<path d="M95.9963 87.4103H69.659C69.2304 87.4103 68.8828 87.0628 68.8828 86.6341V80.0559C68.8828 79.6272 69.2304 79.2797 69.659 79.2797H95.9963C96.4249 79.2797 96.7725 79.6272 96.7725 80.0559V86.6341C96.7725 87.0631 96.4249 87.4103 95.9963 87.4103Z" fill="url(#paint13_linear_593_8811)"/>
<path d="M73.1102 81.4156L73.737 82.6856L75.1386 82.8892L74.1246 83.8779L74.3639 85.2738L73.1102 84.6147L71.8568 85.2738L72.0961 83.8779L71.082 82.8892L72.4833 82.6856L73.1102 81.4156Z" fill="url(#paint14_linear_593_8811)"/>
<path d="M77.9696 81.4156L78.5964 82.6856L79.998 82.8892L78.9839 83.8779L79.2233 85.2738L77.9696 84.6147L76.7162 85.2738L76.9555 83.8779L75.9414 82.8892L77.343 82.6856L77.9696 81.4156Z" fill="url(#paint15_linear_593_8811)"/>
<path d="M82.8289 81.4156L83.4558 82.6856L84.8574 82.8892L83.8433 83.8779L84.0826 85.2738L82.8289 84.6147L81.5756 85.2738L81.8149 83.8779L80.8008 82.8892L82.2024 82.6856L82.8289 81.4156Z" fill="url(#paint16_linear_593_8811)"/>
<path d="M87.6883 81.4156L88.3152 82.6856L89.7168 82.8892L88.7027 83.8779L88.942 85.2738L87.6883 84.6147L86.4349 85.2738L86.6742 83.8779L85.6602 82.8892L87.0618 82.6856L87.6883 81.4156Z" fill="url(#paint17_linear_593_8811)"/>
<path d="M92.548 81.4156L93.1745 82.6856L94.5761 82.8892L93.5621 83.8779L93.8014 85.2738L92.548 84.6147L91.2943 85.2738L91.5336 83.8779L90.5195 82.8892L91.9211 82.6856L92.548 81.4156Z" fill="url(#paint18_linear_593_8811)"/>
<path d="M106.926 34.1659L107.664 35.6595L109.312 35.8988L108.119 37.0613L108.401 38.7031L106.926 37.9281L105.452 38.7031L105.734 37.0613L104.541 35.8988L106.189 35.6595L106.926 34.1659Z" fill="#B25CDD"/>
<path d="M44.0085 15.7467L44.7455 17.2403L46.3936 17.4799L45.201 18.6424L45.4826 20.2839L44.0085 19.5089L42.534 20.2839L42.8156 18.6424L41.623 17.4799L43.2711 17.2403L44.0085 15.7467Z" fill="#C1A0FD"/>
<path d="M36.8034 34.0612L37.5405 35.555L39.1888 35.7943L37.996 36.9569L38.2775 38.5984L36.8034 37.8236L35.329 38.5984L35.6105 36.9569L34.418 35.7943L36.0663 35.555L36.8034 34.0612Z" fill="#C1A0FD"/>
<path d="M97.5163 69.1771L98.2533 70.6707L99.9017 70.9103L98.7088 72.0729L98.9904 73.7144L97.5163 72.9393L96.0418 73.7144L96.3234 72.0729L95.1309 70.9103L96.7792 70.6707L97.5163 69.1771Z" fill="#C1A0FD"/>
<path d="M24.7709 144.304V132.667H29.3618C30.2444 132.667 30.9963 132.836 31.6175 133.173C32.2387 133.506 32.7122 133.97 33.0379 134.565C33.3675 135.156 33.5322 135.838 33.5322 136.611C33.5322 137.383 33.3656 138.065 33.0322 138.656C32.6989 139.247 32.216 139.707 31.5834 140.037C30.9546 140.366 30.1932 140.531 29.2993 140.531H26.3732V138.559H28.9016C29.375 138.559 29.7652 138.478 30.072 138.315C30.3826 138.148 30.6137 137.919 30.7652 137.628C30.9205 137.332 30.9982 136.993 30.9982 136.611C30.9982 136.224 30.9205 135.887 30.7652 135.599C30.6137 135.307 30.3826 135.082 30.072 134.923C29.7614 134.76 29.3675 134.679 28.8902 134.679H27.2311V144.304H24.7709ZM35.586 144.304V135.576H37.9326V137.099H38.0235C38.1826 136.557 38.4496 136.148 38.8246 135.872C39.1996 135.592 39.6314 135.451 40.1201 135.451C40.2413 135.451 40.372 135.459 40.5121 135.474C40.6523 135.489 40.7754 135.51 40.8814 135.537V137.684C40.7678 137.65 40.6106 137.62 40.4099 137.593C40.2091 137.567 40.0254 137.554 39.8587 137.554C39.5027 137.554 39.1845 137.631 38.9042 137.787C38.6277 137.938 38.408 138.15 38.2451 138.423C38.086 138.696 38.0064 139.01 38.0064 139.366V144.304H35.586ZM46.2051 144.474C45.3073 144.474 44.5346 144.292 43.8869 143.929C43.243 143.561 42.7467 143.042 42.3983 142.372C42.0498 141.698 41.8755 140.9 41.8755 139.98C41.8755 139.082 42.0498 138.294 42.3983 137.616C42.7467 136.938 43.2373 136.41 43.8698 136.031C44.5062 135.652 45.2524 135.463 46.1085 135.463C46.6842 135.463 47.2202 135.556 47.7164 135.741C48.2164 135.923 48.652 136.198 49.0233 136.565C49.3983 136.932 49.6899 137.395 49.8983 137.951C50.1066 138.504 50.2108 139.152 50.2108 139.895V140.559H42.8414V139.059H47.9323C47.9323 138.711 47.8566 138.402 47.7051 138.133C47.5536 137.864 47.3433 137.654 47.0744 137.503C46.8092 137.347 46.5005 137.27 46.1483 137.27C45.7808 137.27 45.4551 137.355 45.171 137.525C44.8907 137.692 44.671 137.917 44.5119 138.201C44.3528 138.482 44.2714 138.794 44.2676 139.139V140.565C44.2676 140.997 44.3471 141.37 44.5062 141.684C44.6691 141.999 44.8983 142.241 45.1937 142.412C45.4892 142.582 45.8395 142.667 46.2448 142.667C46.5138 142.667 46.76 142.629 46.9835 142.554C47.207 142.478 47.3983 142.364 47.5573 142.213C47.7164 142.061 47.8376 141.876 47.921 141.656L50.1596 141.804C50.046 142.342 49.813 142.811 49.4608 143.213C49.1123 143.611 48.6615 143.921 48.1085 144.145C47.5592 144.364 46.9248 144.474 46.2051 144.474ZM52.2915 144.304V135.576H54.5983V137.116H54.7006C54.8824 136.605 55.1854 136.201 55.6097 135.906C56.0339 135.611 56.5415 135.463 57.1324 135.463C57.7309 135.463 58.2403 135.612 58.6608 135.912C59.0813 136.207 59.3616 136.609 59.5017 137.116H59.5926C59.7707 136.616 60.0926 136.217 60.5585 135.917C61.0282 135.614 61.5832 135.463 62.2233 135.463C63.0377 135.463 63.6987 135.722 64.2063 136.241C64.7176 136.756 64.9733 137.487 64.9733 138.434V144.304H62.5585V138.912C62.5585 138.427 62.4297 138.063 62.1722 137.821C61.9146 137.578 61.5926 137.457 61.2063 137.457C60.7669 137.457 60.4241 137.597 60.1778 137.878C59.9316 138.154 59.8085 138.52 59.8085 138.974V144.304H57.4619V138.861C57.4619 138.432 57.3388 138.092 57.0926 137.838C56.8502 137.584 56.5301 137.457 56.1324 137.457C55.8635 137.457 55.621 137.525 55.4051 137.662C55.193 137.794 55.0244 137.982 54.8994 138.224C54.7744 138.463 54.7119 138.743 54.7119 139.065V144.304H52.2915ZM67.3864 144.304V135.576H69.8069V144.304H67.3864ZM68.6023 134.451C68.2425 134.451 67.9338 134.332 67.6762 134.093C67.4224 133.851 67.2955 133.561 67.2955 133.224C67.2955 132.891 67.4224 132.605 67.6762 132.366C67.9338 132.124 68.2425 132.003 68.6023 132.003C68.9622 132.003 69.269 132.124 69.5228 132.366C69.7804 132.605 69.9091 132.891 69.9091 133.224C69.9091 133.561 69.7804 133.851 69.5228 134.093C69.269 134.332 68.9622 134.451 68.6023 134.451ZM77.8436 140.588V135.576H80.264V144.304H77.9402V142.718H77.8493C77.6523 143.23 77.3246 143.641 76.8663 143.951C76.4118 144.262 75.8568 144.417 75.2015 144.417C74.6182 144.417 74.1049 144.285 73.6618 144.02C73.2186 143.754 72.872 143.378 72.622 142.889C72.3758 142.4 72.2508 141.815 72.247 141.133V135.576H74.6674V140.701C74.6712 141.217 74.8095 141.624 75.0822 141.923C75.3549 142.222 75.7205 142.372 76.1788 142.372C76.4705 142.372 76.7432 142.306 76.997 142.173C77.2508 142.037 77.4553 141.836 77.6106 141.571C77.7697 141.306 77.8474 140.978 77.8436 140.588ZM82.7013 144.304V135.576H85.0081V137.116H85.1104C85.2922 136.605 85.5952 136.201 86.0195 135.906C86.4437 135.611 86.9513 135.463 87.5422 135.463C88.1407 135.463 88.6502 135.612 89.0706 135.912C89.4911 136.207 89.7714 136.609 89.9115 137.116H90.0024C90.1805 136.616 90.5024 136.217 90.9683 135.917C91.438 135.614 91.993 135.463 92.6331 135.463C93.4475 135.463 94.1085 135.722 94.6161 136.241C95.1274 136.756 95.3831 137.487 95.3831 138.434V144.304H92.9683V138.912C92.9683 138.427 92.8396 138.063 92.582 137.821C92.3244 137.578 92.0024 137.457 91.6161 137.457C91.1767 137.457 90.8339 137.597 90.5877 137.878C90.3414 138.154 90.2183 138.52 90.2183 138.974V144.304H87.8717V138.861C87.8717 138.432 87.7486 138.092 87.5024 137.838C87.26 137.584 86.9399 137.457 86.5422 137.457C86.2733 137.457 86.0308 137.525 85.8149 137.662C85.6028 137.794 85.4342 137.982 85.3092 138.224C85.1842 138.463 85.1217 138.743 85.1217 139.065V144.304H82.7013ZM38.0151 160.258H40.106L41.1571 161.611L42.1912 162.815L44.1401 165.258H41.8446L40.5037 163.611L39.8162 162.633L38.0151 160.258ZM44.3162 158.486C44.3162 159.754 44.0757 160.834 43.5946 161.724C43.1174 162.614 42.4658 163.294 41.6401 163.764C40.8181 164.23 39.8939 164.463 38.8674 164.463C37.8333 164.463 36.9052 164.228 36.0833 163.758C35.2613 163.289 34.6117 162.609 34.1344 161.718C33.6571 160.828 33.4185 159.751 33.4185 158.486C33.4185 157.217 33.6571 156.137 34.1344 155.247C34.6117 154.357 35.2613 153.679 36.0833 153.213C36.9052 152.743 37.8333 152.508 38.8674 152.508C39.8939 152.508 40.8181 152.743 41.6401 153.213C42.4658 153.679 43.1174 154.357 43.5946 155.247C44.0757 156.137 44.3162 157.217 44.3162 158.486ZM41.8219 158.486C41.8219 157.664 41.6988 156.97 41.4526 156.406C41.2102 155.842 40.8674 155.414 40.4242 155.122C39.981 154.83 39.4621 154.684 38.8674 154.684C38.2727 154.684 37.7537 154.83 37.3105 155.122C36.8674 155.414 36.5227 155.842 36.2764 156.406C36.034 156.97 35.9128 157.664 35.9128 158.486C35.9128 159.307 36.034 160.001 36.2764 160.565C36.5227 161.129 36.8674 161.557 37.3105 161.849C37.7537 162.141 38.2727 162.287 38.8674 162.287C39.4621 162.287 39.981 162.141 40.4242 161.849C40.8674 161.557 41.2102 161.129 41.4526 160.565C41.6988 160.001 41.8219 159.307 41.8219 158.486ZM52.191 160.588V155.576H54.6114V164.304H52.2876V162.718H52.1967C51.9997 163.23 51.672 163.641 51.2137 163.951C50.7592 164.262 50.2042 164.417 49.5489 164.417C48.9656 164.417 48.4524 164.285 48.0092 164.02C47.566 163.754 47.2194 163.378 46.9694 162.889C46.7232 162.4 46.5982 161.815 46.5944 161.133V155.576H49.0149V160.701C49.0186 161.217 49.1569 161.624 49.4296 161.923C49.7024 162.222 50.0679 162.372 50.5262 162.372C50.8179 162.372 51.0906 162.306 51.3444 162.173C51.5982 162.037 51.8027 161.836 51.958 161.571C52.1171 161.306 52.1948 160.978 52.191 160.588ZM59.5373 164.468C58.9805 164.468 58.4843 164.372 58.0487 164.179C57.6131 163.982 57.2684 163.692 57.0146 163.309C56.7646 162.923 56.6396 162.442 56.6396 161.866C56.6396 161.381 56.7286 160.974 56.9067 160.645C57.0847 160.315 57.3271 160.05 57.6339 159.849C57.9408 159.648 58.2892 159.497 58.6794 159.395C59.0733 159.292 59.4862 159.22 59.918 159.179C60.4256 159.126 60.8347 159.076 61.1453 159.031C61.4559 158.982 61.6813 158.91 61.8214 158.815C61.9616 158.72 62.0317 158.58 62.0317 158.395V158.361C62.0317 158.001 61.918 157.722 61.6908 157.525C61.4673 157.328 61.1491 157.23 60.7362 157.23C60.3006 157.23 59.954 157.326 59.6964 157.52C59.4389 157.709 59.2684 157.948 59.1851 158.236L56.9464 158.054C57.0601 157.523 57.2836 157.065 57.6169 156.679C57.9502 156.289 58.3801 155.989 58.9067 155.781C59.437 155.569 60.0506 155.463 60.7476 155.463C61.2324 155.463 61.6964 155.52 62.1396 155.633C62.5866 155.747 62.9824 155.923 63.3271 156.162C63.6756 156.4 63.9502 156.707 64.151 157.082C64.3517 157.453 64.4521 157.898 64.4521 158.417V164.304H62.1567V163.093H62.0885C61.9483 163.366 61.7608 163.607 61.526 163.815C61.2911 164.02 61.0089 164.181 60.6794 164.298C60.3498 164.412 59.9692 164.468 59.5373 164.468ZM60.2305 162.798C60.5866 162.798 60.901 162.728 61.1737 162.588C61.4464 162.444 61.6604 162.251 61.8158 162.008C61.9711 161.766 62.0487 161.491 62.0487 161.184V160.258C61.9729 160.307 61.8688 160.353 61.7362 160.395C61.6074 160.432 61.4616 160.468 61.2987 160.503C61.1358 160.533 60.9729 160.561 60.8101 160.588C60.6472 160.611 60.4995 160.631 60.3669 160.65C60.0828 160.692 59.8347 160.758 59.6226 160.849C59.4104 160.94 59.2457 161.063 59.1283 161.218C59.0108 161.37 58.9521 161.559 58.9521 161.787C58.9521 162.116 59.0714 162.368 59.3101 162.542C59.5525 162.713 59.8593 162.798 60.2305 162.798ZM69.2516 152.667V164.304H66.8311V152.667H69.2516ZM71.6917 164.304V155.576H74.1122V164.304H71.6917ZM72.9076 154.451C72.5478 154.451 72.2391 154.332 71.9815 154.093C71.7277 153.851 71.6008 153.561 71.6008 153.224C71.6008 152.891 71.7277 152.605 71.9815 152.366C72.2391 152.124 72.5478 152.003 72.9076 152.003C73.2675 152.003 73.5743 152.124 73.8281 152.366C74.0856 152.605 74.2144 152.891 74.2144 153.224C74.2144 153.561 74.0856 153.851 73.8281 154.093C73.5743 154.332 73.2675 154.451 72.9076 154.451ZM81.1943 155.576V157.395H75.9386V155.576H81.1943ZM77.1318 153.486H79.5523V161.622C79.5523 161.845 79.5864 162.02 79.6545 162.145C79.7227 162.266 79.8174 162.351 79.9386 162.4C80.0636 162.45 80.2076 162.474 80.3704 162.474C80.4841 162.474 80.5977 162.465 80.7114 162.446C80.825 162.423 80.9121 162.406 80.9727 162.395L81.3534 164.196C81.2322 164.234 81.0617 164.277 80.842 164.326C80.6223 164.379 80.3553 164.412 80.0409 164.423C79.4576 164.446 78.9462 164.368 78.5068 164.19C78.0712 164.012 77.7322 163.736 77.4898 163.361C77.2473 162.986 77.128 162.512 77.1318 161.94V153.486ZM84.7665 167.576C84.4597 167.576 84.1718 167.552 83.9029 167.503C83.6377 167.457 83.418 167.398 83.2438 167.326L83.7892 165.52C84.0733 165.607 84.329 165.654 84.5563 165.662C84.7874 165.669 84.9862 165.616 85.1529 165.503C85.3233 165.389 85.4616 165.196 85.5677 164.923L85.7097 164.554L82.579 155.576H85.1245L86.9313 161.986H87.0222L88.8461 155.576H91.4086L88.0165 165.247C87.8536 165.717 87.6321 166.126 87.3517 166.474C87.0752 166.826 86.7249 167.097 86.3006 167.287C85.8764 167.48 85.365 167.576 84.7665 167.576Z" fill="#5E213E"/>
<defs>
<linearGradient id="paint0_linear_593_8811" x1="41.7109" y1="104.64" x2="26.1818" y2="104.64" gradientUnits="userSpaceOnUse">
<stop stop-color="#E2F4FF"/>
<stop offset="1" stop-color="#D7ECFF"/>
</linearGradient>
<linearGradient id="paint1_linear_593_8811" x1="97.902" y1="53.6554" x2="80.8047" y2="53.6554" gradientUnits="userSpaceOnUse">
<stop stop-color="#B15CDE"/>
<stop offset="1" stop-color="#EC4899"/>
</linearGradient>
<linearGradient id="paint2_linear_593_8811" x1="82.1734" y1="56.5359" x2="95.59" y2="52.7721" gradientUnits="userSpaceOnUse">
<stop stop-color="#E2F4FF"/>
<stop offset="1" stop-color="#D7ECFF"/>
</linearGradient>
<linearGradient id="paint3_linear_593_8811" x1="35.7278" y1="102.87" x2="35.4872" y2="104.96" gradientUnits="userSpaceOnUse">
<stop offset="0.0879" stop-color="#374492"/>
<stop offset="1" stop-color="#014DAE"/>
</linearGradient>
<linearGradient id="paint4_linear_593_8811" x1="25.645" y1="101.709" x2="24.9736" y2="103.703" gradientUnits="userSpaceOnUse">
<stop offset="0.0879" stop-color="#374492"/>
<stop offset="1" stop-color="#014DAE"/>
</linearGradient>
<linearGradient id="paint5_linear_593_8811" x1="33.3627" y1="51.1695" x2="25.2075" y2="51.7099" gradientUnits="userSpaceOnUse">
<stop offset="0.0879" stop-color="#374492"/>
<stop offset="1" stop-color="#014DAE"/>
</linearGradient>
<linearGradient id="paint6_linear_593_8811" x1="30.6712" y1="52.7447" x2="26.9845" y2="52.7447" gradientUnits="userSpaceOnUse">
<stop offset="0.0879" stop-color="#374492"/>
<stop offset="1" stop-color="#014DAE"/>
</linearGradient>
<linearGradient id="paint7_linear_593_8811" x1="30.0138" y1="50.2207" x2="30.9098" y2="50.2207" gradientUnits="userSpaceOnUse">
<stop stop-color="#8AD3FF"/>
<stop offset="1" stop-color="#5F9CFF"/>
</linearGradient>
<linearGradient id="paint8_linear_593_8811" x1="39.34" y1="84.797" x2="23.2793" y2="84.797" gradientUnits="userSpaceOnUse">
<stop stop-color="#B15CDE"/>
<stop offset="1" stop-color="#EC4899"/>
</linearGradient>
<linearGradient id="paint9_linear_593_8811" x1="82.4259" y1="50.6597" x2="48.2461" y2="50.6597" gradientUnits="userSpaceOnUse">
<stop stop-color="#B15CDE"/>
<stop offset="1" stop-color="#EC4899"/>
</linearGradient>
<linearGradient id="paint10_linear_593_8811" x1="72.4248" y1="49.1289" x2="70.6992" y2="49.1289" gradientUnits="userSpaceOnUse">
<stop stop-color="#B15CDE"/>
<stop offset="1" stop-color="#EC4899"/>
</linearGradient>
<linearGradient id="paint11_linear_593_8811" x1="66.2237" y1="47.3791" x2="64.498" y2="47.3791" gradientUnits="userSpaceOnUse">
<stop stop-color="#B15CDE"/>
<stop offset="1" stop-color="#EC4899"/>
</linearGradient>
<linearGradient id="paint12_linear_593_8811" x1="59.9678" y1="49.0429" x2="58.2422" y2="49.0429" gradientUnits="userSpaceOnUse">
<stop stop-color="#B15CDE"/>
<stop offset="1" stop-color="#EC4899"/>
</linearGradient>
<linearGradient id="paint13_linear_593_8811" x1="96.7725" y1="83.3235" x2="68.8828" y2="83.3235" gradientUnits="userSpaceOnUse">
<stop stop-color="#B15CDE"/>
<stop offset="1" stop-color="#EC4899"/>
</linearGradient>
<linearGradient id="paint14_linear_593_8811" x1="73.1103" y1="82.005" x2="73.1103" y2="85.1741" gradientUnits="userSpaceOnUse">
<stop offset="0.0387" stop-color="#FFD744"/>
<stop offset="1" stop-color="#F5C144"/>
</linearGradient>
<linearGradient id="paint15_linear_593_8811" x1="77.9697" y1="82.005" x2="77.9697" y2="85.1741" gradientUnits="userSpaceOnUse">
<stop offset="0.0387" stop-color="#FFD744"/>
<stop offset="1" stop-color="#F5C144"/>
</linearGradient>
<linearGradient id="paint16_linear_593_8811" x1="82.8291" y1="82.005" x2="82.8291" y2="85.1741" gradientUnits="userSpaceOnUse">
<stop offset="0.0387" stop-color="#FFD744"/>
<stop offset="1" stop-color="#F5C144"/>
</linearGradient>
<linearGradient id="paint17_linear_593_8811" x1="87.6885" y1="82.005" x2="87.6885" y2="85.1741" gradientUnits="userSpaceOnUse">
<stop offset="0.0387" stop-color="#FFD744"/>
<stop offset="1" stop-color="#F5C144"/>
</linearGradient>
<linearGradient id="paint18_linear_593_8811" x1="92.5479" y1="82.005" x2="92.5479" y2="85.1741" gradientUnits="userSpaceOnUse">
<stop offset="0.0387" stop-color="#FFD744"/>
<stop offset="1" stop-color="#F5C144"/>
</linearGradient>
</defs>
</svg>
