<svg width="125" height="181" viewBox="0 0 125 181" fill="none" xmlns="http://www.w3.org/2000/svg">
<rect width="124.294" height="180.332" rx="8.01898" fill="#FFF9FC"/>
<path d="M112.265 96.0765C112.265 94.6486 90.7272 93.4908 64.1589 93.4908C37.5906 93.4908 16.0527 94.6484 16.0527 96.0765C16.0527 97.5043 37.5906 98.6619 64.1589 98.6619C90.7272 98.6619 112.265 97.5043 112.265 96.0765Z" fill="#E6F8FF"/>
<path d="M22.0367 94.8477C16.4299 94.8215 11.8833 90.2121 12.0329 84.6074C12.1141 81.5608 13.2536 78.606 16.7156 76.9959C25.8362 72.7538 13.1099 45.1796 29.2301 42.4223C45.3503 39.665 44.714 18.6662 63.5916 34.3622C82.4691 50.0582 85.863 28.8473 98.1652 39.8771C110.467 50.9068 90.1051 64.9058 105.377 72.1175C115.447 76.8729 112.145 85.4096 108.727 90.6733C106.872 93.5295 103.678 95.2306 100.272 95.2146L22.0367 94.8477Z" fill="#FCDEF9"/>
<path opacity="0.44" d="M100.271 95.2142C103.676 95.2302 106.87 93.5291 108.725 90.6729C112.143 85.4094 115.446 76.8727 105.375 72.1171C90.1037 64.9054 110.466 50.9062 98.1638 39.8767C85.8614 28.8471 82.4678 50.0578 63.5902 34.3618C58.9454 30.4999 55.4825 28.8604 52.6602 28.623C53.6148 29.2693 54.5147 30.1337 55.3263 31.27C62.1847 40.8717 66.2997 47.8824 80.6259 46.6633C94.952 45.4439 74.2249 70.4388 85.5028 73.3344C92.9531 75.2472 91.9555 86.7359 86.555 95.1499L100.271 95.2142Z" fill="#FCDEF9"/>
<path d="M50.45 46.6335C50.4601 46.62 48.745 46.5099 47.189 45.7402C45.6386 45.022 44.2471 43.644 45.0339 42.2838C46.1969 40.42 42.8899 38.8412 44.0142 37.8042C45.1589 36.8852 45.399 37.6462 44.9583 35.5906C44.5953 33.4924 46.0391 32.9886 46.8514 31.1115C47.7795 29.2233 49.9125 30.636 49.3847 33.1003C48.9698 35.643 49.9509 33.0161 50.6727 34.1628C51.2878 35.1096 48.8653 39.1901 49.9371 38.8207C50.9277 38.3748 51.781 38.996 51.6488 40.1357C51.2632 42.7611 50.4012 46.5814 50.45 46.6335Z" fill="#C1A0FD"/>
<path d="M51.2395 47.7068C51.2282 47.7075 51.2187 47.703 51.2104 47.6933C49.8798 46.1384 48.3639 43.7446 47.6166 40.9633C47.6146 40.9561 47.6125 40.9489 47.6107 40.9417C47.6046 40.9381 47.5985 40.9342 47.5924 40.9306C46.8986 40.5127 46.2704 39.9326 45.6853 39.3279C45.4922 39.1287 45.3011 38.9249 45.1097 38.72C45.0987 38.7083 45.0969 38.6986 45.1034 38.6857C45.1124 38.6674 45.1345 38.6537 45.1533 38.662C45.1578 38.6641 45.1625 38.6674 45.1668 38.672C45.3536 38.8721 45.5402 39.0716 45.7289 39.2665C46.2682 39.8245 46.8449 40.3629 47.4771 40.7706C47.5121 40.7932 47.5473 40.8158 47.5825 40.8381C47.5715 40.7957 47.5604 40.7533 47.5493 40.7108C47.2499 39.54 47.0692 38.303 47.0311 36.9564C47.0308 36.9445 47.0304 36.9327 47.0302 36.9208L47.0001 36.907C46.9936 36.9038 46.9904 36.9009 46.9873 36.8962C46.4918 36.145 46.0926 35.2905 45.8191 34.3726C45.8144 34.3564 45.8167 34.3448 45.8268 34.3347C45.8397 34.3221 45.86 34.3184 45.8724 34.3266C45.8785 34.3306 45.883 34.3374 45.8859 34.3476C46.1362 35.1883 46.4936 35.9774 46.9345 36.6805C46.9652 36.7294 46.9961 36.7782 47.027 36.8269C47.0259 36.7675 47.025 36.7082 47.0245 36.6489C47.0116 35.3753 47.1263 34.0506 47.4137 32.6336C47.4171 32.6167 47.4243 32.6135 47.4271 32.6124C47.4372 32.6076 47.4523 32.6106 47.4638 32.6189C47.4776 32.6288 47.4826 32.6431 47.4789 32.6611C47.0886 34.5928 47.0157 36.3826 47.1649 38.0487C47.168 38.0837 47.1712 38.1189 47.1746 38.1539C47.1985 38.1309 47.2226 38.1079 47.2468 38.0851C48.0591 37.3122 48.7498 36.4681 49.3319 35.5633C49.3387 35.5527 49.3452 35.548 49.359 35.5552C49.3707 35.5613 49.3804 35.5735 49.3838 35.5863C49.3867 35.5974 49.3849 35.6078 49.3786 35.6179C48.7768 36.5559 48.0586 37.4284 47.2089 38.225C47.201 38.2315 47.1928 38.238 47.1849 38.2446C47.1861 38.2547 47.187 38.2651 47.1881 38.2753C47.2853 39.2094 47.4467 40.063 47.6651 40.8769C47.6665 40.8817 47.6678 40.8866 47.6689 40.8914C47.6723 40.8947 47.6757 40.8984 47.6791 40.9017C47.6879 40.9108 47.6906 40.922 47.6874 40.9356C47.6863 40.9403 47.6852 40.9453 47.6838 40.95C47.6852 40.9548 47.6865 40.9597 47.6879 40.9645C47.8856 41.6816 48.1417 42.4185 48.4831 43.2015C48.5018 43.2441 48.5205 43.2868 48.5395 43.3294C48.5514 43.2847 48.5634 43.2403 48.5756 43.1958C48.9192 41.9388 49.4312 40.7713 50.065 39.7492C50.074 39.7345 50.0874 39.7293 50.1045 39.7343C50.1169 39.7379 50.1275 39.7465 50.1314 39.7557C50.1332 39.76 50.1345 39.7672 50.1273 39.7787C49.4605 40.8548 48.9312 42.0868 48.5898 43.4111C48.5882 43.4174 48.5864 43.4237 48.5848 43.4303C48.5875 43.4364 48.5902 43.4425 48.5929 43.4485C49.2141 44.8035 50.0413 46.1905 51.2713 47.6563C51.2826 47.6696 51.2794 47.6775 51.2778 47.6813C51.2717 47.6947 51.2553 47.7057 51.2395 47.7068Z" fill="#EA499B"/>
<path d="M46.4234 53.0553C46.4083 53.0641 46.5913 51.1972 46.0956 49.399C45.6497 47.6151 44.5253 45.8996 43.0478 46.5366C41.0089 47.5005 40.0118 43.6881 38.7963 44.7391C37.6938 45.8305 38.4048 46.2078 36.4492 45.4126C34.4383 44.6942 33.695 46.1731 31.7028 46.7566C29.6797 47.4635 30.7125 49.9839 33.2365 49.7987C35.8187 49.7472 33.0569 50.3962 34.0671 51.3533C34.8977 52.1643 39.3403 50.187 38.7931 51.2856C38.1844 52.2843 38.6528 53.3017 39.8011 53.3365C42.4598 53.3295 46.3803 52.9946 46.4234 53.0553Z" fill="#C1A0FD"/>
<path d="M47.3505 54.0737C47.3532 54.0618 47.3502 54.0507 47.3419 54.0401C46.0323 52.3627 43.9255 50.3552 41.3053 49.116C41.2986 49.1128 41.2918 49.1094 41.285 49.1063C41.2823 49.099 41.2798 49.092 41.2771 49.0848C40.9822 48.2714 40.5163 47.5035 40.0183 46.7783C39.8542 46.5389 39.6854 46.3011 39.5158 46.0628C39.5061 46.049 39.4968 46.0457 39.4828 46.0506C39.4632 46.0576 39.4458 46.0793 39.451 46.1007C39.4524 46.1059 39.4548 46.1113 39.4587 46.1167C39.6247 46.3494 39.7897 46.5818 39.9503 46.8155C40.4098 47.4839 40.8437 48.1899 41.1388 48.9354C41.1553 48.9767 41.1715 49.018 41.1875 49.0595C41.1476 49.0408 41.1074 49.0223 41.0673 49.004C39.9616 48.4988 38.7705 48.1112 37.4469 47.8603C37.4351 47.858 37.4234 47.8558 37.4119 47.8537L37.4035 47.8192C37.4015 47.8118 37.3993 47.8077 37.395 47.8036C36.7372 47.1522 35.961 46.5886 35.1009 46.1508C35.0858 46.1431 35.0738 46.1438 35.0623 46.1531C35.0476 46.1648 35.0406 46.1865 35.0465 46.2009C35.0494 46.2081 35.0553 46.214 35.0648 46.2187C35.8527 46.6195 36.5714 47.1281 37.1908 47.7129C37.2339 47.7538 37.277 47.7946 37.3196 47.8357C37.2612 47.8253 37.2027 47.8151 37.1443 47.8052C35.8886 47.5929 34.5605 47.5103 33.1119 47.5994C33.0947 47.6006 33.0902 47.6078 33.0886 47.6105C33.0823 47.6206 33.0825 47.6376 33.0888 47.6513C33.0965 47.6676 33.1096 47.6752 33.1279 47.6741C35.1025 47.5538 36.8828 47.7542 38.5031 48.1746C38.5372 48.1834 38.5712 48.1924 38.6053 48.2014C38.5785 48.2238 38.5518 48.2461 38.525 48.2684C37.6233 49.0241 36.672 49.6376 35.6794 50.1246C35.6679 50.1302 35.662 50.1368 35.6668 50.1525C35.6708 50.1661 35.6812 50.1785 35.6934 50.1844C35.7038 50.1893 35.7142 50.1891 35.7254 50.1835C36.7544 49.6805 37.7384 49.0419 38.6696 48.2495C38.6775 48.2418 38.6852 48.2344 38.6931 48.2267C38.703 48.2294 38.7129 48.2321 38.7229 48.2348C39.629 48.4851 40.4447 48.7922 41.2115 49.1545C41.216 49.1568 41.2205 49.1588 41.225 49.1611C41.2277 49.1654 41.2306 49.1694 41.2333 49.1737C41.2408 49.1846 41.2514 49.1893 41.2654 49.1879C41.2703 49.1875 41.2753 49.1868 41.2803 49.1864C41.2848 49.1886 41.2893 49.1909 41.2938 49.1929C41.9687 49.5176 42.6528 49.9089 43.3681 50.3989C43.4072 50.4258 43.4462 50.4527 43.485 50.4795C43.439 50.4854 43.3929 50.4915 43.3469 50.4976C42.0468 50.6722 40.8064 51.0429 39.6891 51.5671C39.6728 51.5745 39.6658 51.5881 39.6676 51.6075C39.669 51.6212 39.6757 51.6343 39.6843 51.6397C39.6882 51.6422 39.6951 51.6449 39.7078 51.6391C40.884 51.0876 42.191 50.7085 43.5574 50.5465C43.564 50.5456 43.5705 50.5449 43.5771 50.5443C43.5825 50.5481 43.5881 50.5522 43.5935 50.556C44.8264 51.4371 46.056 52.545 47.2945 54.0999C47.3058 54.1141 47.3141 54.1119 47.318 54.111C47.3329 54.1067 47.3469 54.0907 47.3505 54.0737Z" fill="#EA499B"/>
<path d="M45.2654 49.3854C45.2446 49.384 46.506 47.6926 47.0238 45.625C47.5854 43.6038 47.4036 41.2063 45.5057 40.8604C42.8377 40.4653 43.9916 36.117 42.1276 36.3435C40.3577 36.6829 40.8785 37.5128 39.3064 35.4658C37.6331 33.4571 36.0132 34.4069 33.6117 33.6733C31.1076 33.0393 30.7321 36.1576 33.4565 37.6243C36.1644 39.2588 32.9274 38.0868 33.4256 39.674C33.8218 41.0023 39.5648 41.9828 38.3666 42.6913C37.162 43.2628 37.0638 44.5551 38.2349 45.338C40.9969 47.0655 45.2555 49.2983 45.2654 49.3854Z" fill="#EA499B"/>
<path d="M45.6413 50.9768C45.651 50.9669 45.6544 50.9543 45.6517 50.9387C45.2559 48.4573 44.2232 45.1359 42.2168 42.2245C42.2116 42.2168 42.2064 42.2093 42.2012 42.2017C42.2026 42.1931 42.2039 42.1843 42.2053 42.1757C42.3664 41.1944 42.3235 40.1456 42.2235 39.1174C42.1908 38.7782 42.1522 38.4375 42.113 38.0957C42.1107 38.076 42.1031 38.0668 42.0859 38.0625C42.0618 38.0564 42.0311 38.0663 42.0241 38.0903C42.0223 38.0961 42.0218 38.1031 42.0227 38.1108C42.0613 38.4447 42.0992 38.7778 42.1315 39.1093C42.2242 40.0572 42.2691 41.0252 42.1475 41.9406C42.1407 41.9914 42.134 42.0421 42.127 42.0927C42.0963 42.0485 42.0651 42.0044 42.0342 41.9604C41.1775 40.7492 40.1643 39.5962 38.9355 38.4894C38.9247 38.4797 38.9138 38.4698 38.903 38.4601L38.9143 38.421C38.9166 38.4125 38.9163 38.4071 38.9145 38.4005C38.6063 37.3396 38.1246 36.2867 37.4837 35.3009C37.4725 35.2835 37.4596 35.2765 37.4422 35.2779C37.4203 35.2799 37.4007 35.2961 37.3984 35.314C37.3973 35.3228 37.4 35.3323 37.4072 35.3431C37.9944 36.2456 38.4481 37.208 38.7548 38.1794C38.7762 38.2471 38.7972 38.3148 38.818 38.3825C38.7633 38.3344 38.7085 38.2863 38.6535 38.2385C37.4727 37.2134 36.1425 36.2669 34.589 35.4085C34.5705 35.3984 34.5617 35.4024 34.5585 35.404C34.5461 35.4099 34.5366 35.4261 34.5353 35.4437C34.5339 35.4645 34.543 35.4805 34.5626 35.4913C36.6798 36.6629 38.4113 38.0185 39.8507 39.4831C39.8809 39.5141 39.9112 39.5447 39.9412 39.5759C39.9006 39.5799 39.86 39.5842 39.8196 39.5885C38.4506 39.7334 37.1117 39.7081 35.8027 39.5326C35.7874 39.5305 35.7777 39.533 35.7736 39.5513C35.77 39.5671 35.7738 39.5858 35.7831 39.5993C35.791 39.6109 35.802 39.6174 35.8167 39.6194C37.1726 39.8026 38.5596 39.8252 39.9807 39.6639C39.9931 39.6616 40.0057 39.6594 40.0181 39.6571C40.0269 39.6661 40.0355 39.6754 40.0443 39.6844C40.8406 40.5184 41.5105 41.3483 42.0976 42.1999C42.101 42.2048 42.1046 42.21 42.108 42.215C42.1085 42.2208 42.1091 42.2267 42.1096 42.2328C42.111 42.2481 42.1193 42.2599 42.1346 42.2673C42.1401 42.27 42.1455 42.2727 42.1511 42.2757C42.1545 42.2809 42.1579 42.2858 42.1615 42.291C42.6751 43.0462 43.1604 43.8721 43.6209 44.8139C43.646 44.8654 43.671 44.9168 43.6959 44.9682C43.6446 44.9439 43.5934 44.9197 43.5422 44.8958C42.0934 44.2171 40.5942 43.7676 39.1343 43.5472C39.1133 43.544 39.098 43.5523 39.0889 43.5724C39.0824 43.5869 39.0819 43.6038 39.0876 43.6146C39.0903 43.6196 39.0957 43.6266 39.1124 43.6293C40.649 43.8617 42.2222 44.3466 43.7324 45.0808C43.7396 45.0844 43.7468 45.0878 43.7541 45.0914C43.7575 45.0989 43.7611 45.1063 43.7644 45.1136C44.5375 46.7722 45.1767 48.6491 45.5691 50.9653C45.5725 50.9865 45.5824 50.9897 45.5872 50.9913C45.6039 50.9974 45.6278 50.9908 45.6413 50.9768Z" fill="#B25CDD"/>
<path d="M68.8098 43.0002H47.4091C45.3332 43.0002 43.6504 44.6831 43.6504 46.759V91.4496C43.6504 93.5255 45.3332 95.2083 47.4091 95.2083H68.8098C70.8857 95.2083 72.5685 93.5255 72.5685 91.4496V46.7587C72.5685 44.6829 70.8857 43.0002 68.8098 43.0002Z" fill="#0A4D7A"/>
<path d="M68.8098 43.0002H47.4091C45.3332 43.0002 43.6504 44.6831 43.6504 46.759V91.4494C43.6504 92.6541 44.2195 93.7238 45.1008 94.4116L72.2594 45.2675C71.6822 43.9339 70.3557 43.0002 68.8098 43.0002Z" fill="#083954"/>
<path d="M62.2875 44.8314H54.3481C54.1299 44.8314 53.9512 45.0101 53.9512 45.2283C53.9512 45.4467 54.1299 45.6252 54.3481 45.6252H62.2875C62.5059 45.6252 62.6844 45.4465 62.6844 45.2283C62.6844 45.0101 62.5057 44.8314 62.2875 44.8314Z" fill="white"/>
<path d="M68.8076 44.4082H65.6673L64.5376 46.5495C64.1152 47.3499 63.2846 47.8508 62.3795 47.8508H53.835C52.9299 47.8508 52.0993 47.3499 51.6769 46.5495L50.5472 44.4082H47.4069C46.1111 44.4082 45.0566 45.4626 45.0566 46.7585V91.4491C45.0566 92.745 46.1111 93.7994 47.4069 93.7994H68.8076C70.1037 93.7994 71.1579 92.745 71.1579 91.4491V46.7585C71.1579 45.4626 70.1037 44.4082 68.8076 44.4082Z" fill="#CAEDFF"/>
<path opacity="0.85" d="M71.1581 46.7592V47.2552L45.792 93.156C45.3396 92.7252 45.0566 92.1205 45.0566 91.4483V46.7592C45.0566 45.4627 46.1117 44.4078 47.406 44.4078H50.5472L51.676 46.5505C52.1002 47.3511 52.929 47.8513 53.8361 47.8513H62.3807C63.2855 47.8513 64.1143 47.3511 64.5385 46.5505L65.6673 44.4078H68.8085C70.103 44.4078 71.1581 45.4629 71.1581 46.7592Z" fill="#BAE6F7"/>
<path d="M81.641 51.1372H49.1337C48.225 51.1372 47.4883 51.8739 47.4883 52.7826V60.8276C47.4883 61.7362 48.225 62.4729 49.1337 62.4729H81.641C82.5497 62.4729 83.2864 61.7362 83.2864 60.8276V52.7826C83.2862 51.8737 82.5497 51.1372 81.641 51.1372Z" fill="white"/>
<path d="M63.3016 54.9189L63.522 55.5976C63.5374 55.645 63.5816 55.677 63.6312 55.677H64.3449C64.4562 55.677 64.5026 55.8197 64.4124 55.8851L63.835 56.3046C63.7948 56.3339 63.7779 56.3858 63.7932 56.4332L64.0137 57.1119C64.0482 57.2177 63.9268 57.3059 63.8368 57.2405L63.2594 56.821C63.2192 56.7917 63.1646 56.7917 63.1242 56.821L62.547 57.2405C62.457 57.3059 62.3356 57.2179 62.3701 57.1119L62.5906 56.4332C62.6059 56.3858 62.589 56.3339 62.5488 56.3046L61.9714 55.8851C61.8814 55.8197 61.9276 55.677 62.0389 55.677H62.7526C62.8024 55.677 62.8464 55.645 62.862 55.5976L63.0825 54.9189C63.1172 54.8128 63.267 54.8128 63.3016 54.9189Z" fill="#FBBE42"/>
<path d="M67.2605 54.9189L67.481 55.5976C67.4963 55.645 67.5406 55.677 67.5904 55.677H68.3039C68.4154 55.677 68.4616 55.8197 68.3714 55.8851L67.7942 56.3046C67.7538 56.3339 67.7371 56.3858 67.7524 56.4332L67.9729 57.1119C68.0072 57.2177 67.886 57.3059 67.796 57.2405L67.2186 56.821C67.1782 56.7917 67.1238 56.7917 67.0834 56.821L66.506 57.2405C66.416 57.3059 66.2948 57.2179 66.3291 57.1119L66.5496 56.4332C66.5649 56.3858 66.548 56.3339 66.5078 56.3046L65.9304 55.8851C65.8404 55.8197 65.8866 55.677 65.9979 55.677H66.7113C66.7612 55.677 66.8054 55.645 66.8208 55.5976L67.0412 54.9189C67.0762 54.8128 67.226 54.8128 67.2605 54.9189Z" fill="#FBBE42"/>
<path d="M71.2195 54.9189L71.44 55.5976C71.4553 55.645 71.4996 55.677 71.5494 55.677H72.2631C72.3744 55.677 72.4208 55.8197 72.3306 55.8851L71.7532 56.3046C71.7128 56.3339 71.6961 56.3858 71.7114 56.4332L71.9319 57.1119C71.9662 57.2177 71.845 57.3059 71.755 57.2405L71.1776 56.821C71.1372 56.7917 71.0828 56.7917 71.0424 56.821L70.465 57.2405C70.375 57.3059 70.2538 57.2179 70.2881 57.1119L70.5085 56.4332C70.5239 56.3858 70.507 56.3339 70.4668 56.3046L69.8894 55.8851C69.7993 55.8197 69.8456 55.677 69.9568 55.677H70.6705C70.7204 55.677 70.7644 55.645 70.7798 55.5976L71.0002 54.9189C71.0352 54.8128 71.1852 54.8128 71.2195 54.9189Z" fill="#FBBE42"/>
<path d="M75.1783 54.9189L75.3987 55.5976C75.4141 55.645 75.4583 55.677 75.5079 55.677H76.2217C76.3329 55.677 76.3794 55.8197 76.2891 55.8851L75.7119 56.3046C75.6715 56.3339 75.6548 56.3858 75.6702 56.4332L75.8906 57.1119C75.9252 57.2177 75.8038 57.3059 75.7137 57.2405L75.1363 56.821C75.0959 56.7917 75.0415 56.7917 75.0012 56.821L74.424 57.2405C74.3339 57.3059 74.2125 57.2179 74.2471 57.1119L74.4675 56.4332C74.4829 56.3858 74.4659 56.3339 74.4258 56.3046L73.8484 55.8851C73.7583 55.8197 73.8046 55.677 73.9158 55.677H74.6295C74.6794 55.677 74.7234 55.645 74.739 55.5976L74.9594 54.9189C74.9942 54.8128 75.144 54.8128 75.1783 54.9189Z" fill="#FBBE42"/>
<path d="M79.1375 54.9189L79.358 55.5976C79.3733 55.645 79.4175 55.677 79.4674 55.677H80.1809C80.2923 55.677 80.3386 55.8197 80.2483 55.8851L79.6711 56.3046C79.6308 56.3339 79.6141 56.3858 79.6294 56.4332L79.8498 57.1119C79.8841 57.2177 79.763 57.3059 79.6729 57.2405L79.0955 56.821C79.0554 56.7917 79.0008 56.7917 78.9604 56.821L78.383 57.2405C78.2929 57.3059 78.1715 57.2179 78.2061 57.1119L78.4265 56.4332C78.4419 56.3858 78.4249 56.3339 78.3848 56.3046L77.8073 55.8851C77.7173 55.8197 77.7636 55.677 77.8748 55.677H78.5883C78.6382 55.677 78.6824 55.645 78.6977 55.5976L78.9182 54.9189C78.9534 54.8128 79.1032 54.8128 79.1375 54.9189Z" fill="#B1D7DD"/>
<path d="M73.4389 58.3765H61.9258V58.6962H73.4389V58.3765Z" fill="#B1D7DD"/>
<path d="M73.4389 53.1128H61.9258V53.7155H73.4389V53.1128Z" fill="#379CF7"/>
<path d="M73.4389 59.5938H61.9258V59.9135H73.4389V59.5938Z" fill="#B1D7DD"/>
<path d="M67.1884 60.7236H61.9258V61.0434H67.1884V60.7236Z" fill="#B1D7DD"/>
<path d="M55.8569 61.4489C58.3288 60.8706 59.8638 58.398 59.2855 55.9261C58.7072 53.4543 56.2346 51.9193 53.7627 52.4976C51.2909 53.0759 49.7559 55.5485 50.3342 58.0203C50.9125 60.4921 53.3851 62.0272 55.8569 61.4489Z" fill="#7BC7FF"/>
<mask id="mask0_593_8846" style="mask-type:luminance" maskUnits="userSpaceOnUse" x="50" y="52" width="10" height="10">
<path d="M55.857 61.4491C58.3288 60.8708 59.8639 58.3981 59.2856 55.9263C58.7073 53.4544 56.2346 51.9194 53.7628 52.4977C51.2909 53.076 49.7559 55.5486 50.3342 58.0205C50.9125 60.4923 53.3851 62.0273 55.857 61.4491Z" fill="white"/>
</mask>
<g mask="url(#mask0_593_8846)">
<path d="M57.0911 59.7585L56.6877 55.5113C56.6877 54.4237 56.2606 53.4232 55.1098 53.7199C54.5897 53.4474 53.9416 53.5108 53.5163 53.9156C53.0662 54.3443 52.8083 54.9962 52.8083 55.6537L52.3574 59.7825L57.0911 59.7585Z" fill="#0A4D7A"/>
<path d="M55.4898 57.5774V58.5119C55.4898 58.5119 55.3592 59.2426 54.7443 59.3659C54.1031 59.1977 54.0039 58.5119 54.0039 58.5119V57.5774H55.4898Z" fill="#FFA683"/>
<path d="M55.4898 57.4432V58.0381C55.2647 58.1597 55.0095 58.2253 54.747 58.2253C54.4842 58.2253 54.2292 58.1597 54.0039 58.0381V57.4432H55.4898Z" fill="#E57C5C"/>
<path d="M56.2564 55.5611C55.5729 55.5419 55.1255 55.0128 55.1255 55.0128C54.7092 55.3752 53.2502 55.5611 53.2502 55.5611L53.2402 56.137C53.2402 56.5709 53.4235 57.0982 53.7166 57.5039C53.9551 57.834 54.3414 58.0251 54.7484 58.0251C55.1557 58.0251 55.5418 57.834 55.7803 57.5039C56.0736 57.0982 56.2566 56.5709 56.2566 56.137L56.2564 55.5611Z" fill="#FFA683"/>
<path d="M58.4265 60.0672C57.8441 59.0656 55.3787 58.5121 55.3787 58.5121L54.7307 58.7605L54.0824 58.5121C54.0824 58.5121 51.6171 59.0654 51.0347 60.0672L50.3203 65.4657L51.4542 65.4481L52.118 60.9407C52.118 60.9407 52.5372 62.3965 52.514 63.2467C52.4908 64.0969 52.2261 65.5022 52.2261 65.5022H54.6648H54.7968H57.2355C57.2355 65.5022 56.9708 64.0969 56.9476 63.2467C56.9244 62.3965 57.3436 60.9407 57.3436 60.9407L58.0074 65.4481L59.1413 65.4657L58.4265 60.0672Z" fill="#FFA683"/>
<path d="M56.7252 58.9312C56.5284 59.4928 56.0205 60.3518 54.7353 60.4191C53.446 60.3518 52.9387 59.4874 52.7433 58.9258C52.3667 59.0713 51.9737 59.255 51.6465 59.4727L52.0894 60.9403C52.0964 60.9514 52.1025 60.966 52.109 60.9787L52.1147 60.9403C52.1147 60.9403 52.1332 61.0048 52.1612 61.1107C52.1659 61.1269 52.1702 61.1443 52.1747 61.1617C52.2896 61.6008 52.5285 62.5985 52.5107 63.2466C52.4874 64.0968 52.2228 65.5021 52.2228 65.5021H54.6615H54.7935H57.2322C57.2322 65.5021 56.9675 64.0968 56.9443 63.2466C56.9211 62.3964 57.3403 60.9405 57.3403 60.9405L57.3496 61.0028C57.3597 60.9807 57.3696 60.9586 57.3811 60.9405L57.8216 59.4818C57.4955 59.2624 57.1027 59.0779 56.7252 58.9312Z" fill="#379CF7"/>
</g>
<path d="M86.5398 64.2989C86.3758 64.2953 86.2264 64.2037 86.1501 64.0584L83.7949 59.3702C83.7949 59.3702 83.5131 58.2429 83.1816 58.2429L83.1484 59.7349L84.7415 65.4989C84.8337 65.859 85.0217 66.1667 85.5023 66.178C86.4812 66.2008 88.2714 66.5147 89.4382 66.8207C90.6318 67.1338 91.6359 66.8132 91.6359 66.8132C91.7104 64.1775 87.5435 64.321 86.5398 64.2989Z" fill="#FFA683"/>
<path d="M90.069 63.7093V65.0422H88.0455V64.2915C88.0455 64.2915 86.7149 63.9774 86.7796 62.7761C86.8444 61.575 87.408 60.9928 87.7129 60.9003C88.0177 60.8078 89.4869 61.3992 89.5146 61.4732C89.5424 61.5472 89.6994 62.8223 89.6994 62.8223L90.069 63.7093Z" fill="#FFA683"/>
<path d="M87.9416 61.8891C87.9416 61.8891 88.3001 61.3832 88.6343 61.6336C88.9684 61.8843 88.8015 62.3855 88.3836 62.6361C88.3836 62.6361 88.8013 64.0563 89.6368 63.9728C90.4721 63.8894 91.545 63.0069 91.4525 61.6302C91.36 60.2536 89.5623 59.2843 88.579 59.4774C87.5905 59.6715 86.6202 60.771 87.9416 61.8891Z" fill="#B15CDE"/>
<path d="M91.4434 60.7616C91.4434 60.7616 92.5337 59.3757 93.624 60.5768C94.7142 61.7779 95.3979 63.127 95.8971 63.3858C96.396 63.6444 95.472 64.2728 94.2709 63.8847C93.0696 63.4966 91.5171 62.0182 91.4434 60.7616Z" fill="#B15CDE"/>
<path d="M88.043 65.0415V64.2912C88.043 64.2912 88.8697 64.3237 89.2213 64.0037C89.2213 64.0037 88.9746 64.5758 88.434 64.5914V65.0415H88.043Z" fill="#ED7D5A"/>
<path d="M87.155 75.7042C87.155 75.7042 87.6317 83.158 88.2385 84.7181C88.8452 86.2782 92.6829 93.3753 92.6829 93.3753L94.671 92.9375L91.8356 84.4579C91.814 84.978 91.4374 82.5332 92.1389 80.0593C92.5505 78.6075 92.3918 77.0233 91.7765 75.7575L86.8086 75.704" fill="url(#paint0_linear_593_8846)"/>
<path d="M91.7376 75.3901C91.7376 75.3901 91.5515 77.461 89.17 79.8104C86.7649 82.183 85.8222 83.7756 85.8222 83.7756L85.4648 94.0463H83.4821C83.4821 94.0463 82.3119 83.223 82.3444 82.8331C82.3769 82.4432 85.6598 75.3901 86.0497 74.7725C86.4398 74.155 91.7376 75.3901 91.7376 75.3901Z" fill="url(#paint1_linear_593_8846)"/>
<path d="M90.2736 64.9349C90.2736 64.9349 92.4001 65.0938 91.6171 67.7302C90.7612 70.6121 91.7423 75.2309 91.9373 75.7077L91.2999 75.9618C89.3896 76.6795 87.276 76.634 85.3984 75.8343C85.3984 75.8343 87.0887 72.1074 85.886 70.1572C85.1126 68.9028 85.3407 67.6372 86.2435 66.5169C86.8285 65.791 87.5662 65.0349 87.8577 65.0214L90.2736 64.9349Z" fill="#C1A0FD"/>
<path d="M83.4826 94.0469H83.9016L83.0529 82.9117C83.1931 82.6795 83.6784 81.7903 85.1498 78.9578C85.6623 77.972 86.021 77.0299 86.2774 76.1466C86.0107 76.0696 85.7467 75.9778 85.4874 75.8706C84.4368 78.0291 82.3702 82.5243 82.3444 82.8332C82.3113 83.2222 83.4826 94.0469 83.4826 94.0469Z" fill="#EA499B"/>
<path d="M87.5987 69.4563C86.6056 69.8241 87.3435 72.4627 86.2755 76.1463C85.9788 76.0594 85.6857 75.9568 85.3984 75.8345C85.3984 75.8345 87.0887 72.1076 85.886 70.1574C85.5049 69.5393 85.368 68.9184 85.4341 68.3134L89.6493 67.3553C89.6493 67.3553 88.9491 68.956 87.5987 69.4563Z" fill="#B25CDD"/>
<path d="M78.5149 62.854C78.5149 62.854 82.3734 69.2665 83.4998 69.6309C84.0005 69.7929 87.1206 68.5742 88.4372 68.3578C89.1487 68.2409 89.6489 67.5945 89.5831 66.8765C89.5075 66.0536 88.5636 65.3536 87.7563 65.5305L83.4246 66.8801C83.4246 66.8801 79.7568 63.0873 78.94 62.2204C78.94 62.2204 78.6016 61.1533 78.0982 61.1533C77.6478 61.1535 78.3315 62.4873 78.5149 62.854Z" fill="#FFA683"/>
<path d="M81.5904 94.7035C82.1374 94.5254 83.1609 94.3088 83.5314 94.048H85.4568C85.4376 94.4338 85.4274 94.8088 85.4222 95.0582C85.4189 95.2256 85.2821 95.3587 85.1147 95.3587H81.2813C81.0304 95.3587 80.939 95.0306 81.1527 94.8991C81.2639 94.8307 81.407 94.7633 81.5904 94.7035Z" fill="#B15CDE"/>
<path d="M90.981 94.4542C91.4736 94.1573 92.4215 93.7148 92.7236 93.377L94.5991 92.9418C94.6677 93.322 94.7426 93.6895 94.7939 93.9337C94.8284 94.0975 94.7253 94.2582 94.5621 94.2961L90.828 95.1625C90.5836 95.2192 90.4205 94.9202 90.5987 94.744C90.6917 94.6521 90.8156 94.554 90.981 94.4542Z" fill="#B15CDE"/>
<path opacity="0.58" d="M83.4999 67.4403C84.407 67.4624 88.4642 65.9405 89.5421 66.6677C89.3431 65.94 88.4933 65.3689 87.7557 65.5307L83.4241 66.8803C83.4241 66.8803 79.7563 63.0875 78.9395 62.2206C78.9395 62.2206 82.5136 67.4162 83.4999 67.4403Z" fill="#ED7D5A"/>
<path d="M91.4158 60.6801L91.1328 60.731C91.1328 60.731 91.4988 61.3248 91.4224 61.8802L91.7884 61.8121C91.7884 61.8121 91.7498 60.7994 91.4158 60.6801Z" fill="white"/>
<path d="M65.9924 65.0997H33.4852C32.5766 65.0997 31.8398 65.8364 31.8398 66.7451V74.7901C31.8398 75.6988 32.5766 76.4355 33.4852 76.4355H65.9926C66.9013 76.4355 67.638 75.6988 67.638 74.7901V66.7451C67.6378 65.8364 66.901 65.0997 65.9924 65.0997Z" fill="white"/>
<path d="M47.6553 68.881L47.8758 69.5597C47.8911 69.6071 47.9353 69.6392 47.985 69.6392H48.6984C48.8099 69.6392 48.8562 69.7818 48.7659 69.8472L48.1885 70.2667C48.1483 70.296 48.1314 70.3479 48.1467 70.3953L48.3672 71.074C48.4017 71.1798 48.2803 71.2681 48.1903 71.2026L47.6131 70.7832C47.5727 70.7538 47.5183 70.7538 47.4779 70.7832L46.9005 71.2026C46.8105 71.2681 46.6891 71.1801 46.7236 71.074L46.9441 70.3953C46.9594 70.3479 46.9425 70.296 46.9023 70.2667L46.3249 69.8472C46.2349 69.7818 46.2811 69.6392 46.3924 69.6392H47.1059C47.1557 69.6392 47.1997 69.6071 47.2153 69.5597L47.4358 68.881C47.4712 68.7752 47.621 68.7752 47.6553 68.881Z" fill="#FBBE42"/>
<path d="M51.6136 68.8809L51.8341 69.5596C51.8494 69.607 51.8936 69.639 51.9435 69.639H52.657C52.7684 69.639 52.8147 69.7816 52.7247 69.8471L52.1472 70.2665C52.1069 70.2959 52.0902 70.3478 52.1055 70.3952L52.326 71.0739C52.3603 71.1797 52.2391 71.2679 52.1491 71.2025L51.5716 70.783C51.5313 70.7537 51.4769 70.7537 51.4365 70.783L50.8593 71.2025C50.7693 71.2679 50.6479 71.1799 50.6824 71.0739L50.9028 70.3952C50.9182 70.3478 50.9015 70.2959 50.8611 70.2665L50.2839 69.8471C50.1939 69.7816 50.2401 69.639 50.3514 69.639H51.0649C51.1147 69.639 51.1589 69.607 51.1743 69.5596L51.3947 68.8809C51.4293 68.7751 51.5791 68.7751 51.6136 68.8809Z" fill="#FBBE42"/>
<path d="M55.5743 68.8809L55.7948 69.5596C55.8101 69.607 55.8543 69.639 55.9042 69.639H56.6179C56.7292 69.639 56.7756 69.7816 56.6854 69.8471L56.1082 70.2665C56.0678 70.2959 56.0511 70.3478 56.0664 70.3952L56.2869 71.0739C56.3212 71.1797 56.2 71.2679 56.11 71.2025L55.5328 70.783C55.4924 70.7537 55.4378 70.7537 55.3976 70.783L54.8205 71.2025C54.7304 71.2679 54.609 71.1799 54.6436 71.0739L54.864 70.3952C54.8793 70.3478 54.8624 70.2959 54.8223 70.2665L54.2448 69.8471C54.1548 69.7816 54.2011 69.639 54.3123 69.639H55.026C55.0759 69.639 55.1199 69.607 55.1352 69.5596L55.3557 68.8809C55.39 68.7751 55.5398 68.7751 55.5743 68.8809Z" fill="#FBBE42"/>
<path d="M59.5303 68.8809L59.7508 69.5596C59.7661 69.607 59.8103 69.639 59.86 69.639H60.5737C60.6851 69.639 60.7314 69.7816 60.6411 69.8471L60.0637 70.2665C60.0233 70.2959 60.0066 70.3478 60.022 70.3952L60.2424 71.0739C60.2769 71.1797 60.1556 71.2679 60.0655 71.2025L59.4881 70.783C59.4477 70.7537 59.3933 70.7537 59.3529 70.783L58.7755 71.2025C58.6855 71.2679 58.5641 71.1799 58.5986 71.0739L58.8191 70.3952C58.8344 70.3478 58.8175 70.2959 58.7773 70.2665L58.1999 69.8471C58.1099 69.7816 58.1561 69.639 58.2674 69.639H58.9811C59.031 69.639 59.075 69.607 59.0905 69.5596L59.311 68.8809C59.346 68.7751 59.4958 68.7751 59.5303 68.8809Z" fill="#FBBE42"/>
<path d="M63.4908 68.8809L63.7112 69.5596C63.7266 69.607 63.7708 69.639 63.8207 69.639H64.5342C64.6456 69.639 64.6919 69.7816 64.6016 69.8471L64.0244 70.2665C63.984 70.2959 63.9673 70.3478 63.9827 70.3952L64.2031 71.0739C64.2377 71.1797 64.1163 71.2679 64.0262 71.2025L63.4488 70.783C63.4087 70.7537 63.3541 70.7537 63.3137 70.783L62.7362 71.2025C62.6462 71.2679 62.5248 71.1799 62.5593 71.0739L62.7798 70.3952C62.7951 70.3478 62.7782 70.2959 62.738 70.2665L62.1609 69.8471C62.0708 69.7816 62.1171 69.639 62.2283 69.639H62.9418C62.9917 69.639 63.0359 69.607 63.0512 69.5596L63.2717 68.8809C63.3064 68.7751 63.4563 68.7751 63.4908 68.8809Z" fill="#FBBE42"/>
<path d="M57.7904 72.3387H46.2773V72.6585H57.7904V72.3387Z" fill="#B1D7DD"/>
<path d="M57.7904 67.0753H46.2773V67.678H57.7904V67.0753Z" fill="#0A4D7A"/>
<path d="M57.7904 73.5564H46.2773V73.8761H57.7904V73.5564Z" fill="#B1D7DD"/>
<path d="M51.54 74.6863H46.2773V75.006H51.54V74.6863Z" fill="#B1D7DD"/>
<path d="M42.4127 74.1883C44.2078 72.3933 44.2078 69.4829 42.4127 67.6879C40.6177 65.8929 37.7074 65.8929 35.9123 67.6879C34.1173 69.4829 34.1173 72.3933 35.9123 74.1883C37.7074 75.9834 40.6177 75.9834 42.4127 74.1883Z" fill="#7BC7FF"/>
<path d="M29.3477 88.497C29.3477 88.497 37.1426 81.9652 38.5139 84.2748C39.8851 86.5845 37.8642 94.0546 37.8642 94.0546L29.3477 88.497Z" fill="#EA499B"/>
<path d="M33.4375 91.1665L37.8637 94.0547C37.8637 94.0547 39.711 87.2216 38.6708 84.6067C39.1462 88.0457 35.4987 90.2236 33.4375 91.1665Z" fill="url(#paint2_linear_593_8846)"/>
<path d="M33.3421 87.7995C33.3421 87.7995 38.1695 91.6733 38.5628 93.0683C39.2005 95.3299 35.4201 95.0771 33.7871 95.0771C32.1541 95.0771 21.748 94.7892 21.748 94.7892L21.8421 93.1885L31.4413 92.7314C31.4413 92.7314 26.1243 91.9432 26.3213 88.8745C26.5188 85.8058 33.3421 87.7995 33.3421 87.7995Z" fill="url(#paint3_linear_593_8846)"/>
<path d="M38.3 94.3481C37.4191 95.2182 35.0066 95.0769 33.7863 95.0769C32.1526 95.0769 21.7461 94.7897 21.7461 94.7897L21.8418 93.1887L31.4412 92.7321C31.4412 92.7321 35.2654 94.5724 38.2237 94.3569C38.2499 94.3544 38.2761 94.3524 38.3 94.3481Z" fill="#EA499B"/>
<path d="M21.7975 94.7616C21.7975 94.7616 21.3735 95.7179 21.6982 96.3495C22.0229 96.9811 20.6156 96.521 20.3899 95.2759C20.1643 94.0308 20.2726 92.5422 21.8424 93.2099L21.7975 94.7616Z" fill="#B15CDE"/>
<path d="M27.207 78.1997C27.207 78.1997 30.7115 68.0731 30.8157 68.1192C31.2248 68.2997 31.9464 68.468 31.9464 68.468L30.503 79.5831L27.207 78.1997Z" fill="#C1A0FD"/>
<path d="M30.8279 77.0451C30.0307 76.668 29.0356 76.2271 27.8686 76.2993C27.3875 77.6785 27.207 78.1999 27.207 78.1999L30.503 79.5833L30.8279 77.0451Z" fill="url(#paint4_linear_593_8846)"/>
<path d="M31.5936 75.5215C31.335 76.4775 30.309 76.2995 30.309 76.2995V77.2088H28.5391V75.9793C28.5411 75.9793 28.5454 75.9813 28.5476 75.9813C29.4676 76.1934 30.466 75.5255 30.0251 75.197C29.5863 74.8705 29.491 74.3278 29.7198 74.0629C29.9509 73.798 30.5042 73.995 30.5042 73.995C31.0342 73.9801 31.3988 73.9145 31.634 73.7958C31.7251 74.3387 31.7314 75.0106 31.5936 75.5215Z" fill="#FFA683"/>
<path d="M30.5022 73.9955C30.5022 73.9955 29.9498 73.7974 29.7199 74.0625C29.4899 74.3278 29.5843 74.8707 30.0247 75.1979C30.4645 75.5249 29.4656 76.1932 28.5461 75.9809C27.6264 75.7688 27.113 73.849 27.9021 72.5999C28.6266 71.4527 31.1728 70.9545 31.6856 72.1572C32.1983 73.3601 32.2288 73.9485 30.5022 73.9955Z" fill="#B15CDE"/>
<path d="M30.3075 77.2086V76.2998C30.3075 76.2998 29.7112 76.22 29.4785 76.097C29.4785 76.097 29.7904 76.475 29.997 76.5585V77.2088L30.3075 77.2086Z" fill="#E57C5C"/>
<path d="M30.7816 77.2266C30.7816 77.2266 27.8564 76.2134 27.0328 78.494C26.2093 80.7745 27.6089 86.2414 26.1172 88.1178C28.4239 89.1943 31.0684 89.2905 33.4474 88.3841L33.7678 88.262C33.7678 88.262 32.7454 81.2895 32.6964 81.5316C32.6551 81.736 36.1496 82.85 36.8464 82.4698C37.5432 82.0896 41.7611 77.3272 41.7611 77.3272L40.3416 77.1167L36.5404 79.6188C36.5407 79.6193 31.7433 77.2895 30.7816 77.2266Z" fill="#C1A0FD"/>
<path d="M41.7615 77.3275C41.7615 77.3275 43.223 76.6959 43.3133 76.4073H41.2074C40.9887 76.4073 40.7829 76.5118 40.6541 76.6887L40.3418 77.117L41.7615 77.3275Z" fill="#FFA683"/>
<path d="M33.7679 88.2623C33.7679 88.2623 32.8697 82.1366 32.7167 81.568C32.734 81.5856 32.7632 81.6059 32.8033 81.6289C32.7359 81.5678 32.6964 81.5319 32.6964 81.5319C32.6964 81.5319 30.4657 80.9906 29.6719 80.0524C29.6719 80.0524 30.4298 81.6041 31.4041 81.9649C32.2742 82.2871 31.9653 86.9809 32.6343 88.6504C32.908 88.5737 33.1797 88.4864 33.4475 88.3842L33.7679 88.2623Z" fill="url(#paint5_linear_593_8846)"/>
<path d="M30.9258 68.1668C30.9258 68.1668 31.2977 66.8387 31.8511 66.7454L31.8515 68.4793L30.9258 68.1668Z" fill="#FFA683"/>
<mask id="mask1_593_8846" style="mask-type:luminance" maskUnits="userSpaceOnUse" x="34" y="66" width="10" height="10">
<path d="M42.4128 74.1886C44.2079 72.3935 44.2079 69.4832 42.4128 67.6881C40.6178 65.8931 37.7074 65.8931 35.9123 67.6881C34.1173 69.4832 34.1173 72.3935 35.9123 74.1886C37.7074 75.9836 40.6178 75.9836 42.4128 74.1886Z" fill="white"/>
</mask>
<g mask="url(#mask1_593_8846)">
<path d="M44.212 77.6718L43.9157 75.0192C43.8632 74.5918 43.6222 74.2083 43.2557 73.9688L42.3356 73.3675L42.3317 73.3903V73.3695L41.5724 73.0758L40.8001 72.7766L40.1604 72.5288L39.8797 72.42L39.1757 72.7797L38.4724 72.42L38.2255 72.5159L37.6219 72.749L36.8058 73.0652L36.0206 73.3695V73.382L35.1221 73.9688C34.7558 74.2083 34.5149 74.5918 34.4623 75.0192L34.166 77.6718H36.0307L36.0359 79.8786H42.3164L42.3216 77.6718H44.212Z" fill="#FBBE42"/>
</g>
<mask id="mask2_593_8846" style="mask-type:luminance" maskUnits="userSpaceOnUse" x="34" y="66" width="10" height="10">
<path d="M42.4128 74.1886C44.2079 72.3935 44.2079 69.4832 42.4128 67.6881C40.6178 65.8931 37.7074 65.8931 35.9123 67.6881C34.1173 69.4832 34.1173 72.3935 35.9123 74.1886C37.7074 75.9836 40.6178 75.9836 42.4128 74.1886Z" fill="white"/>
</mask>
<g mask="url(#mask2_593_8846)">
<path d="M39.2056 67.7604C38.1699 67.7604 37.3301 68.6 37.3301 69.6359V70.5306H41.0809V69.6359C41.0809 68.6 40.2413 67.7604 39.2056 67.7604Z" fill="#0A4D7A"/>
<path d="M39.9464 71.9277V72.5846C39.9464 72.5846 39.943 72.604 39.9347 72.6372C39.837 73.0239 39.51 73.7726 39.1889 73.7651C38.8678 73.7577 38.5531 72.9939 38.4795 72.602C38.4775 72.5909 38.4766 72.5848 38.4766 72.5848V71.928H39.9464V71.9277Z" fill="#FFA683"/>
<path d="M39.9456 71.7955V72.3837C39.723 72.5039 39.4706 72.5688 39.2111 72.5688C38.9515 72.5688 38.6991 72.5039 38.4766 72.3837V71.7955H39.9456Z" fill="#E57C5C"/>
<path d="M38.2198 70.5386C38.2198 70.2876 38.0164 70.084 37.7652 70.084C37.5142 70.084 37.3105 70.2876 37.3105 70.5386C37.3105 70.7898 37.514 70.9933 37.7652 70.9933C38.0162 70.9933 38.2198 70.7896 38.2198 70.5386Z" fill="#FFA683"/>
<path d="M41.0714 70.5386C41.0714 70.2876 40.8677 70.084 40.6167 70.084C40.3657 70.084 40.1621 70.2876 40.1621 70.5386C40.1621 70.7898 40.3657 70.9933 40.6167 70.9933C40.8677 70.9933 41.0714 70.7896 41.0714 70.5386Z" fill="#FFA683"/>
<path d="M40.7043 69.7666C40.1663 69.4663 39.9488 69.2262 39.9488 69.2262H38.4722C38.3538 69.5604 37.7353 69.7666 37.7353 69.7666L37.7227 70.504C37.7227 70.9327 37.9036 71.4544 38.1936 71.8556C38.3118 72.0185 38.4657 72.1473 38.6408 72.2353C38.8163 72.3233 39.012 72.3709 39.2135 72.3709C39.6165 72.3709 39.9982 72.1816 40.234 71.8556C40.5242 71.4542 40.705 70.9327 40.705 70.504L40.7043 69.7666Z" fill="#FFA683"/>
</g>
<path d="M81.641 78.9796H49.1337C48.225 78.9796 47.4883 79.7163 47.4883 80.625V88.67C47.4883 89.5786 48.225 90.3153 49.1337 90.3153H81.641C82.5497 90.3153 83.2864 89.5786 83.2864 88.67V80.625C83.2862 79.7163 82.5497 78.9796 81.641 78.9796Z" fill="white"/>
<path d="M63.3016 82.7606L63.522 83.4394C63.5374 83.4868 63.5816 83.5188 63.6312 83.5188H64.3449C64.4562 83.5188 64.5026 83.6614 64.4124 83.7268L63.835 84.1463C63.7948 84.1756 63.7779 84.2275 63.7932 84.2749L64.0137 84.9536C64.0482 85.0595 63.9268 85.1477 63.8368 85.0823L63.2594 84.6628C63.2192 84.6335 63.1646 84.6335 63.1242 84.6628L62.547 85.0823C62.457 85.1477 62.3356 85.0597 62.3701 84.9536L62.5906 84.2749C62.6059 84.2275 62.589 84.1756 62.5488 84.1463L61.9714 83.7268C61.8814 83.6614 61.9276 83.5188 62.0389 83.5188H62.7526C62.8024 83.5188 62.8464 83.4868 62.862 83.4394L63.0825 82.7606C63.1172 82.6548 63.267 82.6548 63.3016 82.7606Z" fill="#FBBE42"/>
<path d="M67.2605 82.7606L67.481 83.4394C67.4963 83.4868 67.5406 83.5188 67.5904 83.5188H68.3039C68.4154 83.5188 68.4616 83.6614 68.3714 83.7268L67.7942 84.1463C67.7538 84.1756 67.7371 84.2275 67.7524 84.2749L67.9729 84.9536C68.0072 85.0595 67.886 85.1477 67.796 85.0823L67.2186 84.6628C67.1782 84.6335 67.1238 84.6335 67.0834 84.6628L66.506 85.0823C66.416 85.1477 66.2948 85.0597 66.3291 84.9536L66.5496 84.2749C66.5649 84.2275 66.548 84.1756 66.5078 84.1463L65.9304 83.7268C65.8404 83.6614 65.8866 83.5188 65.9979 83.5188H66.7113C66.7612 83.5188 66.8054 83.4868 66.8208 83.4394L67.0412 82.7606C67.0762 82.6548 67.226 82.6548 67.2605 82.7606Z" fill="#FBBE42"/>
<path d="M71.2195 82.7606L71.44 83.4394C71.4553 83.4868 71.4996 83.5188 71.5494 83.5188H72.2631C72.3744 83.5188 72.4208 83.6614 72.3306 83.7268L71.7532 84.1463C71.7128 84.1756 71.6961 84.2275 71.7114 84.2749L71.9319 84.9536C71.9662 85.0595 71.845 85.1477 71.755 85.0823L71.1776 84.6628C71.1372 84.6335 71.0828 84.6335 71.0424 84.6628L70.465 85.0823C70.375 85.1477 70.2538 85.0597 70.2881 84.9536L70.5085 84.2749C70.5239 84.2275 70.507 84.1756 70.4668 84.1463L69.8894 83.7268C69.7993 83.6614 69.8456 83.5188 69.9568 83.5188H70.6705C70.7204 83.5188 70.7644 83.4868 70.7798 83.4394L71.0002 82.7606C71.0352 82.6548 71.1852 82.6548 71.2195 82.7606Z" fill="#B1D7DD"/>
<path d="M71.0913 82.6871C71.0523 82.6937 71.0153 82.7156 71.0004 82.7609L70.7799 83.4396C70.7646 83.487 70.7203 83.5191 70.6707 83.5191H69.957C69.8455 83.5191 69.7993 83.6617 69.8895 83.7271L70.4667 84.1466C70.5071 84.1759 70.5238 84.2278 70.5085 84.2752L70.288 84.9539C70.2537 85.0597 70.3749 85.148 70.4649 85.0825L71.0423 84.6631C71.057 84.6525 71.0744 84.65 71.0915 84.647V82.6871H71.0913Z" fill="#FBBE42"/>
<path d="M75.1783 82.7606L75.3987 83.4394C75.4141 83.4868 75.4583 83.5188 75.5079 83.5188H76.2217C76.3329 83.5188 76.3794 83.6614 76.2891 83.7268L75.7119 84.1463C75.6715 84.1756 75.6548 84.2275 75.6702 84.2749L75.8906 84.9536C75.9252 85.0595 75.8038 85.1477 75.7137 85.0823L75.1363 84.6628C75.0959 84.6335 75.0415 84.6335 75.0012 84.6628L74.424 85.0823C74.3339 85.1477 74.2125 85.0597 74.2471 84.9536L74.4675 84.2749C74.4829 84.2275 74.4659 84.1756 74.4258 84.1463L73.8484 83.7268C73.7583 83.6614 73.8046 83.5188 73.9158 83.5188H74.6295C74.6794 83.5188 74.7234 83.4868 74.739 83.4394L74.9594 82.7606C74.9942 82.6548 75.144 82.6548 75.1783 82.7606Z" fill="#B1D7DD"/>
<path d="M79.1375 82.7606L79.358 83.4394C79.3733 83.4868 79.4175 83.5188 79.4674 83.5188H80.1809C80.2923 83.5188 80.3386 83.6614 80.2483 83.7268L79.6711 84.1463C79.6308 84.1756 79.6141 84.2275 79.6294 84.2749L79.8498 84.9536C79.8841 85.0595 79.763 85.1477 79.6729 85.0823L79.0955 84.6628C79.0554 84.6335 79.0008 84.6335 78.9604 84.6628L78.383 85.0823C78.2929 85.1477 78.1715 85.0597 78.2061 84.9536L78.4265 84.2749C78.4419 84.2275 78.4249 84.1756 78.3848 84.1463L77.8073 83.7268C77.7173 83.6614 77.7636 83.5188 77.8748 83.5188H78.5883C78.6382 83.5188 78.6824 83.4868 78.6977 83.4394L78.9182 82.7606C78.9534 82.6548 79.1032 82.6548 79.1375 82.7606Z" fill="#B1D7DD"/>
<path d="M73.4389 86.2185H61.9258V86.5382H73.4389V86.2185Z" fill="#B1D7DD"/>
<path d="M73.4389 80.9547H61.9258V81.5574H73.4389V80.9547Z" fill="#FF5A5A"/>
<path d="M73.4389 87.4359H61.9258V87.7556H73.4389V87.4359Z" fill="#B1D7DD"/>
<path d="M67.1884 88.5662H61.9258V88.8859H67.1884V88.5662Z" fill="#B1D7DD"/>
<path d="M58.7284 87.0885C60.0541 84.9235 59.3737 82.0939 57.2088 80.7682C55.0439 79.4426 52.2142 80.1229 50.8886 82.2878C49.5629 84.4528 50.2433 87.2824 52.4082 88.6081C54.5731 89.9337 57.4028 89.2534 58.7284 87.0885Z" fill="#7BC7FF"/>
<mask id="mask3_593_8846" style="mask-type:luminance" maskUnits="userSpaceOnUse" x="50" y="80" width="10" height="10">
<path d="M58.7286 87.0881C60.0543 84.9232 59.3739 82.0934 57.209 80.7678C55.044 79.4421 52.2143 80.1224 50.8886 82.2874C49.563 84.4524 50.2433 87.2821 52.4083 88.6078C54.5732 89.9334 57.403 89.2531 58.7286 87.0881Z" fill="white"/>
</mask>
<g mask="url(#mask3_593_8846)">
<path d="M52.9582 83.7059C52.9582 83.7059 52.696 82.6637 53.1024 82.2049C53.5088 81.746 54.315 81.2611 54.9705 81.5102C54.9705 81.5102 55.4883 81.1956 55.9602 81.4576C56.4322 81.7198 57.1138 81.9493 57.1858 81.6345C57.1858 81.6345 57.2251 82.834 56.6876 83.024L56.4647 83.9482H53.0234L52.9582 83.7059Z" fill="#0A4D7A"/>
<path d="M58.4265 87.7827C57.8441 86.781 55.3787 86.2275 55.3787 86.2275L54.7307 86.476L54.0824 86.2275C54.0824 86.2275 51.6171 86.781 51.0347 87.7827L50.3203 93.1811L51.4542 93.1635L52.118 88.6561C52.118 88.6561 52.5372 90.1119 52.514 90.9622C52.4908 91.8124 52.2261 93.2177 52.2261 93.2177H54.6648H54.7968H57.2355C57.2355 93.2177 56.9708 91.8124 56.9476 90.9622C56.9244 90.1119 57.3436 88.6561 57.3436 88.6561L58.0074 93.1635L59.1413 93.1811L58.4265 87.7827Z" fill="#0A4D7A"/>
<path d="M55.4898 85.2924V86.2269C55.4898 86.2269 55.3592 86.9575 54.7443 87.0809C54.1031 86.9127 54.0039 86.2269 54.0039 86.2269V85.2924H55.4898Z" fill="#FFA683"/>
<path d="M55.4898 85.1586V85.7535C55.2647 85.875 55.0095 85.9406 54.747 85.9406C54.4842 85.9406 54.2292 85.875 54.0039 85.7535V85.1586H55.4898Z" fill="#E57C5C"/>
<path d="M56.2564 83.2767C55.5729 83.2575 55.1255 82.7284 55.1255 82.7284C54.7092 83.0908 53.2502 83.2767 53.2502 83.2767L53.2402 83.8525C53.2402 84.2864 53.4235 84.8138 53.7166 85.2195C53.9551 85.5496 54.3414 85.7407 54.7484 85.7407C55.1557 85.7407 55.5418 85.5496 55.7803 85.2195C56.0736 84.8138 56.2566 84.2864 56.2566 83.8525L56.2564 83.2767Z" fill="#FFA683"/>
<path d="M53.634 83.9221C53.634 84.1501 53.4493 84.3348 53.2213 84.3348C52.9933 84.3348 52.8086 84.1501 52.8086 83.9221C52.8086 83.6941 52.9933 83.5094 53.2213 83.5094C53.4493 83.5094 53.634 83.6941 53.634 83.9221Z" fill="#FFA683"/>
<path d="M56.6769 83.9221C56.6769 84.1501 56.4922 84.3348 56.2642 84.3348C56.0363 84.3348 55.8516 84.1501 55.8516 83.9221C55.8516 83.6941 56.0363 83.5094 56.2642 83.5094C56.492 83.5094 56.6769 83.6941 56.6769 83.9221Z" fill="#FFA683"/>
</g>
<path d="M75.6035 39.105C79.3238 39.105 82.3397 36.0891 82.3397 32.3687C82.3397 28.6484 79.3238 25.6324 75.6035 25.6324C71.8831 25.6324 68.8672 28.6484 68.8672 32.3687C68.8672 36.0891 71.8831 39.105 75.6035 39.105Z" fill="#FBBE42"/>
<path d="M75.6022 25.6324C75.5613 25.6324 75.5209 25.6347 75.4803 25.6356C77.3396 26.7322 78.5881 28.7546 78.5881 31.0697C78.5881 34.5523 75.7648 37.3755 72.2823 37.3755C71.8227 37.3755 71.375 37.3252 70.9434 37.2317C72.1535 38.3913 73.7939 39.1052 75.6022 39.1052C79.3225 39.1052 82.3384 36.0893 82.3384 32.369C82.3387 28.6484 79.3225 25.6324 75.6022 25.6324Z" fill="#F9A643"/>
<path d="M28.2025 53.6798C29.6127 53.6798 29.6874 51.5802 28.2801 51.4904C28.2668 51.4895 28.2535 51.4888 28.2399 51.4882C28.2399 51.4794 28.2406 51.4708 28.2406 51.462C28.2406 49.9612 27.024 48.7446 25.5232 48.7446C25.0501 48.7446 24.6053 48.8658 24.2179 49.0783C23.7418 48.1927 22.807 47.5902 21.7309 47.5902C20.1726 47.5902 18.9092 48.8536 18.9092 50.4118C18.9092 50.4956 18.9135 50.5781 18.9208 50.6598C18.6319 50.5768 18.3273 50.5314 18.0119 50.5314C16.8751 50.5314 15.8732 51.1089 15.2834 51.9861C14.7981 52.708 15.3324 53.6798 16.2022 53.6798H28.2025Z" fill="#C1A0FD"/>
<path d="M71.5358 36.5287C73.3838 36.5287 73.4817 33.7774 71.6375 33.6599C71.6202 33.6587 71.6026 33.6578 71.585 33.6569C71.5852 33.6454 71.5859 33.6341 71.5859 33.6226C71.5859 31.6562 69.9917 30.062 68.0253 30.062C67.4054 30.062 66.8226 30.2207 66.3149 30.4993C65.6912 29.3389 64.466 28.5496 63.0564 28.5496C61.0146 28.5496 59.3593 30.2049 59.3593 32.2467C59.3593 32.3563 59.3649 32.4644 59.3744 32.5716C58.996 32.4628 58.5966 32.4035 58.1833 32.4035C56.6936 32.4035 55.381 33.1599 54.608 34.3095C53.9721 35.2552 54.6723 36.5287 55.8118 36.5287H71.5358Z" fill="#C1A0FD"/>
<path d="M93.773 43.0049C92.0749 43.0049 91.9851 40.4768 93.6796 40.3688C93.6956 40.3676 93.7119 40.3667 93.7279 40.3661C93.7279 40.3555 93.727 40.3451 93.727 40.3345C93.727 38.5275 95.1919 37.0625 96.999 37.0625C97.5688 37.0625 98.1042 37.2082 98.5706 37.4643C99.1437 36.3979 100.269 35.6727 101.565 35.6727C103.442 35.6727 104.963 37.1938 104.963 39.0702C104.963 39.1708 104.957 39.2703 104.949 39.369C105.297 39.269 105.663 39.2144 106.043 39.2144C107.412 39.2144 108.618 39.9096 109.328 40.9658C109.913 41.8348 109.269 43.0052 108.222 43.0052L93.773 43.0049Z" fill="#C1A0FD"/>
<path d="M100.222 90.3436L100.556 90.2321C100.604 89.6545 100.356 88.6822 99.0456 87.1817C96.6206 84.4049 94.5411 80.4483 95.0664 78.9054C95.0664 78.9054 92.6945 82.4762 94.2949 84.833C95.797 87.0447 99.7893 87.5195 100.222 90.3436Z" fill="#EA499B"/>
<path d="M100.357 90.2977L100.555 90.2314C100.603 89.654 100.355 88.6817 99.0449 87.1812C96.6199 84.4045 94.5404 80.4478 95.0657 78.9049C95.0657 78.9049 93.8096 82.1862 95.4389 84.383C97.0473 86.5521 99.9165 87.0032 100.357 90.2977Z" fill="#B25CDD"/>
<path d="M101.192 87.9698C101.063 88.5581 100.894 89.0161 100.74 89.3535L100.895 89.3803C101.606 88.4222 102.772 86.5257 103.03 84.1195C103.408 80.6031 103.919 76.2015 103.919 76.2015C103.919 76.2015 100.339 79.1549 101.141 83.2591C101.54 85.3055 101.436 86.864 101.192 87.9698Z" fill="#EA499B"/>
<path d="M102.453 81.5806C102.257 84.515 101.704 87.7424 100.986 89.0242C101.091 88.9441 101.202 88.86 101.316 88.7747C101.997 87.7232 102.819 86.0927 103.032 84.1195C103.409 80.6031 103.92 76.2015 103.92 76.2015C103.92 76.2015 102.708 77.7614 102.453 81.5806Z" fill="#B25CDD"/>
<path d="M101.834 89.3343C101.529 89.6825 101.246 89.9286 101.018 90.0992L101.112 90.1741C101.945 89.791 103.433 88.9442 104.497 87.4195C106.053 85.1915 108.026 82.4164 108.026 82.4164C108.026 82.4164 104.521 83.0856 103.542 86.144C103.054 87.6689 102.408 88.6797 101.834 89.3343Z" fill="#EA499B"/>
<path d="M105.045 85.4971C103.827 87.4006 102.26 89.3693 101.303 89.9679C101.403 89.9523 101.509 89.9368 101.617 89.9212C102.465 89.4645 103.623 88.6698 104.496 87.4195C106.051 85.1915 108.024 82.4164 108.024 82.4164C108.024 82.4164 106.63 83.0197 105.045 85.4971Z" fill="#B25CDD"/>
<path d="M100.493 89.2263C100.712 89.8524 100.873 90.2825 100.968 90.5803L101.094 90.5515C100.889 89.4519 100.532 87.5525 100.196 86.3058C99.7018 84.47 100.087 83.5787 99.6891 80.3832C99.2913 77.1877 97.3966 72.9686 97.3966 72.9686C97.3966 72.9686 96.173 77.4216 97.9222 81.6684C99.6715 85.915 99.5237 86.4665 100.493 89.2263Z" fill="#EA499B"/>
<path d="M100.976 90.5785L101 90.5731L101.014 90.1239C100.803 89.0051 100.492 87.4029 100.196 86.3058C99.7016 84.47 100.087 83.5787 99.689 80.3832C99.2912 77.1877 97.3965 72.9686 97.3965 72.9686C97.3965 72.9686 97.9915 79.3148 98.8598 82.0886C99.6633 84.655 100.809 89.8204 100.976 90.5785Z" fill="#B25CDD"/>
<path d="M97.3553 89.9369L98.1223 94.4757C98.1938 94.8987 98.5602 95.2083 98.9892 95.2083H103.423C103.852 95.2083 104.219 94.8987 104.29 94.4757L105.057 89.9369C105.126 89.5265 104.81 89.1523 104.394 89.1523H98.0182C97.6022 89.1523 97.2858 89.5265 97.3553 89.9369Z" fill="white"/>
<path d="M105.051 89.7072C105.051 89.7067 105.051 89.7063 105.051 89.7058C105.043 89.6629 105.031 89.6219 105.016 89.5819C105.015 89.579 105.014 89.5763 105.013 89.5736C104.997 89.5366 104.98 89.5016 104.959 89.468C104.955 89.4614 104.95 89.4556 104.946 89.4492C104.926 89.4201 104.905 89.3924 104.881 89.3667C104.872 89.3567 104.862 89.3482 104.852 89.3387C104.831 89.3181 104.809 89.2978 104.784 89.2802C104.768 89.2683 104.75 89.2588 104.733 89.2484C104.712 89.236 104.692 89.2227 104.669 89.2125C104.644 89.2008 104.616 89.1931 104.589 89.1848C104.572 89.1794 104.555 89.1722 104.537 89.1681C104.491 89.1577 104.443 89.1519 104.392 89.1519H102.373H98.0163C97.6322 89.1519 97.3373 89.4711 97.3479 89.8428H103.042C103.041 89.8739 103.042 89.9048 103.037 89.9364L102.27 94.4752C102.198 94.8982 101.832 95.2078 101.403 95.2078H103.422C103.851 95.2078 104.217 94.8982 104.288 94.4752L105.055 89.9364C105.069 89.8577 105.064 89.7812 105.051 89.7072Z" fill="#CAEDFF"/>
<path d="M38.3335 56.8148H28.3216C27.6036 56.8148 27.0215 57.397 27.0215 58.115V63.3828V65.9806L29.5676 63.6741C29.7745 63.4866 30.0437 63.3828 30.3231 63.3828H38.3335C38.8266 63.3828 39.2262 62.9832 39.2262 62.4901V57.7075C39.2262 57.2147 38.8266 56.8148 38.3335 56.8148Z" fill="#0A4D7A"/>
<path d="M34.9046 58.8326C34.4712 58.3999 33.7694 58.3999 33.3366 58.8326L33.1893 58.98L33.0417 58.8326C32.8253 58.6163 32.541 58.5082 32.2574 58.5082C31.9738 58.5082 31.6901 58.616 31.4735 58.8326C31.0401 59.2654 31.0401 59.9678 31.4735 60.4006L31.6209 60.5482L33.1891 62.1162L34.7571 60.5482L34.9044 60.4006C35.1208 60.1842 35.2286 59.9006 35.2286 59.617C35.2291 59.3327 35.1212 59.049 34.9046 58.8326Z" fill="url(#paint6_linear_593_8846)"/>
<path d="M97.8645 46.2002H87.7941C87.0719 46.2002 86.4863 46.7857 86.4863 47.508V52.8065V55.4194L89.0474 53.0994C89.2554 52.9108 89.5264 52.8065 89.8071 52.8065H97.8643C98.3602 52.8065 98.7621 52.4044 98.7621 51.9087V47.0982C98.7623 46.6021 98.3602 46.2002 97.8645 46.2002Z" fill="#0A4D7A"/>
<path d="M95.4798 49.7934C95.6599 49.7792 95.8016 49.6289 95.8016 49.4455C95.8016 49.2525 95.6452 49.0959 95.4521 49.0959H94.7693C94.7352 49.091 94.7002 49.0883 94.6646 49.0885C94.2934 49.0921 94.2747 49.0903 94.1343 49.0603C93.8369 48.9964 94.1871 48.6347 94.0014 47.9709C93.816 47.3068 93.1702 47.3466 93.2011 47.6559C93.232 47.9655 93.2679 48.704 93.0959 48.9375C92.7069 49.466 92.0751 49.5138 92.0751 49.5138L92.0625 51.2718L92.753 51.2768C93.0637 51.6303 93.6506 51.7086 93.7124 51.7161V51.7222H94.4886L94.5269 51.7224C94.5321 51.7224 94.5373 51.7222 94.5425 51.7222H95.0274C95.2041 51.7222 95.3474 51.5789 95.3474 51.4022C95.3474 51.3011 95.3004 51.2113 95.2273 51.1527C95.4097 51.1409 95.5541 50.9898 95.5541 50.8043C95.5541 50.649 95.4528 50.5175 95.3126 50.4721H95.3638C95.5568 50.4721 95.7134 50.3158 95.7134 50.1226C95.7134 49.9703 95.6159 49.8412 95.4798 49.7934Z" fill="#379CF7"/>
<path d="M90.1328 51.6021L91.3165 51.6032L91.3312 49.0354L90.1475 49.0343L90.1328 51.6021Z" fill="#379CF7"/>
<path d="M74.8679 74.9164C74.5872 74.4257 74.4302 73.855 74.4399 73.2469C74.4683 71.4585 75.9679 70.0094 77.7563 70.0396C79.5989 70.0706 81.0697 71.63 80.955 73.5048C80.8562 75.1227 79.5502 76.44 77.933 76.5528C77.4434 76.5868 76.9754 76.5124 76.5494 76.3515C76.3434 76.2737 76.1175 76.2655 75.9065 76.3294L74.6378 76.7128L74.9478 75.6865C75.0252 75.4293 75.001 75.1495 74.8679 74.9164Z" fill="#0A4D7A"/>
<path d="M77.6311 71.5385L77.2954 72.5717C77.2764 72.6299 77.2223 72.6692 77.1613 72.6692H76.0749C75.9381 72.6692 75.8815 72.8441 75.9921 72.9244L76.8709 73.563C76.9204 73.5988 76.9411 73.6625 76.9222 73.7207L76.5864 74.7539C76.5442 74.8839 76.6929 74.9919 76.8035 74.9116L77.6824 74.2731C77.7318 74.2372 77.7988 74.2372 77.8482 74.2731L78.7271 74.9116C78.8376 74.9919 78.9863 74.8839 78.9441 74.7539L78.6084 73.7207C78.5894 73.6625 78.6102 73.5988 78.6596 73.563L79.5385 72.9244C79.649 72.8441 79.5922 72.6692 79.4557 72.6692H78.3692C78.308 72.6692 78.2539 72.6299 78.2349 72.5717L77.8992 71.5385C77.8572 71.4085 77.6733 71.4085 77.6311 71.5385Z" fill="#FBBE42"/>
<path d="M39.2447 138.486C39.2447 139.754 39.0042 140.834 38.5231 141.724C38.0459 142.614 37.3943 143.294 36.5686 143.764C35.7466 144.23 34.8224 144.463 33.7959 144.463C32.7618 144.463 31.8337 144.228 31.0118 143.758C30.1898 143.289 29.5402 142.609 29.0629 141.718C28.5856 140.828 28.347 139.751 28.347 138.486C28.347 137.217 28.5856 136.137 29.0629 135.247C29.5402 134.357 30.1898 133.679 31.0118 133.213C31.8337 132.743 32.7618 132.508 33.7959 132.508C34.8224 132.508 35.7466 132.743 36.5686 133.213C37.3943 133.679 38.0459 134.357 38.5231 135.247C39.0042 136.137 39.2447 137.217 39.2447 138.486ZM36.7504 138.486C36.7504 137.664 36.6273 136.97 36.3811 136.406C36.1387 135.842 35.7959 135.414 35.3527 135.122C34.9095 134.83 34.3906 134.684 33.7959 134.684C33.2012 134.684 32.6822 134.83 32.239 135.122C31.7959 135.414 31.4512 135.842 31.2049 136.406C30.9625 136.97 30.8413 137.664 30.8413 138.486C30.8413 139.307 30.9625 140.001 31.2049 140.565C31.4512 141.129 31.7959 141.557 32.239 141.849C32.6822 142.141 33.2012 142.287 33.7959 142.287C34.3906 142.287 34.9095 142.141 35.3527 141.849C35.7959 141.557 36.1387 141.129 36.3811 140.565C36.6273 140.001 36.7504 139.307 36.7504 138.486ZM41.5229 144.304V135.576H43.8695V137.099H43.9604C44.1195 136.557 44.3865 136.148 44.7615 135.872C45.1365 135.592 45.5684 135.451 46.057 135.451C46.1782 135.451 46.3089 135.459 46.449 135.474C46.5892 135.489 46.7123 135.51 46.8184 135.537V137.684C46.7047 137.65 46.5475 137.62 46.3468 137.593C46.146 137.567 45.9623 137.554 45.7956 137.554C45.4396 137.554 45.1214 137.631 44.8411 137.787C44.5646 137.938 44.3449 138.15 44.182 138.423C44.0229 138.696 43.9434 139.01 43.9434 139.366V144.304H41.5229ZM48.571 144.304V135.576H50.9914V144.304H48.571ZM49.7869 134.451C49.427 134.451 49.1183 134.332 48.8607 134.093C48.6069 133.851 48.48 133.561 48.48 133.224C48.48 132.891 48.6069 132.605 48.8607 132.366C49.1183 132.124 49.427 132.003 49.7869 132.003C50.1467 132.003 50.4535 132.124 50.7073 132.366C50.9649 132.605 51.0937 132.891 51.0937 133.224C51.0937 133.561 50.9649 133.851 50.7073 134.093C50.4535 134.332 50.1467 134.451 49.7869 134.451ZM57.3633 147.758C56.5792 147.758 55.9069 147.65 55.3463 147.434C54.7895 147.222 54.3463 146.932 54.0167 146.565C53.6872 146.198 53.4732 145.785 53.3747 145.326L55.6133 145.025C55.6815 145.2 55.7895 145.362 55.9372 145.514C56.0849 145.665 56.28 145.787 56.5224 145.878C56.7686 145.972 57.0679 146.02 57.4202 146.02C57.9467 146.02 58.3804 145.891 58.7213 145.633C59.066 145.379 59.2383 144.953 59.2383 144.355V142.758H59.1361C59.03 143.001 58.8709 143.23 58.6588 143.446C58.4467 143.662 58.1739 143.838 57.8406 143.974C57.5073 144.111 57.1095 144.179 56.6474 144.179C55.9921 144.179 55.3955 144.027 54.8577 143.724C54.3236 143.417 53.8974 142.95 53.5792 142.321C53.2649 141.688 53.1077 140.889 53.1077 139.923C53.1077 138.934 53.2686 138.109 53.5906 137.446C53.9126 136.783 54.3406 136.287 54.8747 135.957C55.4126 135.628 56.0016 135.463 56.6417 135.463C57.1304 135.463 57.5395 135.546 57.869 135.713C58.1986 135.876 58.4637 136.08 58.6645 136.326C58.869 136.569 59.0262 136.807 59.1361 137.042H59.227V135.576H61.6304V144.389C61.6304 145.131 61.4486 145.753 61.0849 146.253C60.7213 146.753 60.2175 147.128 59.5736 147.378C58.9334 147.631 58.1967 147.758 57.3633 147.758ZM57.4145 142.361C57.8046 142.361 58.1342 142.264 58.4031 142.071C58.6758 141.874 58.8842 141.593 59.0281 141.23C59.1758 140.862 59.2497 140.423 59.2497 139.912C59.2497 139.4 59.1777 138.957 59.0338 138.582C58.8899 138.203 58.6815 137.91 58.4088 137.701C58.1361 137.493 57.8046 137.389 57.4145 137.389C57.0167 137.389 56.6815 137.497 56.4088 137.713C56.1361 137.925 55.9296 138.22 55.7895 138.599C55.6493 138.978 55.5792 139.415 55.5792 139.912C55.5792 140.415 55.6493 140.851 55.7895 141.218C55.9334 141.582 56.1399 141.864 56.4088 142.065C56.6815 142.262 57.0167 142.361 57.4145 142.361ZM64.0577 144.304V135.576H66.4782V144.304H64.0577ZM65.2736 134.451C64.9138 134.451 64.6051 134.332 64.3475 134.093C64.0937 133.851 63.9668 133.561 63.9668 133.224C63.9668 132.891 64.0937 132.605 64.3475 132.366C64.6051 132.124 64.9138 132.003 65.2736 132.003C65.6335 132.003 65.9403 132.124 66.1941 132.366C66.4516 132.605 66.5804 132.891 66.5804 133.224C66.5804 133.561 66.4516 133.851 66.1941 134.093C65.9403 134.332 65.6335 134.451 65.2736 134.451ZM71.3387 139.258V144.304H68.9183V135.576H71.2251V137.116H71.3274C71.5205 136.609 71.8444 136.207 72.2989 135.912C72.7535 135.612 73.3046 135.463 73.9524 135.463C74.5584 135.463 75.0868 135.595 75.5376 135.861C75.9883 136.126 76.3387 136.504 76.5887 136.997C76.8387 137.486 76.9637 138.069 76.9637 138.747V144.304H74.5433V139.179C74.5471 138.645 74.4107 138.228 74.1342 137.929C73.8577 137.626 73.477 137.474 72.9921 137.474C72.6664 137.474 72.3785 137.544 72.1285 137.684C71.8823 137.825 71.6891 138.029 71.5489 138.298C71.4126 138.563 71.3425 138.883 71.3387 139.258ZM81.8612 144.468C81.3044 144.468 80.8082 144.372 80.3726 144.179C79.937 143.982 79.5923 143.692 79.3385 143.309C79.0885 142.923 78.9635 142.442 78.9635 141.866C78.9635 141.381 79.0525 140.974 79.2305 140.645C79.4086 140.315 79.651 140.05 79.9578 139.849C80.2646 139.648 80.6131 139.497 81.0033 139.395C81.3972 139.292 81.8101 139.22 82.2419 139.179C82.7495 139.126 83.1586 139.076 83.4692 139.031C83.7798 138.982 84.0052 138.91 84.1453 138.815C84.2855 138.72 84.3555 138.58 84.3555 138.395V138.361C84.3555 138.001 84.2419 137.722 84.0146 137.525C83.7911 137.328 83.473 137.23 83.0601 137.23C82.6245 137.23 82.2779 137.326 82.0203 137.52C81.7627 137.709 81.5923 137.948 81.5089 138.236L79.2703 138.054C79.3839 137.523 79.6074 137.065 79.9408 136.679C80.2741 136.289 80.704 135.989 81.2305 135.781C81.7608 135.569 82.3745 135.463 83.0714 135.463C83.5563 135.463 84.0203 135.52 84.4635 135.633C84.9105 135.747 85.3063 135.923 85.651 136.162C85.9995 136.4 86.2741 136.707 86.4749 137.082C86.6756 137.453 86.776 137.898 86.776 138.417V144.304H84.4805V143.093H84.4124C84.2722 143.366 84.0847 143.607 83.8499 143.815C83.615 144.02 83.3328 144.181 83.0033 144.298C82.6737 144.412 82.293 144.468 81.8612 144.468ZM82.5544 142.798C82.9105 142.798 83.2249 142.728 83.4976 142.588C83.7703 142.444 83.9843 142.251 84.1396 142.008C84.2949 141.766 84.3726 141.491 84.3726 141.184V140.258C84.2968 140.307 84.1927 140.353 84.0601 140.395C83.9313 140.432 83.7855 140.468 83.6226 140.503C83.4597 140.533 83.2968 140.561 83.1339 140.588C82.9711 140.611 82.8233 140.631 82.6908 140.65C82.4067 140.692 82.1586 140.758 81.9464 140.849C81.7343 140.94 81.5695 141.063 81.4521 141.218C81.3347 141.37 81.276 141.559 81.276 141.787C81.276 142.116 81.3953 142.368 81.6339 142.542C81.8764 142.713 82.1832 142.798 82.5544 142.798ZM91.5755 132.667V144.304H89.155V132.667H91.5755ZM28.8965 164.304V152.667H33.4874C34.3662 152.667 35.1162 152.825 35.7374 153.139C36.3624 153.45 36.8378 153.891 37.1635 154.463C37.4931 155.031 37.6578 155.7 37.6578 156.468C37.6578 157.241 37.4912 157.906 37.1578 158.463C36.8245 159.016 36.3416 159.44 35.709 159.736C35.0802 160.031 34.3188 160.179 33.4249 160.179H30.351V158.201H33.0272C33.4969 158.201 33.887 158.137 34.1976 158.008C34.5082 157.879 34.7393 157.686 34.8908 157.429C35.0461 157.171 35.1237 156.851 35.1237 156.468C35.1237 156.082 35.0461 155.756 34.8908 155.491C34.7393 155.226 34.5063 155.025 34.1919 154.889C33.8813 154.749 33.4893 154.679 33.0158 154.679H31.3567V164.304H28.8965ZM35.1806 159.008L38.0726 164.304H35.3567L32.5272 159.008H35.1806ZM43.6889 164.474C42.7911 164.474 42.0184 164.292 41.3707 163.929C40.7267 163.561 40.2305 163.042 39.882 162.372C39.5336 161.698 39.3593 160.9 39.3593 159.98C39.3593 159.082 39.5336 158.294 39.882 157.616C40.2305 156.938 40.7211 156.41 41.3536 156.031C41.99 155.652 42.7362 155.463 43.5923 155.463C44.168 155.463 44.704 155.556 45.2002 155.741C45.7002 155.923 46.1358 156.198 46.507 156.565C46.882 156.932 47.1737 157.395 47.382 157.951C47.5904 158.504 47.6945 159.152 47.6945 159.895V160.559H40.3252V159.059H45.4161C45.4161 158.711 45.3404 158.402 45.1889 158.133C45.0373 157.864 44.8271 157.654 44.5582 157.503C44.293 157.347 43.9843 157.27 43.632 157.27C43.2646 157.27 42.9389 157.355 42.6548 157.525C42.3745 157.692 42.1548 157.917 41.9957 158.201C41.8366 158.482 41.7551 158.794 41.7514 159.139V160.565C41.7514 160.997 41.8309 161.37 41.99 161.684C42.1529 161.999 42.382 162.241 42.6775 162.412C42.9729 162.582 43.3233 162.667 43.7286 162.667C43.9976 162.667 44.2438 162.629 44.4673 162.554C44.6908 162.478 44.882 162.364 45.0411 162.213C45.2002 162.061 45.3214 161.876 45.4048 161.656L47.6434 161.804C47.5298 162.342 47.2968 162.811 46.9445 163.213C46.5961 163.611 46.1453 163.921 45.5923 164.145C45.043 164.364 44.4086 164.474 43.6889 164.474ZM57.6773 155.576L54.6261 164.304H51.8988L48.8477 155.576H51.4045L53.217 161.821H53.3079L55.1148 155.576H57.6773ZM59.4171 164.304V155.576H61.8375V164.304H59.4171ZM60.633 154.451C60.2731 154.451 59.9644 154.332 59.7069 154.093C59.4531 153.851 59.3262 153.561 59.3262 153.224C59.3262 152.891 59.4531 152.605 59.7069 152.366C59.9644 152.124 60.2731 152.003 60.633 152.003C60.9928 152.003 61.2997 152.124 61.5534 152.366C61.811 152.605 61.9398 152.891 61.9398 153.224C61.9398 153.561 61.811 153.851 61.5534 154.093C61.2997 154.332 60.9928 154.451 60.633 154.451ZM68.2549 164.474C67.3572 164.474 66.5845 164.292 65.9367 163.929C65.2928 163.561 64.7966 163.042 64.4481 162.372C64.0996 161.698 63.9254 160.9 63.9254 159.98C63.9254 159.082 64.0996 158.294 64.4481 157.616C64.7966 156.938 65.2871 156.41 65.9197 156.031C66.5561 155.652 67.3023 155.463 68.1583 155.463C68.7341 155.463 69.2701 155.556 69.7663 155.741C70.2663 155.923 70.7019 156.198 71.0731 156.565C71.4481 156.932 71.7398 157.395 71.9481 157.951C72.1564 158.504 72.2606 159.152 72.2606 159.895V160.559H64.8913V159.059H69.9822C69.9822 158.711 69.9064 158.402 69.7549 158.133C69.6034 157.864 69.3932 157.654 69.1242 157.503C68.8591 157.347 68.5504 157.27 68.1981 157.27C67.8307 157.27 67.5049 157.355 67.2208 157.525C66.9405 157.692 66.7208 157.917 66.5617 158.201C66.4026 158.482 66.3212 158.794 66.3174 159.139V160.565C66.3174 160.997 66.397 161.37 66.5561 161.684C66.7189 161.999 66.9481 162.241 67.2436 162.412C67.539 162.582 67.8894 162.667 68.2947 162.667C68.5636 162.667 68.8098 162.629 69.0333 162.554C69.2568 162.478 69.4481 162.364 69.6072 162.213C69.7663 162.061 69.8875 161.876 69.9708 161.656L72.2095 161.804C72.0958 162.342 71.8629 162.811 71.5106 163.213C71.1621 163.611 70.7114 163.921 70.1583 164.145C69.6091 164.364 68.9746 164.474 68.2549 164.474ZM76.0004 164.304L73.6254 155.576H76.0743L77.4266 161.44H77.5061L78.9152 155.576H81.3186L82.7504 161.406H82.8243L84.1538 155.576H86.597L84.2277 164.304H81.6652L80.1652 158.815H80.0572L78.5572 164.304H76.0004ZM95.6508 158.065L93.4348 158.201C93.397 158.012 93.3155 157.842 93.1905 157.69C93.0655 157.535 92.9008 157.412 92.6962 157.321C92.4955 157.226 92.2549 157.179 91.9746 157.179C91.5996 157.179 91.2833 157.258 91.0258 157.417C90.7682 157.573 90.6394 157.781 90.6394 158.042C90.6394 158.251 90.7227 158.427 90.8894 158.571C91.0561 158.715 91.342 158.83 91.7473 158.917L93.3269 159.236C94.1754 159.41 94.808 159.69 95.2246 160.076C95.6413 160.463 95.8496 160.97 95.8496 161.599C95.8496 162.171 95.6811 162.673 95.3439 163.105C95.0106 163.537 94.5523 163.874 93.9689 164.116C93.3894 164.355 92.7208 164.474 91.9633 164.474C90.808 164.474 89.8875 164.234 89.2019 163.753C88.5201 163.268 88.1205 162.609 88.003 161.775L90.3837 161.65C90.4557 162.003 90.6299 162.272 90.9064 162.457C91.183 162.639 91.5371 162.73 91.9689 162.73C92.3932 162.73 92.7341 162.648 92.9917 162.486C93.253 162.319 93.3856 162.105 93.3894 161.843C93.3856 161.624 93.2928 161.444 93.111 161.304C92.9292 161.16 92.6489 161.05 92.2701 160.974L90.7587 160.673C89.9064 160.503 89.272 160.207 88.8553 159.787C88.4424 159.366 88.236 158.83 88.236 158.179C88.236 157.618 88.3875 157.135 88.6905 156.73C88.9973 156.325 89.4273 156.012 89.9803 155.792C90.5371 155.573 91.1886 155.463 91.9348 155.463C93.0371 155.463 93.9045 155.696 94.5371 156.162C95.1735 156.628 95.5447 157.262 95.6508 158.065Z" fill="#5E213E"/>
<defs>
<linearGradient id="paint0_linear_593_8846" x1="94.671" y1="84.4929" x2="86.8086" y2="84.4929" gradientUnits="userSpaceOnUse">
<stop stop-color="#B15CDE"/>
<stop offset="1" stop-color="#EC4899"/>
</linearGradient>
<linearGradient id="paint1_linear_593_8846" x1="91.7376" y1="84.2715" x2="82.3438" y2="84.2715" gradientUnits="userSpaceOnUse">
<stop stop-color="#B15CDE"/>
<stop offset="1" stop-color="#EC4899"/>
</linearGradient>
<linearGradient id="paint2_linear_593_8846" x1="38.9885" y1="89.3057" x2="33.4375" y2="89.3057" gradientUnits="userSpaceOnUse">
<stop stop-color="#B15CDE"/>
<stop offset="1" stop-color="#EC4899"/>
</linearGradient>
<linearGradient id="paint3_linear_593_8846" x1="38.6345" y1="91.1032" x2="21.748" y2="91.1032" gradientUnits="userSpaceOnUse">
<stop stop-color="#B15CDE"/>
<stop offset="1" stop-color="#EC4899"/>
</linearGradient>
<linearGradient id="paint4_linear_593_8846" x1="30.8279" y1="77.9287" x2="27.207" y2="77.9287" gradientUnits="userSpaceOnUse">
<stop stop-color="#B15CDE"/>
<stop offset="1" stop-color="#EC4899"/>
</linearGradient>
<linearGradient id="paint5_linear_593_8846" x1="33.7679" y1="84.3286" x2="29.6719" y2="84.3286" gradientUnits="userSpaceOnUse">
<stop stop-color="#B15CDE"/>
<stop offset="1" stop-color="#EC4899"/>
</linearGradient>
<linearGradient id="paint6_linear_593_8846" x1="35.2286" y1="60.3026" x2="31.1484" y2="60.3026" gradientUnits="userSpaceOnUse">
<stop stop-color="#B15CDE"/>
<stop offset="1" stop-color="#EC4899"/>
</linearGradient>
</defs>
</svg>
