<svg width="125" height="181" viewBox="0 0 125 181" fill="none" xmlns="http://www.w3.org/2000/svg">
<rect width="124.294" height="180.332" rx="8.01898" fill="#FFF9FC"/>
<path d="M63.8131 29.2749C63.9972 29.2422 64.181 29.2073 64.3645 29.1716C66.2857 28.7953 79.8329 26.7086 90.0915 40.2528C102.102 56.1103 115.157 58.4499 110.694 73.7245C106.232 88.9992 80.5525 95.9899 56.8936 92.1997C56.8936 92.1997 19.7681 88.1805 23.2365 61.6508C26.5164 36.5648 60.1609 29.9236 63.8134 29.2752L63.8131 29.2749Z" fill="#FCDEFA"/>
<path d="M111.127 77.2916H84.8595C84.2306 77.2916 83.7207 77.8015 83.7207 78.4305V94.1571C83.7207 94.7861 84.2306 95.2959 84.8595 95.2959H111.127C111.756 95.2959 112.266 94.7861 112.266 94.1571V78.4305C112.266 77.8015 111.756 77.2916 111.127 77.2916Z" fill="#B25CDD"/>
<path d="M103.647 78.8473V93.7402C103.647 94.5995 102.951 95.2962 102.092 95.2962H76.6576C75.7983 95.2962 75.1016 94.5995 75.1016 93.7402V78.8473C75.1016 77.9881 75.7983 77.2916 76.6576 77.2916H102.092C102.951 77.2916 103.647 77.9881 103.647 78.8473Z" fill="#C1A0FD"/>
<g opacity="0.5">
<path d="M103.647 86.2941V93.7404C103.647 94.5996 102.951 95.2964 102.092 95.2964H76.6576C75.7983 95.2964 75.1016 94.5996 75.1016 93.7404V91.053L103.647 86.2941Z" fill="#B25CDD"/>
</g>
<path d="M90.8655 77.2916H89.3711V84.1955L90.8655 82.2383L92.3596 84.1955V77.2916H90.8655Z" fill="#FFB55B"/>
<path d="M104.64 65.0105H86.722C86.293 65.0105 85.9453 65.3582 85.9453 65.7871V76.5148C85.9453 76.9438 86.293 77.2915 86.722 77.2915H104.64C105.069 77.2915 105.417 76.9438 105.417 76.5148V65.7871C105.417 65.3582 105.069 65.0105 104.64 65.0105Z" fill="#B25CDD"/>
<path d="M98.4751 65.0105H81.1255C80.5395 65.0105 80.0645 65.4856 80.0645 66.0716V76.2304C80.0645 76.8164 80.5395 77.2915 81.1255 77.2915H98.4751C99.0611 77.2915 99.5362 76.8164 99.5362 76.2304V66.0716C99.5362 65.4856 99.0611 65.0105 98.4751 65.0105Z" fill="#C1A0FD"/>
<g opacity="0.5">
<path d="M99.5359 74.8606V76.2304C99.5359 76.8164 99.0607 77.2915 98.4748 77.2915H81.1255C80.5396 77.2915 80.0645 76.8164 80.0645 76.2304V69.5289L99.5362 74.8603L99.5359 74.8606Z" fill="#B25CDD"/>
</g>
<path d="M102.428 65.0105H101.395V71.9141L102.428 69.9572L103.461 71.9141V65.0105H102.428Z" fill="#FFB55B"/>
<path d="M107.562 86.8282V88.1577C107.562 88.5449 107.328 88.8773 106.995 89.0221C106.88 89.0716 106.754 89.0996 106.621 89.0996H88.4223C88.2331 89.0996 88.0565 89.0437 87.909 88.9473C87.6511 88.7797 87.4805 88.4887 87.4805 88.1577V86.8282C87.4805 86.4972 87.6508 86.2065 87.909 86.0386C88.0565 85.9422 88.2331 85.8864 88.4223 85.8864H106.621C106.754 85.8864 106.88 85.914 106.995 85.9635C107.328 86.1083 107.562 86.4408 107.562 86.8279V86.8282Z" fill="#FFB55B"/>
<path d="M92.3073 85.8864H90.0645V89.0996H92.3073V85.8864Z" fill="#FF8F27"/>
<path d="M98.4636 85.8864H96.2207V89.0996H98.4636V85.8864Z" fill="#FF8F27"/>
<path d="M104.618 85.8864H102.375V89.0996H104.618V85.8864Z" fill="#FF8F27"/>
<path d="M107.564 86.8282V88.1578C107.564 88.5449 107.33 88.8773 106.996 89.0221V85.9639C107.33 86.1086 107.564 86.4411 107.564 86.8282Z" fill="#FF8F27"/>
<path d="M87.909 86.0388V88.9471C87.6511 88.7795 87.4805 88.4885 87.4805 88.1576V86.828C87.4805 86.4971 87.6508 86.2063 87.909 86.0385V86.0388Z" fill="#FF8F27"/>
<path d="M107.382 93.1772V94.5067C107.382 94.8938 107.149 95.2263 106.815 95.3711C106.7 95.4206 106.574 95.4486 106.441 95.4486H88.2426C88.0534 95.4486 87.8768 95.3927 87.7293 95.2963C87.4714 95.1287 87.3008 94.8377 87.3008 94.5067V93.1772C87.3008 92.8462 87.4711 92.5555 87.7293 92.3876C87.8768 92.2912 88.0534 92.2354 88.2426 92.2354H106.441C106.574 92.2354 106.7 92.263 106.815 92.3128C107.06 92.4188 107.251 92.6264 107.335 92.8823C107.366 92.9751 107.382 93.0742 107.382 93.1772Z" fill="#FFB55B"/>
<path d="M92.1061 92.2354H89.8633V95.4482H92.1061V92.2354Z" fill="#FF8F27"/>
<path d="M98.2643 92.2354H96.0215V95.4482H98.2643V92.2354Z" fill="#FF8F27"/>
<path d="M104.419 92.2354H102.176V95.4482H104.419V92.2354Z" fill="#FF8F27"/>
<path d="M107.363 93.1771V94.5066C107.363 94.8938 107.129 95.2262 106.795 95.371V92.3127C107.129 92.4575 107.363 92.79 107.363 93.1771Z" fill="#FF8F27"/>
<path d="M87.7293 92.3873V95.2956C87.4714 95.1281 87.3008 94.837 87.3008 94.5061V93.1765C87.3008 92.8456 87.4711 92.5548 87.7293 92.387V92.3873Z" fill="#FF8F27"/>
<g opacity="0.5">
<path d="M107.335 92.8823L87.3008 93.9962V93.1772C87.3008 92.8462 87.4711 92.5555 87.7293 92.3876C87.8768 92.2912 88.0534 92.2354 88.2426 92.2354H106.441C106.574 92.2354 106.7 92.263 106.815 92.3128C107.06 92.4188 107.251 92.6264 107.335 92.8823Z" fill="#B5741F"/>
</g>
<path d="M105.658 89.9634V91.293C105.658 91.6801 105.424 92.0126 105.09 92.1573C104.976 92.2069 104.849 92.2348 104.716 92.2348H86.518C86.3288 92.2348 86.1522 92.1789 86.0047 92.0825C85.7468 91.915 85.5762 91.6239 85.5762 91.293V89.9634C85.5762 89.6325 85.7465 89.3417 86.0047 89.1739C86.1522 89.0775 86.3288 89.0216 86.518 89.0216H104.716C104.849 89.0216 104.976 89.0492 105.09 89.0991C105.424 89.2438 105.658 89.5763 105.658 89.9634Z" fill="#FF8F27"/>
<path d="M90.4033 89.0216H88.1602V92.2348H90.4033V89.0216Z" fill="#FFB55B"/>
<path d="M96.5576 89.0216H94.3145V92.2348H96.5576V89.0216Z" fill="#FFB55B"/>
<path d="M102.712 89.0216H100.469V92.2348H102.712V89.0216Z" fill="#FFB55B"/>
<path d="M105.657 89.9635V91.293C105.657 91.6801 105.424 92.0126 105.09 92.1574V89.0991C105.424 89.2439 105.657 89.5763 105.657 89.9635Z" fill="#FFB55B"/>
<path d="M86.0047 89.1739V92.0823C85.7468 91.9147 85.5762 91.6237 85.5762 91.2927V89.9631C85.5762 89.6322 85.7465 89.3415 86.0047 89.1736V89.1739Z" fill="#FFB55B"/>
<g opacity="0.5">
<path d="M105.656 89.9639V90.4078L105.089 90.3952L102.713 90.3429L100.47 90.2934L96.5572 90.2069L94.314 90.1573L90.4011 90.0711L88.1579 90.0216L86.0028 89.9741L85.5742 89.9645C85.5742 89.6336 85.7445 89.3428 86.0028 89.175C86.1502 89.0786 86.3268 89.0227 86.516 89.0227H104.714C104.847 89.0227 104.974 89.0503 105.088 89.1002C105.422 89.2449 105.656 89.5774 105.656 89.9645L105.656 89.9639Z" fill="#B5741F"/>
</g>
<path d="M28.4265 68.551C28.4265 68.551 27.5409 62.479 28.9665 57.8362C30.3922 53.1932 31.3373 50.2307 31.4109 49.2198C31.4109 49.2198 33.0579 53.5196 34.021 55.9592C36.1461 61.3416 36.6417 65.5207 34.3757 69.9118C34.3757 69.9118 34.3478 72.318 34.3271 72.4237C34.3063 72.5294 31.8326 74.8612 31.8326 74.8612L28.1484 72.5604L28.4262 68.5507L28.4265 68.551Z" fill="#07827D"/>
<path d="M30.8393 75.6151C30.8393 75.6151 30.2302 62.7413 31.2225 55.2133C31.2225 55.2133 31.0918 68.7394 32.8349 74.9937L30.8393 75.6151Z" fill="#07635C"/>
<path d="M29.8167 75.0949L29.8029 78.3552L29.7891 81.9751L31.0165 82.1772C31.0165 82.1772 31.5093 81.6783 32.2475 81.0164C33.3867 79.9983 35.1082 78.5952 36.5023 78.051C38.7986 77.153 42.3935 73.6683 45.1331 67.4188C45.2301 67.199 45.3292 66.9891 45.4325 66.7893C48.249 61.275 53.3401 62.689 53.3401 62.689C49.1986 61.3399 45.6761 61.3934 42.7163 62.2448H42.7145C33.5777 64.8723 29.817 75.0949 29.817 75.0949H29.8167Z" fill="#34ADA7"/>
<path d="M29.8029 78.3552L29.7891 81.975L31.0165 82.1771C31.0165 82.1771 31.5093 81.6783 32.2475 81.0164C40.5381 64.8504 45.7692 62.8367 45.9331 62.776C38.0087 64.6224 31.8781 74.5725 29.8029 78.3552Z" fill="#07827D"/>
<path d="M33.872 77.6159L33.1371 80.2936L32.3202 83.2662L31.2673 83.1512C31.2673 83.1512 30.9771 82.6292 30.523 81.9175C29.8215 80.8219 28.7304 79.2767 27.7114 78.5112C26.0331 77.2492 23.8816 73.5678 23.0641 67.8144C23.0347 67.612 23.0013 67.4171 22.9626 67.2294C21.9139 62.0613 17.4141 62.0562 17.4141 62.0562C21.1201 61.8974 23.9975 62.7473 26.2308 64.1228H26.2323C33.1263 68.3694 33.872 77.6159 33.872 77.6159Z" fill="#34ADA7"/>
<path d="M33.1357 80.2937L32.3188 83.2663L31.2658 83.1513C31.2658 83.1513 30.9757 82.6294 30.5216 81.9176C27.4199 66.7592 23.5895 63.91 23.4688 63.8229C29.5468 67.1508 32.299 76.7162 33.1357 80.294V80.2937Z" fill="#07635C"/>
<path d="M47.2435 71.0162C47.2435 71.0162 35.8301 72.6194 31.8066 80.9366C31.8066 80.9366 35.2994 73.8543 47.2435 71.0162Z" fill="#16473B"/>
<path d="M45.983 69.4699C45.8068 70.513 45.3371 70.7792 45.118 70.847C45.0519 70.8674 44.9823 70.8251 44.9703 70.757C44.9304 70.5313 44.952 69.9919 45.799 69.3579C45.8828 69.2952 46.0004 69.367 45.983 69.4702V69.4699Z" fill="#FFB55B"/>
<path d="M44.6654 69.7995C44.5714 70.8534 44.1239 71.1554 43.9111 71.24C43.8469 71.2655 43.7742 71.2289 43.7568 71.1617C43.6992 70.9398 43.6788 70.4002 44.4733 69.702C44.5519 69.633 44.6747 69.6951 44.6654 69.7995Z" fill="#FFB55B"/>
<path d="M43.1708 70.3489C43.2444 71.2911 42.895 71.6234 42.72 71.7297C42.6672 71.7618 42.5978 71.7402 42.5726 71.6837C42.4892 71.4967 42.3907 71.0246 42.9871 70.2916C43.0463 70.219 43.1636 70.2556 43.1708 70.3489Z" fill="#FFB55B"/>
<path d="M41.7933 70.7894C42.0517 71.6983 41.775 72.0933 41.6243 72.232C41.5787 72.274 41.5066 72.2665 41.4706 72.2161C41.3518 72.0495 41.1621 71.6062 41.6018 70.7696C41.6453 70.6868 41.7675 70.6997 41.7933 70.7894Z" fill="#FFB55B"/>
<path d="M40.4706 71.3391C40.8422 72.1468 40.6423 72.5541 40.5222 72.7048C40.4859 72.7504 40.4178 72.7537 40.377 72.7123C40.2422 72.5745 40.0018 72.1897 40.2896 71.3484C40.3181 71.2652 40.4337 71.2592 40.4703 71.3391H40.4706Z" fill="#FFB55B"/>
<path d="M38.856 71.7221C39.5887 72.226 39.625 72.6781 39.5989 72.869C39.5911 72.9266 39.5341 72.9644 39.4779 72.9494C39.2918 72.8999 38.8884 72.6922 38.7053 71.8223C38.6873 71.7362 38.7834 71.672 38.856 71.7221Z" fill="#FFB55B"/>
<path d="M47.3094 72.4492C46.5323 71.7295 45.9972 71.8051 45.7822 71.8852C45.7174 71.9096 45.688 71.9855 45.7201 72.0467C45.8264 72.2502 46.173 72.6648 47.232 72.6503C47.3368 72.6488 47.3863 72.5204 47.3094 72.4489V72.4492Z" fill="#FFB55B"/>
<path d="M46.064 72.9924C45.3457 72.2138 44.8063 72.2474 44.5857 72.3104C44.5191 72.3293 44.484 72.4029 44.5113 72.4668C44.6013 72.6778 44.9144 73.1184 45.9712 73.1872C46.076 73.1941 46.1351 73.0695 46.064 72.9927V72.9924Z" fill="#FFB55B"/>
<path d="M44.5407 73.4704C44.0235 72.6783 43.5436 72.6279 43.3398 72.6504C43.2782 72.6573 43.2365 72.7167 43.2509 72.7771C43.2986 72.9764 43.5093 73.411 44.4299 73.628C44.5212 73.6496 44.5917 73.5488 44.5407 73.4704Z" fill="#FFB55B"/>
<path d="M43.1802 73.9607C42.8299 73.0819 42.3692 72.9375 42.1651 72.9195C42.1035 72.9141 42.0507 72.9642 42.0528 73.026C42.0603 73.2307 42.1807 73.6984 43.0403 74.0934C43.1253 74.1324 43.2147 74.0478 43.1799 73.9607H43.1802Z" fill="#FFB55B"/>
<path d="M41.8438 74.7399C41.776 73.7962 41.3804 73.5195 41.1913 73.4405C41.1343 73.4168 41.0688 73.4483 41.0523 73.5081C40.9974 73.7056 40.971 74.1876 41.6707 74.8243C41.74 74.8873 41.8507 74.8336 41.8438 74.7402V74.7399Z" fill="#FFB55B"/>
<path d="M40.5232 75.2714C40.5448 74.3256 40.1774 74.0126 39.9964 73.9159C39.9418 73.8868 39.8737 73.9123 39.8515 73.9699C39.7782 74.1614 39.7062 74.6387 40.3425 75.3387C40.4055 75.408 40.5208 75.3648 40.5229 75.2711L40.5232 75.2714Z" fill="#FFB55B"/>
<path d="M15.9805 66.5525C15.9805 66.5525 28.7804 71.455 31.2251 82.1677C31.2251 82.1677 29.0663 73.0278 15.9805 66.5525Z" fill="#1B5A4C"/>
<path d="M17.8535 65.0959C17.7793 66.3528 18.2532 66.7864 18.489 66.9237C18.5602 66.9651 18.6521 66.9345 18.6842 66.8585C18.7908 66.6074 18.9097 65.9761 18.0968 65.0148C18.0163 64.9196 17.861 64.9716 17.8535 65.0959Z" fill="#FFB55B"/>
<path d="M19.2931 65.8296C19.1207 67.0765 19.5592 67.5462 19.7836 67.7015C19.8514 67.7484 19.9451 67.7249 19.9833 67.6519C20.1091 67.4099 20.277 66.79 19.5421 65.768C19.4694 65.6668 19.3102 65.7064 19.2934 65.8296H19.2931Z" fill="#FFB55B"/>
<path d="M20.8811 66.8653C20.5444 67.938 20.8607 68.4168 21.0352 68.5868C21.088 68.6381 21.1739 68.6315 21.2184 68.5726C21.3652 68.3783 21.6052 67.857 21.109 66.8479C21.0601 66.7478 20.9141 66.7593 20.8808 66.8653H20.8811Z" fill="#FFB55B"/>
<path d="M22.3555 67.7426C21.8131 68.7277 22.0288 69.2596 22.1663 69.4605C22.2078 69.5212 22.2937 69.5317 22.3486 69.483C22.5309 69.3214 22.8691 68.858 22.5826 67.7706C22.5544 67.663 22.409 67.645 22.3552 67.7426H22.3555Z" fill="#FFB55B"/>
<path d="M23.744 68.7331C23.0978 69.57 23.2212 70.0952 23.3199 70.302C23.3496 70.3645 23.428 70.3867 23.4862 70.3492C23.6789 70.2255 24.0604 69.8437 23.9511 68.792C23.9403 68.6878 23.808 68.6503 23.744 68.7331Z" fill="#FFB55B"/>
<path d="M25.5152 69.6077C24.5318 69.9961 24.3689 70.5106 24.3481 70.739C24.3418 70.808 24.3977 70.8669 24.4667 70.8648C24.6957 70.857 25.2186 70.724 25.6628 69.7644C25.7067 69.6695 25.6124 69.5693 25.5152 69.608V69.6077Z" fill="#FFB55B"/>
<path d="M15.5208 68.1959C16.614 67.5685 17.2144 67.7991 17.4423 67.9496C17.5111 67.9949 17.5249 68.0907 17.4711 68.1535C17.2936 68.361 16.781 68.7494 15.5565 68.4499C15.4355 68.4202 15.4124 68.258 15.5205 68.1959H15.5208Z" fill="#FFB55B"/>
<path d="M16.8223 69.1572C17.863 68.446 18.4795 68.6292 18.7186 68.7611C18.791 68.801 18.812 68.8953 18.7633 68.9623C18.6027 69.183 18.1221 69.6104 16.8779 69.408C16.7547 69.3879 16.719 69.2278 16.822 69.1575L16.8223 69.1572Z" fill="#FFB55B"/>
<path d="M18.4596 70.1172C19.27 69.3368 19.84 69.4068 20.0703 69.4872C20.1399 69.5115 20.1723 69.5917 20.1396 69.6577C20.0309 69.8759 19.6711 70.3234 18.5461 70.3294C18.4347 70.33 18.3798 70.1944 18.4599 70.1172H18.4596Z" fill="#FFB55B"/>
<path d="M19.9032 71.048C20.5434 70.1229 21.1158 70.0785 21.3574 70.1121C21.4304 70.1223 21.4781 70.1944 21.4589 70.2655C21.3956 70.5008 21.1314 71.0105 20.0295 71.2392C19.9206 71.2617 19.8398 71.1399 19.9032 71.0483V71.048Z" fill="#FFB55B"/>
<path d="M21.2476 72.3085C21.5781 71.233 22.1103 71.0175 22.3507 70.9764C22.4233 70.9641 22.4906 71.0181 22.4939 71.0919C22.5047 71.3354 22.4071 71.9011 21.4262 72.4522C21.3292 72.5069 21.2152 72.415 21.2479 72.3085H21.2476Z" fill="#FFB55B"/>
<path d="M22.6319 73.2762C22.8591 72.1743 23.3685 71.9096 23.6038 71.8459C23.675 71.8267 23.747 71.8745 23.7572 71.9474C23.7911 72.1887 23.7473 72.7614 22.8228 73.4026C22.7313 73.4659 22.6091 73.3854 22.6316 73.2762H22.6319Z" fill="#FFB55B"/>
<path d="M47.8716 86.7319C45.9342 84.5956 39.4348 78.238 32.742 80.813C32.4924 80.9085 32.242 81.0166 31.9921 81.1386C31.9038 81.1812 31.8092 81.2116 31.7116 81.2203C31.5635 81.2326 31.3713 81.2073 31.2698 81.0229C31.1896 80.8767 31.2076 80.6953 31.2977 80.5553C31.5302 80.1967 32.1726 79.2648 33.1495 78.2882C35.0263 76.4105 38.1395 74.3677 41.9572 75.9258C47.0706 78.0119 48.1602 84.1734 48.3917 86.5003C48.42 86.7868 48.0665 86.9463 47.8719 86.7319H47.8716Z" fill="#4FBFB7"/>
<path d="M45.6504 81.4031C45.2701 80.873 39.8537 74.0643 32.742 80.8132C32.4924 80.9087 32.242 81.0168 31.9921 81.1388C31.9038 81.1814 31.8092 81.2118 31.7116 81.2205C31.5635 81.2328 31.3713 81.2075 31.2698 81.0231C31.1896 80.8769 31.2076 80.6955 31.2977 80.5555C31.2977 80.5555 38.9579 72.0761 45.6504 81.4031Z" fill="#07827D"/>
<path d="M45.6701 81.4306C45.6633 81.4209 45.6577 81.4121 45.6504 81.4033C45.661 81.4168 45.6668 81.4259 45.6701 81.4306Z" fill="#3C7219"/>
<path d="M12.4651 80.1992C15.4483 79.1667 25.0308 76.4794 30.1034 82.4703C30.2929 82.6932 30.4764 82.9286 30.6524 83.177C30.7145 83.2644 30.7896 83.3434 30.8788 83.4028C31.0146 83.4926 31.2125 83.5695 31.4068 83.4458C31.5605 83.3473 31.6389 83.1641 31.6257 82.9821C31.5909 82.5157 31.4641 81.2831 31.0398 79.8319C30.2247 77.0425 28.3098 73.4443 23.825 72.9334C17.8188 72.2481 13.5334 77.5912 12.0879 79.7037C11.9101 79.9638 12.1657 80.3029 12.4654 80.1995L12.4651 80.1992Z" fill="#4FBFB7"/>
<path d="M17.3984 76.2506C18.0501 75.9587 26.8221 72.2517 30.1023 82.4703C30.2918 82.6932 30.4753 82.9286 30.6513 83.177C30.7134 83.2644 30.7885 83.3434 30.8777 83.4029C31.0135 83.4927 31.2114 83.5695 31.4057 83.4458C31.5595 83.3473 31.6378 83.1641 31.6246 82.9821C31.5898 82.5157 31.4631 81.2832 31.0387 79.832C29.3361 76.511 25.4703 72.3361 17.3987 76.2506H17.3984Z" fill="#07827D"/>
<path d="M23.0078 52.7063C23.0078 52.7063 37.7169 70.3929 32.4981 88.08C32.4981 88.08 36.8436 72.9297 23.0078 52.7063Z" fill="#16473B"/>
<path d="M26.9447 52.112C25.8044 53.8906 26.1413 54.9147 26.3741 55.309C26.4444 55.4282 26.6038 55.4586 26.7132 55.3742C27.0753 55.0943 27.7676 54.2678 27.367 52.1931C27.3273 51.9877 27.0573 51.936 26.9444 52.112H26.9447Z" fill="#FFB55B"/>
<path d="M28.4484 54.3674C27.172 56.0514 27.4279 57.0986 27.6291 57.5098C27.6898 57.6341 27.8466 57.677 27.9622 57.6014C28.3451 57.3506 29.1001 56.5808 28.8635 54.4813C28.84 54.2734 28.5749 54.2008 28.4487 54.3674H28.4484Z" fill="#FFB55B"/>
<path d="M29.9222 57.1875C28.5483 58.4813 28.6182 59.4417 28.7345 59.8336C28.7696 59.952 28.9011 60.0132 29.0141 59.9637C29.3886 59.7997 30.1676 59.2336 30.2706 57.3493C30.2808 57.1628 30.0583 57.0595 29.9222 57.1875Z" fill="#FFB55B"/>
<path d="M31.3605 59.6831C29.758 60.6796 29.6367 61.635 29.673 62.0422C29.6841 62.1653 29.8009 62.2512 29.9214 62.2248C30.3208 62.138 31.1966 61.7374 31.6702 59.9105C31.717 59.7297 31.5191 59.5843 31.3605 59.6828V59.6831Z" fill="#FFB55B"/>
<path d="M32.5807 62.2738C30.9466 62.9685 30.6956 63.8392 30.6703 64.223C30.6628 64.3389 30.7589 64.4356 30.8749 64.4287C31.259 64.4059 32.1311 64.1599 32.8354 62.53C32.9051 62.3687 32.7423 62.2048 32.5804 62.2735L32.5807 62.2738Z" fill="#FFB55B"/>
<path d="M34.4539 65.0068C32.6946 64.7678 32.0333 65.3876 31.8152 65.7045C31.7495 65.8003 31.7825 65.9327 31.8858 65.9859C32.2276 66.1628 33.1027 66.3976 34.5416 65.3573C34.6839 65.2543 34.6278 65.0303 34.4539 65.0065V65.0068Z" fill="#FFB55B"/>
<path d="M20.9858 54.7335C23.101 54.7128 23.7902 55.5438 24.0008 55.9508C24.0644 56.0736 24.0056 56.2253 23.8755 56.273C23.4455 56.4313 22.376 56.5784 20.8299 55.1348C20.677 54.9918 20.7764 54.7353 20.9858 54.7332V54.7335Z" fill="#FFB55B"/>
<path d="M22.0968 57.2082C24.2039 57.0217 24.9559 57.7962 25.1976 58.1855C25.2706 58.3032 25.2238 58.4588 25.0979 58.5164C24.6814 58.7077 23.6269 58.9384 21.9724 57.6206C21.8088 57.4902 21.888 57.2265 22.0965 57.2082H22.0968Z" fill="#FFB55B"/>
<path d="M23.7057 59.9583C25.5338 59.4817 26.3113 60.052 26.5819 60.359C26.6636 60.4518 26.6456 60.5956 26.5432 60.6653C26.2047 60.8956 25.3103 61.2551 23.6576 60.3397C23.4939 60.249 23.5249 60.0052 23.7057 59.958V59.9583Z" fill="#FFB55B"/>
<path d="M25.0536 62.5076C26.7514 61.6787 27.6262 62.0842 27.9524 62.3316C28.0509 62.4064 28.0617 62.5512 27.9752 62.6395C27.689 62.9323 26.8832 63.4615 25.0822 62.8911C24.9038 62.8347 24.8857 62.5896 25.0539 62.5076H25.0536Z" fill="#FFB55B"/>
<path d="M25.9885 65.4567C27.3562 64.1533 28.3125 64.2749 28.6981 64.4122C28.8146 64.4536 28.8687 64.5885 28.8128 64.6987C28.6284 65.0642 28.0206 65.8126 26.1315 65.8135C25.9444 65.8135 25.8531 65.5856 25.9885 65.4564V65.4567Z" fill="#FFB55B"/>
<path d="M27.2211 68.0106C28.4594 66.5835 29.4228 66.6144 29.8199 66.7144C29.9397 66.7447 30.0064 66.8736 29.9613 66.9889C29.8124 67.3703 29.2781 68.1728 27.3974 68.3524C27.2112 68.3701 27.0986 68.1518 27.2211 68.0103V68.0106Z" fill="#FFB55B"/>
<path d="M26.3613 80.8354V94.6396C26.3613 95.0928 26.7283 95.4601 27.1812 95.4601H36.0538C36.507 95.4601 36.8743 95.0931 36.8743 94.6396V80.8354C36.8743 80.3825 36.5073 80.0155 36.0538 80.0155H27.1812C26.7283 80.0155 26.3613 80.3825 26.3613 80.8354Z" fill="#F84558"/>
<path d="M26.3613 80.8354V94.6396C26.3613 95.0928 26.7283 95.4601 27.1812 95.4601H36.0538C36.507 95.4601 36.8743 95.0931 36.8743 94.6396V94.1327C29.161 91.976 28.2282 83.1698 28.1447 80.0155H27.1812C26.7283 80.0155 26.3613 80.3825 26.3613 80.8354Z" fill="#C93249"/>
<path d="M63.0414 33.34H39.1411C37.6738 33.34 36.4844 34.5294 36.4844 35.9967V92.7915C36.4844 94.2588 37.6738 95.4482 39.1411 95.4482H63.0414C64.5086 95.4482 65.6981 94.2588 65.6981 92.7915V35.9967C65.6981 34.5294 64.5086 33.34 63.0414 33.34Z" fill="#C1A0FD"/>
<path d="M65.3012 33.34H41.4008C39.9336 33.34 38.7441 34.5294 38.7441 35.9967V92.7915C38.7441 94.2588 39.9336 95.4482 41.4008 95.4482H65.3012C66.7684 95.4482 67.9579 94.2588 67.9579 92.7915V35.9967C67.9579 34.5294 66.7684 33.34 65.3012 33.34Z" fill="url(#paint0_linear_593_8825)"/>
<path d="M38.7439 38.2699C38.7439 38.2699 38.4214 35.9619 40.557 35.9619H67.2296C67.6315 35.9619 67.9573 36.2878 67.9573 36.6896V92.4309C67.9573 92.9009 67.5762 93.282 67.1062 93.282H40.7982C40.7982 93.282 38.7439 93.5577 38.7439 91.284V38.2699Z" fill="#D9E7FF"/>
<path d="M67.9575 36.6899V92.4309C67.9575 92.7733 67.756 93.0679 67.465 93.2033C67.4881 93.1265 67.5004 93.0451 67.5004 92.9607V37.2194C67.5004 36.8175 67.1749 36.4917 66.7727 36.4917H40.0998C39.6073 36.4917 39.2457 36.6145 38.9805 36.8031C39.2219 36.3475 39.6844 35.9619 40.5569 35.9619H67.2298C67.6317 35.9619 67.9575 36.2878 67.9575 36.6899Z" fill="#C1A0FD"/>
<path d="M64.521 41.9264H62.7383C62.2324 41.9264 61.8223 42.3365 61.8223 42.8424V45.5904C61.8223 46.0963 62.2324 46.5064 62.7383 46.5064H64.521C65.0269 46.5064 65.437 46.0963 65.437 45.5904V42.8424C65.437 42.3365 65.0269 41.9264 64.521 41.9264Z" fill="#C1A0FD"/>
<path d="M63.8184 41.9265H64.522C65.0275 41.9265 65.4377 42.3362 65.4377 42.8422V45.5902C65.4377 46.0957 65.0275 46.5059 64.522 46.5059H63.8184C64.3238 46.5059 64.7341 46.0957 64.7341 45.5902V42.8422C64.7341 42.3362 64.3238 41.9265 63.8184 41.9265Z" fill="#B25CDD"/>
<path d="M59.6011 41.9264H57.8183C57.3124 41.9264 56.9023 42.3365 56.9023 42.8424V45.5904C56.9023 46.0963 57.3124 46.5064 57.8183 46.5064H59.6011C60.107 46.5064 60.5171 46.0963 60.5171 45.5904V42.8424C60.5171 42.3365 60.107 41.9264 59.6011 41.9264Z" fill="#C1A0FD"/>
<path d="M58.8965 41.9265H59.6001C60.1056 41.9265 60.5158 42.3362 60.5158 42.8422V45.5902C60.5158 46.0957 60.1056 46.5059 59.6001 46.5059H58.8965C59.4019 46.5059 59.8122 46.0957 59.8122 45.5902V42.8422C59.8122 42.3362 59.4019 41.9265 58.8965 41.9265Z" fill="#B25CDD"/>
<path d="M54.6812 41.9264H52.8984C52.3925 41.9264 51.9824 42.3365 51.9824 42.8424V45.5904C51.9824 46.0963 52.3925 46.5064 52.8984 46.5064H54.6812C55.1871 46.5064 55.5972 46.0963 55.5972 45.5904V42.8424C55.5972 42.3365 55.1871 41.9264 54.6812 41.9264Z" fill="#C1A0FD"/>
<path d="M53.9785 41.9265H54.6822C55.1876 41.9265 55.5979 42.3362 55.5979 42.8422V45.5902C55.5979 46.0957 55.1876 46.5059 54.6822 46.5059H53.9785C54.484 46.5059 54.8942 46.0957 54.8942 45.5902V42.8422C54.8942 42.3362 54.484 41.9265 53.9785 41.9265Z" fill="#B25CDD"/>
<path d="M49.7593 41.9263H47.9765C47.4707 41.9263 47.0605 42.3364 47.0605 42.8423V45.5903C47.0605 46.0961 47.4707 46.5063 47.9765 46.5063H49.7593C50.2652 46.5063 50.6753 46.0961 50.6753 45.5903V42.8423C50.6753 42.3364 50.2652 41.9263 49.7593 41.9263Z" fill="#C1A0FD"/>
<path d="M49.0566 41.9266H49.7603C50.2658 41.9266 50.676 42.3363 50.676 42.8423V45.5903C50.676 46.0958 50.2658 46.506 49.7603 46.506H49.0566C49.5621 46.506 49.9723 46.0958 49.9723 45.5903V42.8423C49.9723 42.3363 49.5621 41.9266 49.0566 41.9266Z" fill="#B25CDD"/>
<path d="M44.8394 41.9261H43.0566C42.5507 41.9261 42.1406 42.3363 42.1406 42.8421V45.5901C42.1406 46.096 42.5507 46.5061 43.0566 46.5061H44.8394C45.3453 46.5061 45.7554 46.096 45.7554 45.5901V42.8421C45.7554 42.3363 45.3453 41.9261 44.8394 41.9261Z" fill="#C1A0FD"/>
<path d="M44.1367 41.9266H44.8404C45.3458 41.9266 45.7561 42.3363 45.7561 42.8423V45.5903C45.7561 46.0958 45.3458 46.506 44.8404 46.506H44.1367C44.6422 46.506 45.0524 46.0958 45.0524 45.5903V42.8423C45.0524 42.3363 44.6422 41.9266 44.1367 41.9266Z" fill="#B25CDD"/>
<path d="M63.9208 43.3739C63.989 43.4159 64.0286 43.4688 64.0404 43.5322C64.0518 43.5955 64.0331 43.6631 63.9845 43.7346L63.804 44.0076L64.1163 43.9881C64.2007 43.9815 64.2692 43.9986 64.3212 44.0391C64.3731 44.0797 64.3989 44.1391 64.3989 44.2169C64.3989 44.2947 64.3731 44.3542 64.3212 44.3947C64.2692 44.4352 64.201 44.4524 64.1163 44.4458L63.7995 44.4214L63.9797 44.6992C64.0283 44.7707 64.0476 44.8383 64.0361 44.9017C64.0247 44.965 63.9851 45.0161 63.9166 45.0551C63.8484 45.0972 63.7833 45.1047 63.7214 45.077C63.6598 45.0494 63.6112 44.9951 63.5754 44.9137L63.4244 44.5773L63.2682 44.9137C63.2361 44.9948 63.188 45.0491 63.1247 45.077C63.0613 45.1047 62.9952 45.0972 62.927 45.0551C62.8556 45.0128 62.8159 44.9599 62.8075 44.8969C62.7997 44.8335 62.8198 44.7659 62.8685 44.6944L63.0487 44.4214L62.7321 44.4458C62.6444 44.4491 62.5754 44.431 62.5246 44.392C62.4747 44.353 62.4492 44.2944 62.4492 44.2166C62.4492 44.1388 62.4747 44.0794 62.5246 44.0388C62.5754 43.9983 62.6444 43.9812 62.7321 43.9878L63.0487 44.0073L62.8685 43.7343C62.8198 43.6628 62.7994 43.5961 62.8075 43.5346C62.8159 43.4727 62.8556 43.4207 62.927 43.3787C62.9988 43.3364 63.0643 43.3291 63.1247 43.3568C63.185 43.3844 63.2325 43.4373 63.2682 43.5153L63.4244 43.8616L63.5851 43.5153C63.6208 43.4373 63.6689 43.3844 63.7292 43.3568C63.789 43.3291 63.8532 43.3349 63.9217 43.3739H63.9208Z" fill="white"/>
<path d="M58.9189 43.3739C58.987 43.4159 59.0267 43.4688 59.0384 43.5322C59.0498 43.5955 59.0312 43.6631 58.9825 43.7346L58.802 44.0076L59.1144 43.9881C59.1988 43.9815 59.2673 43.9986 59.3192 44.0391C59.3712 44.0797 59.397 44.1391 59.397 44.2169C59.397 44.2947 59.3712 44.3542 59.3192 44.3947C59.2673 44.4352 59.1991 44.4524 59.1144 44.4458L58.7975 44.4214L58.9777 44.6992C59.0264 44.7707 59.0456 44.8383 59.0342 44.9017C59.0228 44.965 58.9831 45.0161 58.9147 45.0551C58.8465 45.0972 58.7813 45.1047 58.7195 45.077C58.6579 45.0494 58.6092 44.9951 58.5735 44.9137L58.4224 44.5773L58.2663 44.9137C58.2341 44.9948 58.1861 45.0491 58.1227 45.077C58.0593 45.1047 57.9933 45.0972 57.9251 45.0551C57.8536 45.0128 57.814 44.9599 57.8056 44.8969C57.7977 44.8335 57.8179 44.7659 57.8665 44.6944L58.0467 44.4214L57.7302 44.4458C57.6425 44.4491 57.5734 44.431 57.5226 44.392C57.4728 44.353 57.4473 44.2944 57.4473 44.2166C57.4473 44.1388 57.4728 44.0794 57.5226 44.0388C57.5734 43.9983 57.6425 43.9812 57.7302 43.9878L58.0467 44.0073L57.8665 43.7343C57.8179 43.6628 57.7974 43.5961 57.8056 43.5346C57.814 43.4727 57.8536 43.4207 57.9251 43.3787C57.9969 43.3364 58.0623 43.3291 58.1227 43.3568C58.1831 43.3844 58.2305 43.4373 58.2663 43.5153L58.4224 43.8616L58.5831 43.5153C58.6188 43.4373 58.6669 43.3844 58.7273 43.3568C58.787 43.3291 58.8513 43.3349 58.9198 43.3739H58.9189Z" fill="white"/>
<path d="M54.0243 43.3739C54.0925 43.4159 54.1322 43.4688 54.1439 43.5322C54.1553 43.5955 54.1367 43.6631 54.088 43.7346L53.9075 44.0076L54.2199 43.9881C54.3042 43.9815 54.3727 43.9986 54.4247 44.0391C54.4766 44.0797 54.5025 44.1391 54.5025 44.2169C54.5025 44.2947 54.4766 44.3542 54.4247 44.3947C54.3727 44.4352 54.3045 44.4524 54.2199 44.4458L53.903 44.4214L54.0832 44.6992C54.1319 44.7707 54.1511 44.8383 54.1397 44.9017C54.1283 44.965 54.0886 45.0161 54.0201 45.0551C53.952 45.0972 53.8868 45.1047 53.8249 45.077C53.7634 45.0494 53.7147 44.9951 53.679 44.9137L53.5279 44.5773L53.3717 44.9137C53.3396 44.9948 53.2915 45.0491 53.2282 45.077C53.1648 45.1047 53.0987 45.0972 53.0306 45.0551C52.9591 45.0128 52.9194 44.9599 52.911 44.8969C52.9032 44.8335 52.9233 44.7659 52.972 44.6944L53.1522 44.4214L52.8356 44.4458C52.7479 44.4491 52.6789 44.431 52.6281 44.392C52.5783 44.353 52.5527 44.2944 52.5527 44.2166C52.5527 44.1388 52.5783 44.0794 52.6281 44.0388C52.6789 43.9983 52.7479 43.9812 52.8356 43.9878L53.1522 44.0073L52.972 43.7343C52.9233 43.6628 52.9029 43.5961 52.911 43.5346C52.9194 43.4727 52.9591 43.4207 53.0306 43.3787C53.1023 43.3364 53.1678 43.3291 53.2282 43.3568C53.2885 43.3844 53.336 43.4373 53.3717 43.5153L53.5279 43.8616L53.6886 43.5153C53.7243 43.4373 53.7724 43.3844 53.8327 43.3568C53.8925 43.3291 53.9568 43.3349 54.0252 43.3739H54.0243Z" fill="white"/>
<path d="M49.1337 43.3739C49.2019 43.4159 49.2415 43.4688 49.2532 43.5322C49.2647 43.5955 49.246 43.6631 49.1974 43.7346L49.0169 44.0076L49.3292 43.9881C49.4136 43.9815 49.4821 43.9986 49.5341 44.0391C49.586 44.0797 49.6118 44.1391 49.6118 44.2169C49.6118 44.2947 49.586 44.3542 49.5341 44.3947C49.4821 44.4352 49.4139 44.4524 49.3292 44.4458L49.0124 44.4214L49.1926 44.6992C49.2412 44.7707 49.2605 44.8383 49.249 44.9017C49.2376 44.965 49.198 45.0161 49.1295 45.0551C49.0613 45.0972 48.9962 45.1047 48.9343 45.077C48.8727 45.0494 48.8241 44.9951 48.7883 44.9137L48.6373 44.5773L48.4811 44.9137C48.449 44.9948 48.4009 45.0491 48.3375 45.077C48.2742 45.1047 48.2081 45.0972 48.1399 45.0551C48.0685 45.0128 48.0288 44.9599 48.0204 44.8969C48.0126 44.8335 48.0327 44.7659 48.0814 44.6944L48.2616 44.4214L47.945 44.4458C47.8573 44.4491 47.7882 44.431 47.7375 44.392C47.6876 44.353 47.6621 44.2944 47.6621 44.2166C47.6621 44.1388 47.6876 44.0794 47.7375 44.0388C47.7882 43.9983 47.8573 43.9812 47.945 43.9878L48.2616 44.0073L48.0814 43.7343C48.0327 43.6628 48.0123 43.5961 48.0204 43.5346C48.0288 43.4727 48.0685 43.4207 48.1399 43.3787C48.2117 43.3364 48.2772 43.3291 48.3375 43.3568C48.3979 43.3844 48.4454 43.4373 48.4811 43.5153L48.6373 43.8616L48.7979 43.5153C48.8337 43.4373 48.8817 43.3844 48.9421 43.3568C49.0019 43.3291 49.0661 43.3349 49.1346 43.3739H49.1337Z" fill="white"/>
<path d="M44.2333 43.3739C44.3015 43.4159 44.3411 43.4688 44.3529 43.5322C44.3643 43.5955 44.3456 43.6631 44.297 43.7346L44.1165 44.0076L44.4288 43.9881C44.5132 43.9815 44.5817 43.9986 44.6337 44.0391C44.6856 44.0797 44.7114 44.1391 44.7114 44.2169C44.7114 44.2947 44.6856 44.3542 44.6337 44.3947C44.5817 44.4352 44.5135 44.4524 44.4288 44.4458L44.112 44.4214L44.2922 44.6992C44.3408 44.7707 44.3601 44.8383 44.3486 44.9017C44.3372 44.965 44.2976 45.0161 44.2291 45.0551C44.1609 45.0972 44.0958 45.1047 44.0339 45.077C43.9723 45.0494 43.9237 44.9951 43.8879 44.9137L43.7369 44.5773L43.5807 44.9137C43.5486 44.9948 43.5005 45.0491 43.4372 45.077C43.3738 45.1047 43.3077 45.0972 43.2395 45.0551C43.1681 45.0128 43.1284 44.9599 43.12 44.8969C43.1122 44.8335 43.1323 44.7659 43.181 44.6944L43.3612 44.4214L43.0446 44.4458C42.9569 44.4491 42.8879 44.431 42.8371 44.392C42.7872 44.353 42.7617 44.2944 42.7617 44.2166C42.7617 44.1388 42.7872 44.0794 42.8371 44.0388C42.8879 43.9983 42.9569 43.9812 43.0446 43.9878L43.3612 44.0073L43.181 43.7343C43.1323 43.6628 43.1119 43.5961 43.12 43.5346C43.1284 43.4727 43.1681 43.4207 43.2395 43.3787C43.3113 43.3364 43.3768 43.3291 43.4372 43.3568C43.4975 43.3844 43.545 43.4373 43.5807 43.5153L43.7369 43.8616L43.8976 43.5153C43.9333 43.4373 43.9813 43.3844 44.0417 43.3568C44.1015 43.3291 44.1657 43.3349 44.2342 43.3739H44.2333Z" fill="white"/>
<path d="M57.7408 50.2994H48.0399C47.3534 50.2994 46.7969 50.856 46.7969 51.5425V54.0169C46.7969 54.7034 47.3534 55.2599 48.0399 55.2599H57.7408C58.4273 55.2599 58.9838 54.7034 58.9838 54.0169V51.5425C58.9838 50.856 58.4273 50.2994 57.7408 50.2994Z" fill="#C93249"/>
<path d="M59.0181 50.2996H49.3173C48.6308 50.2996 48.0742 50.8561 48.0742 51.5426V54.017C48.0742 54.7035 48.6308 55.2601 49.3173 55.2601H59.0181C59.7047 55.2601 60.2612 54.7035 60.2612 54.017V51.5426C60.2612 50.8561 59.7047 50.2996 59.0181 50.2996Z" fill="#F84558"/>
<path d="M50.3928 54.6027C50.2715 54.6027 50.179 54.5691 50.1153 54.5021C50.0514 54.4351 50.0195 54.3411 50.0195 54.2198V51.5634C50.0195 51.3114 50.1457 51.1853 50.3976 51.1853H51.5608C51.9374 51.1853 52.2275 51.2802 52.4321 51.47C52.6363 51.6598 52.7384 51.9241 52.7384 52.2623C52.7384 52.6004 52.6363 52.8653 52.4321 53.0569C52.2278 53.2483 51.9374 53.3441 51.5608 53.3441H50.7613V54.2201C50.7613 54.3414 50.7301 54.4354 50.6679 54.5024C50.6058 54.5694 50.5139 54.603 50.3928 54.603V54.6027ZM50.7613 52.7695H51.4362C51.8287 52.7695 52.0248 52.6004 52.0248 52.2623C52.0248 51.9241 51.8287 51.7646 51.4362 51.7646H50.7613V52.7698V52.7695Z" fill="white"/>
<path d="M52.9403 54.6028C52.8064 54.6028 52.7106 54.558 52.6532 54.4688C52.5959 54.3796 52.5974 54.2694 52.658 54.1385L53.8834 51.4532C53.9344 51.3448 53.9951 51.2658 54.0654 51.2163C54.1356 51.1667 54.2167 51.1421 54.3095 51.1421C54.4023 51.1421 54.4834 51.1667 54.5537 51.2163C54.624 51.2658 54.6828 51.3448 54.7309 51.4532L55.9658 54.1385C56.0265 54.2724 56.0289 54.3835 55.973 54.4712C55.9172 54.5589 55.8271 54.6028 55.7027 54.6028C55.5943 54.6028 55.5105 54.5772 55.4514 54.5262C55.3922 54.4751 55.3405 54.3952 55.2958 54.2868L55.0949 53.8273H53.5203L53.3241 54.2868C53.2764 54.3985 53.2253 54.479 53.171 54.5286C53.1166 54.5781 53.04 54.6028 52.9412 54.6028H52.9403ZM54.2996 51.9749L53.7683 53.248H54.8501L54.3092 51.9749H54.2996Z" fill="white"/>
<path d="M57.3087 54.6028C57.1874 54.6028 57.0949 54.5691 57.0312 54.5021C56.9672 54.4352 56.9354 54.3394 56.9354 54.215V53.0375L55.959 51.6493C55.9143 51.5824 55.8951 51.5097 55.9017 51.4316C55.908 51.3535 55.9398 51.2856 55.9975 51.2283C56.0548 51.1709 56.1362 51.1421 56.2416 51.1421C56.3915 51.1421 56.5209 51.222 56.6294 51.3814L57.3186 52.377L58.0079 51.3814C58.0685 51.2953 58.1283 51.234 58.1874 51.197C58.2463 51.1604 58.316 51.1421 58.3956 51.1421C58.4977 51.1421 58.5767 51.1685 58.6325 51.2211C58.6884 51.2736 58.7187 51.3391 58.7235 51.4172C58.7283 51.4953 58.7019 51.5761 58.6445 51.659L57.6778 53.0423V54.215C57.6778 54.4736 57.555 54.6028 57.3093 54.6028H57.3087Z" fill="white"/>
<path d="M60.209 72.0684H60.2021V67.6157C60.2021 65.5705 59.3732 63.7184 58.0329 62.378C56.6925 61.0376 54.8404 60.2087 52.7952 60.2087C48.7047 60.2087 45.3882 63.5253 45.3882 67.6157V72.0684H45.1071C43.7827 72.0684 42.709 73.142 42.709 74.4665V85.2017C42.709 86.5261 43.7827 87.5998 45.1071 87.5998H60.209C61.5335 87.5998 62.6072 86.5261 62.6072 85.2017V74.4665C62.6072 73.142 61.5335 72.0684 60.209 72.0684ZM48.2722 67.6157C48.2722 65.1218 50.3013 63.0925 52.7955 63.0925C55.2897 63.0925 57.3187 65.1215 57.3187 67.6157V72.0684H48.2725V67.6157H48.2722Z" fill="#C1A0FD"/>
<path d="M64.2412 73.7651C64.177 73.5536 64.0842 73.3548 63.9667 73.1725C63.5403 72.5085 62.7951 72.0682 61.9473 72.0682H61.9407V67.6153C61.9407 65.5704 61.1118 63.7179 59.7712 62.3776C59.4912 62.0977 59.1888 61.84 58.8669 61.6078C58.6104 61.4222 58.3407 61.2529 58.0608 61.1006C57.9022 61.0147 57.74 60.9342 57.5749 60.8597C56.9039 60.5573 56.1795 60.3519 55.42 60.2615C55.1293 60.2263 54.8335 60.2086 54.5334 60.2086C50.8031 60.2086 47.7163 62.9668 47.2022 66.5551C47.152 66.9014 47.1265 67.2555 47.1265 67.6156V72.0685H46.8451C45.5209 72.0685 44.4473 73.1422 44.4473 74.4663V85.2015C44.4473 86.0662 44.905 86.8236 45.5906 87.2453C45.7975 87.3729 46.0255 87.4696 46.2678 87.5291C46.4528 87.575 46.646 87.5993 46.8451 87.5993H61.947C63.2715 87.5993 64.3451 86.5257 64.3451 85.2015V74.4663C64.3451 74.2225 64.3085 73.987 64.2406 73.7654L64.2412 73.7651ZM50.0108 67.6153C50.0108 67.494 50.0156 67.3741 50.0249 67.2549C50.0439 67.0164 50.0814 66.7831 50.1364 66.5563C50.6142 64.5718 52.4044 63.0924 54.534 63.0924C54.5752 63.0924 54.6166 63.093 54.6575 63.0942C54.8971 63.1005 55.1326 63.1257 55.3617 63.1683C55.7254 63.2359 56.0741 63.347 56.4015 63.4963C57.9665 64.2087 59.0573 65.7869 59.0573 67.6153V72.0682H50.0111V67.6153H50.0108Z" fill="url(#paint1_linear_593_8825)"/>
<path d="M56.8165 77.7226C56.8165 76.4627 55.7951 75.4413 54.5352 75.4413C53.2753 75.4413 52.2539 76.4627 52.2539 77.7226C52.2539 78.7314 52.9089 79.5867 53.8168 79.8876V83.8712C53.8168 84.2679 54.1385 84.5896 54.5352 84.5896C54.9319 84.5896 55.2536 84.2679 55.2536 83.8712V79.8876C56.1615 79.5867 56.8165 78.7314 56.8165 77.7226Z" fill="white"/>
<path d="M56.8167 77.7223C56.8167 78.7311 56.1617 79.5867 55.2535 79.8876V83.8712C55.2535 84.0697 55.1733 84.2493 55.0433 84.3793C54.9133 84.5094 54.7337 84.5896 54.5354 84.5896C54.4243 84.5896 54.3189 84.5643 54.2249 84.519C54.2985 84.4835 54.3649 84.4361 54.4219 84.3793C54.552 84.2493 54.6322 84.0697 54.6322 83.8712V79.8876C55.54 79.5867 56.1951 78.7311 56.1951 77.7223C56.1951 76.5678 55.3376 75.6137 54.2246 75.4626C54.3261 75.4485 54.43 75.4413 54.5357 75.4413C55.7956 75.4413 56.817 76.4624 56.817 77.7223H56.8167Z" fill="#C1A0FD"/>
<path d="M68.4498 89.5092L67.8672 89.2016L69.1238 86.857L70.1974 86.7837L70.0659 87.8868L68.4498 89.5092Z" fill="#08111E"/>
<path d="M65.3179 85.0003L65.2891 87.087L67.8791 87.2681L71.3599 85.661L70.7547 84.5075L71.4356 83.2674L68.9365 83.1176C68.9365 83.1176 68.5092 83.9393 67.7082 84.5243C67.1117 84.961 66.3075 85.2646 65.3179 85.0003Z" fill="#F5AE97"/>
<path d="M67.707 84.524C69.0453 85.4992 71.1941 85.2442 71.1941 85.2442L70.7538 84.5075L71.4347 83.2674L68.9357 83.1176C68.9357 83.1176 68.5083 83.9393 67.7073 84.5243L67.707 84.524Z" fill="#ED856E"/>
<path d="M67.5887 87.5663C68.5329 86.7788 69.6402 87.2942 69.6402 87.2942L68.4515 89.5091L69.7093 90.1842C69.7093 90.1842 69.7027 89.8004 71.1166 88.0867C72.5309 86.3731 71.7738 85.5865 71.7738 85.5865L70.7554 84.5074C69.3015 87.0746 65.6942 86.8503 65.6942 86.8503C65.9198 85.7922 65.3179 85 65.3179 85C62.4904 84.9531 62.4414 86.0481 62.4414 86.0481C62.4414 86.0481 65.7597 89.0916 67.5887 87.5663Z" fill="#1B2E4E"/>
<path d="M85.4687 85.5743L84.9482 85.9782L83.3301 83.8666L83.7064 82.8582L84.6572 83.4327L85.4687 85.5743Z" fill="#08111E"/>
<path d="M80.0669 86.5693L81.9562 87.4558L83.1891 85.1709L83.1603 81.337L82.7818 81.1511L81.0108 80.281L79.8438 82.4959C79.8438 82.4959 80.4162 83.2239 80.6186 84.1952C80.7706 84.9184 80.7153 85.7767 80.0666 86.569L80.0669 86.5693Z" fill="#F5AE97"/>
<path d="M83.3416 85.5591C83.0133 84.374 83.9398 83.5782 83.9398 83.5782L85.4676 85.5744L86.6013 84.7068C86.6013 84.7068 86.2488 84.5545 85.2709 82.5597C84.293 80.565 83.2641 80.9302 83.2641 80.9302L81.861 81.4131C83.6002 83.7962 81.9084 86.9899 81.9084 86.9899C81.0375 86.3481 80.0674 86.5697 80.0674 86.5697C78.8586 89.1264 79.8362 89.6225 79.8362 89.6225C79.8362 89.6225 83.9771 87.8545 83.3416 85.5591Z" fill="#1B2E4E"/>
<path d="M80.6189 84.1956C82.059 83.3784 82.7128 81.3158 82.7128 81.3158L82.7818 81.1518L81.0108 80.2817L79.8438 82.4967C79.8438 82.4967 80.4162 83.2246 80.6186 84.1959L80.6189 84.1956Z" fill="#ED856E"/>
<path d="M84.197 79.8197C83.5898 81.1475 82.484 81.9259 81.3839 82.3827C79.772 83.0518 78.1734 83.0299 78.1734 83.0299L75.8086 76.7567L77.6526 70.1753L77.8971 69.3029L78.5013 70.3111L78.6425 70.5474L84.197 79.8197Z" fill="url(#paint2_linear_593_8825)"/>
<path d="M81.5172 82.1768L81.3839 82.3826C79.772 83.0517 78.1734 83.0298 78.1734 83.0298L75.8086 76.7565L77.6526 70.1752L78.501 70.3112L78.6767 70.3394C78.6767 70.3394 78.6626 70.4115 78.6425 70.5476C78.477 71.6663 77.9097 77.1031 81.5172 82.1771V82.1768Z" fill="#B25CDD"/>
<path d="M87.2524 65.8348L78.6762 70.3394L73.7289 85.0548C69.0769 86.6264 66.9355 82.3383 66.9355 82.3383L72.9087 70.2514C72.4384 69.5967 72.2859 68.79 72.2012 68.1923C72.2009 68.1917 72.2009 68.1914 72.2009 68.1908C71.9892 66.6979 72.7039 65.2242 73.9839 64.4274L81.0891 60.0048L88.991 57.9707L89.7598 60.7013C90.8377 65.241 87.2521 65.8351 87.2521 65.8351L87.2524 65.8348Z" fill="url(#paint3_linear_593_8825)"/>
<path d="M82.78 60.5256L77.3705 64.3257C75.8788 65.3735 74.6679 66.7721 73.8438 68.3984L72.9068 70.2517C72.4365 69.597 72.2839 68.7903 72.1992 68.1927C74.9436 63.607 82.7095 60.5533 82.7797 60.5259L82.78 60.5256Z" fill="#B25CDD"/>
<path d="M71.6478 46.1218L70.8666 48.7491C70.8216 48.9005 70.6726 48.9903 70.5345 48.9491L65.6019 47.4826C65.4634 47.4415 65.3881 47.285 65.4328 47.1337L66.214 44.5064C66.259 44.355 66.4077 44.2652 66.5461 44.3064L71.4787 45.7729C71.6169 45.814 71.6925 45.9705 71.6478 46.1218Z" fill="#F84558"/>
<path d="M66.1381 44.7767L66.043 45.0966L71.4765 46.7122L71.5716 46.3924L66.1381 44.7767Z" fill="white"/>
<path d="M66.0009 45.2415L65.8281 45.8228L71.2617 47.4384L71.4345 46.8572L66.0009 45.2415Z" fill="white"/>
<path d="M80.5925 49.5461L79.3392 50.6354L78.8846 51.0309L72.3867 48.8487C69.8615 49.9491 67.6854 49.1587 67.4637 48.3051V48.3045C67.452 48.2604 67.446 48.2159 67.4454 48.1718C67.4304 47.272 69.4188 48.6856 70.1462 48.4036C70.8733 48.1216 71.6299 45.0943 70.5171 46.0668C69.605 46.8636 68.1848 46.7083 68.7713 45.8749C68.7806 45.8614 68.7906 45.8482 68.8011 45.8343C68.8014 45.8337 68.802 45.8328 68.8026 45.8322C68.8029 45.8319 68.8032 45.8313 68.8035 45.831H68.8038C68.9368 45.6571 69.1549 45.4556 69.4783 45.2286C71.4223 43.8633 72.8768 45.8292 72.8768 45.8292L79.332 47.7856L80.0207 47.8387L80.5934 49.5467L80.5925 49.5461Z" fill="#F5AE97"/>
<path d="M68.8044 45.8303C68.8044 45.8303 68.8036 45.8316 68.8027 45.832C68.8032 45.8316 68.8036 45.8308 68.804 45.8303H68.8044Z" fill="white"/>
<path d="M71.1376 47.5479C70.7706 49.3982 68.7587 48.3555 68.1052 48.0768C67.4655 47.8035 67.4634 48.284 67.4637 48.3044C67.452 48.2603 67.446 48.2158 67.4454 48.1717C67.4304 47.2719 69.4188 48.6855 70.1462 48.4035C70.8733 48.1215 71.6299 45.0942 70.5171 46.0667C69.605 46.8635 68.1848 46.7082 68.7713 45.8748C68.5953 46.1823 68.9942 46.9701 70.1318 46.1604C71.3286 45.3087 71.5049 45.6979 71.1376 47.5482V47.5479Z" fill="#ED856E"/>
<path d="M79.3393 50.6353L78.8846 51.0308L72.3867 48.8486C72.3867 48.8486 72.8291 48.3104 72.7991 47.8882C72.7991 47.8882 73.5547 49.382 79.3396 50.6356L79.3393 50.6353Z" fill="#ED856E"/>
<path d="M87.8094 54.8052L89.6273 58.6915C88.5906 59.4588 87.6458 59.9898 86.797 60.3436C85.6921 60.8052 84.7458 60.9688 83.9601 60.97C83.9601 60.97 83.9592 60.9697 83.9574 60.9691C83.5802 60.9691 83.2391 60.9322 82.9363 60.8697C81.708 60.625 81.0902 60.0048 81.0902 60.0048C81.0902 60.0048 82.0579 57.674 81.1719 56.1159C81.1133 56.0128 81.0611 55.9101 81.0151 55.8092H81.0139C80.8049 55.3581 80.7076 54.9347 80.6737 54.568C80.6529 54.3478 80.6671 54.101 80.698 53.8592C80.7791 53.2291 80.9818 52.621 81.2839 52.062L81.2947 52.0419L78.8867 51.0304C79.0264 50.8959 79.1495 50.7574 79.2579 50.6169H79.2582C80.2664 49.3132 80.022 47.8376 80.022 47.8376L83.3829 48.1695L83.2201 48.4791L83.3865 48.1719L83.3883 48.171C83.4676 48.1722 83.5093 48.177 83.5093 48.177L86.1516 48.4581C86.2462 48.4638 86.3408 48.4737 86.4333 48.4921V48.4906C88.9071 48.938 90.7367 53.3114 90.7367 53.3114C89.5751 52.7741 87.8097 54.8052 87.8097 54.8052H87.8094Z" fill="#FFB55B"/>
<path d="M89.6266 58.6916C88.5899 59.4589 87.6451 59.9899 86.7966 60.3437C88.3367 58.3945 86.5957 52.0928 86.5957 52.0928C87.4297 52.8577 87.809 54.8053 87.809 54.8053L89.6266 58.6916Z" fill="#FF8F27"/>
<path d="M82.3163 58.0553C82.061 58.9626 82.4707 60.2876 82.9332 60.8696C81.7049 60.6249 81.0871 60.005 81.0871 60.005C81.0871 60.005 82.0544 57.6742 81.1685 56.1158C81.1099 56.0127 81.0573 55.91 81.0117 55.8091H81.0102C80.8012 55.358 80.7039 54.9346 80.6699 54.5679C80.8249 55.0262 81.4574 56.4804 83.2077 56.3596C84.8958 56.2443 85.7923 56.0482 86.0689 55.9785C85.5722 56.1179 82.6605 56.8263 82.3166 58.0553H82.3163Z" fill="#FF8F27"/>
<path d="M83.5025 49.9521C82.3907 49.2163 83.3805 48.1706 83.3805 48.1706L83.3823 48.1697C83.4619 48.1709 83.5034 48.1757 83.5034 48.1757L86.1459 48.4568C86.2405 48.4625 86.3352 48.4724 86.4274 48.4907C86.3132 49.1097 84.6119 50.6873 83.5025 49.9524V49.9521Z" fill="#FADADE"/>
<path d="M88.2818 40.8364L87.7051 45.1208C87.4445 52.0476 92.4533 50.4279 92.4533 50.4279C90.6483 48.4905 92.9086 43.3618 91.6788 41.2935C90.4489 39.2248 88.2818 40.8364 88.2818 40.8364Z" fill="#5A1F20"/>
<path d="M88.9277 40.7926C88.9277 40.7926 90.8399 39.8169 91.5039 41.8243C92.168 43.8317 91.1868 46.2169 91.4211 47.5302C91.4211 47.5302 91.0552 46.6382 91.3481 44.2776C91.6409 41.9171 90.5789 40.3671 88.9277 40.7923V40.7926Z" fill="#351314"/>
<path d="M90.2051 42.5696C90.2051 42.5696 90.5667 43.8622 90.2934 45.4909C90.0201 47.1195 90.5634 47.5214 90.5634 47.5214C90.5634 47.5214 89.8207 47.1547 90.0649 45.1233C90.3094 43.0918 90.2051 42.5699 90.2051 42.5699V42.5696Z" fill="#351314"/>
<path d="M87.9148 41.0969L88.447 40.7278C88.447 40.7278 90.3862 41.7047 88.5238 44.4146C88.4449 45.4411 88.4725 47.1977 89.4774 47.8146C90.9916 48.7438 90.0687 49.886 92.4533 50.4286C92.4533 50.4286 87.4445 52.048 87.7051 45.1216L88.0064 42.8832L87.9145 41.0972L87.9148 41.0969Z" fill="#351314"/>
<path d="M88.0698 46.0038L88.0605 46.0726C88.0605 46.0726 87.8959 49.5506 90.6613 50.1249C90.6613 50.1249 88.6203 49.2044 88.0698 46.0038Z" fill="#5A1F20"/>
<path d="M81.5598 40.4881L81.3694 42.342L81.2778 43.2315C81.2778 43.2315 80.8306 47.1814 82.9437 47.3448C82.9437 47.3448 83.3882 47.3824 83.5789 47.2616C83.5789 47.2616 83.5864 47.48 83.5693 47.7289C83.5684 47.7467 83.566 47.7656 83.5648 47.7845C83.5453 48.0185 83.5029 48.2671 83.4107 48.3804C83.2387 48.5939 82.9894 49.6871 84.1426 49.721C85.2962 49.7534 86.1449 48.4569 86.1449 48.4569C85.5692 47.8353 86.1554 46.224 86.1554 46.224C86.1765 46.1441 86.241 46.0832 86.3215 46.0675C86.4392 46.039 86.6288 45.9922 86.8357 45.906C86.9042 45.881 86.9738 45.8462 87.0462 45.8132C87.0477 45.812 87.048 45.8105 87.0495 45.8108C87.5045 45.5837 87.9616 45.1852 87.9054 44.5166C87.782 43.0922 86.4356 43.7703 86.4356 43.7703L84.8607 40.4193L84.7067 40.0925L84.3877 40.1325L81.5598 40.4884V40.4881Z" fill="#F5AE97"/>
<path d="M86.6903 44.4544C86.6459 44.2659 86.871 44.1224 87.0244 44.2409C87.1517 44.3394 87.2447 44.5309 87.0883 44.9013C86.7846 45.6211 86.4199 45.2426 86.479 45.0195C86.5381 44.7965 86.7573 44.7254 86.6921 44.4622C86.6915 44.4595 86.6909 44.4571 86.6903 44.4544Z" fill="#ED856E"/>
<path d="M83.5502 43.5047C83.5832 43.4534 83.6342 43.4165 83.6936 43.4003C83.7636 43.3808 83.8281 43.3847 83.901 43.4135C84.0286 43.4639 84.1712 43.6176 84.1472 43.7608C84.1373 43.8199 84.2 43.8733 84.254 43.8751C84.3201 43.8775 84.3585 43.8274 84.3684 43.7683C84.3894 43.6434 84.3303 43.5219 84.2579 43.4243C84.1841 43.325 84.0823 43.2475 83.9671 43.2022C83.7534 43.1181 83.4904 43.189 83.3641 43.3847C83.2869 43.5044 83.473 43.6242 83.5502 43.5047Z" fill="#072C35"/>
<path d="M81.6423 43.3062C81.6648 43.2015 81.8029 43.1069 81.9073 43.0982C82.028 43.0883 82.1367 43.1976 82.1982 43.3053C82.2246 43.3515 82.2933 43.3599 82.3348 43.3317C82.3816 43.3002 82.3876 43.2414 82.3612 43.1952C82.2669 43.0298 82.0838 42.8794 81.8827 42.9028C81.693 42.925 81.491 43.0733 81.4493 43.266C81.4382 43.3179 81.4739 43.3717 81.5258 43.3825C81.5784 43.3933 81.6309 43.3581 81.6423 43.3059V43.3062Z" fill="#072C35"/>
<path d="M82.0672 43.8853C82.0432 44.0573 81.9363 44.1846 81.8286 44.1696C81.7208 44.1546 81.6527 44.003 81.6767 43.831C81.7007 43.659 81.8076 43.5317 81.9153 43.5467C82.0231 43.5617 82.0912 43.7133 82.0672 43.8853Z" fill="#072C35"/>
<path d="M83.8703 44.1366C83.8451 44.3179 83.7322 44.4521 83.6185 44.4365C83.5047 44.4206 83.433 44.2606 83.4582 44.0793C83.4834 43.898 83.5962 43.7638 83.71 43.7794C83.8238 43.7953 83.8955 43.9553 83.8703 44.1366Z" fill="#072C35"/>
<path d="M86.8373 45.907C86.6308 45.9907 86.4417 46.0394 86.3237 46.0658C86.3237 46.0658 85.85 46.0409 85.8359 45.5903C85.8618 45.6351 86.1445 46.0946 86.8373 45.907Z" fill="#ED856E"/>
<path d="M88.2783 40.8375C88.2783 40.8375 89.2676 42.3704 87.8867 44.4426C87.8867 44.4426 90.0782 42.8239 88.2783 40.8375Z" fill="#FADADE"/>
<path d="M81.2118 42.0659C81.2419 42.2058 81.2878 42.3482 81.3512 42.4911C81.3512 42.4911 83.4252 42.3755 83.9679 41.2862C83.9679 41.2862 83.4249 43.0467 86.0029 44.3162L86.1759 44.0955C86.4093 43.8015 86.7652 43.6174 87.14 43.6339C87.4986 43.651 87.8653 43.8378 87.9025 44.5171C87.9025 44.5171 90.0474 40.5102 86.6174 39.7485C86.6174 39.7485 86.5426 39.6113 86.3862 39.4335H86.3847C86.1423 39.1581 85.7056 38.7875 85.0434 38.6746C84.2965 38.5445 83.2598 38.7436 81.8939 39.7843C81.8939 39.7843 80.9448 40.8261 81.2112 42.0659H81.2118Z" fill="#5A1F20"/>
<path d="M81.2151 42.0659C81.2452 42.2058 81.2911 42.3482 81.3545 42.4912C81.3545 42.4912 83.4286 42.3755 83.9712 41.2862C83.9712 41.2862 83.4283 43.0468 86.0063 44.3162L86.1793 44.0955C86.4126 43.8015 86.7685 43.6174 87.1433 43.6339C87.5019 43.651 87.8686 43.8378 87.9058 44.5172C87.8974 42.4149 86.1465 43.745 86.1465 43.745C84.1475 43.2705 84.1178 40.7336 84.1178 40.7336C83.4685 42.0437 81.2148 42.0656 81.2148 42.0656L81.2151 42.0659Z" fill="#351314"/>
<path d="M84.708 41.1415C84.708 41.1415 84.6116 42.6996 86.3397 43.0431C86.3397 43.0431 85.1038 42.3368 84.708 41.1415Z" fill="#351314"/>
<path d="M83.5683 40.5126C83.5683 40.5126 82.7763 41.6505 81.3516 41.5898C81.3516 41.5898 82.3955 41.3781 83.5683 40.5126Z" fill="#351314"/>
<path d="M85.4779 40.0967C86.1974 39.7131 86.62 39.7479 86.62 39.7479C86.62 39.7479 86.5453 39.6108 86.3889 39.4331H86.3874C86.1451 39.1578 85.7087 38.7874 85.0469 38.6746C86.2505 39.0435 85.4776 40.0967 85.4776 40.0967H85.4779Z" fill="#351314"/>
<path d="M83.5805 47.2614C83.5805 47.2614 83.588 47.4796 83.5709 47.7284C83.57 47.7461 83.5676 47.765 83.5664 47.784C84.4822 47.5021 84.779 46.4161 84.779 46.4161C84.4828 46.9054 83.5805 47.2614 83.5805 47.2614Z" fill="#ED856E"/>
<path d="M82.2216 45.5796L83.4655 45.4169C83.5417 45.407 83.6081 45.4698 83.6006 45.5463C83.5726 45.8263 83.4514 46.408 82.9243 46.4417C82.399 46.475 82.1916 45.9764 82.1217 45.73C82.1019 45.6601 82.1499 45.5892 82.2219 45.5796H82.2216Z" fill="#CB6655"/>
<path d="M100.294 51.2435C100.026 51.5553 99.6472 51.7559 99.2411 51.8139C97.6854 52.0379 96.6541 53.4548 96.6541 53.4548L93.267 58.4613C93.267 58.4613 91.2987 61.8096 89.761 60.7014C89.573 60.5663 89.4024 60.3768 89.2478 60.1479L89.2469 60.1461C88.1281 58.494 87.8047 54.8039 87.8047 54.8039C88.7585 53.6999 89.5087 53.338 90.0103 53.2473C90.4797 53.1605 90.7314 53.3104 90.7314 53.3104L91.4816 55.1093C91.4816 55.1093 93.0947 52.28 93.6857 51.0411C94.111 50.1497 93.3683 49.3347 93.1097 49.0115C92.9679 48.8352 92.9595 48.5766 93.1133 48.4118C93.3911 48.1162 93.8365 48.3925 93.9914 48.5046C94.0257 48.5295 94.0458 48.5457 94.0458 48.5457C96.4031 51.1513 97.5869 48.2865 99.3372 49.0505L99.3415 49.0518C99.4727 49.1082 99.6066 49.186 99.7451 49.289C100.225 49.6434 100.464 49.9726 100.55 50.2675V50.269C100.664 50.6606 100.51 50.9913 100.294 51.2441V51.2435Z" fill="#F5AE97"/>
<path d="M99.3361 49.0504C98.6348 48.8245 97.8576 49.1876 96.9022 49.8249C95.9466 50.4622 94.9597 50.1568 94.745 49.6543C94.5308 49.1504 93.9902 48.5044 93.9902 48.5044C94.0245 48.5293 94.0446 48.5455 94.0446 48.5455C96.4019 51.1512 97.5858 48.2864 99.3361 49.0504Z" fill="#ED856E"/>
<path d="M100.292 51.2436C100.024 51.5553 99.6455 51.756 99.2395 51.8139C97.6838 52.038 96.6525 53.4549 96.6525 53.4549L93.2654 58.4614C93.2654 58.4614 91.297 61.8097 89.7594 60.7015C89.5714 60.5663 89.4008 60.3768 89.2461 60.148C90.8393 62.3938 94.7766 55.6647 94.7766 55.6647C94.7766 55.6647 96.8137 51.9485 98.4337 51.7512C100.025 51.5574 100.548 50.2684 100.548 50.2684C100.662 50.6601 100.508 50.9907 100.292 51.2436Z" fill="#ED856E"/>
<path d="M91.4799 55.0942L90.5825 56.3111C90.5825 56.3111 90.86 54.2136 90.0098 53.2471C90.4792 53.1603 90.7309 53.3102 90.7309 53.3102L91.4799 55.0945V55.0942Z" fill="#ED856E"/>
<path d="M98.3351 71.2179L87.8828 72.8501L87.8867 70.3694L87.9011 61.4368L98.0558 59.973L98.3351 71.2179Z" fill="#F84558"/>
<path d="M87.9023 61.4368L86.3836 60.3907L85.5508 71.3046L87.884 72.8501L87.9023 61.4368Z" fill="#C93249"/>
<path d="M86.3809 60.3907L96.0538 59.0326L98.0543 59.9729L87.8996 61.4367L86.3809 60.3907Z" fill="#1B2E4E"/>
<path d="M98.3348 71.2178L87.8828 72.8504L87.8867 70.3697C95.7177 72.6675 98.0558 59.9733 98.0558 59.9733L98.3348 71.2178Z" fill="#E03F57"/>
<path d="M91.0517 64.165L90.2147 63.749L89.9219 69.991L91.5728 71.4377L91.0517 64.165Z" fill="#B25CDD"/>
<path d="M91.5738 71.4377L100.213 69.7117L99.0634 62.855L91.0527 64.165L91.5738 71.4377Z" fill="#C1A0FD"/>
<path d="M90.2148 63.7492L98.1137 62.3292L99.0625 62.8551L91.0519 64.1651L90.2148 63.7492Z" fill="#1B2E4E"/>
<path d="M97.0711 60.7191C97.026 60.768 96.9591 60.7893 96.8945 60.7923C96.832 60.795 96.7611 60.7626 96.7176 60.7191C96.6665 60.668 96.6527 60.6109 96.6443 60.5422C96.6419 60.5211 96.6389 60.5004 96.6362 60.4794C96.6137 60.3154 96.5858 60.1511 96.5533 59.9887C96.4434 59.4454 96.2764 58.9144 96.0626 58.4035C95.944 58.126 95.8112 57.8548 95.6659 57.5899C95.4628 57.2202 95.2349 56.8632 94.9811 56.5259C94.9724 56.5139 94.9634 56.5022 94.9541 56.4901C94.9553 56.4913 94.9523 56.4874 94.946 56.4796C94.9273 56.4559 94.9087 56.4322 94.8898 56.4088C94.8589 56.3697 94.827 56.331 94.7949 56.2928C94.7832 56.279 94.7718 56.2652 94.7598 56.252L95.0475 55.827C95.0529 55.8315 95.058 55.8363 95.0631 55.8417C95.064 55.8426 95.0649 55.8435 95.0658 55.8447C95.1415 55.9231 95.2091 56.0114 95.2763 56.0967C95.4451 56.3115 95.6046 56.5328 95.7532 56.7622C95.9521 57.0686 96.1323 57.3869 96.2935 57.7149C96.4969 58.1296 96.6726 58.5597 96.8125 59C96.9723 59.5027 97.0804 60.019 97.1438 60.5425C97.1516 60.6067 97.1122 60.674 97.0702 60.7194L97.0711 60.7191Z" fill="#E8E8E8"/>
<path d="M96.984 64.4713C96.9218 64.474 96.8507 64.4416 96.8071 64.398C96.7582 64.3491 96.7395 64.2887 96.7338 64.2211C96.7158 64.0049 96.6924 63.789 96.6642 63.5736C96.6311 63.3334 96.5918 63.0934 96.5449 62.8549C96.4653 62.4465 96.365 62.0417 96.2431 61.6434C96.1341 61.2878 96.0073 60.9374 95.8641 60.5938C95.8356 60.5274 95.8073 60.4613 95.7776 60.3953C95.5241 59.8319 95.222 59.2898 94.873 58.7798C94.7943 58.6642 94.7126 58.5504 94.6291 58.4383C94.6075 58.4095 94.5856 58.3807 94.564 58.3521C94.5577 58.3437 94.5514 58.3356 94.5447 58.3272C94.5441 58.3266 94.5436 58.3257 94.543 58.3248C94.5018 58.272 94.4601 58.2194 94.4177 58.1671C94.3162 58.0422 94.2111 57.9197 94.1036 57.7992C94.3084 58.3765 94.4231 58.9807 94.5024 59.5889C94.5108 59.6526 94.4706 59.7204 94.4291 59.7655C94.3841 59.8144 94.3168 59.8358 94.2522 59.8391C94.1901 59.8418 94.1189 59.809 94.0753 59.7655C94.024 59.7141 94.0114 59.6577 94.0021 59.5889C94.0021 59.5883 94.0021 59.588 94.0018 59.5877C93.9789 59.4198 93.9531 59.2522 93.9228 59.0855C93.8516 58.6951 93.7573 58.3065 93.623 57.9326L94.1642 57.1328C94.3643 57.337 94.5553 57.55 94.7364 57.7707C94.9775 58.0647 95.2046 58.3714 95.4133 58.6897C95.6364 59.03 95.8398 59.3838 96.0215 59.7484C96.232 60.1697 96.4161 60.6055 96.5732 61.0494C96.741 61.5245 96.8771 62.0104 96.9825 62.503C97.1038 63.0694 97.1852 63.6445 97.2339 64.2214C97.2459 64.3611 97.1101 64.4659 96.9837 64.4716L96.984 64.4713Z" fill="#E8E8E8"/>
<path d="M93.5385 65.2083C93.4932 65.2573 93.4262 65.2786 93.3616 65.2816C93.2995 65.2843 93.2283 65.2516 93.1847 65.2083C93.1337 65.1573 93.1202 65.1002 93.1115 65.0314C93.097 64.9131 93.0817 64.7948 93.0661 64.6767C93.0469 64.5335 93.0265 64.3905 93.0048 64.2473C92.9159 63.6577 92.8093 63.0712 92.6805 62.4889C92.5682 61.9822 92.4396 61.4789 92.2904 60.9818C92.1624 60.5548 92.0201 60.1322 91.8594 59.7165C91.8234 59.6234 91.7867 59.5306 91.7489 59.4381C91.7318 59.3961 91.714 59.3537 91.6963 59.3117C91.6927 59.303 91.6888 59.294 91.6852 59.2853C91.6768 59.2652 91.6681 59.245 91.6594 59.2249C91.5876 59.0588 91.5125 58.8945 91.4341 58.7318C91.2978 58.4495 91.1512 58.1723 90.9921 57.9023C90.8623 57.6821 90.7245 57.4668 90.5767 57.2587C90.5452 57.2142 90.513 57.1701 90.4809 57.1265C90.4653 57.1055 90.4497 57.0851 90.434 57.0644C90.4292 57.0577 90.4244 57.0514 90.4193 57.0448C90.3644 56.9746 90.3085 56.9049 90.2505 56.8367C90.1586 56.7283 90.0631 56.6226 89.9619 56.5223C89.9421 56.5024 89.9217 56.4832 89.9016 56.4637C89.9004 56.4664 89.8995 56.4694 89.8986 56.4721C89.8658 56.5661 89.8457 56.6646 89.831 56.7634C89.8163 56.8845 89.8085 57.0061 89.8055 57.1277C89.798 57.4112 89.8118 57.6956 89.8337 57.9786C89.8574 58.2849 89.8923 58.5903 89.9325 58.8945C89.973 59.194 90.0193 59.4928 90.07 59.791C90.1475 60.2493 90.2343 60.7058 90.3292 61.1608C90.3689 61.3515 90.4091 61.5419 90.453 61.7314C90.4845 61.8684 90.4118 61.9957 90.2782 62.039C90.1535 62.0795 90.0001 61.9921 89.9706 61.8645L89.9592 61.8149C89.9307 61.6897 89.9037 61.5639 89.8769 61.4383C89.8301 61.2167 89.785 60.9947 89.7418 60.7722C89.6868 60.4887 89.6349 60.2043 89.5868 59.9196C89.5301 59.5844 89.4793 59.2486 89.4343 58.912C89.3925 58.5972 89.3565 58.2819 89.3324 57.9656C89.3108 57.6845 89.2973 57.4025 89.3051 57.1205C89.3063 57.0818 89.3078 57.0427 89.3099 57.0037C89.2496 57.1508 89.1973 57.3013 89.151 57.4533C89.0555 57.7671 88.982 58.0876 88.9192 58.4089C88.8594 58.7159 88.8105 59.0243 88.7681 59.3339C88.7513 59.461 88.7357 59.588 88.7213 59.7153C88.7 59.8997 88.6816 60.0841 88.6657 60.2691C88.6597 60.3397 88.6537 60.4103 88.6492 60.4815C88.6402 60.6214 88.542 60.7253 88.399 60.7316C88.2699 60.7374 88.1401 60.6121 88.1489 60.4815C88.1495 60.4698 88.1504 60.4583 88.1513 60.4466C88.169 60.2004 88.1936 59.9544 88.2215 59.709C88.2735 59.2534 88.3375 58.7984 88.4228 58.348C88.5086 57.8933 88.6135 57.4374 88.775 57.0031C88.9138 56.6304 89.0919 56.2358 89.4255 55.9976C89.5622 55.9003 89.7307 55.8552 89.8974 55.8648C90.0166 55.8718 90.1358 55.8645 90.2547 55.854C90.3755 55.8432 90.4956 55.8288 90.616 55.8138C90.7395 55.7982 90.8629 55.782 90.9866 55.769L90.5824 56.3171C90.5809 56.3171 90.5797 56.3174 90.5782 56.3174C90.5584 56.3198 90.5389 56.3225 90.519 56.3249C90.5025 56.3268 90.4857 56.3286 90.4689 56.331C90.5617 56.4328 90.6512 56.5382 90.7368 56.6463C90.8677 56.8118 90.9933 56.9815 91.1116 57.1563C91.2434 57.3506 91.3672 57.5506 91.4843 57.7548C91.6248 58.0002 91.7558 58.2512 91.878 58.5062C92.0297 58.8225 92.1684 59.1447 92.2973 59.4709C92.4384 59.8286 92.5664 60.1914 92.6826 60.5578C92.8156 60.9779 92.9343 61.4026 93.0394 61.8305C93.1592 62.3171 93.2625 62.8081 93.352 63.3015C93.4562 63.8758 93.5406 64.453 93.6112 65.032C93.619 65.096 93.5797 65.1633 93.5379 65.2089L93.5385 65.2083Z" fill="#E8E8E8"/>
<path d="M81.7526 51.232L81.2928 52.0422L78.8848 51.0307C79.0244 50.8962 79.1476 50.7577 79.256 50.6172H79.2563L81.7523 51.232H81.7526Z" fill="#FF8F27"/>
<path d="M33.2318 136.014C33.1864 135.556 32.9913 135.2 32.6466 134.946C32.3019 134.692 31.8341 134.565 31.2432 134.565C30.8417 134.565 30.5027 134.622 30.2261 134.736C29.9496 134.845 29.7375 134.999 29.5898 135.196C29.4458 135.393 29.3739 135.616 29.3739 135.866C29.3663 136.075 29.4098 136.256 29.5045 136.412C29.603 136.567 29.7375 136.701 29.908 136.815C30.0784 136.925 30.2754 137.022 30.4989 137.105C30.7223 137.184 30.961 137.253 31.2148 137.309L32.2602 137.559C32.7678 137.673 33.2337 137.825 33.658 138.014C34.0822 138.203 34.4496 138.436 34.7602 138.713C35.0708 138.989 35.3114 139.315 35.4818 139.69C35.6561 140.065 35.7451 140.495 35.7489 140.98C35.7451 141.692 35.5633 142.309 35.2034 142.832C34.8473 143.351 34.3322 143.754 33.658 144.042C32.9875 144.326 32.1788 144.468 31.2318 144.468C30.2924 144.468 29.4742 144.325 28.7773 144.037C28.0841 143.749 27.5424 143.323 27.1523 142.758C26.7659 142.19 26.5633 141.487 26.5443 140.65H28.925C28.9515 141.04 29.0633 141.366 29.2602 141.628C29.461 141.885 29.728 142.08 30.0614 142.213C30.3985 142.342 30.7792 142.406 31.2034 142.406C31.6201 142.406 31.9818 142.345 32.2886 142.224C32.5992 142.103 32.8398 141.934 33.0102 141.718C33.1807 141.503 33.2659 141.254 33.2659 140.974C33.2659 140.713 33.1883 140.493 33.033 140.315C32.8814 140.137 32.658 139.986 32.3625 139.861C32.0708 139.736 31.7129 139.622 31.2886 139.52L30.0216 139.201C29.0405 138.963 28.2659 138.59 27.6977 138.082C27.1295 137.575 26.8473 136.891 26.8511 136.031C26.8473 135.326 27.0348 134.711 27.4136 134.184C27.7962 133.658 28.3208 133.247 28.9875 132.951C29.6542 132.656 30.4117 132.508 31.2602 132.508C32.1239 132.508 32.8777 132.656 33.5216 132.951C34.1693 133.247 34.6731 133.658 35.033 134.184C35.3928 134.711 35.5784 135.321 35.5898 136.014H33.2318ZM41.8367 144.474C40.939 144.474 40.1662 144.292 39.5185 143.929C38.8746 143.561 38.3784 143.042 38.0299 142.372C37.6814 141.698 37.5072 140.9 37.5072 139.98C37.5072 139.082 37.6814 138.294 38.0299 137.616C38.3784 136.938 38.8689 136.41 39.5015 136.031C40.1378 135.652 40.884 135.463 41.7401 135.463C42.3159 135.463 42.8519 135.556 43.3481 135.741C43.8481 135.923 44.2837 136.198 44.6549 136.565C45.0299 136.932 45.3215 137.395 45.5299 137.951C45.7382 138.504 45.8424 139.152 45.8424 139.895V140.559H38.4731V139.059H43.564C43.564 138.711 43.4882 138.402 43.3367 138.133C43.1852 137.864 42.975 137.654 42.706 137.503C42.4409 137.347 42.1322 137.27 41.7799 137.27C41.4125 137.27 41.0867 137.355 40.8026 137.525C40.5223 137.692 40.3026 137.917 40.1435 138.201C39.9844 138.482 39.903 138.794 39.8992 139.139V140.565C39.8992 140.997 39.9787 141.37 40.1378 141.684C40.3007 141.999 40.5299 142.241 40.8253 142.412C41.1208 142.582 41.4712 142.667 41.8765 142.667C42.1454 142.667 42.3916 142.629 42.6151 142.554C42.8386 142.478 43.0299 142.364 43.189 142.213C43.3481 142.061 43.4693 141.876 43.5526 141.656L45.7912 141.804C45.6776 142.342 45.4447 142.811 45.0924 143.213C44.7439 143.611 44.2931 143.921 43.7401 144.145C43.1909 144.364 42.5564 144.474 41.8367 144.474ZM51.8663 144.474C50.9724 144.474 50.2034 144.285 49.5595 143.906C48.9193 143.523 48.4269 142.993 48.0822 142.315C47.7413 141.637 47.5708 140.857 47.5708 139.974C47.5708 139.08 47.7432 138.296 48.0879 137.622C48.4364 136.944 48.9307 136.415 49.5708 136.037C50.211 135.654 50.9724 135.463 51.8549 135.463C52.6163 135.463 53.283 135.601 53.8549 135.878C54.4269 136.154 54.8796 136.542 55.2129 137.042C55.5462 137.542 55.7299 138.129 55.764 138.804H53.4799C53.4155 138.368 53.2451 138.018 52.9686 137.753C52.6958 137.484 52.3379 137.349 51.8947 137.349C51.5197 137.349 51.1921 137.451 50.9117 137.656C50.6352 137.857 50.4193 138.15 50.264 138.537C50.1087 138.923 50.0311 139.391 50.0311 139.94C50.0311 140.497 50.1068 140.97 50.2583 141.361C50.4136 141.751 50.6314 142.048 50.9117 142.253C51.1921 142.457 51.5197 142.559 51.8947 142.559C52.1712 142.559 52.4193 142.503 52.639 142.389C52.8625 142.275 53.0462 142.111 53.1902 141.895C53.3379 141.675 53.4345 141.412 53.4799 141.105H55.764C55.7261 141.772 55.5443 142.359 55.2186 142.866C54.8966 143.37 54.4515 143.764 53.8833 144.048C53.3152 144.332 52.6428 144.474 51.8663 144.474ZM63.4115 140.588V135.576H65.832V144.304H63.5081V142.718H63.4172C63.2202 143.23 62.8926 143.641 62.4342 143.951C61.9797 144.262 61.4248 144.417 60.7695 144.417C60.1861 144.417 59.6729 144.285 59.2297 144.02C58.7865 143.754 58.4399 143.378 58.1899 142.889C57.9437 142.4 57.8187 141.815 57.8149 141.133V135.576H60.2354V140.701C60.2392 141.217 60.3774 141.624 60.6502 141.923C60.9229 142.222 61.2884 142.372 61.7467 142.372C62.0384 142.372 62.3111 142.306 62.5649 142.173C62.8187 142.037 63.0233 141.836 63.1786 141.571C63.3377 141.306 63.4153 140.978 63.4115 140.588ZM68.2692 144.304V135.576H70.6158V137.099H70.7067C70.8658 136.557 71.1329 136.148 71.5079 135.872C71.8829 135.592 72.3147 135.451 72.8033 135.451C72.9245 135.451 73.0552 135.459 73.1954 135.474C73.3355 135.489 73.4586 135.51 73.5647 135.537V137.684C73.4511 137.65 73.2939 137.62 73.0931 137.593C72.8923 137.567 72.7086 137.554 72.542 137.554C72.1859 137.554 71.8677 137.631 71.5874 137.787C71.3109 137.938 71.0912 138.15 70.9283 138.423C70.7692 138.696 70.6897 139.01 70.6897 139.366V144.304H68.2692ZM78.8883 144.474C77.9906 144.474 77.2179 144.292 76.5701 143.929C75.9262 143.561 75.43 143.042 75.0815 142.372C74.733 141.698 74.5588 140.9 74.5588 139.98C74.5588 139.082 74.733 138.294 75.0815 137.616C75.43 136.938 75.9205 136.41 76.5531 136.031C77.1895 135.652 77.9357 135.463 78.7917 135.463C79.3675 135.463 79.9035 135.556 80.3997 135.741C80.8997 135.923 81.3353 136.198 81.7065 136.565C82.0815 136.932 82.3732 137.395 82.5815 137.951C82.7898 138.504 82.894 139.152 82.894 139.895V140.559H75.5247V139.059H80.6156C80.6156 138.711 80.5398 138.402 80.3883 138.133C80.2368 137.864 80.0266 137.654 79.7576 137.503C79.4925 137.347 79.1838 137.27 78.8315 137.27C78.4641 137.27 78.1383 137.355 77.8542 137.525C77.5739 137.692 77.3542 137.917 77.1951 138.201C77.036 138.482 76.9546 138.794 76.9508 139.139V140.565C76.9508 140.997 77.0304 141.37 77.1895 141.684C77.3523 141.999 77.5815 142.241 77.877 142.412C78.1724 142.582 78.5228 142.667 78.9281 142.667C79.197 142.667 79.4432 142.629 79.6667 142.554C79.8902 142.478 80.0815 142.364 80.2406 142.213C80.3997 142.061 80.5209 141.876 80.6042 141.656L82.8429 141.804C82.7292 142.342 82.4963 142.811 82.144 143.213C81.7955 143.611 81.3448 143.921 80.7917 144.145C80.2425 144.364 79.608 144.474 78.8883 144.474ZM88.1906 144.446C87.5278 144.446 86.9274 144.275 86.3895 143.934C85.8554 143.59 85.4312 143.084 85.1168 142.417C84.8062 141.747 84.6509 140.925 84.6509 139.951C84.6509 138.951 84.8118 138.12 85.1338 137.457C85.4558 136.79 85.8838 136.292 86.4179 135.963C86.9558 135.629 87.5448 135.463 88.185 135.463C88.6736 135.463 89.0808 135.546 89.4065 135.713C89.7361 135.876 90.0012 136.08 90.202 136.326C90.4065 136.569 90.5618 136.807 90.6679 137.042H90.7418V132.667H93.1565V144.304H90.7702V142.906H90.6679C90.5543 143.148 90.3933 143.389 90.185 143.628C89.9804 143.862 89.7134 144.057 89.3838 144.213C89.0581 144.368 88.6603 144.446 88.1906 144.446ZM88.9577 142.52C89.3478 142.52 89.6774 142.414 89.9463 142.201C90.219 141.986 90.4274 141.684 90.5713 141.298C90.719 140.912 90.7929 140.459 90.7929 139.94C90.7929 139.421 90.7209 138.97 90.577 138.588C90.4331 138.205 90.2247 137.91 89.952 137.701C89.6793 137.493 89.3478 137.389 88.9577 137.389C88.56 137.389 88.2247 137.497 87.952 137.713C87.6793 137.929 87.4728 138.228 87.3327 138.611C87.1925 138.993 87.1225 139.436 87.1225 139.94C87.1225 140.448 87.1925 140.897 87.3327 141.287C87.4766 141.673 87.6831 141.976 87.952 142.196C88.2247 142.412 88.56 142.52 88.9577 142.52ZM13.5525 154.696V152.667H23.1093V154.696H19.5468V164.304H17.115V154.696H13.5525ZM24.2326 164.304V155.576H26.5792V157.099H26.6701C26.8292 156.557 27.0963 156.148 27.4713 155.872C27.8463 155.592 28.2781 155.451 28.7667 155.451C28.888 155.451 29.0186 155.459 29.1588 155.474C29.2989 155.489 29.422 155.51 29.5281 155.537V157.684C29.4145 157.65 29.2573 157.62 29.0565 157.593C28.8558 157.567 28.672 157.554 28.5054 157.554C28.1493 157.554 27.8311 157.631 27.5508 157.787C27.2743 157.938 27.0546 158.15 26.8917 158.423C26.7326 158.696 26.6531 159.01 26.6531 159.366V164.304H24.2326ZM33.5193 164.468C32.9625 164.468 32.4663 164.372 32.0307 164.179C31.5951 163.982 31.2504 163.692 30.9966 163.309C30.7466 162.923 30.6216 162.442 30.6216 161.866C30.6216 161.381 30.7106 160.974 30.8887 160.645C31.0667 160.315 31.3091 160.05 31.6159 159.849C31.9228 159.648 32.2712 159.497 32.6614 159.395C33.0553 159.292 33.4682 159.22 33.9 159.179C34.4076 159.126 34.8167 159.076 35.1273 159.031C35.4379 158.982 35.6633 158.91 35.8034 158.815C35.9436 158.72 36.0137 158.58 36.0137 158.395V158.361C36.0137 158.001 35.9 157.722 35.6728 157.525C35.4493 157.328 35.1311 157.23 34.7182 157.23C34.2826 157.23 33.936 157.326 33.6784 157.52C33.4209 157.709 33.2504 157.948 33.1671 158.236L30.9284 158.054C31.0421 157.523 31.2656 157.065 31.5989 156.679C31.9322 156.289 32.3621 155.989 32.8887 155.781C33.419 155.569 34.0326 155.463 34.7296 155.463C35.2144 155.463 35.6784 155.52 36.1216 155.633C36.5686 155.747 36.9644 155.923 37.3091 156.162C37.6576 156.4 37.9322 156.707 38.133 157.082C38.3337 157.453 38.4341 157.898 38.4341 158.417V164.304H36.1387V163.093H36.0705C35.9303 163.366 35.7428 163.607 35.508 163.815C35.2731 164.02 34.9909 164.181 34.6614 164.298C34.3318 164.412 33.9512 164.468 33.5193 164.468ZM34.2125 162.798C34.5686 162.798 34.883 162.728 35.1557 162.588C35.4284 162.444 35.6425 162.251 35.7978 162.008C35.9531 161.766 36.0307 161.491 36.0307 161.184V160.258C35.955 160.307 35.8508 160.353 35.7182 160.395C35.5894 160.432 35.4436 160.468 35.2807 160.503C35.1178 160.533 34.955 160.561 34.7921 160.588C34.6292 160.611 34.4815 160.631 34.3489 160.65C34.0648 160.692 33.8167 160.758 33.6046 160.849C33.3925 160.94 33.2277 161.063 33.1103 161.218C32.9928 161.37 32.9341 161.559 32.9341 161.787C32.9341 162.116 33.0534 162.368 33.2921 162.542C33.5345 162.713 33.8413 162.798 34.2125 162.798ZM43.2336 159.258V164.304H40.8131V155.576H43.12V157.116H43.2222C43.4154 156.609 43.7393 156.207 44.1938 155.912C44.6484 155.612 45.1995 155.463 45.8472 155.463C46.4533 155.463 46.9817 155.595 47.4325 155.861C47.8832 156.126 48.2336 156.504 48.4836 156.997C48.7336 157.486 48.8586 158.069 48.8586 158.747V164.304H46.4381V159.179C46.4419 158.645 46.3056 158.228 46.0291 157.929C45.7525 157.626 45.3719 157.474 44.887 157.474C44.5613 157.474 44.2734 157.544 44.0234 157.684C43.7772 157.825 43.584 158.029 43.4438 158.298C43.3075 158.563 43.2374 158.883 43.2336 159.258ZM58.5288 158.065L56.3129 158.201C56.275 158.012 56.1936 157.842 56.0686 157.69C55.9436 157.535 55.7788 157.412 55.5743 157.321C55.3735 157.226 55.133 157.179 54.8527 157.179C54.4777 157.179 54.1614 157.258 53.9038 157.417C53.6462 157.573 53.5175 157.781 53.5175 158.042C53.5175 158.251 53.6008 158.427 53.7675 158.571C53.9341 158.715 54.2201 158.83 54.6254 158.917L56.205 159.236C57.0534 159.41 57.686 159.69 58.1027 160.076C58.5194 160.463 58.7277 160.97 58.7277 161.599C58.7277 162.171 58.5591 162.673 58.222 163.105C57.8887 163.537 57.4303 163.874 56.847 164.116C56.2675 164.355 55.5989 164.474 54.8413 164.474C53.686 164.474 52.7656 164.234 52.08 163.753C51.3981 163.268 50.9985 162.609 50.8811 161.775L53.2618 161.65C53.3337 162.003 53.508 162.272 53.7845 162.457C54.061 162.639 54.4152 162.73 54.847 162.73C55.2712 162.73 55.6122 162.648 55.8697 162.486C56.1311 162.319 56.2637 162.105 56.2675 161.843C56.2637 161.624 56.1709 161.444 55.989 161.304C55.8072 161.16 55.5269 161.05 55.1481 160.974L53.6368 160.673C52.7845 160.503 52.15 160.207 51.7334 159.787C51.3205 159.366 51.114 158.83 51.114 158.179C51.114 157.618 51.2656 157.135 51.5686 156.73C51.8754 156.325 52.3053 156.012 52.8584 155.792C53.4152 155.573 54.0667 155.463 54.8129 155.463C55.9152 155.463 56.7826 155.696 57.4152 156.162C58.0515 156.628 58.4228 157.262 58.5288 158.065ZM63.2417 164.468C62.6848 164.468 62.1886 164.372 61.753 164.179C61.3174 163.982 60.9727 163.692 60.7189 163.309C60.4689 162.923 60.3439 162.442 60.3439 161.866C60.3439 161.381 60.4329 160.974 60.611 160.645C60.789 160.315 61.0314 160.05 61.3382 159.849C61.6451 159.648 61.9935 159.497 62.3837 159.395C62.7776 159.292 63.1905 159.22 63.6223 159.179C64.1299 159.126 64.539 159.076 64.8496 159.031C65.1602 158.982 65.3856 158.91 65.5257 158.815C65.6659 158.72 65.736 158.58 65.736 158.395V158.361C65.736 158.001 65.6223 157.722 65.3951 157.525C65.1716 157.328 64.8534 157.23 64.4405 157.23C64.0049 157.23 63.6583 157.326 63.4007 157.52C63.1432 157.709 62.9727 157.948 62.8894 158.236L60.6507 158.054C60.7644 157.523 60.9879 157.065 61.3212 156.679C61.6545 156.289 62.0845 155.989 62.611 155.781C63.1413 155.569 63.7549 155.463 64.4519 155.463C64.9367 155.463 65.4007 155.52 65.8439 155.633C66.2909 155.747 66.6867 155.923 67.0314 156.162C67.3799 156.4 67.6545 156.707 67.8553 157.082C68.056 157.453 68.1564 157.898 68.1564 158.417V164.304H65.861V163.093H65.7928C65.6526 163.366 65.4651 163.607 65.2303 163.815C64.9954 164.02 64.7132 164.181 64.3837 164.298C64.0542 164.412 63.6735 164.468 63.2417 164.468ZM63.9348 162.798C64.2909 162.798 64.6053 162.728 64.878 162.588C65.1507 162.444 65.3648 162.251 65.5201 162.008C65.6754 161.766 65.753 161.491 65.753 161.184V160.258C65.6773 160.307 65.5731 160.353 65.4405 160.395C65.3117 160.432 65.1659 160.468 65.003 160.503C64.8401 160.533 64.6773 160.561 64.5144 160.588C64.3515 160.611 64.2038 160.631 64.0712 160.65C63.7871 160.692 63.539 160.758 63.3269 160.849C63.1148 160.94 62.95 161.063 62.8326 161.218C62.7151 161.37 62.6564 161.559 62.6564 161.787C62.6564 162.116 62.7757 162.368 63.0144 162.542C63.2568 162.713 63.5636 162.798 63.9348 162.798ZM74.4786 164.474C73.5847 164.474 72.8158 164.285 72.1718 163.906C71.5317 163.523 71.0392 162.993 70.6945 162.315C70.3536 161.637 70.1832 160.857 70.1832 159.974C70.1832 159.08 70.3555 158.296 70.7002 157.622C71.0487 156.944 71.543 156.415 72.1832 156.037C72.8233 155.654 73.5847 155.463 74.4673 155.463C75.2286 155.463 75.8953 155.601 76.4673 155.878C77.0392 156.154 77.4919 156.542 77.8252 157.042C78.1586 157.542 78.3423 158.129 78.3764 158.804H76.0923C76.0279 158.368 75.8574 158.018 75.5809 157.753C75.3082 157.484 74.9502 157.349 74.507 157.349C74.132 157.349 73.8044 157.451 73.5241 157.656C73.2476 157.857 73.0317 158.15 72.8764 158.537C72.7211 158.923 72.6434 159.391 72.6434 159.94C72.6434 160.497 72.7192 160.97 72.8707 161.361C73.026 161.751 73.2438 162.048 73.5241 162.253C73.8044 162.457 74.132 162.559 74.507 162.559C74.7836 162.559 75.0317 162.503 75.2514 162.389C75.4748 162.275 75.6586 162.111 75.8025 161.895C75.9502 161.675 76.0468 161.412 76.0923 161.105H78.3764C78.3385 161.772 78.1567 162.359 77.8309 162.866C77.5089 163.37 77.0639 163.764 76.4957 164.048C75.9275 164.332 75.2552 164.474 74.4786 164.474ZM85.0693 155.576V157.395H79.8136V155.576H85.0693ZM81.0068 153.486H83.4273V161.622C83.4273 161.845 83.4614 162.02 83.5295 162.145C83.5977 162.266 83.6924 162.351 83.8136 162.4C83.9386 162.45 84.0826 162.474 84.2455 162.474C84.3591 162.474 84.4727 162.465 84.5864 162.446C84.7 162.423 84.7871 162.406 84.8477 162.395L85.2284 164.196C85.1072 164.234 84.9367 164.277 84.717 164.326C84.4973 164.379 84.2303 164.412 83.9159 164.423C83.3326 164.446 82.8212 164.368 82.3818 164.19C81.9462 164.012 81.6072 163.736 81.3648 163.361C81.1223 162.986 81.003 162.512 81.0068 161.94V153.486ZM87.1472 164.304V155.576H89.5677V164.304H87.1472ZM88.3631 154.451C88.0033 154.451 87.6945 154.332 87.437 154.093C87.1832 153.851 87.0563 153.561 87.0563 153.224C87.0563 152.891 87.1832 152.605 87.437 152.366C87.6945 152.124 88.0033 152.003 88.3631 152.003C88.723 152.003 89.0298 152.124 89.2836 152.366C89.5411 152.605 89.6699 152.891 89.6699 153.224C89.6699 153.561 89.5411 153.851 89.2836 154.093C89.0298 154.332 88.723 154.451 88.3631 154.451ZM95.9509 164.474C95.0684 164.474 94.3051 164.287 93.6612 163.912C93.021 163.533 92.5267 163.006 92.1782 162.332C91.8297 161.654 91.6555 160.868 91.6555 159.974C91.6555 159.073 91.8297 158.285 92.1782 157.611C92.5267 156.932 93.021 156.406 93.6612 156.031C94.3051 155.652 95.0684 155.463 95.9509 155.463C96.8335 155.463 97.5949 155.652 98.235 156.031C98.879 156.406 99.3752 156.932 99.7237 157.611C100.072 158.285 100.246 159.073 100.246 159.974C100.246 160.868 100.072 161.654 99.7237 162.332C99.3752 163.006 98.879 163.533 98.235 163.912C97.5949 164.287 96.8335 164.474 95.9509 164.474ZM95.9623 162.599C96.3638 162.599 96.6991 162.486 96.968 162.258C97.2369 162.027 97.4396 161.713 97.5759 161.315C97.7161 160.917 97.7862 160.465 97.7862 159.957C97.7862 159.45 97.7161 158.997 97.5759 158.599C97.4396 158.201 97.2369 157.887 96.968 157.656C96.6991 157.425 96.3638 157.309 95.9623 157.309C95.557 157.309 95.2161 157.425 94.9396 157.656C94.6669 157.887 94.4604 158.201 94.3203 158.599C94.1839 158.997 94.1157 159.45 94.1157 159.957C94.1157 160.465 94.1839 160.917 94.3203 161.315C94.4604 161.713 94.6669 162.027 94.9396 162.258C95.2161 162.486 95.557 162.599 95.9623 162.599ZM104.742 159.258V164.304H102.321V155.576H104.628V157.116H104.731C104.924 156.609 105.248 156.207 105.702 155.912C106.157 155.612 106.708 155.463 107.356 155.463C107.962 155.463 108.49 155.595 108.941 155.861C109.392 156.126 109.742 156.504 109.992 156.997C110.242 157.486 110.367 158.069 110.367 158.747V164.304H107.946V159.179C107.95 158.645 107.814 158.228 107.537 157.929C107.261 157.626 106.88 157.474 106.395 157.474C106.07 157.474 105.782 157.544 105.532 157.684C105.285 157.825 105.092 158.029 104.952 158.298C104.816 158.563 104.746 158.883 104.742 159.258Z" fill="#5E213E"/>
<defs>
<linearGradient id="paint0_linear_593_8825" x1="67.9579" y1="64.2298" x2="38.7441" y2="64.2298" gradientUnits="userSpaceOnUse">
<stop stop-color="#B15CDE"/>
<stop offset="1" stop-color="#EC4899"/>
</linearGradient>
<linearGradient id="paint1_linear_593_8825" x1="64.3451" y1="73.8315" x2="44.4473" y2="73.8315" gradientUnits="userSpaceOnUse">
<stop stop-color="#B15CDE"/>
<stop offset="1" stop-color="#EC4899"/>
</linearGradient>
<linearGradient id="paint2_linear_593_8825" x1="84.197" y1="76.1301" x2="75.8086" y2="76.1301" gradientUnits="userSpaceOnUse">
<stop stop-color="#B15CDE"/>
<stop offset="1" stop-color="#EC4899"/>
</linearGradient>
<linearGradient id="paint3_linear_593_8825" x1="89.9619" y1="71.6133" x2="66.9355" y2="71.6133" gradientUnits="userSpaceOnUse">
<stop stop-color="#B15CDE"/>
<stop offset="1" stop-color="#EC4899"/>
</linearGradient>
</defs>
</svg>
