<svg width="1890" height="293" viewBox="0 0 1890 293" fill="none" xmlns="http://www.w3.org/2000/svg">
<g opacity="0.23">
<path d="M210.647 179.489C178.328 169.838 145.831 160.57 113.229 151.669C117.248 141.394 120.804 130.882 124.2 120.302C133.772 124.448 143.772 127.033 153.091 132.037C163.201 137.468 172.473 144.136 180.965 151.845C182.037 152.816 183.71 152.22 183.805 150.741C186.576 107.479 189.145 56.0351 162.305 18.9318C162.334 18.7638 162.303 18.5854 162.169 18.4411C161.722 17.9609 161.292 17.4702 160.858 16.9795C160.687 16.7539 160.527 16.5229 160.354 16.2973C160.265 16.1818 160.157 16.1162 160.044 16.0716C160.018 16.0428 159.994 16.0139 159.968 15.985C159.403 15.371 158.83 14.6652 158.14 14.1692C159.146 10.8813 160.141 7.59085 161.118 4.29773C161.218 3.96186 161.155 3.68109 161.008 3.46592C160.861 2.86765 160.341 2.35859 159.658 2.61837C105.344 23.2876 59.8575 68.5359 33.4385 119.554C32.8449 120.701 33.5173 121.942 34.8123 122.055C61.9589 124.372 88.5959 128.778 115.398 133.446C113.591 139.234 111.871 145.039 110.311 150.869C74.4487 141.105 38.4581 131.798 2.42549 122.981C2.42286 122.866 2.4176 122.753 2.41498 122.637C2.37295 121.346 0.544791 121.341 0.423964 122.609C0.416084 122.682 0.413456 122.758 0.408203 122.832C-0.0304504 123.17 -0.143393 123.887 0.300514 124.267C-0.513753 134.663 0.392446 145.246 2.22586 155.487C4.07241 165.797 6.55723 169.035 16.4624 171.903C40.851 178.962 65.3 185.816 89.7175 192.772C114.117 199.723 138.416 207.264 162.957 213.693C170.795 215.747 175.539 213.465 181.543 208.285C191.151 199.998 200.568 191.46 210.016 182.992C210.148 182.874 210.242 182.751 210.324 182.622C211.889 182.496 212.43 180.022 210.647 179.489ZM157.467 16.334C157.848 16.6568 158.255 16.9585 158.644 17.2655C158.843 17.423 159.048 17.5752 159.248 17.73C170.091 36.447 177.096 56.0824 180.064 77.5677C183.256 100.656 182.187 124.073 180.729 147.266C172.76 140.339 164.149 134.236 154.819 129.234C145.802 124.398 135.272 119.132 125.023 117.733C129.209 104.571 133.176 91.3201 137.436 78.2867C144.179 57.6646 151.076 37.0741 157.467 16.334ZM37.4337 119.003C50.6117 94.1566 67.7875 71.6217 88.3753 52.414C109.27 32.9203 132.921 18.3361 158.394 5.77242C149.897 29.4724 142.206 53.4715 134.324 77.3787C128.519 94.9832 122.033 112.588 116.376 130.349C90.5055 124.569 63.8264 121.312 37.4337 119.003ZM183.342 202.279C179.817 205.409 175.523 210.387 170.674 211.316C165.799 212.252 159.282 209.258 154.709 207.959C134.211 202.139 113.707 196.333 93.211 190.499C73.1511 184.79 53.0939 179.077 33.034 173.365C27.8017 171.874 22.5641 170.394 17.3371 168.896C12.9716 167.644 8.95013 167.078 6.69382 161.769C5.84015 159.759 5.5696 156.868 5.1756 154.745C3.33431 144.852 2.83524 134.973 2.49378 124.97C70.4141 144.16 138.461 163.086 206.541 181.696C198.785 188.529 191.073 195.414 183.342 202.279Z" fill="white"/>
<path d="M1037.26 64.7628C1054.93 44.4819 1038.65 16.6071 1017.03 7.02427C1005.17 1.76839 990.74 -0.11039 978.571 5.24257C968.025 9.88443 960.479 19.7297 959.74 31.1808C952.152 23.6106 940.072 20.9262 930.306 26.127C920.477 31.3592 915.851 42.7999 917.751 53.4166C897.312 53.923 877.502 67.1847 876.27 89.0505C875.235 107.395 891.132 123.039 909.048 120.371C898.6 136.831 907.113 159.334 926.361 165.131C947.621 171.533 966.806 156.361 971.371 136.22C981.854 146.647 999.474 141.714 1002.92 127.366C1017.7 143.522 1044.4 141.171 1056.58 122.428C1070.45 101.113 1058.95 74.7077 1037.26 64.7628ZM1054.75 119.143C1043.82 138.014 1016.46 140.882 1003.27 122.674C1002.32 121.368 1000.3 121.801 1000.21 123.501C999.385 138.644 980.686 144.246 971.818 131.743C970.822 130.339 968.973 130.956 968.758 132.572C966.186 151.714 948.861 167.183 929.053 162.46C909.781 157.862 900.661 134.367 914.168 118.948C915.182 117.789 914.233 115.679 912.571 116.206C893.323 122.299 876.704 104.335 879.971 85.5396C883.276 66.5261 901.702 56.3843 919.794 56.6913C920.874 56.7097 921.646 55.6286 921.378 54.6131C915.36 31.7502 943.762 17.0033 959.465 34.3742C959.88 34.8334 960.387 34.8282 960.786 34.5946C961.742 34.8806 962.963 34.39 962.961 33.099C962.89 4.70203 997.402 1.08353 1017.28 10.7398C1036.66 20.1521 1051.38 45.9854 1033.33 64.1907C1032.4 65.138 1032.94 66.4946 1034.06 66.9328C1054.63 74.9754 1066.38 99.0611 1054.75 119.143Z" fill="white"/>
<path d="M791.61 91.7649C793.454 80.4922 785.125 70.7755 775.246 66.5404C761.745 60.7519 746.715 65.5223 733.563 70.235C733.745 69.3638 733.926 68.4927 734.076 67.6215C734.357 65.9946 734.483 64.4228 734.349 62.9455C738.123 62.7461 741.819 60.2192 743.24 56.7162C744.611 53.3364 743.618 49.4004 741.202 46.7791C742.455 43.7588 744.209 41.1139 746.762 38.9753C749.379 36.7843 752.381 36.0285 755.37 34.5801C756.184 34.1865 755.79 32.9506 754.95 32.9348C748.176 32.7958 742.126 39.5814 740.141 45.7924C739.531 45.307 738.867 44.8872 738.144 44.5697C737.548 44.3099 736.936 44.1367 736.319 44.0317C737.222 37.5846 734.919 29.9986 729.308 26.4299C728.26 25.7634 727.149 27.2093 727.969 28.0988C732.287 32.7984 735.084 37.6161 734.682 43.9215C731.544 44.0291 728.512 45.9105 727.012 48.7812C725.563 51.5547 725.888 55.3018 728.11 57.1937C726.125 59.9122 724.294 62.7251 722.584 65.6089C717.173 36.8787 664.24 23.7823 651.06 52.809C645.024 66.1022 649.875 81.0643 660.742 90.2246C671.897 99.6264 686.37 101.537 700.223 99.1961C692.39 104.326 684.715 109.742 677.967 116.239C673.095 120.931 662.578 130.403 664.91 138.37C669.58 154.321 693.67 126.769 703.063 114.578C700.717 122.775 699.44 131.361 702.986 138.501C703.383 139.304 704.625 139.498 705.24 138.839C710.52 133.198 714.423 126.761 717.57 119.928C717.672 128.144 720.506 136.097 725.447 142.781C728.505 146.919 735.457 155.502 741.538 153.235C749.247 150.359 745.47 140.684 743.248 135.586C739.192 126.284 734.275 117.401 728.701 108.936C739.384 115.887 750.737 120.805 764.059 117.771C776.538 114.924 789.446 105.011 791.61 91.7649ZM731.499 47.3931C732.497 46.7712 733.571 46.4537 734.635 46.4275C734.911 46.7791 735.46 46.8735 735.746 46.5088C737.125 46.7371 738.431 47.4534 739.458 48.629C741.53 50.9985 741.979 54.512 740.117 57.1255C738.525 59.3585 736.227 60.1798 733.747 60.3137C733.327 59.2116 732.557 58.6264 731.614 57.7238C731.536 57.5427 731.265 57.8366 731.034 57.771H731.031C730.784 57.7002 730.75 56.9654 730.506 56.7949C730.309 56.6558 730.175 56.3619 729.983 56.3304C729.794 56.152 729.542 55.9683 729.271 56.0234C726.942 53.8166 728.948 48.9832 731.499 47.3931ZM707.859 99.9151C707.084 102.363 706.146 105.011 705.214 107.763C704.82 107.777 704.431 107.947 704.161 108.377C699.396 115.95 693.864 122.928 687.379 129.11C684.355 131.991 681.182 134.859 677.718 137.202C676.239 138.428 674.568 139.314 672.704 139.865L667.7 136.604C666.946 135.074 669.305 131.408 670.074 130.128C678.724 115.751 694.878 106.11 708.692 97.3409C708.408 98.199 708.129 99.057 707.859 99.9151ZM707.985 94.2761C694.376 98.2698 679.168 98.7343 666.794 90.8491C655.097 83.3944 648.181 69.377 653.156 55.8161C663.907 26.5087 715.875 40.4237 721.037 67.0941C721.089 67.3643 721.226 67.5402 721.397 67.6425C716.524 76.244 712.723 85.4437 709.535 94.8166C709.227 94.3548 708.692 94.0688 707.985 94.2761ZM721.675 100.584C717.782 112.988 713.241 125.216 704.686 135.14C702.55 128.968 704.407 122.45 706.044 116.244C707.843 109.414 709.771 102.615 711.988 95.9082C716.306 82.8433 721.856 70.4607 729.067 58.7655C729.09 58.7839 729.106 58.8049 729.132 58.8206C729.834 59.3165 730.362 59.9306 730.75 60.6312C730.275 61.1979 730.417 62.2869 731.278 62.565C731.331 62.5834 731.386 62.5913 731.441 62.607C732.521 67.8839 728.93 75.8372 727.801 79.8231C725.836 86.7662 723.834 93.7014 721.675 100.584ZM737.808 130.498C739.274 133.484 742.119 137.719 742.439 140.989C743.944 143.334 742.959 145.066 739.484 146.181C737.9 149.808 736.198 150.535 734.38 148.357C733.038 147.622 731.785 146.226 730.713 145.137C728.187 142.571 726.009 139.661 724.286 136.496C720.871 130.222 719.406 123.384 719.148 116.305C720.59 112.838 721.872 109.291 723.062 105.706C726.542 110.687 729.834 115.785 732.828 121.075C734.58 124.169 736.243 127.31 737.808 130.498ZM759.688 115.638C745.967 117.37 734.785 110.023 724.149 102.353C724.932 99.8757 725.689 97.3855 726.435 94.9032C728.507 87.9942 730.997 80.9094 732.754 73.8036C744.138 69.6892 756.762 64.9844 769.016 67.6425C780.596 70.1563 791.692 80.7415 788.277 93.3918C784.92 105.819 771.86 114.103 759.688 115.638Z" fill="white"/>
<path d="M1624.15 103.066C1618.96 96.8682 1610.75 94.559 1602.95 95.8842C1603.13 92.7354 1603.07 89.5734 1602.72 86.4351C1601.51 75.3829 1595.93 61.2054 1587.39 50.0718C1593.01 43.1523 1600.89 39.2136 1609.85 38.2585C1611.18 38.1168 1611.25 36.0832 1609.85 36.1278C1600.41 36.4243 1591.87 41.2735 1586.33 48.7414C1577.8 38.1667 1566.54 30.7014 1553.82 32.0449C1554.74 22.0238 1559.91 14.0311 1569.1 9.10061C1570.56 8.31866 1569.28 6.3218 1567.83 6.93581C1558.03 11.1132 1551.42 21.7509 1551.75 32.3466C1551.39 32.4096 1551.03 32.4516 1550.67 32.5303C1549.85 32.7114 1549.51 33.3359 1549.53 33.9814C1538.11 33.6035 1526.57 36.3535 1516.46 41.6986C1516.45 41.6645 1516.45 41.6356 1516.44 41.6015C1513.66 34.8945 1512.73 28.0853 1513.2 20.8561C1513.3 19.3631 1511.08 19.4287 1510.91 20.8561C1510.03 28.2899 1511.45 35.6161 1514.57 42.3887C1514.62 42.491 1514.69 42.5619 1514.76 42.6327C1505.98 47.6078 1498.36 54.5745 1493.02 63.2364C1490.39 67.4977 1488.4 72.1396 1487.03 76.9704C1480.65 75.1493 1475.59 70.7594 1472.42 64.6454C1471.95 63.7349 1470.34 64.3752 1470.73 65.3565C1473.47 72.1868 1479.55 77.0937 1486.59 78.7101C1482.98 93.1841 1484.94 109.156 1492.79 121.812C1483.98 125.05 1475.69 125.163 1466.5 122.282C1465.46 121.954 1464.72 123.604 1465.75 124.076C1474.54 128.128 1485.17 127.768 1493.68 123.187C1494.6 124.564 1495.58 125.903 1496.65 127.188C1503.65 135.638 1513.58 141.576 1524.5 144.948C1518.1 154.394 1509.38 160.768 1498.42 164.578C1497.37 164.943 1497.79 166.496 1498.88 166.247C1510.43 163.628 1520.5 155.764 1526.3 145.507C1535.37 148.047 1545.03 148.826 1554.22 147.784C1555.49 154.607 1554.81 161.217 1552.11 167.727C1551.7 168.705 1553.4 169.43 1553.83 168.454C1556.8 161.794 1557.5 154.622 1555.8 147.598C1560.74 146.921 1565.52 145.709 1569.96 143.953C1577.15 141.117 1583.34 136.648 1588.35 131.119C1595.23 136.488 1599.12 144.462 1599.4 153.195C1599.44 154.512 1601.46 154.523 1601.46 153.195C1601.48 143.754 1597.06 135.286 1589.6 129.652C1597.11 120.749 1601.76 109.393 1602.82 97.6921C1610.4 96.5061 1617.27 99.2796 1622.78 104.444C1623.7 105.304 1624.94 104.013 1624.15 103.066ZM1571.8 139.663C1558.69 145.85 1542.12 146.551 1527.31 142.384C1527.1 142.174 1526.79 142.074 1526.51 142.161C1517.32 139.456 1508.83 134.864 1502.34 128.521C1489.44 115.934 1485.43 96.4168 1489.81 79.2139C1490.28 79.2533 1490.76 79.2847 1491.23 79.2926C1492.22 79.311 1492.18 77.8757 1491.23 77.7812C1490.9 77.7471 1490.58 77.6972 1490.26 77.6526C1491.19 74.4146 1492.38 71.2605 1493.92 68.2744C1505.34 46.015 1530.56 35.5322 1554.6 36.0858C1555.24 36.1016 1555.49 35.5978 1555.41 35.1281C1577.81 33.921 1595.44 63.8766 1598.92 82.6408C1603.02 104.724 1592.72 129.778 1571.8 139.663Z" fill="white"/>
<path d="M1527.48 67.561C1527.53 67.498 1527.59 67.4324 1527.64 67.3695C1528.32 66.6111 1527.28 65.5694 1526.53 66.2543C1525.8 66.9181 1525.05 67.7421 1524.49 68.6473C1523.89 69.2692 1523.54 70.0827 1523.62 70.9197C1523.48 71.8722 1523.65 72.8457 1524.31 73.772C1525.81 75.8712 1529.17 76.3488 1530.19 73.5962C1531.02 71.3527 1530.25 67.8523 1527.48 67.561ZM1527.65 73.074C1527.07 73.4204 1526.48 72.8851 1526.1 72.2763C1526.33 71.9929 1526.45 71.6282 1526.31 71.2399C1526.05 70.5602 1526.93 70.0013 1527.49 70.3897C1528.06 70.7833 1528.24 72.7198 1527.65 73.074Z" fill="white"/>
<path d="M1569.58 68.7836C1569.35 67.2669 1568.14 66.1228 1566.79 65.7187C1566.63 65.4275 1566.35 65.2097 1565.95 65.2149C1562.77 65.2595 1560.76 69.5498 1563.32 71.7671C1565.69 73.8243 1570.11 72.2131 1569.58 68.7836Z" fill="white"/>
<path d="M1581.44 91.0849C1574.2 104.979 1563.62 116.26 1547.02 117.792C1531.39 119.235 1516.31 110.954 1507.98 97.9336C1507.37 96.9837 1505.9 97.8286 1506.46 98.8205C1514.71 113.399 1531.16 122.429 1548.01 120.615C1563.31 118.968 1579.83 107.527 1583.79 92.0768C1584.14 90.7018 1582.13 89.7572 1581.44 91.0849Z" fill="white"/>
<path d="M1817.15 299.424C1829.77 289.461 1829.78 268.694 1814.49 260.576C1806.96 256.582 1797.74 256.59 1790.53 261.258C1783.22 265.989 1779.08 273.874 1775.67 281.696C1771.03 271.877 1761.04 264.924 1749.83 265.344C1748.75 265.383 1747.69 265.517 1746.65 265.693C1741.55 232.832 1712.07 204.545 1680.82 196.096C1645.44 186.529 1606.54 198.641 1583.66 227.364C1572.37 241.528 1565.52 258.6 1563.86 276.556C1563.68 276.545 1563.52 276.624 1563.42 276.837C1562.74 278.39 1563 280.062 1563.65 281.573C1559.73 281.586 1555.93 282.549 1552.59 285.265C1547.31 289.563 1544.75 296.803 1546.08 303.455C1549.1 318.472 1564.43 322.859 1577.18 318.899C1572.85 326.926 1576.31 338.128 1585.72 342.017C1600.02 347.921 1612.81 337.042 1616.79 323.851C1618.96 324.628 1621.13 325.404 1623.3 326.178C1624.23 326.509 1624.87 325.898 1625.03 325.147C1637.43 326.21 1644.75 309.723 1633.99 301.311C1645.02 295.008 1647.11 279.55 1636.26 271.232C1629.45 266.013 1623.3 266.708 1618.17 270.164C1625.4 252.003 1645.43 230.959 1665.95 237.44C1676.25 240.694 1683.98 249.075 1688.61 258.561C1690.98 263.433 1692.61 268.634 1693.92 273.879C1694.51 276.204 1695 278.553 1695.47 280.901C1695.59 281.479 1696.9 286.894 1697.85 289.802C1697.69 289.781 1697.54 289.781 1697.38 289.844C1697.25 289.899 1697.11 289.954 1696.97 290.009C1696.47 290.209 1695.93 290.673 1696 291.284L1696.06 291.925C1696.14 292.649 1696.49 293.121 1697.17 293.378C1697.22 293.399 1697.28 293.418 1697.33 293.439C1697.2 293.609 1697.06 293.754 1696.94 293.932C1691.71 301.437 1693.22 312.969 1701.01 317.824C1689.43 328.204 1684.32 347.218 1698.49 358.065C1713.08 369.233 1727.69 354.914 1736.25 343.111C1741.3 354.137 1753.38 362.802 1765.85 358.826C1775.72 355.68 1781.8 345.236 1779.99 335.441C1794.81 344.42 1815.46 347.341 1827.07 331.615C1835.44 320.287 1830.43 303.087 1817.15 299.424ZM1565.13 279.902C1569.44 234.837 1605.77 198.148 1651.5 196.01C1673.62 194.976 1695.43 201.974 1712.53 216.075C1728.82 229.515 1737.68 246.616 1743.84 266.328C1739.6 267.548 1735.77 269.846 1732.61 272.874C1730.77 255.097 1720.46 235.771 1707.89 223.483C1694.43 210.342 1677.33 204.8 1658.69 205.674C1624.28 207.288 1585.97 227.18 1582.57 264.732C1577.51 268.663 1575.81 277.01 1575.34 283.565C1571.96 282.604 1568.42 281.77 1564.94 281.604C1564.84 281.242 1564.76 280.88 1564.71 280.518C1564.93 280.403 1565.1 280.203 1565.13 279.902ZM1663.48 220.397C1635.61 220.258 1605.66 237.067 1596.03 263.963C1594.52 263.299 1592.91 262.83 1591.19 262.609C1588.48 262.263 1586.22 262.672 1584.33 263.614C1590.42 228.122 1626.08 209.476 1659.94 208.516C1678.18 207.999 1694.5 214.01 1707.22 227.214C1712.98 233.184 1717.6 240.211 1721.18 247.674C1725.37 256.417 1727.1 265.593 1730.36 274.598C1730.42 274.758 1730.51 274.892 1730.62 275.008C1727.54 278.634 1725.32 283.024 1724.34 287.76C1724.33 287.836 1724.35 287.897 1724.34 287.97C1721.66 286.965 1718.77 286.317 1715.86 286.089C1718.38 256.27 1695.52 220.557 1663.48 220.397ZM1631.15 271.644C1644.17 277.031 1643.3 294.688 1630.81 300.028C1629.89 300.421 1630.04 301.825 1630.81 302.266C1643.59 309.574 1634.14 327.711 1620.67 322.111C1620.6 322.082 1620.54 322.085 1620.47 322.077C1619.04 321.565 1617.62 321.056 1616.19 320.545C1615.46 320.282 1614.57 320.841 1614.39 321.565C1611.73 332.345 1602.74 342.783 1590.48 340.398C1579.03 338.173 1573.22 323.247 1583.46 316.134C1583.9 315.869 1584.34 315.596 1584.77 315.307C1586.32 314.263 1584.95 311.851 1583.29 312.78C1582.82 313.04 1582.39 313.318 1581.97 313.609C1570.87 320.18 1554.68 319.151 1549.67 305.255C1547.38 298.902 1549.2 291.757 1554.56 287.508C1561.02 282.384 1569.15 284.719 1576.3 286.855C1577.23 287.133 1578.09 286.378 1578.13 285.464C1578.3 281.24 1578.41 276.936 1580.12 273.006C1582.94 266.516 1589.56 263.646 1596.16 267.435C1603.04 271.384 1606.4 279.217 1605.83 286.902C1605.73 288.301 1607.96 288.954 1608.55 287.64C1610.46 283.397 1612.92 278.529 1616.22 275.068C1616.36 275.002 1616.48 274.879 1616.57 274.719C1620.26 271.017 1624.99 269.098 1631.15 271.644ZM1692.24 259.177C1687.4 248.44 1679.07 238.846 1667.65 234.984C1644.67 227.209 1620.74 251.376 1615.4 272.386C1612.72 274.874 1610.39 278.054 1608.48 281.368C1607.38 274.57 1603.43 267.989 1597.46 264.68C1608.11 239.943 1634.45 224.215 1661.09 223.344C1677.63 222.801 1691.41 231.748 1700.74 244.947C1709.5 257.34 1712.59 271.095 1713.02 286C1708.42 286.105 1703.97 287.401 1700.41 290.237C1700.77 286.611 1698.89 281.817 1698.27 278.897C1696.85 272.166 1695.07 265.467 1692.24 259.177ZM1819.7 334.683C1806.66 344.428 1790.14 339.18 1778.09 330.553C1776.71 329.569 1775.44 331.411 1776 332.639C1780.55 342.628 1773.16 354.644 1762.63 356.446C1751.43 358.362 1741.49 349.647 1738.05 339.608C1737.62 338.351 1736.05 338.162 1735.31 339.249C1728.29 349.582 1715.53 365.36 1701.46 356.559C1686.42 347.152 1693.44 327.545 1704.69 318.592C1705.39 318.041 1705.22 316.609 1704.39 316.257C1696.12 312.751 1694.52 301.723 1699.77 294.9C1706.13 286.632 1718.33 287.356 1726.95 291.085C1727.99 291.531 1728.91 290.088 1727.86 289.534C1727.6 289.398 1727.32 289.274 1727.06 289.143C1727.17 288.988 1727.25 288.805 1727.31 288.576C1729.61 278.036 1738.66 269.057 1749.84 268.616C1761.02 268.177 1770.83 275.955 1774.03 286.42C1774.54 288.088 1776.59 287.842 1777.19 286.42C1782.97 272.696 1792.87 255.551 1810.6 262.381C1827.02 268.708 1826.94 290.796 1812.14 298.962C1810.71 299.752 1811.43 301.843 1812.94 301.912C1820.37 302.242 1826.16 307.897 1827.9 314.969C1829.79 322.728 1825.84 330.093 1819.7 334.683Z" fill="white"/>
<path d="M1361.83 25.6808C1343.08 24.2822 1327.42 39.5723 1322.26 56.5391C1317.28 72.8971 1320.82 91.6561 1333.11 103.9C1346.74 117.489 1368.13 121.906 1385.85 114.325C1386.12 114.209 1386.27 114.007 1386.36 113.776C1384.88 117.237 1383.34 120.643 1381.84 123.979C1381.36 125.033 1381.75 125.949 1382.8 126.4C1385.73 127.657 1388.64 128.237 1391.54 128.203C1384.78 138.274 1385.95 152.696 1394.16 161.712C1400.03 168.154 1408.62 170.324 1416.23 173.918C1424.96 178.041 1433.56 184.231 1438.21 192.9C1448.07 211.318 1429.5 224.281 1427.56 241.652C1426.15 254.318 1435.2 267.574 1447.9 269.965C1449.71 270.303 1450.49 267.792 1448.7 267.196C1440.56 264.486 1433.92 258.829 1431.52 250.353C1429.12 241.846 1432.68 234.108 1436.62 226.737C1442.39 215.921 1447.51 205.199 1441.94 193.103C1436.19 180.623 1423.75 173.538 1411.59 168.539C1402.75 164.91 1394.69 160.604 1391.4 151.021C1388.72 143.205 1390 134.997 1394.19 128.017C1396.43 127.694 1398.67 126.999 1400.89 125.941C1401.95 125.44 1401.86 124.154 1401.26 123.378C1398.07 119.198 1394.57 115.506 1390.62 112.071C1396.94 96.7965 1401.74 80.8137 1399.31 64.1251C1396.52 44.9463 1382.17 27.2001 1361.83 25.6808ZM1397.48 123.839C1393.49 125.27 1389.49 125.243 1385.46 123.9C1386.76 121.024 1388.06 118.122 1389.31 115.193C1392.27 117.872 1394.97 120.73 1397.48 123.839ZM1394.07 56.0248C1400.51 75.5578 1394.2 95.4163 1386.39 113.703C1386.59 112.931 1385.93 111.877 1385.02 112.205C1366.57 118.856 1344.54 113.771 1332.19 98.056C1319.24 81.5694 1320.77 55.9802 1334.86 40.656C1354.22 19.5905 1385.6 30.3043 1394.07 56.0248Z" fill="white"/>
<path d="M1885.12 104.784C1877.13 93.7552 1853 92.2097 1845.32 104.563C1830.97 96.4185 1812.87 93.8943 1796.5 95.6733C1796.22 95.7022 1796.01 95.7993 1795.83 95.9174C1795.42 80.4882 1773.2 74.4977 1760.97 78.6856C1744.9 84.1855 1744.61 108.447 1756.65 118.35C1756.68 118.374 1756.71 118.376 1756.73 118.392C1754.24 122.367 1752.35 126.713 1751.25 131.276C1745.69 154.225 1757.97 177.534 1777.84 189.069C1799.11 201.415 1826.06 205.021 1847.48 191.182C1863.67 180.722 1872.94 161.706 1871.06 142.874C1885.92 137.56 1895.04 118.479 1885.12 104.784ZM1884.17 108.46C1891.53 122.202 1881.53 133.228 1870.73 140.284C1870.27 137.363 1869.55 134.456 1868.53 131.596C1868.14 130.478 1867.69 129.4 1867.23 128.337C1872.4 127.788 1874.74 120.559 1872.32 116.272C1869.1 110.599 1862.17 110.473 1857.21 113.574C1854.12 110.46 1850.65 107.77 1846.9 105.487C1854.8 94.2695 1878.13 97.1795 1884.17 108.46ZM1866.05 125.813C1863.96 121.682 1861.37 118.006 1858.37 114.773C1862.12 112.813 1866.8 112.8 1869.64 116.469C1872.81 120.572 1870.18 124.592 1866.05 125.813ZM1765.04 80.5197C1776.54 78.4651 1791.79 84.0543 1793.27 96.9014C1789.03 96.9512 1784.87 97.7253 1780.9 99.074C1778.95 94.4637 1772.13 92.3277 1767.75 94.4978C1762.53 97.0772 1761.26 104.419 1764.6 108.89C1761.95 111.36 1759.57 114.131 1757.55 117.135C1747.34 106.253 1747.92 83.5741 1765.04 80.5197ZM1778.39 100.019C1773.9 101.863 1769.73 104.458 1766.02 107.636C1763.9 103.997 1764.76 98.6043 1768.82 96.66C1772.77 94.768 1776.19 96.9696 1778.39 100.019ZM1851.91 183.748C1818.1 213.759 1752.46 188.566 1752.99 141.612C1753.19 123.616 1764.59 108.788 1780.15 102.328C1780.63 102.462 1781.19 102.296 1781.38 101.834C1786.57 99.856 1792.19 98.788 1797.99 98.8379C1798.17 98.8405 1798.32 98.7828 1798.45 98.7067C1822.23 96.862 1848.67 103.007 1861.75 124.865C1873.14 143.905 1868.29 169.211 1851.91 183.748Z" fill="white"/>
<path d="M1827.05 178.41C1827.32 177.195 1825.69 176.109 1824.93 177.355C1822.61 181.129 1818.13 183.149 1814.02 180.586C1810.94 178.657 1809.34 175.172 1808.72 171.685C1810.91 171.318 1812.93 170.231 1814.49 168.447C1815.22 167.612 1814.33 166.547 1813.48 166.408C1809.69 165.786 1805.88 165.55 1802.04 165.694C1801.03 165.734 1800.48 166.584 1800.83 167.521C1801.77 170.045 1803.57 171.976 1805.99 172.971C1805.95 175.553 1805.21 178.04 1803.01 179.767C1799.34 182.645 1793.65 180.342 1794.8 175.261C1795.1 173.921 1793.14 172.593 1792.4 174.07C1789.54 179.775 1795.54 185.524 1801.32 183.913C1805.12 182.855 1807.28 179.911 1807.98 176.521C1809.13 179.759 1811.31 182.546 1814.74 183.831C1819.26 185.529 1825.94 183.564 1827.05 178.41ZM1805.11 168.817C1804.74 168.696 1804.42 168.741 1804.15 168.859C1804.01 168.652 1803.89 168.439 1803.78 168.213C1804.37 168.213 1804.95 168.245 1805.54 168.263C1805.51 168.366 1805.5 168.478 1805.52 168.604C1805.55 168.709 1805.57 168.82 1805.59 168.927C1805.42 168.888 1805.26 168.867 1805.11 168.817ZM1806.97 168.305C1808.04 168.363 1809.1 168.452 1810.17 168.575C1809.28 168.982 1808.32 169.161 1807.34 169.158C1807.23 168.869 1807.1 168.586 1806.97 168.305Z" fill="white"/>
<path d="M1770.04 150.924C1768.56 150.008 1765.78 150.202 1765.66 152.399C1765.65 152.64 1765.75 152.876 1765.9 153.073C1765.71 153.443 1765.61 153.847 1765.7 154.228C1766.14 156.243 1768.83 156.413 1770.24 155.429C1771.88 154.291 1771.69 151.945 1770.04 150.924ZM1767.94 154.005C1767.8 153.978 1767.51 153.813 1767.51 153.813C1767.5 153.758 1767.52 153.708 1767.55 153.658C1768.01 153.981 1768.71 153.598 1768.76 152.992C1768.97 153.084 1769.16 153.231 1769.13 153.44C1769.06 153.876 1768.32 154.078 1767.94 154.005Z" fill="white"/>
<path d="M1850.85 162.378C1850.49 161.03 1848.96 160.715 1847.82 160.229C1847.39 160.048 1846.85 160.198 1846.51 160.486C1845.83 161.064 1845.41 161.888 1845.35 162.777C1845.28 163.709 1845.62 164.889 1846.57 165.259C1847 165.427 1847.39 165.378 1847.7 165.194C1848.38 165.574 1849.24 165.601 1850.02 164.979C1850.76 164.375 1851.1 163.307 1850.85 162.378Z" fill="white"/>
<path d="M378.47 241.064C376.67 241.064 374.866 241.225 373.067 241.484C375.276 227.147 370.915 212.326 359.802 202.62C359.095 202.004 358.01 202.193 357.556 203.014C354.748 208.086 353.561 213.274 353.905 218.957C336.509 220.054 319.351 223.583 303.068 229.868C299.777 231.138 296.528 232.521 293.326 233.998C291.02 235.061 288.732 236.163 286.478 237.33C284.745 238.225 281.561 240.988 279.815 241.012C277.135 241.049 275.289 238.54 272.988 237.173C269.957 235.37 266.71 234.289 263.267 233.578C261.423 233.198 260.766 236.029 262.607 236.423C268.578 237.706 273.214 240.309 277.432 244.714C277.91 245.213 278.719 245.189 279.276 244.872C302.79 231.429 328.445 223.415 355.528 221.804C356.279 221.76 357.049 221.091 356.96 220.277C356.4 215.147 357.115 210.592 359.25 206.047C368.845 215.299 372.234 229.054 369.899 242.051C367.17 242.641 364.483 243.45 361.903 244.371C360.897 244.73 361.378 246.31 362.4 245.961C364.758 245.161 367.115 244.578 369.492 244.111C368.727 247.459 367.569 250.616 366.077 253.565C364.138 253.62 362.192 253.615 360.214 253.479C359.274 253.413 359.355 254.838 360.262 254.924C361.845 255.077 363.484 255.21 365.139 255.302C363.86 257.564 362.389 259.703 360.742 261.7C359.508 261.563 358.276 261.432 357.057 261.277C356.114 261.159 355.757 262.589 356.718 262.736C357.627 262.875 358.536 263.03 359.45 263.185C353.939 269.312 346.787 274.035 338.894 277.053C329.532 280.632 318.768 282.033 308.469 280.836C309.273 279.831 310.087 278.834 310.867 277.808C311.4 277.105 310.436 276.179 309.835 276.869C308.763 278.094 307.731 279.349 306.701 280.606C303.465 280.133 300.282 279.409 297.219 278.393C298.12 277.827 299.01 277.244 299.882 276.638C300.576 276.155 299.916 275.176 299.184 275.552C297.868 276.223 296.586 276.953 295.309 277.701C294.03 277.221 292.767 276.709 291.54 276.126C289.389 275.103 287.4 273.917 285.533 272.613C289.158 271.351 292.764 269.934 296.179 268.372C297.043 267.976 296.696 266.625 295.724 266.916C291.708 268.123 287.632 269.614 283.692 271.264C273.13 262.993 267.238 250.325 263.285 237.42C263.062 236.688 261.777 236.848 261.909 237.653C264.028 250.805 270.595 263.822 280.868 272.497C280.371 272.718 279.865 272.93 279.376 273.156C278.585 273.521 278.901 274.754 279.791 274.489C280.629 274.24 281.472 273.962 282.315 273.691C284.761 275.594 287.395 277.265 290.224 278.63C290.894 278.952 291.579 279.241 292.262 279.532C291.044 280.283 289.83 281.038 288.611 281.781C287.8 282.274 288.59 283.502 289.407 283.02C290.965 282.104 292.536 281.204 294.098 280.283C297.474 281.584 301.007 282.529 304.613 283.172C303.822 284.161 303.029 285.145 302.238 286.137C301.658 286.866 302.711 287.85 303.318 287.121C304.332 285.906 305.341 284.688 306.347 283.468C318.6 285.289 331.626 283.484 342.668 278.708C350.569 275.292 357.593 270.188 362.954 263.752C364.606 264.001 366.263 264.216 367.916 264.3C368.785 264.345 368.88 262.996 368.06 262.807C366.807 262.518 365.533 262.314 364.249 262.133C365.859 260.02 367.288 257.769 368.522 255.402C371.614 255.418 374.706 255.189 377.592 254.481C378.414 254.279 378.162 253.022 377.348 253.04C374.706 253.098 372.103 253.277 369.502 253.418C370.897 250.388 371.969 247.173 372.662 243.788C372.678 243.704 372.688 243.623 372.704 243.542C374.621 243.245 376.555 243.004 378.519 242.778C379.615 242.657 379.589 241.064 378.47 241.064Z" fill="white"/>
<path d="M339.527 265.597C338.366 265.961 337.52 266.659 336.228 266.607C334.901 266.552 333.698 265.922 332.873 264.896C334.528 264.355 334.991 262.296 334.468 260.771C334.245 260.123 333.643 259.884 333.007 260.005C330.41 260.493 327.793 260.894 325.185 261.333C324.242 261.493 323.743 262.516 324.473 263.259C326.023 264.836 328.04 265.793 330.189 266.074C330.144 266.714 329.918 267.339 329.559 267.872C329.196 268.407 328.692 268.911 328.111 269.21C327.481 269.535 326.787 269.533 326.223 269.997C325.787 270.356 325.542 271.107 326.094 271.529C327.407 272.532 329.096 271.747 330.236 270.81C331.397 269.855 332.183 268.457 332.403 266.971C332.424 266.83 332.432 266.678 332.443 266.525C333.328 267.494 334.565 268.097 335.897 268.286C337.467 268.509 339.624 268.228 340.459 266.712C340.782 266.111 340.168 265.397 339.527 265.597ZM328.897 263.76C328.524 263.573 328.161 263.369 327.812 263.138C329.249 262.907 330.685 262.684 332.122 262.474C331.951 262.828 331.681 263.154 331.445 263.492C331.342 263.413 331.242 263.335 331.121 263.272C330.257 262.826 329.207 262.868 328.897 263.76Z" fill="white"/>
<path d="M313.882 251.098C311.035 247.698 304.912 249.7 302.498 252.565C301.858 253.324 302.974 254.357 303.644 253.61C304.902 252.211 306.575 251.329 308.466 251.161C310.234 251.004 311.534 251.749 313.186 252.085C313.685 252.187 314.271 251.563 313.882 251.098Z" fill="white"/>
<path d="M348.413 238.582C347.428 236.837 344.783 236.774 343.08 237.296C341.137 237.895 339.621 239.361 339.196 241.369C339.017 242.216 340.246 242.481 340.493 241.668C340.956 240.154 342.3 239.138 343.826 238.839C345.305 238.548 346.311 239.207 347.635 239.679C348.284 239.907 348.688 239.073 348.413 238.582Z" fill="white"/>
<path d="M1044.69 198.02C1059.33 206.973 1076.23 210.009 1093.08 206.831C1093.18 206.813 1093.24 206.763 1093.33 206.732C1093.65 223.84 1107.2 237.506 1121.65 245.286C1140.46 255.412 1162.34 258.857 1183.46 259.739C1219.94 261.264 1259.21 251.849 1283.18 222.392C1285.67 219.332 1287.91 216.068 1289.88 212.651C1290.22 212.497 1290.56 212.355 1290.89 212.19C1291.56 211.851 1291.4 211.116 1290.92 210.775C1303.87 186.813 1303.94 155.939 1284.82 134.834C1272.04 120.735 1253.95 113.312 1235.06 111.299C1234.11 101.095 1235.11 90.8138 1240.01 81.6325C1242.77 76.4711 1246.91 71.3962 1252.37 69.0241C1259.52 65.9252 1270.04 69.8822 1267.15 79.4204C1266.83 80.4517 1268.38 81.0998 1268.88 80.1525C1271.46 75.3296 1269.53 70.1078 1265.1 67.0063C1259.62 63.1674 1252.63 65.0619 1247.6 68.7093C1242.19 72.6374 1238.43 78.1294 1236.06 84.2722C1236.26 79.4099 1236.33 74.5424 1236.25 69.6828C1236.07 57.3867 1236.33 43.0413 1231.42 31.5088C1228.29 24.1459 1221.37 17.3051 1212.86 17.5596C1205.73 17.7748 1199.54 23.3875 1199.8 30.614C1199.85 32.094 1201.89 32.0205 1202.05 30.614C1202.82 23.8205 1208.96 19.6929 1215.44 20.7478C1220.61 21.5901 1224.58 25.2926 1227.28 29.567C1232.36 37.5965 1232.54 48.5622 1233.2 57.7383C1234.48 75.5631 1233.59 93.2568 1231.77 111C1217.21 109.935 1202.34 112.018 1189.21 116.715C1155.71 128.702 1134.94 156.876 1120.68 187.986C1120.65 187.527 1120.62 187.091 1120.62 186.705C1120.57 181.121 1119.93 175.548 1118.8 170.082C1116.33 158.046 1111.36 146.797 1104.4 136.689C1103.73 135.721 1102.42 135.692 1101.76 136.689C1092.75 150.266 1088.86 166.167 1090.61 182.305C1074.12 180.749 1057.96 185.304 1044.69 195.338C1043.78 196.031 1043.61 197.359 1044.69 198.02ZM1048.32 196.54C1061.26 187.527 1076.57 183.688 1092.35 185.574C1093.11 185.664 1094.01 184.79 1093.91 184.024C1091.84 168.584 1095.02 153.472 1103.11 140.274C1107.95 147.652 1111.77 155.569 1114.26 164.065C1115.64 168.796 1116.66 173.648 1117.22 178.547C1117.49 180.864 1117.66 183.207 1117.76 185.538C1117.77 185.792 1118.14 190.298 1118.5 192.465C1118.3 192.376 1118.05 192.365 1117.82 192.496C1117.68 192.578 1117.54 192.659 1117.39 192.74C1116.95 192.995 1116.83 193.562 1117.06 193.995C1117.17 194.192 1117.28 194.388 1117.38 194.588C1117.45 194.719 1117.55 194.824 1117.66 194.905C1117.24 196.658 1119.77 198.033 1120.53 196.236C1135.38 161.239 1157.91 128.728 1196.26 117.739C1226.74 109.006 1266.6 114.32 1286.38 141.617C1301.88 163.003 1299.32 190.56 1286.46 212.043C1273.49 216.545 1261.05 214.349 1248.63 208.08C1247.38 207.448 1246.47 209.114 1247.56 209.922C1258 217.684 1272.57 218.645 1284.83 214.646C1281.5 219.739 1277.59 224.449 1273.2 228.592C1247.32 252.982 1210.33 258.871 1176.05 256.223C1146.02 253.906 1095.41 242.329 1095.32 203.727C1095.32 202.473 1093.48 202.504 1093.39 203.727C1093.38 203.856 1093.38 203.979 1093.37 204.105C1093.07 203.916 1092.7 203.814 1092.26 203.895C1077.02 206.747 1061.73 204.134 1048.32 196.54Z" fill="white"/>
<path d="M1264.74 158.662C1269.41 158.51 1273.61 164.12 1270.74 168.269C1270.19 169.051 1268.95 168.358 1269.44 167.51C1271.5 163.968 1266.95 159.867 1263.46 161.231C1259.75 162.685 1259.6 166.416 1259.2 169.746C1259.07 170.911 1257.59 171.16 1257.16 170.022C1255.39 165.346 1259.77 158.825 1264.74 158.662Z" fill="white"/>
<path d="M886.554 194.606C882.54 185.933 873.363 181.583 864.009 182.716C856.231 183.658 846.823 188.169 842.951 195.437C843.009 195.031 843.085 194.629 843.122 194.22C844.246 181.596 835.775 168.862 823.808 164.776C808.765 159.638 791.531 168.211 780.639 178.355C768.75 189.423 768.601 204.726 776.441 218.211C766.946 222.286 757.277 225.745 747.327 228.531C746.4 228.791 746.108 229.775 746.492 230.581C748.974 235.8 756.394 234.218 761.023 234.084C770.699 233.806 780.415 233.517 790.079 232.877C798.791 238.775 809.485 241.507 820.322 239.867C827.961 238.71 837.314 235.278 841.89 228.621C842.391 227.891 842.791 227.112 843.145 226.306C843.345 226.611 843.658 226.852 844.112 226.907C863.647 229.237 898.839 221.153 886.554 194.606ZM770.605 231.242C766.72 231.266 754.629 233.304 750.24 230.568C759.667 227.805 768.874 224.477 777.852 220.47C780.583 224.598 783.922 228.214 787.731 231.174C782.02 231.119 776.305 231.208 770.605 231.242ZM841.979 220.352C841.349 229.565 831.874 234.393 823.929 236.461C813.362 239.211 802.28 237.332 793.184 231.777C793.115 231.496 792.895 231.258 792.503 231.247C792.448 231.245 792.39 231.247 792.335 231.245C789.942 229.702 787.691 227.912 785.64 225.865C775.685 215.923 768.782 198.909 777.403 186.083C784.379 175.702 798.566 167.573 810.872 166.175C824.556 164.619 837.275 173.343 840.13 187.007C842.927 200.397 833.282 214.015 820.094 216.941C812.077 218.718 802.348 216.222 799.501 207.608C797.089 200.316 800.128 190.961 806.629 186.77C812.918 182.722 823.682 184.461 825.694 192.609C826.542 196.054 825.455 200.494 822.699 202.861C817.265 207.083 814.142 205.036 813.333 196.726C814.559 194.965 816.143 193.748 818.084 193.071C818.828 192.737 818.3 191.52 817.533 191.761C807.704 194.847 808.552 209.783 819.899 207.08C830.214 204.624 830.934 190.077 822.92 184.661C812.056 177.321 799.264 185.975 796.695 197.411C793.514 211.57 804.78 221.719 818.57 219.801C828.494 218.421 837.259 211.265 841.12 202.087C841.548 208.119 842.386 214.388 841.979 220.352ZM844.112 224.399C844.004 224.399 843.925 224.433 843.834 224.451C846.082 217.033 843.752 207.4 843.216 200.279C845.515 191.032 857.734 185.188 866.628 185.275C877.368 185.38 885.353 193.346 886.249 203.971C887.912 223.672 857.146 224.304 844.112 224.399Z" fill="white"/>
<path d="M869.107 195.338C865.758 194.613 862.919 198.025 863.66 201.186C863.907 202.241 865.388 201.764 865.243 200.751C864.97 198.841 867.098 196.686 869.013 197.641C869.709 197.988 870.226 198.678 870.45 199.413C870.694 200.218 870.392 200.911 870.418 201.719C870.447 202.624 871.495 203.023 872.152 202.435C874.639 200.21 871.679 195.894 869.107 195.338Z" fill="white"/>
<path d="M198.446 313.602C187.939 317.223 187.062 300.29 182.531 295.207C179.484 291.793 174.858 290.243 170.354 290.857C164.764 291.62 162.187 295.375 158.93 299.492C150.496 310.154 139.017 304.378 132.306 295.362C133.344 287.766 131.594 279.867 126.218 272.662C114.574 257.06 93.5445 251.069 75.1868 256.771C66.7604 259.387 59.3138 263.808 52.1903 268.841C50.2492 265.344 43.8559 265.627 41.1005 267.786C37.7568 270.405 37.4993 274.958 39.7136 278.206C32.5113 283.738 25.2486 289.172 17.2136 293.189C16.7303 292.675 16.2496 292.163 15.7689 291.649C15.3854 291.237 14.7603 291.699 15.0676 292.179C15.48 292.819 15.9187 293.452 16.3521 294.084C16.0763 294.958 16.6935 296.042 17.6628 295.952C39.5928 326.241 85.1024 346.079 117.526 319.952C124.899 314.008 130.055 306.186 131.878 297.85C135.637 303.048 140.591 307.456 147.326 307.984C154.41 308.537 158.234 304.609 162.3 299.45C167.887 292.363 177.422 291.019 182.271 300.072C183.973 303.247 184.459 306.963 186.203 310.13C188.856 314.945 194.062 318.784 199.51 316.155C201.114 315.381 200.137 313.019 198.446 313.602ZM42.6686 269.406C44.0634 268.466 45.902 268.264 47.5201 268.637C48.6706 268.902 49.4612 269.581 50.3437 270.18C47.0762 272.552 43.8638 275.018 40.6487 277.49C39.5219 274.758 40.1733 271.085 42.6686 269.406ZM21.9941 294.871C21.5923 294.701 21.1799 294.564 20.7543 294.501C21.3191 294.21 21.8891 293.929 22.4459 293.628C22.3487 294.061 22.2069 294.475 21.9941 294.871ZM78.5384 329.112C55.6339 328.12 38.2742 314.599 22.9844 299.175C23.4441 299.227 23.9379 298.981 24.0587 298.369C24.282 297.238 24.5079 296.115 24.7206 294.984C24.9334 294.344 25.0253 293.701 25.0647 292.998C25.0752 292.927 25.0962 292.819 25.0962 292.819L25.0752 292.817C25.0647 292.814 25.1041 292.56 25.1041 292.444C25.1041 292.342 25.07 292.245 25.0489 292.158C40.6829 282.982 53.6034 269.492 70.2907 262.127C81.3148 257.262 93.3922 256.272 104.784 260.563C116.903 265.128 128.873 276.086 129.895 289.707C131.849 315.832 100.306 330.054 78.5384 329.112Z" fill="white"/>
<path d="M33.7563 290.641C31.8783 290.494 30.41 292.268 30.7357 294.076C30.8933 294.96 32.0832 294.748 32.0832 293.895C32.0832 293.223 32.8869 292.483 33.5725 292.612C34.5102 292.79 34.3578 293.756 34.4235 294.444C34.5023 295.278 35.7421 295.661 36.228 294.934C37.3864 293.205 35.6554 290.794 33.7563 290.641Z" fill="white"/>
<path d="M64.1495 279.875C58.8148 276.209 51.0845 277.92 47.8983 283.486C47.6567 283.908 47.943 284.32 48.3291 284.488C48.2135 284.793 48.2109 285.155 48.4368 285.53C52.4425 292.192 57.8324 298.319 62.5184 304.522C62.9833 305.136 64.0208 305.194 64.4884 304.538C69.1244 297.996 72.1162 285.351 64.1495 279.875ZM63.4482 301.583C59.1904 295.737 55.0901 289.458 50.2177 284.178C50.0207 283.963 49.8 283.861 49.5794 283.811C52.6263 279.791 59.0617 278.547 63.1593 281.869C68.8775 286.503 66.8471 295.884 63.4482 301.583Z" fill="white"/>
<path d="M1736.79 0.173282C1727.08 5.67319 1721.08 16.0013 1721.49 27.0903C1711.32 26.3661 1700.43 25.8911 1690.04 27.4235C1690.17 26.9066 1689.97 26.3083 1689.34 26.1955C1681.65 24.8415 1656.46 26.1561 1661.88 39.6724C1651.42 49.1739 1642.03 66.4791 1651.22 79.0691C1662.54 94.5927 1684.43 85.5504 1696.54 76.4136C1710.74 65.7051 1722.27 48.6727 1724.55 30.7534C1734.41 34.1016 1744.5 29.5122 1753.67 25.2955C1754.75 24.8021 1754.36 23.0992 1753.31 22.8683C1747.56 21.6192 1741.81 20.3728 1736.06 19.1264C1739.25 13.5163 1740.14 7.40765 1738.8 0.970978C1738.62 0.0866897 1737.51 -0.230814 1736.79 0.173282ZM1675.76 28.2501C1679.17 27.909 1682.55 28.0454 1685.95 28.1373C1678.62 29.6408 1671.62 32.2937 1665.42 36.7807C1664.62 37.3606 1663.82 37.9982 1663.01 38.6805C1661.8 31.8397 1670.04 28.8221 1675.76 28.2501ZM1699.93 70.1081C1688.89 80.0505 1662.77 94.7134 1652.41 75.7235C1643.48 59.3602 1662.31 39.8088 1676.09 34.0386C1690.54 27.9929 1706.55 29.0609 1721.83 29.8035C1722.06 30.2076 1722.48 30.4228 1722.9 30.4831C1718.45 45.7443 1712.01 59.2264 1699.93 70.1081ZM1732.78 19.4046C1732.31 20.1262 1732.85 21.1732 1733.65 21.3463C1738.81 22.4563 1743.97 23.5689 1749.12 24.6788C1741.47 28.5046 1732.73 31.5852 1724.44 28.9979C1724.42 28.9848 1724.4 28.9769 1724.38 28.9638C1723.6 18.6515 1727.94 9.22871 1736.48 3.56087C1737.25 9.23396 1735.99 14.4951 1732.78 19.4046Z" fill="white"/>
<path d="M1659.89 60.7535C1658.12 60.3756 1656.13 60.8007 1654.97 62.2649C1653.03 64.7026 1654.67 69.4468 1658.12 69.0873C1659.19 68.9771 1659.19 67.3765 1658.09 67.3948C1656.24 67.4263 1655.57 64.4559 1656.97 63.4326C1657.77 62.8448 1658.89 62.8894 1659.78 63.2227C1660.88 63.6346 1661.43 64.5793 1662.39 65.1697C1663.02 65.558 1664.04 65.0017 1663.94 64.2277C1663.7 62.3541 1661.61 61.1235 1659.89 60.7535Z" fill="white"/>
<path d="M1694.58 43.7367C1692.17 41.9786 1689.71 39.68 1687.08 38.284C1686.06 37.7434 1685.04 37.2737 1683.97 38.0636C1682.51 39.1368 1682.27 42.0153 1681.78 43.553C1680.85 46.5076 1679.85 49.4491 1679.04 52.4378C1679.02 52.4221 1679 52.4037 1678.98 52.388C1678.3 51.8028 1677.37 52.7553 1678.01 53.4035C1680.8 56.2321 1683.74 58.9296 1686.49 61.795C1686.98 62.3067 1687.84 62.1178 1688.17 61.5326C1689.86 58.515 1691.98 55.8464 1694.82 53.8391C1696.24 52.8393 1698.92 52.2122 1699.77 50.5276C1701.29 47.4942 1696.36 45.0303 1694.58 43.7367ZM1696.23 50.2993C1695.26 51.2885 1693.56 51.8684 1692.44 52.7763C1690.16 54.6184 1688.35 56.8409 1686.93 59.3652C1684.81 57.5546 1682.74 55.6811 1680.65 53.8391C1680.89 53.7079 1681.11 53.4927 1681.22 53.1699C1682.5 49.6302 1683.12 45.5656 1684.73 42.1728C1684.87 41.4275 1685.27 40.8345 1685.94 40.3937C1686.3 40.6535 1686.65 40.9106 1687.01 41.1704C1687.62 41.4197 1688.24 41.9865 1688.8 42.443C1687.77 43.5451 1686.8 44.7102 1685.79 45.8175C1685.29 46.358 1686.08 47.119 1686.61 46.6047C1687.72 45.5079 1688.9 44.4451 1689.99 43.3247C1691.33 44.2877 1692.66 45.2481 1693.99 46.2085C1695.59 47.3499 1698.08 48.4179 1696.23 50.2993Z" fill="white"/>
<path d="M1692.18 45.5976C1690.81 47.3137 1689.75 49.3341 1688.58 51.1893C1688.25 51.7115 1689.07 52.1208 1689.41 51.638C1690.66 49.8878 1692.11 48.1927 1693.16 46.3165C1693.49 45.7288 1692.62 45.0465 1692.18 45.5976Z" fill="white"/>
<path d="M583.426 92.2882C591.285 88.7878 596.525 79.2128 597.379 71.1178C598.153 63.7653 594.778 51.813 586.189 51.876C591.555 37.4125 593.399 19.0314 575.351 13.0093C560.674 8.11292 536.072 17.5147 532.868 33.9908C523.992 24.833 507.849 25.489 499.383 35.0115C491.897 43.432 493.307 56.3132 502.075 62.6501C495.091 63.7234 487.797 65.6494 483.035 71.0522C477.261 77.6017 477.392 88.6645 479.465 96.6651C481.732 105.416 489.428 108.909 497.523 111.052C502.39 112.341 508.059 113.558 512.768 111.966C510.641 116.752 512.306 123.768 516.117 126.789C521.313 130.906 528.883 128.977 532.6 124.057C530.049 139.838 526.656 155.419 523.023 171.027C522.839 171.819 523.711 172.21 524.242 171.869C525.453 174.406 528.053 176.08 531.019 175.052C536.485 173.157 536.337 162.354 537.283 157.697C539.29 147.796 541.023 137.838 542.481 127.843C542.747 126.033 543.049 124.18 543.356 122.312C552.928 135.6 572.948 140.003 585.853 128.743C596.136 119.772 600.373 95.6679 583.426 92.2882ZM533.474 162.15C533.109 163.868 532.734 165.584 532.353 167.301C532.463 170.544 530.59 171.646 526.729 170.604C526.438 169.851 525.731 169.589 525.095 169.675C528.479 158.368 531.092 146.791 533.317 135.212C534.488 129.111 535.529 122.989 536.427 116.844C536.81 114.209 537.173 111.572 537.509 108.932C537.919 105.734 536.858 101.54 540.74 100.769C543.175 99.2287 543.85 99.8611 542.765 102.669C542.589 104.416 542.405 106.164 542.213 107.912C541.84 111.278 541.438 114.642 541.008 118.003C540.225 124.102 539.329 130.187 538.339 136.256C537.349 142.325 536.256 148.376 535.064 154.409C534.551 156.991 534.021 159.573 533.474 162.15ZM579.326 129.528C566.694 136.143 552.838 129.539 544.506 119.481C544.325 119.26 544.105 119.163 543.879 119.121C544.924 112.74 545.906 106.195 545.841 100.003C545.809 97.1243 544.803 94.6446 541.402 94.7968C534.389 95.1143 535.095 106.397 534.522 110.887C534.168 113.671 533.774 116.445 533.359 119.213C533.256 119.3 533.167 119.405 533.115 119.562C530.958 126.007 521.518 129.486 516.687 123.745C512.645 118.94 514.909 113.645 518.132 109.342C518.453 108.914 518.342 108.51 518.061 108.224C518.355 107.57 517.557 106.828 516.971 107.421C516.616 107.78 516.241 108.095 515.86 108.386C515.597 108.547 515.353 108.717 515.117 108.901C510.176 112.005 503.465 110.294 498.101 108.817C489.504 106.45 482.675 102.632 481.38 93.0544C480.308 85.1378 480.502 75.8541 487.376 70.6192C492.632 66.6176 499.562 65.5103 505.955 64.7205C507.076 64.5814 507.883 62.8863 506.585 62.2959C495.309 57.1686 494.203 42.7707 503.312 34.9459C512.663 26.9139 524.139 30.0469 532.786 37.2157C533.897 38.1367 535.195 36.7644 534.336 35.657C534.302 35.6124 534.26 35.5757 534.226 35.5311C537.764 20.4903 559.584 11.309 573.67 15.3657C591.574 20.5218 588.135 39.7059 582.714 52.9046C582.254 54.025 583.032 55.3712 584.363 55.0222C586.509 55.7018 588.653 56.3814 590.799 57.0584C592.036 58.3022 592.884 59.748 593.352 61.3959C594.019 63.1408 594.424 64.9566 594.55 66.8249C594.794 70.4408 594.15 73.9727 592.811 77.3235C590.063 84.201 585.249 87.5073 579.228 91.2465C578.078 91.9602 578.858 93.616 580.129 93.3562C580.353 93.3116 580.565 93.2381 580.786 93.1804C580.87 93.2853 580.972 93.3798 581.112 93.4297C598.899 99.8007 593.113 122.307 579.326 129.528Z" fill="white"/>
<path d="M574.918 111.189C573.019 108.864 569.712 108.053 566.878 108.806C566.802 108.748 566.707 108.704 566.594 108.675C561.627 107.439 558.126 112.821 559.788 117.227C561.53 121.842 567.976 124.988 572.488 122.435C576.287 120.284 577.757 114.663 574.918 111.189ZM572.299 119.748C569.673 122.286 565.341 120.937 563.085 118.554C561.835 117.234 560.921 115.329 561.383 113.477C561.716 112.136 562.675 110.984 563.894 110.415C563.592 110.693 563.306 110.989 563.059 111.33C562.323 112.335 563.889 113.385 564.729 112.606C566.765 110.722 569.812 110.039 572.226 111.766C574.902 113.682 574.493 117.628 572.299 119.748Z" fill="white"/>
<path d="M567.337 75.7676C564.973 73.8442 560.345 74.2011 558.68 76.8119C556.576 78.2656 555.473 81.3672 556.203 83.7734C557.498 88.0479 563.329 89.0057 566.694 86.707C570.201 84.3113 570.705 78.507 567.337 75.7676ZM564.984 85.2192C562.575 86.5575 558.714 85.7624 557.931 82.8366C557.598 81.5955 557.868 80.4147 558.486 79.4438C558.824 79.5698 559.276 79.47 559.51 79.1525C560.08 78.3837 560.857 77.6884 561.716 77.2292C561.753 77.2213 561.79 77.2055 561.827 77.1977C561.969 77.1714 562.063 77.1084 562.134 77.0297C563.518 76.4367 565.065 76.4839 566.308 77.8064C568.333 79.9607 567.469 83.839 564.984 85.2192Z" fill="white"/>
<path d="M587.437 63.4246C585.233 61.5957 580.458 60.8715 578.966 64.0124C578.895 64.1646 578.874 64.3063 578.871 64.4401C576.959 65.3507 575.774 67.9458 576.704 70.1972C578.362 74.2093 583.384 74.8784 586.667 72.5142C589.711 70.3231 590.497 65.9673 587.437 63.4246ZM586.943 69.1791C585.966 71.0841 583.56 72.2912 581.453 71.8844C580.066 71.6168 578.897 70.6695 578.348 69.3733C577.482 67.3239 579.389 64.671 581.766 65.8466C582.491 66.2061 583.066 65.2064 582.391 64.7603C582.086 64.5582 581.781 64.4244 581.479 64.3168C582.59 63.7474 583.736 63.6608 585.099 64.3011C587.006 65.1958 587.944 67.2268 586.943 69.1791Z" fill="white"/>
<path d="M572.654 39.3645C569.423 33.2374 561.073 36.2341 557.149 39.9365C556.862 40.2068 556.812 40.5217 556.894 40.8077C555.412 42.2456 554.517 44.3685 554.661 46.8403C555.008 52.9017 561.756 56.1056 567.106 54.0195C572.515 51.9072 575.396 44.5626 572.654 39.3645ZM567.708 51.1751C564.178 53.6338 558.278 52.4792 556.883 48.0893C556.032 45.4181 556.988 42.7101 558.866 41.1567C559.415 40.8575 560.009 40.5164 560.629 40.1674C561.8 39.7528 563.14 39.7004 564.545 40.1937C564.952 40.338 565.239 39.6531 564.837 39.4826C564.22 39.2202 563.602 39.0496 562.996 38.9473C565.354 37.8845 567.837 37.3807 569.799 39.2674C573.129 42.4713 571.025 48.8607 567.708 51.1751Z" fill="white"/>
<path d="M565.514 19.3592C562.659 16.5148 556.731 18.5117 554.522 21.2984C554.222 21.6762 554.333 22.3138 554.708 22.5369C553.453 23.946 553.201 26.2341 554.099 28.0105C555.967 31.7025 560.907 31.0465 563.699 28.9027C566.436 26.8061 568.349 22.1853 565.514 19.3592ZM563.326 26.4939C561.745 28.2625 558.157 29.8395 556.164 27.777C554.716 26.284 554.955 22.9856 557.185 22.4345C557.682 22.3112 557.69 21.7995 557.427 21.5083C558.822 20.7316 560.209 19.9444 561.884 19.9654C565.743 20.0152 565.202 24.3973 563.326 26.4939Z" fill="white"/>
<path d="M546.529 39.6584C544.801 37.3624 540.829 36.5857 538.363 38.1601C535.437 38.7032 533.493 41.9491 534.375 45.1766C535.479 49.2045 540.32 51.2512 544.057 49.5167C547.677 47.8374 548.93 42.8518 546.529 39.6584ZM543.619 47.4674C541.481 48.7873 538.242 48.084 536.816 46.0321C535.657 44.3711 535.791 42.1328 536.831 40.6843C537.076 41.0438 537.63 41.1777 538.071 40.8339C538.927 40.1648 539.941 39.6479 540.976 39.4432C541.118 39.4694 541.236 39.4406 541.326 39.3697C542.468 39.228 543.616 39.514 544.591 40.4954C546.516 42.4345 545.88 46.0714 543.619 47.4674Z" fill="white"/>
<path d="M537.112 63.5427C533.761 59.2341 526.897 59.0268 522.826 62.4118C522.377 62.7844 522.561 63.4666 522.973 63.7789C521.618 65.8676 521.56 68.8406 522.923 71.3019C525.195 75.4085 530.777 77.1219 535.008 75.0621C539.482 72.8842 540.012 67.2688 537.112 63.5427ZM534.609 72.7687C532.405 74.2749 529.088 74.0256 526.882 72.6874C523.556 70.6669 522.542 65.5527 525.421 63.2279C528.082 62.2439 530.84 61.6456 533.519 63.2593C536.787 65.2247 538.137 70.3573 534.609 72.7687Z" fill="white"/>
<path d="M517.489 42.5611C514.933 39.8872 510.095 39.4569 507.439 42.178C506.79 42.8418 507.66 44.0751 508.469 43.5031C509.096 43.0596 509.785 42.7395 510.499 42.527C507.843 43.755 506.935 47.195 507.988 49.8873C509.335 53.3273 513.441 53.8757 516.238 51.8159C519.193 49.6406 520.163 45.3556 517.489 42.5611ZM515.676 49.9214C513.719 51.8133 510.457 51.9025 509.338 49.0896C508.471 46.9117 509.178 43.9806 511.539 43.1488C511.962 42.9993 511.952 42.4981 511.684 42.2908C512.926 42.1727 514.189 42.4299 515.314 43.1777C517.785 44.8177 517.722 47.9429 515.676 49.9214Z" fill="white"/>
<path d="M508.897 78.4176C505.293 76.7041 499.16 77.5412 498.009 81.9915C497.98 82.0991 497.983 82.204 497.999 82.3037C497.032 84.9724 497.597 88.2392 499.428 90.488C502.658 94.466 508.306 93.4007 511.171 89.5959C513.979 85.8619 513.325 80.5221 508.897 78.4176ZM509.693 87.9506C507.812 90.8396 503.804 92.2618 501.124 89.5407C499.33 87.7197 498.85 85.038 499.535 82.6895C501.574 80.3961 504.24 79.092 507.347 80.1967C510.704 81.3906 511.581 85.0511 509.693 87.9506Z" fill="white"/>
<path d="M346.818 54.1549C334.602 50.2845 321.053 52.0924 310.037 58.348C311.337 50.6649 313.255 30.1085 301.802 29.6283C292.738 29.2478 292.336 38.7047 293.676 45.6846C290.072 43.504 285.756 42.3127 282.52 45.8315C278.278 50.4471 281.162 56.157 284.466 60.3895C280.377 60.4105 275.898 59.5498 272.765 62.6277C270.965 64.3989 270.004 66.9049 271.401 69.2166C273.411 72.5438 279.878 73.2156 283.25 73.4832C287.889 73.8506 292.357 73.1946 296.636 71.6281C279.725 98.1436 318.075 135.273 345.723 128.346C349.558 127.385 353.025 125.709 356.101 123.507C356.511 135.347 359.671 152.235 374.073 153.303C383.878 154.03 385.942 144.995 383.161 137.818C386.948 139.485 391.164 139.653 393.93 135.717C397.04 131.29 394.392 125.787 390.66 122.326C397.686 122.607 403.536 115.381 399.344 108.186C394.482 99.8413 379.41 100.35 370.448 102.573C371.617 98.6841 372.271 94.6563 372.342 90.6914C372.652 73.722 363.203 59.3451 346.818 54.1549ZM280.684 70.4158C279.147 70.1586 277.645 69.7545 276.179 69.2035C274.656 63.9765 276.342 62.0032 281.241 63.2837C283.447 63.2549 285.299 63.4595 287.527 63.0607C288.485 62.8901 289.36 61.6621 288.569 60.7752C287.513 59.6495 286.52 58.4687 285.596 57.2328C281.745 52.7221 282.129 49.9171 286.744 48.8203C290.931 46.5689 291.931 47.7156 295.223 50.5127C296.397 51.5125 298.044 50.1979 297.587 48.8229C296.355 45.1257 294.595 40.5914 296.297 36.7262L298.582 33.7532C304.245 32.6013 307.108 34.8002 307.171 40.35C308.356 46.2828 307.775 52.5122 306.898 58.432C306.798 59.1011 307.085 59.5892 307.513 59.8752C303.791 62.3129 300.416 65.2832 297.563 68.7469C297.453 68.8807 297.374 69.0198 297.313 69.1589C291.887 70.8409 286.36 71.5074 280.684 70.4158ZM298.921 71.3263C299.312 71.3132 299.712 71.1505 300.045 70.7726C311.902 57.2958 331.405 51.4469 348.442 58.2037C349.314 58.55 350.151 58.9331 350.968 59.3372C339.753 59.6443 327.525 65.8605 318.429 71.8878C310.195 77.3431 300.121 85.0971 297.529 95.1575C294.794 87.4114 294.713 79.0828 298.921 71.3263ZM298.414 97.4561C298.58 97.3485 298.719 97.1884 298.787 96.9575C301.934 86.0889 313.509 77.8863 322.871 72.4074C332.464 66.7947 342.303 65.0838 352.589 61.5572C353.096 61.384 353.319 61.0192 353.338 60.6335C359.368 64.2756 363.671 69.5813 366.229 75.6848C366.116 75.6375 366.009 75.5903 365.869 75.5772C349.97 74.155 333.238 81.4891 321.631 92.0034C316.126 96.989 310.906 103.163 307.957 110.057C307.81 110.403 307.673 110.799 307.557 111.216C303.741 107.144 300.542 102.45 298.414 97.4561ZM385.995 104.462C388.585 104.693 391.479 105.063 393.736 106.449C402.068 111.563 397.051 123.127 387.689 120.141C387.581 120.08 387.474 120.009 387.363 119.954C386.497 119.506 385.548 120.681 386.147 121.439C388.858 124.877 394.206 128.034 392.433 133.232C390.728 138.225 385.68 137.081 381.763 135.021C381.007 133.814 380.098 132.723 379.047 131.83C378.32 131.214 377.356 131.941 377.445 132.733C377.106 132.98 376.957 133.512 377.358 133.898C377.879 134.394 378.456 134.893 379.082 135.373C381.059 138.48 382.265 141.434 381.012 145.404C380.939 148.74 379.055 149.947 375.368 149.026C372.998 150.348 370.902 150.267 369.077 148.784C366.815 147.656 364.976 145.79 363.534 143.741C359.093 137.433 358.546 129.558 357.961 122.09C363.201 117.75 367.122 111.804 369.539 105.302C375.039 105.084 380.434 103.969 385.995 104.462ZM364.9 107.923C357.84 122.332 343.85 128.026 329.926 124.838C330.013 124.649 330.021 124.428 329.874 124.231C328.245 122.064 335.613 113.515 337.063 111.77C339.863 108.409 343.031 105.341 346.487 102.659C353.143 97.4954 360.469 94.9607 368.047 91.6387C369.2 91.1323 368.893 89.2167 367.527 89.403C357.144 90.8279 346.892 97.9205 339.663 105.21C336.929 107.965 325.663 119.639 328.458 124.468C325.385 123.625 322.322 122.355 319.354 120.642C315.942 118.671 312.645 116.181 309.643 113.316C309.898 110.573 317.358 100.133 318.455 98.9098C322.414 94.5041 327.026 90.7098 332.067 87.5977C342.584 81.1033 353.648 78.9412 365.793 78.2274C366.363 78.1933 366.728 77.8207 366.881 77.3641C370.324 86.9391 369.673 98.1856 364.9 107.923Z" fill="white"/>
</g>
</svg>
