<svg width="173" height="48" viewBox="0 0 173 48" fill="none" xmlns="http://www.w3.org/2000/svg">
<path d="M27.5187 40.5196C25.0838 37.1469 23.005 34.1775 20.1137 31.3475C15.7535 27.0795 9.62688 22.7489 10.311 15.8417C11.0889 7.99183 20.0013 4.63109 25.5891 10.3724C26.3311 11.1348 26.9379 11.9676 27.5187 12.8575C29.1655 10.3891 31.3967 8.04029 34.4877 7.58933C42.9147 6.35992 47.3478 15.725 43.3035 22.4079L42.8017 23.1633C43.7121 18.1634 41.7442 11.9547 36.2936 10.6541C32.6553 9.78575 29.6466 11.8575 27.5637 14.6316C27.5021 14.6447 27.4799 14.5925 27.4449 14.5592C27.1839 14.3129 26.8956 13.8391 26.6308 13.5478C23.8728 10.5157 20.2757 9.43695 16.5486 11.5677C13.8819 13.0922 12.7827 15.7804 13.1315 18.7936C13.3338 20.5414 13.8945 21.6885 14.9613 23.0311C25.4569 36.242 24.3982 35.9872 27.5187 40.5193" fill="url(#paint0_linear_593_9251)"/>
<path d="M38.3699 39.0366C38.1181 38.6877 37.903 38.3806 37.604 38.0878C37.153 37.6464 36.5192 37.1984 36.59 36.4839C36.6705 35.672 37.5923 35.3243 38.1703 35.9182C38.2471 35.9971 38.3098 36.0832 38.3699 36.1753C38.5403 35.9199 38.7711 35.677 39.0908 35.6303C39.9625 35.5032 40.421 36.4719 40.0027 37.1631L39.9508 37.2413C40.0449 36.7241 39.8414 36.0819 39.2776 35.9473C38.9012 35.8575 38.59 36.0718 38.3746 36.3588C38.3682 36.3601 38.3659 36.3547 38.3623 36.3513C38.3353 36.3258 38.3055 36.2768 38.2781 36.2467C37.9928 35.933 37.6207 35.8214 37.2352 36.0418C36.9594 36.1995 36.8457 36.4776 36.8817 36.7893C36.9027 36.9701 36.9607 37.0887 37.071 37.2276C38.1567 38.5941 38.0471 38.5678 38.3699 39.0366Z" fill="url(#paint1_linear_593_9251)"/>
<path d="M40.2412 36.0099C39.8349 35.8684 39.4826 35.74 39.0698 35.6716C38.4471 35.5684 37.6711 35.5646 37.3195 34.9386C36.92 34.2272 37.4761 33.4139 38.2901 33.5692C38.3982 33.5898 38.499 33.6244 38.601 33.6654C38.5943 33.3585 38.6441 33.0271 38.8793 32.8056C39.5207 32.2018 40.4517 32.7326 40.5052 33.5389L40.5075 33.6327C40.2881 33.1549 39.7532 32.7454 39.2141 32.9583C38.8543 33.1004 38.7221 33.4544 38.71 33.8131C38.7056 33.8178 38.7006 33.8147 38.6957 33.814C38.659 33.8086 38.6064 33.7855 38.5667 33.7765C38.1532 33.6831 37.7843 33.8049 37.5948 34.2065C37.4591 34.4938 37.5254 34.7869 37.7336 35.0216C37.8544 35.1577 37.9699 35.2217 38.14 35.2722C39.8129 35.7696 39.708 35.8108 40.2412 36.0099Z" fill="url(#paint2_linear_593_9251)"/>
<path d="M39.7087 32.5643C39.4672 32.6208 39.256 32.667 39.0339 32.7611C38.6989 32.903 38.3199 33.1407 37.9555 32.9444C37.5414 32.7213 37.5612 32.1537 38.0054 31.9781C38.0644 31.9547 38.1242 31.9405 38.1865 31.929C38.0885 31.7816 38.0105 31.6049 38.0567 31.4245C38.1826 30.9325 38.7997 30.9037 39.0746 31.2797L39.1046 31.3247C38.8504 31.1597 38.4635 31.1254 38.2668 31.3955C38.1354 31.5758 38.1803 31.7889 38.2852 31.9672C38.2845 31.9709 38.2811 31.9709 38.2784 31.9721C38.2589 31.9808 38.2262 31.9858 38.2041 31.9937C37.9739 32.0758 37.8319 32.249 37.8636 32.503C37.8862 32.6847 38.0089 32.807 38.1827 32.857C38.2835 32.886 38.3595 32.8815 38.4579 32.8536C39.4259 32.5795 39.3876 32.6319 39.7087 32.5643Z" fill="url(#paint3_linear_593_9251)"/>
<path d="M40.7133 28.2073C40.6836 28.2073 40.6541 28.2082 40.6246 28.21H35.709C35.709 28.21 39.5117 28.1417 41.5905 25.8621C43.6692 23.5827 41.6354 20.4359 38.5963 21.4C35.5569 22.3644 33.8949 27.3419 33.8949 27.3419C31.9367 23.729 30.505 23.5938 30.505 23.5938C29.0818 23.238 27.3471 24.7614 28.6475 26.4108C29.9481 28.0602 32.4455 28.21 32.4455 28.21H27.0964C27.0672 28.2082 27.0374 28.2073 27.0077 28.2073C26.1481 28.2073 25.4514 28.9041 25.4514 29.7637C25.4514 30.6233 26.1472 31.3188 27.0062 31.3197V37.0529C27.0062 38.3217 28.0348 39.3503 29.3036 39.3503H38.439C39.6953 39.3503 40.7133 38.3319 40.7133 37.0759V31.3197C41.5726 31.3197 42.2694 30.623 42.2694 29.7637C42.2694 28.9044 41.5726 28.2073 40.7133 28.2073ZM33.0257 38.4799H29.2905C28.5094 38.4799 27.8763 37.8468 27.8763 37.0657V31.3223H33.0257V38.4799ZM33.0257 30.4519H27.0062C26.6279 30.4505 26.3218 30.1434 26.3218 29.7648C26.3218 29.3863 26.6279 29.0792 27.0062 29.0777H27.0088C27.0287 29.0777 27.0482 29.0786 27.0675 29.0804H33.0257V30.4519ZM29.7517 25.1788C30.9192 23.811 33.3375 27.1755 33.606 27.8477C33.606 27.8477 28.8343 27.0634 29.7517 25.1788ZM34.4767 27.6312C34.4767 27.6312 38.6953 21.1589 40.3021 23.5553C41.5516 25.9041 35.1457 27.6764 34.4767 27.6312ZM39.8429 37.0672C39.8429 37.8474 39.2104 38.4799 38.4302 38.4799H34.6938V31.3223H39.8429V37.0672ZM40.7227 30.4519H34.6938V29.0804H40.6558C40.6748 29.0786 40.6941 29.0777 40.7133 29.0777H40.7145C41.1658 29.0777 41.5157 29.5129 41.3669 29.9867C41.286 30.2438 40.9921 30.4519 40.7227 30.4519Z" fill="url(#paint4_linear_593_9251)"/>
<path d="M147.757 26.9603C147.757 22.5909 150.3 18.9135 154.819 18.9135C159.338 18.9135 161.881 22.5941 161.881 26.9603C161.881 31.3265 159.338 35.007 154.819 35.007C150.3 35.007 147.757 31.3265 147.757 26.9603ZM148.894 26.9603C148.894 30.6408 150.957 34.0222 154.819 34.0222C158.68 34.0222 160.743 30.6408 160.743 26.9603C160.743 23.2797 158.68 19.8983 154.819 19.8983C150.957 19.8983 148.894 23.2797 148.894 26.9603Z" fill="#A85AE3"/>
<path d="M141.287 19.2719V22.6813H141.377C141.975 20.6774 144.487 19.06 147.27 19.1815V20.319C146.074 20.1694 144.397 20.4686 143.023 21.8149C141.885 22.9805 141.408 23.9404 141.287 26.2435V34.6517H140.149V19.275H141.287V19.2719Z" fill="#A85AE3"/>
<path d="M123.996 14.4257V23.9996H131.507C135.365 23.9996 136.684 21.4565 136.684 19.2438C136.684 17.6575 135.967 14.4257 131.688 14.4257H123.996ZM122.681 34.6486V13.2882H131.775C134.2 13.2882 137.999 14.1546 137.999 19.2719C137.999 23.0117 135.546 25.1371 131.298 25.1371H123.999V34.6517H122.684L122.681 34.6486Z" fill="#A85AE3"/>
<path d="M119.172 23.0428V34.6798H115.613L115.283 32.3767C114.326 33.4238 113.338 34.1406 112.381 34.5302C111.424 34.9478 110.197 35.1286 108.701 35.1286C105.678 35.1286 103.256 34.1406 101.43 32.1367C99.5755 30.1609 98.678 27.5306 98.678 24.2396C98.678 20.9485 99.6659 18.1063 101.639 16.012C103.614 13.9177 106.217 12.8706 109.477 12.8706C112.079 12.8706 114.232 13.5594 115.909 14.8745C117.586 16.2208 118.571 18.1344 118.87 20.6182H113.484C112.886 18.5831 111.54 17.5952 109.386 17.5952C108.189 17.5952 107.174 17.8944 106.394 18.552C105.615 19.2095 105.079 19.9887 104.78 20.9454C104.481 21.8741 104.331 22.9213 104.331 24.0869C104.331 26.0627 104.749 27.677 105.587 28.8738C106.426 30.1017 107.8 30.7 109.685 30.7C110.973 30.7 111.96 30.432 112.618 29.8337C113.276 29.2353 113.784 28.3066 114.083 27.0506H110.225V23.0428H119.172Z" fill="url(#paint5_linear_593_9251)"/>
<path d="M96.7551 13.3474L88.8579 21.6934L97.743 34.6486H90.8307L85.087 25.7043L82.8119 28.0666V34.6486H77.3082V13.3474H82.7527V21.4846L89.8739 13.3474H96.7551Z" fill="url(#paint6_linear_593_9251)"/>
<path d="M54.6078 34.6486V13.3755H63.7329C67.0239 13.3755 69.567 14.273 71.4213 16.1273C73.2756 17.9816 74.2043 20.5559 74.2043 23.9061C74.2043 27.4651 73.2756 30.1578 71.4805 31.9529C69.6542 33.748 66.9616 34.6455 63.4337 34.6455H54.6078V34.6486ZM60.1427 30.0425H63.1938C66.784 30.0425 68.6102 28.0386 68.6102 24.0588C68.6102 22.1141 68.1022 20.6182 67.1143 19.5711C66.1264 18.4927 64.6897 17.9848 62.8073 17.9848H60.1458V30.0425H60.1427Z" fill="url(#paint7_linear_593_9251)"/>
<defs>
<linearGradient id="paint0_linear_593_9251" x1="44.818" y1="23.9122" x2="10.2584" y2="23.9122" gradientUnits="userSpaceOnUse">
<stop stop-color="#B15CDE"/>
<stop offset="1" stop-color="#EC4899"/>
</linearGradient>
<linearGradient id="paint1_linear_593_9251" x1="42.4376" y1="30.2379" x2="25.4514" y2="30.2379" gradientUnits="userSpaceOnUse">
<stop stop-color="#B15CDE"/>
<stop offset="1" stop-color="#EC4899"/>
</linearGradient>
<linearGradient id="paint2_linear_593_9251" x1="42.4376" y1="30.2379" x2="25.4514" y2="30.2379" gradientUnits="userSpaceOnUse">
<stop stop-color="#B15CDE"/>
<stop offset="1" stop-color="#EC4899"/>
</linearGradient>
<linearGradient id="paint3_linear_593_9251" x1="42.4376" y1="30.2379" x2="25.4514" y2="30.2379" gradientUnits="userSpaceOnUse">
<stop stop-color="#B15CDE"/>
<stop offset="1" stop-color="#EC4899"/>
</linearGradient>
<linearGradient id="paint4_linear_593_9251" x1="42.4376" y1="30.2379" x2="25.4514" y2="30.2379" gradientUnits="userSpaceOnUse">
<stop stop-color="#B15CDE"/>
<stop offset="1" stop-color="#EC4899"/>
</linearGradient>
<linearGradient id="paint5_linear_593_9251" x1="119.172" y1="23.9407" x2="54.6078" y2="23.9407" gradientUnits="userSpaceOnUse">
<stop stop-color="#B15CDE"/>
<stop offset="1" stop-color="#EC4899"/>
</linearGradient>
<linearGradient id="paint6_linear_593_9251" x1="119.172" y1="23.9407" x2="54.6078" y2="23.9407" gradientUnits="userSpaceOnUse">
<stop stop-color="#B15CDE"/>
<stop offset="1" stop-color="#EC4899"/>
</linearGradient>
<linearGradient id="paint7_linear_593_9251" x1="119.172" y1="23.9407" x2="54.6078" y2="23.9407" gradientUnits="userSpaceOnUse">
<stop stop-color="#B15CDE"/>
<stop offset="1" stop-color="#EC4899"/>
</linearGradient>
</defs>
</svg>
