<svg width="299" height="525" viewBox="0 0 299 525" fill="none" xmlns="http://www.w3.org/2000/svg">
<path d="M89.1006 232.93C102.609 237.132 116.459 250.499 116.459 250.499C116.459 250.499 99.1008 246.751 89.1006 232.93Z" fill="#BABABA"/>
<path d="M106.861 221.818C106.861 221.818 96.8941 242.809 84.5982 255.232C79.3697 260.517 86.4567 278.659 102.393 263.771C113.265 253.616 122.357 236.06 122.357 236.06L106.861 221.818Z" fill="#F4BD98"/>
<path d="M109.308 223.197C107.585 226.705 98.431 244.776 87.3647 255.961C84.5192 258.838 85.3285 265.516 89.2232 268.612C83.3206 266.782 81.5834 258.079 84.9478 254.681C97.2437 242.255 107.21 221.268 107.21 221.268L109.308 223.197Z" fill="#FFCFAE"/>
<path d="M116.459 250.502C116.459 250.502 102.609 237.131 89.1006 232.932C89.1006 232.932 116.016 194.127 130.774 198.721C144.381 202.951 131.566 233.042 116.459 250.502Z" fill="#EAEAEA"/>
<path opacity="0.4" d="M129.166 231.7C129.093 231.381 129.9 229.771 129.795 229.449C127.903 223.645 121.614 220.915 116.092 219.759C107.793 218.022 95.9789 227.87 92.1717 234.04C91.1508 233.626 90.1243 233.251 89.1006 232.932C89.1006 232.932 114.2 196.166 129.389 198.419C140.329 200.041 137.523 217.416 129.166 231.7Z" fill="url(#paint0_linear_708_5092)"/>
<path d="M194.369 309C193.658 289.008 192.694 251.895 191.904 224.926C190.957 192.618 136.545 180.869 119.968 214.164C107.243 239.712 100.418 285.271 97.2881 305.325C122.424 320.878 182.146 317.049 194.369 309Z" fill="url(#paint1_linear_708_5092)"/>
<path d="M175.604 273.607C166.848 274.548 157.899 274.943 149.092 274.853C133.277 274.689 118.158 271.514 103.829 265.563C106.277 254.562 109.173 243.219 112.492 233.05C127.865 237.48 143.971 238.369 160.373 237.478C170.799 236.911 181.862 236.397 192.159 233.775C192.477 244.971 192.816 257.264 193.151 269.052C187.624 271.531 180.982 273.028 175.604 273.607Z" fill="#EAEAEA"/>
<g opacity="0.25">
<path opacity="0.6" d="M136.887 204.428C137.428 209.646 139.033 216.2 144.013 218.944C146.052 220.069 148.661 220.56 150.931 219.925C153.049 219.333 154.732 217.841 156.052 216.135C159.38 211.831 160.934 206.185 162.293 201.01C162.79 199.121 163.241 197.223 163.695 195.325C154.755 193.339 145.026 193.994 136.647 197.874C136.574 200.085 136.664 202.288 136.887 204.428Z" fill="#8E8E8E"/>
</g>
<g opacity="0.6">
<path d="M191.904 224.925C191.058 196.097 147.668 183.669 126.547 204.972C143.635 203.912 154.058 221.8 158.72 236.995C164.715 256.536 164.588 281.449 149.65 297.042C137.095 310.15 115.329 316.216 101.09 301.924C100.049 300.877 99.1609 299.761 98.3374 298.613C97.9539 301.049 97.5985 303.342 97.2883 305.322C122.422 320.878 182.147 317.048 194.366 308.997C193.659 289.007 192.691 251.894 191.904 224.925Z" fill="url(#paint2_linear_708_5092)"/>
</g>
<path d="M158.582 189.8L139.706 191.01C139.881 206.126 140.434 215.65 150.223 215.65C160.102 215.647 158.582 189.8 158.582 189.8Z" fill="#FFCFAE"/>
<path opacity="0.3" d="M158.581 189.8L156 189.967C156.156 195.029 156.198 214.621 147.596 214.621C146.691 214.621 145.89 214.513 145.137 214.353C146.474 215.187 148.127 215.65 150.225 215.65C160.101 215.647 158.581 189.8 158.581 189.8Z" fill="#F2A686"/>
<path opacity="0.5" d="M139.737 192.725C139.723 192.158 139.712 191.591 139.706 191.01L158.582 189.8C158.582 189.8 158.531 193.058 158.097 197.257C151.714 197.956 145.316 195.96 139.737 192.725Z" fill="#F6BA9E"/>
<path d="M260.955 129.596C327.767 200.681 294.024 229.525 241.97 167.254L222.122 144.123L260.955 129.596Z" fill="url(#paint3_linear_708_5092)"/>
<path opacity="0.6" d="M255.6 140.217L260.952 129.596C311.067 182.911 304.608 212.466 276.286 197.632C285.572 192.968 281.819 171.961 255.6 140.217Z" fill="url(#paint4_linear_708_5092)"/>
<path d="M67.4929 113.05C68.9425 101.905 79.941 95.574 84.865 101.998C81.0522 108.987 77.1773 116.55 75.6008 125.253C70.9391 126.773 66.3733 121.652 67.4929 113.05Z" fill="#FFCFAE"/>
<path opacity="0.5" d="M67.4929 113.05C68.9425 101.905 79.941 95.574 84.865 101.998C81.0522 108.987 77.1773 116.55 75.6008 125.253C70.9391 126.773 66.3733 121.652 67.4929 113.05Z" fill="#F2A686"/>
<path opacity="0.6" d="M73.524 106.254C73.6509 106.122 73.8145 105.904 74.0627 105.668C74.3391 105.459 74.6493 105.135 75.0949 104.917C75.3092 104.788 75.5376 104.658 75.8112 104.571C75.9494 104.525 76.0847 104.475 76.2229 104.424C76.3696 104.384 76.5218 104.365 76.677 104.336C77.2974 104.207 78.0193 104.26 78.7216 104.483C79.4435 104.7 80.1091 105.16 80.6787 105.738C81.2456 106.322 81.6545 107.066 81.945 107.853C82.2073 108.651 82.3342 109.5 82.3257 110.341C82.3173 110.797 82.2947 111.116 82.2355 111.553C82.1875 111.973 82.1058 112.365 82.024 112.757C81.8435 113.541 81.6009 114.292 81.2879 114.991C80.9833 115.693 80.6139 116.339 80.1909 116.903C79.796 117.484 79.2969 117.952 78.8231 118.344C78.5806 118.533 78.3239 118.688 78.0927 118.843C77.8389 118.962 77.5935 119.072 77.3679 119.176C77.1282 119.244 76.9082 119.311 76.6967 119.368C76.4908 119.413 76.2934 119.421 76.1186 119.444C75.7717 119.506 75.4953 119.433 75.312 119.436C75.1315 119.421 75.0328 119.416 75.0328 119.416C75.0328 119.416 75.1287 119.399 75.312 119.371C75.4925 119.328 75.7604 119.328 76.0763 119.21C76.237 119.154 76.4147 119.114 76.6008 119.035C76.7813 118.953 76.9759 118.86 77.1818 118.762C77.3679 118.635 77.571 118.502 77.7825 118.361C77.9714 118.186 78.1857 118.031 78.3775 117.831C78.7582 117.425 79.1418 116.962 79.4604 116.407C79.7989 115.868 80.0724 115.248 80.3234 114.593C80.4221 114.345 80.4983 114.08 80.5744 113.815C80.5547 113.838 80.5349 113.86 80.5152 113.883C80.2444 114.1 79.9681 114.342 79.6438 114.514C79.3335 114.717 78.9838 114.839 78.6398 114.985C78.2816 115.078 77.9291 115.2 77.5653 115.231C77.2043 115.296 76.8434 115.284 76.4993 115.279C76.1552 115.25 75.8253 115.211 75.5207 115.126C75.2161 115.05 74.9341 114.963 74.6888 114.836C74.5675 114.777 74.449 114.729 74.3391 114.67C74.2404 114.602 74.1416 114.534 74.0486 114.472C73.8653 114.356 73.7186 114.238 73.6115 114.125C73.3887 113.902 73.2787 113.773 73.2787 113.773C73.2787 113.773 73.4507 113.823 73.7299 113.919C73.8596 113.976 74.0429 114.012 74.2347 114.058C74.4293 114.114 74.6465 114.153 74.8862 114.179C75.1231 114.227 75.3797 114.227 75.6504 114.244C75.9155 114.266 76.2004 114.227 76.4908 114.218C76.7813 114.182 77.0774 114.159 77.3735 114.089C77.6697 114.038 77.9601 113.933 78.2563 113.852C78.5383 113.736 78.8287 113.643 79.091 113.496C79.3702 113.378 79.6043 113.206 79.8524 113.059C80.0668 112.876 80.3206 112.738 80.4955 112.537C80.6816 112.36 80.8536 112.188 80.9918 112.002C81.0228 111.81 81.0623 111.618 81.082 111.429C81.13 111.096 81.1525 110.634 81.1497 110.312C81.1666 109.593 81.0736 108.877 80.8677 108.209C80.6308 107.563 80.3573 106.92 79.9117 106.432C79.4774 105.955 78.9923 105.529 78.4311 105.309C77.8783 105.092 77.3087 104.963 76.7672 105.01C76.6318 105.019 76.4993 105.016 76.3667 105.033C76.2398 105.058 76.1129 105.087 75.9945 105.115C75.7435 105.149 75.5179 105.233 75.3035 105.321C74.8636 105.462 74.5365 105.693 74.2291 105.842C73.6679 106.232 73.3464 106.46 73.3464 106.46C73.3464 106.46 73.3999 106.392 73.524 106.254Z" fill="#D38467"/>
<path d="M71.1577 113.271C70.7008 100.112 85.7463 103.005 82.1083 112.887C78.4732 122.769 71.513 123.533 71.1577 113.271Z" fill="#FFCFAE"/>
<path d="M75.0576 129.116C76.8653 110.007 90.5092 96.3491 93.5775 82.8264C101.418 82.9646 113.333 80.8608 124.816 75.7394C97.5793 90.4916 115.733 97.9453 149.893 82.4034C157.161 114.934 174.13 121.149 168.861 89.9417C177.477 119.263 197.771 136.06 199.596 113.687C202.131 131.415 208.944 139.686 218.144 126.714C218.144 126.714 216.655 137.377 218.347 152.01C218.756 156.17 219.985 159.213 219.985 159.213C219.985 159.213 227.746 146.627 238.765 150.755C252.504 155.902 241.74 187.914 223.649 184.803C214.96 183.308 214.365 175.829 214.365 175.829C214.365 175.829 199.799 195.889 160.756 197.968C109.847 200.672 70.9289 172.778 75.0576 129.116Z" fill="#FFCFAE"/>
<path opacity="0.4" d="M96.6309 137.447C94.4453 136.477 92.3922 134.878 91.8564 132.602C90.3476 137.537 90.8721 144.991 97.0173 145.795C101.778 146.418 107.26 141.463 107.246 136.624C103.839 138.039 100.215 139.049 96.6309 137.447Z" fill="#F2A686"/>
<path d="M94.4744 129.937C97.3538 128.459 102.289 131.296 104.647 133.488C104.675 133.451 104.681 133.4 104.647 133.335C104.009 132.419 103.005 131.437 101.827 130.552C102.825 128.82 103.397 126.432 103.296 124.159C103.155 123.733 103.014 123.313 102.845 122.909C102.625 122.382 102.348 121.897 102.044 121.434C102.188 124.17 101.567 127.134 99.5676 128.806C99.5451 128.82 99.5197 128.82 99.5056 128.826C99.4548 128.896 99.4069 128.975 99.3561 129.04C96.8151 127.805 94.0006 127.385 92.0153 129.06C88.1178 132.337 90.9662 141.5 93.7835 144.534C93.8032 144.557 93.8399 144.574 93.8596 144.585C92.8444 140.713 91.6458 136.663 92.5059 132.828C92.6639 132.123 92.9149 131.561 93.2166 131.105C93.5015 130.476 93.9358 130.106 94.4744 129.937Z" fill="#EC8862"/>
<path d="M97.0562 130.301C97.0562 130.301 93.6156 128.835 93.8609 132.385C94.1175 135.927 100.328 137.154 101.887 134.819C103.433 132.487 98.7313 130.594 97.0562 130.301Z" fill="#F6BA9E"/>
<path opacity="0.5" d="M146.402 150.53C145.968 150.31 145.965 149.783 146.306 149.489C154.426 142.473 156.938 132.309 158.585 122.125C158.653 121.671 163.608 126.736 164.37 129.83C165.424 126.42 166.095 122.918 166.527 119.356C166.496 118.578 166.44 117.802 166.307 117.035C165.292 111.333 160.407 106.533 154.931 104.787C150.066 103.23 144.674 104.367 140.195 106.801C137.86 108.487 135.68 110.396 133.748 112.633C133.091 113.394 129.383 117.094 127.682 119.531C129.267 118.848 132.722 118.403 132.234 118.789C127.592 122.419 123.694 128.973 122.817 135.36C122.809 137.43 123.139 139.486 123.965 141.37C126.128 146.277 130.02 147.797 134.919 149.041C141.504 150.724 148.072 152.763 153.148 157.132C151.975 154.233 148.943 151.802 146.402 150.53Z" fill="#F2A686"/>
<path d="M151.865 111.435C144.645 109.489 140.122 111.215 133.751 115.163C137.485 108.925 144.645 103.363 154.51 106.626C160.675 108.663 163.041 116.102 163.109 122.713C161.222 117.831 156.233 112.608 151.865 111.435Z" fill="#6D401B"/>
<path d="M152.462 121.826C151.765 120.385 150.823 119.116 149.596 118.098C147.253 116.135 142.594 115.159 139.63 116.115C132.168 118.507 127.56 126.885 125.952 134.085C125.247 137.252 125.69 140.972 127.537 143.722C129.012 145.933 133.403 147.771 135.876 148.341C138.885 149.035 142.112 148.648 144.844 147.216C150.324 144.345 153.226 137.537 153.824 131.637C154.137 128.566 153.841 124.652 152.462 121.826Z" fill="white"/>
<path d="M130.305 124.528C133.604 120.41 138.26 117.105 143.822 118.258C151.817 119.917 153.833 127.664 153.269 134.897C153.523 133.8 153.715 132.703 153.825 131.637C154.135 128.569 153.839 124.652 152.46 121.826C151.763 120.385 150.821 119.116 149.595 118.098C147.251 116.135 142.592 115.159 139.628 116.115C134.589 117.737 130.855 122.082 128.463 126.956C129.072 126.101 129.699 125.283 130.305 124.528Z" fill="#D5D7D8"/>
<path d="M142.373 136.104C139.44 142.681 133.844 146.564 129.879 144.779C125.914 142.994 125.082 136.211 128.018 129.635C130.951 123.061 136.543 119.175 140.511 120.966C144.474 122.748 145.306 129.531 142.373 136.104Z" fill="#462D1B"/>
<path d="M139.928 135.699C137.516 141.105 132.914 144.295 129.657 142.834C126.394 141.356 125.717 135.789 128.125 130.383C130.542 124.974 135.136 121.782 138.396 123.245C141.662 124.712 142.344 130.284 139.928 135.699Z" fill="#63442F"/>
<path d="M136.389 135.122C134.871 138.518 131.989 140.517 129.947 139.592C127.903 138.673 127.474 135.184 128.989 131.789C130.5 128.402 133.388 126.394 135.433 127.322C137.472 128.244 137.903 131.732 136.389 135.122Z" fill="#170000"/>
<path d="M133.936 128.742C132.76 129.971 131.189 130.431 130.428 129.771C129.655 129.117 129.988 127.585 131.167 126.364C132.34 125.129 133.914 124.672 134.681 125.335C135.439 125.986 135.107 127.515 133.936 128.742Z" fill="white"/>
<path d="M128.525 132.441C128.212 133.134 127.611 133.538 127.194 133.346C126.779 133.154 126.694 132.441 127.01 131.747C127.329 131.059 127.924 130.655 128.344 130.85C128.759 131.042 128.841 131.755 128.525 132.441Z" fill="white"/>
<path opacity="0.6" d="M74.8526 140.471C77.8758 140.234 80.3942 138.807 81.4349 136.415C83.0677 132.659 80.4704 127.867 75.5943 125.366C75.318 125.225 73.8035 133.133 74.8526 140.471ZM78.9785 130.854C79.4269 130.896 79.7823 131.181 80.0276 131.579C80.0784 131.61 80.1207 131.644 80.163 131.697C80.7637 132.484 80.868 133.711 80.2955 134.537C79.7343 135.341 78.6345 135.146 78.0394 134.523C77.4584 133.908 77.1257 132.986 77.2723 132.14C77.4049 131.339 78.1776 130.781 78.9785 130.854ZM77.0129 128.561C77.1144 128.581 77.2103 128.637 77.2667 128.739C77.2892 128.773 77.2949 128.807 77.3118 128.846C77.419 128.928 77.5205 129.015 77.5938 129.137C77.7941 129.45 77.7038 129.788 77.5797 130.109C77.4528 130.454 76.9649 130.487 76.7562 130.203C76.6434 130.053 76.5109 129.892 76.4319 129.723C76.226 129.551 76.2232 129.32 76.3304 129.142C76.1612 128.736 76.6491 128.35 77.0129 128.561Z" fill="url(#paint5_radial_708_5092)"/>
<path opacity="0.5" d="M98.095 105.125C99.2202 109.999 104.7 111.208 104.237 102.003C103.775 92.7984 93.8225 85.4632 88.0045 96.1065C86.7185 98.4585 84.8318 102.127 86.9807 101.535C89.1297 100.943 80.9287 107.108 78.2524 118.724C75.5761 130.34 82.6011 130.786 86.7016 129.993C94.4513 128.499 98.0358 120.002 98.095 105.125Z" fill="#F2A686"/>
<path d="M97.6243 97.7032C93.9242 95.3145 91.324 95.7742 87.5197 97.4352C90.1255 93.8536 94.508 91.2422 99.5053 94.9084C102.63 97.1983 103.194 102.503 102.602 106.911C102.049 103.374 99.8635 99.1443 97.6243 97.7032Z" fill="#6D401B"/>
<path d="M96.6843 105.515C96.3515 104.384 95.8467 103.414 95.1473 102.669C93.8106 101.236 90.9312 100.794 88.9825 101.806C84.0754 104.35 80.5305 111.592 78.9766 117.638C78.2913 120.295 78.2941 123.321 79.2586 125.442C80.0285 127.145 82.6738 128.321 84.1967 128.595C86.0523 128.933 88.1223 128.366 89.9639 126.976C93.6498 124.192 95.9962 118.372 96.8169 113.476C97.2399 110.929 97.347 107.731 96.6843 105.515Z" fill="white"/>
<path d="M82.4445 109.446C84.8444 105.808 88.0396 102.728 91.4774 103.247C96.4183 103.995 97.1177 110.207 96.2209 116.2C96.4634 115.278 96.6665 114.361 96.816 113.476C97.2418 110.929 97.3461 107.731 96.6862 105.515C96.3534 104.384 95.8486 103.414 95.1492 102.669C93.8125 101.236 90.9331 100.794 88.9844 101.806C85.6707 103.529 82.9803 107.39 81.0992 111.581C81.5448 110.833 82.0045 110.111 82.4445 109.446Z" fill="#D5D7D8"/>
<path d="M90.5441 118.49C88.147 124.105 83.9816 127.616 81.2433 126.33C78.5049 125.041 78.2342 119.443 80.6369 113.828C83.0341 108.213 87.1994 104.702 89.9378 105.994C92.6705 107.277 92.9413 112.875 90.5441 118.49Z" fill="#462D1B"/>
<path d="M88.8231 118.275C86.849 122.892 83.4225 125.777 81.1749 124.722C78.9244 123.659 78.7072 119.059 80.6757 114.443C82.6526 109.82 86.0707 106.938 88.324 107.993C90.5773 109.048 90.7972 113.65 88.8231 118.275Z" fill="#63442F"/>
<path d="M86.3313 117.974C85.0904 120.873 82.9443 122.681 81.5342 122.015C80.1241 121.353 79.9831 118.473 81.224 115.571C82.4592 112.678 84.611 110.864 86.0211 111.533C87.4283 112.201 87.5694 115.078 86.3313 117.974Z" fill="#170000"/>
<path d="M84.8893 112.788C83.9925 113.868 82.8532 114.331 82.3427 113.82C81.8238 113.316 82.134 112.024 83.028 110.949C83.922 109.864 85.0614 109.404 85.5775 109.917C86.0907 110.422 85.7805 111.711 84.8893 112.788Z" fill="white"/>
<path d="M80.863 116.138C80.6064 116.731 80.1608 117.097 79.8732 116.959C79.5855 116.821 79.5601 116.231 79.8196 115.639C80.079 115.053 80.5218 114.686 80.8123 114.827C81.0971 114.959 81.1225 115.549 80.863 116.138Z" fill="white"/>
<path opacity="0.3" d="M132.032 188.616C185.412 196.56 207.9 158.756 207.9 158.756C212.257 151.136 212.22 138.719 212.22 138.719C212.22 138.719 204.922 148.082 200.768 129.999C196.272 148.161 182.095 129.198 171.889 106.479C172.253 135.053 153.488 114.409 149.37 92.79C116.6 100.156 96.5602 91.7551 106.391 85.3815C116.222 79.0108 98.0098 81.4841 89.6988 92.948C91.4106 89.5102 92.8151 86.1599 93.5737 82.8208C101.414 82.959 113.329 80.8552 124.812 75.7338C97.5755 90.486 115.726 97.9396 149.889 82.3978C157.157 114.928 174.126 121.144 168.858 89.9361C177.473 119.257 197.767 136.054 199.592 113.682C202.127 131.409 208.94 139.681 218.14 126.708C218.14 126.708 216.651 137.371 218.343 152.005C218.752 156.165 219.981 159.207 219.981 159.207C219.981 159.207 227.742 146.621 238.761 150.75C252.501 155.897 241.736 187.908 223.645 184.798C214.956 183.303 214.361 175.824 214.361 175.824C214.361 175.824 199.795 195.884 160.753 197.962C115.342 200.379 79.4983 178.432 75.2145 142.676C76.9122 151.162 86.1595 181.791 132.032 188.616Z" fill="#F2A686"/>
<path opacity="0.6" d="M236.029 165.329C236.004 165.112 236.004 164.788 235.936 164.381C235.82 163.984 235.758 163.451 235.491 162.923C235.381 162.647 235.254 162.357 235.056 162.077C234.957 161.936 234.864 161.79 234.769 161.643C234.656 161.502 234.526 161.372 234.396 161.234C233.897 160.664 233.17 160.199 232.338 159.906C231.494 159.596 230.524 159.556 229.571 159.7C228.609 159.849 227.687 160.267 226.847 160.811C226.023 161.384 225.296 162.103 224.698 162.909C224.376 163.352 224.17 163.674 223.914 164.133C223.657 164.568 223.454 165.002 223.251 165.433C222.862 166.31 222.554 167.202 222.351 168.096C222.137 168.981 222.027 169.864 222.027 170.71C221.985 171.55 222.126 172.351 222.301 173.068C222.397 173.423 222.529 173.756 222.642 174.069C222.8 174.362 222.952 174.644 223.096 174.906C223.276 175.143 223.437 175.366 223.598 175.572C223.762 175.764 223.945 175.913 224.094 176.06C224.382 176.367 224.698 176.497 224.87 176.632C225.053 176.751 225.149 176.813 225.149 176.813C225.149 176.813 225.067 176.728 224.918 176.57C224.777 176.401 224.52 176.209 224.303 175.868C224.19 175.699 224.046 175.535 223.928 175.326C223.815 175.118 223.697 174.889 223.57 174.647C223.482 174.39 223.386 174.119 223.288 173.832C223.234 173.53 223.141 173.225 223.099 172.898C223.028 172.238 222.994 171.519 223.087 170.761C223.15 170.005 223.336 169.215 223.564 168.409C223.649 168.101 223.767 167.794 223.883 167.486C223.886 167.523 223.888 167.557 223.891 167.594C223.993 167.994 224.083 168.426 224.272 168.823C224.424 169.241 224.67 169.607 224.892 169.991C225.166 170.338 225.417 170.707 225.741 170.995C226.037 171.316 226.393 171.564 226.723 171.804C227.07 172.021 227.414 172.224 227.766 172.362C228.113 172.509 228.443 172.625 228.77 172.681C228.928 172.712 229.077 172.752 229.224 172.777C229.368 172.783 229.509 172.788 229.644 172.797C229.904 172.817 230.124 172.811 230.313 172.777C230.685 172.723 230.88 172.678 230.88 172.678C230.88 172.678 230.679 172.602 230.344 172.492C230.177 172.453 229.98 172.357 229.76 172.261C229.534 172.176 229.3 172.058 229.052 171.908C228.793 171.784 228.547 171.598 228.277 171.421C228.009 171.251 227.763 171.009 227.493 170.794C227.242 170.552 226.976 170.318 226.745 170.036C226.497 169.776 226.294 169.466 226.074 169.179C225.888 168.865 225.676 168.567 225.53 168.239C225.349 167.926 225.248 167.594 225.118 167.275C225.048 166.948 224.901 166.632 224.878 166.316C224.828 166.011 224.788 165.724 224.788 165.447C224.895 165.242 224.997 165.03 225.115 164.835C225.307 164.486 225.617 164.026 225.851 163.722C226.348 163.025 226.954 162.405 227.631 161.917C228.322 161.471 229.041 161.054 229.816 160.907C230.572 160.766 231.342 160.707 232.036 160.899C232.718 161.088 233.356 161.375 233.841 161.807C233.965 161.914 234.095 162.007 234.207 162.117C234.309 162.232 234.41 162.351 234.503 162.464C234.718 162.675 234.873 162.918 235.014 163.155C235.333 163.606 235.479 164.06 235.665 164.424C235.922 165.196 236.066 165.648 236.066 165.648C236.066 165.648 236.046 165.549 236.029 165.329Z" fill="#D38467"/>
<path d="M233.249 173.722C243.131 161.491 226.695 153.454 223.071 165.496C219.453 177.535 225.544 183.263 233.249 173.722Z" fill="#FFCFAE"/>
<path d="M261.258 131.861C269.334 145.739 265.172 152.284 256.128 140.547C258.553 169.38 245.425 172.674 241.057 144.12C236.302 162.307 220.977 174.786 218.346 152.011C216.654 137.377 218.143 126.714 218.143 126.714C208.944 139.687 202.13 131.415 199.595 113.688C197.77 136.06 177.476 119.263 168.861 89.9419C174.129 121.15 157.16 114.934 149.893 82.4037C115.732 97.9455 97.5787 90.4919 124.816 75.7396C97.6069 87.8748 67.9727 83.0692 95.8866 71.6363C62.7667 81.803 46.3986 71.8873 87.2851 58.0234C87.2851 58.0234 121.361 -4.91954 199.897 24.1788C278.624 53.3504 261.258 131.861 261.258 131.861Z" fill="#7A4B20"/>
<path opacity="0.5" d="M95.8866 71.6363C67.9727 83.0664 97.6069 87.8719 124.816 75.7396C97.5787 90.4919 115.732 97.9455 149.893 82.4037C157.16 114.934 174.129 121.15 168.861 89.9419C177.476 119.263 197.77 136.06 199.595 113.688C202.13 131.415 208.944 139.687 218.143 126.714C218.143 126.714 216.654 137.377 218.346 152.011C220.977 174.786 236.302 162.307 241.057 144.12C245.425 172.674 258.553 169.38 256.128 140.547C265.172 152.284 269.337 145.739 261.258 131.861C261.258 131.861 278.624 53.3504 199.897 24.1788C121.361 -4.91954 87.2851 58.0234 87.2851 58.0234C46.3986 71.8845 62.7667 81.8002 95.8866 71.6363ZM77.9307 62.6372C82.1384 60.9028 118.606 54.3685 155.603 68.5003C224.232 94.7136 259.774 132.831 259.774 132.831C264.016 141.173 260.144 145.358 252.622 132.532C252.622 132.532 255.614 139.213 254.032 150.296C252.453 161.379 243.138 142.921 241.251 126.567C236.096 148.226 217.421 152.064 220.591 114.954C210.918 130.341 202.753 129.007 199 98.3234C194.992 121.765 174.814 109.57 166.249 78.1565C172.4 115.611 161.091 112.943 151.148 78.509C125.662 89.2792 104.215 87.1669 131.342 72.0706C96.7383 82.336 70.1894 83.3089 103.89 68.3085C76.2245 74.3662 52.3152 73.1818 77.9307 62.6372Z" fill="#7A4B20"/>
<path d="M215.434 11.6372C293.443 48.6799 261.256 131.86 261.256 131.86C177.233 46.9399 83.7136 58.3107 83.7136 58.3107C97.7608 23.0306 145.712 -21.4714 215.434 11.6372Z" fill="#EAEAEA"/>
<path opacity="0.3" d="M173.383 59.6363C173.383 59.6363 136.495 47.7917 111.703 45.4594C111.703 45.4594 122.674 19.514 151.033 26.1075C178.256 32.4332 173.383 59.6363 173.383 59.6363Z" fill="#8E8E8E"/>
<path d="M171.581 57.6732C171.581 57.6732 136.998 47.0891 113.788 44.9684C113.788 44.9684 123.904 21.9785 150.481 27.8839C175.989 33.5552 171.581 57.6732 171.581 57.6732Z" fill="#7A4B20"/>
<path opacity="0.4" d="M141.927 26.9308C140.703 29.7509 140.345 32.9716 140.997 36.2176C142.407 43.2567 148.594 47.3713 155.427 49.7881C160.617 51.6212 166.485 51.5592 171.579 49.3679C172.233 54.0917 171.584 57.6733 171.584 57.6733C171.584 57.6733 137.001 47.0892 113.791 44.9685C113.791 44.9685 121.713 27.0013 141.927 26.9308Z" fill="#7A4B20"/>
<path d="M208.726 8.66418C210.939 9.57791 213.176 10.5621 215.435 11.6366C293.443 48.6793 261.257 131.86 261.257 131.86C246.146 116.589 230.734 104.462 215.607 94.7945L215.595 94.7606C242.446 44.8101 208.977 8.93492 208.726 8.66418Z" fill="url(#paint6_linear_708_5092)"/>
<path d="M208.629 8.62482C205.866 7.56726 132.217 -19.7769 97.0022 57.8139C88.5558 57.7237 83.7136 58.3103 83.7136 58.3103C97.2983 24.1892 142.596 -18.5502 208.629 8.62482Z" fill="url(#paint7_linear_708_5092)"/>
<path opacity="0.6" d="M124.631 11.5269L124.634 11.5297C105.212 24.0258 81.1415 53.8658 95.262 52.8506C140.98 49.5707 193.742 73.511 214.168 84.786C234.597 96.0581 261.324 104.132 250.464 60.8654C242.804 30.3514 225.15 16.9049 215.403 11.6227C215.415 11.6284 215.423 11.6312 215.434 11.6368C293.443 48.6795 261.256 131.86 261.256 131.86C177.233 46.9395 83.7135 58.3104 83.7135 58.3104C90.307 41.7533 104.365 23.1713 124.631 11.5269Z" fill="url(#paint8_linear_708_5092)"/>
<path d="M89.8709 157.967C89.8709 157.967 116.42 170.007 134.74 166.772C128.603 184.051 116.871 186.028 107.142 182.951C97.4177 179.869 89.7299 165.587 89.8709 157.967Z" fill="#F6948D"/>
<path d="M133.053 170.799C133.646 169.553 134.221 168.236 134.74 166.775C122.162 168.994 105.701 164.017 96.6199 160.672C97.2826 161.972 98.4389 164.039 100.244 166.476C103.027 170.224 118.05 173.704 133.053 170.799Z" fill="white"/>
<path d="M100.965 179.995C102.141 180.805 103.425 181.465 104.821 181.939C112.491 184.525 121.051 184.807 127.438 179.276C115.836 172.793 105.548 177.226 100.965 179.995Z" fill="#CF5957"/>
<g opacity="0.5">
<path d="M134.741 166.772C126.117 168.292 115.657 166.431 107.01 164.031C110.682 165.607 115.459 167.26 121.145 168.283C126.489 168.96 127.047 169.699 126.486 171.668C128.652 171.493 130.849 171.219 133.054 170.796C133.649 169.55 134.222 168.235 134.741 166.772Z" fill="#D5D7D8"/>
</g>
<path d="M85.7659 153.915C85.7659 153.915 107.898 168.055 134.681 166.16C129.709 165.576 111.677 165.99 85.7659 153.915Z" fill="#F6BA9E"/>
<path d="M181.339 263.013C193.728 253.247 214.84 249.581 214.84 249.581C214.84 249.581 200.452 263.284 181.339 263.013Z" fill="#BABABA"/>
<path d="M182.185 238.527C182.185 238.527 195.408 262.602 199.215 282.871C200.834 291.492 222.129 297.53 218.325 272.112C215.73 254.771 205.143 233.924 205.143 233.924L182.185 238.527Z" fill="#FFC8A4"/>
<path opacity="0.3" d="M218.325 272.109C215.73 254.768 205.143 233.921 205.143 233.921L201.356 234.68C203.223 238.49 211.85 256.668 214.159 272.109C215.942 284.01 212.219 289.016 207.591 290.087C213.748 291.339 220.626 287.481 218.325 272.109Z" fill="#F2A686"/>
<path d="M214.843 249.581C214.843 249.581 193.731 253.248 181.342 263.014C181.342 263.014 162.233 210.517 175.767 199.848C188.249 190.011 208.128 223.14 214.843 249.581Z" fill="#EAEAEA"/>
<path opacity="0.4" d="M205.374 224.459C205.033 224.304 204.045 222.417 203.682 222.291C197.102 220.006 190.616 224.011 186.075 228.396C179.248 234.987 180.968 252.996 184.302 260.904C183.275 261.575 182.282 262.277 181.343 263.016C181.343 263.016 162.981 213.655 174.62 200.945C182.999 191.785 197.365 206.594 205.374 224.459Z" fill="url(#paint9_linear_708_5092)"/>
<path d="M207.575 275.043C207.575 275.043 200.33 274.721 198.909 282.606C197.504 290.489 198.954 340.385 198.954 340.385L211.032 338.981C211.032 338.981 220.15 294.922 219.414 287.928C217.761 272.349 207.575 275.043 207.575 275.043Z" fill="#FFCFAE"/>
<path opacity="0.5" d="M217.373 288.582C215.721 273.006 205.534 275.696 205.534 275.696C205.534 275.696 204.894 275.606 203.983 275.739C205.831 274.797 207.573 275.042 207.573 275.042C207.573 275.042 217.76 272.352 219.412 287.927C220.151 294.921 211.031 338.981 211.031 338.981L209.06 339.209C209.801 334.767 218.07 295.181 217.373 288.582Z" fill="#FFCFAE"/>
<path d="M195.56 336.756C190.802 338.366 185.892 341.539 183.337 346.271C183.323 346.291 183.295 346.302 183.284 346.328C182.246 348.508 181.662 351.009 181.572 353.699C181.363 360.375 181.38 362.749 185.235 367.112C189.11 371.486 191.733 369.907 188.938 362.809C193.447 368.353 199.934 370.059 198.171 366.683C201.561 369.867 204.102 367.651 203.527 365.465C208.673 370.008 209.534 364.887 207.323 361.613C205.103 358.336 202.951 352.591 206.477 349.184C212.441 343.798 215.23 337.89 210.927 334.799C205.78 334.596 200.354 335.148 195.56 336.756Z" fill="#FFCFAE"/>
<path opacity="0.5" d="M205.158 366.672C206.797 366.277 206.701 363.274 205.22 361.082C203.001 357.805 200.849 352.061 204.374 348.654C210.015 343.558 212.807 337.999 209.454 334.798C209.944 334.804 210.443 334.781 210.931 334.801C215.232 337.889 212.446 343.798 206.481 349.187C202.956 352.594 205.105 358.338 207.327 361.615C209.276 364.503 208.83 368.824 205.158 366.672Z" fill="#FFCFAE"/>
<path d="M189.397 363.417C189.397 363.417 188.706 362.803 188.01 361.587C187.649 360.995 187.325 360.242 187.068 359.407C186.803 358.57 186.668 357.636 186.614 356.7C186.583 356.234 186.642 355.758 186.648 355.298C186.673 354.847 186.789 354.39 186.851 353.967C186.927 353.536 187.079 353.135 187.181 352.754C187.279 352.362 187.468 352.032 187.587 351.708C187.852 351.065 188.196 350.603 188.388 350.256C188.596 349.923 188.735 349.731 188.735 349.731C188.735 349.731 188.684 349.962 188.574 350.346C188.52 350.532 188.444 350.763 188.362 351.023C188.278 351.277 188.23 351.59 188.145 351.906C188.089 352.233 187.968 352.568 187.908 352.949C187.86 353.321 187.804 353.71 187.742 354.111C187.663 354.923 187.584 355.795 187.638 356.663C187.666 357.526 187.77 358.383 187.945 359.184C188.103 359.985 188.314 360.721 188.546 361.345C188.952 362.616 189.397 363.417 189.397 363.417Z" fill="#DD8B5E"/>
<path d="M197.287 365.372C197.287 365.372 197.059 365.237 196.712 364.924C196.373 364.614 195.88 364.16 195.409 363.519C194.946 362.879 194.422 362.092 194.041 361.162C193.615 360.254 193.33 359.216 193.11 358.164C192.93 357.112 192.831 356.052 192.851 355.053C192.865 354.055 192.967 353.133 193.108 352.369C193.215 351.582 193.466 350.959 193.567 350.519C193.7 350.076 193.779 349.83 193.779 349.83C193.779 349.83 193.784 350.104 193.753 350.561C193.742 351.009 193.688 351.652 193.694 352.425C193.688 352.814 193.7 353.223 193.68 353.66C193.697 354.103 193.722 354.557 193.734 355.039C193.765 355.51 193.852 355.992 193.877 356.486C193.917 356.982 194.035 357.479 194.097 357.986C194.199 358.469 194.312 358.965 194.436 359.444C194.591 359.91 194.681 360.389 194.87 360.829C195.166 361.734 195.558 362.524 195.897 363.206C196.258 363.886 196.588 364.436 196.861 364.797C197.118 365.166 197.287 365.372 197.287 365.372Z" fill="#DD8B5E"/>
<path d="M203.651 365.22C203.651 365.22 203.451 365.09 203.163 364.797C203 364.656 202.839 364.464 202.658 364.239C202.483 364.01 202.238 363.776 202.069 363.463C201.674 362.876 201.234 362.16 200.904 361.331C200.726 360.925 200.512 360.51 200.394 360.065C200.25 359.616 200.123 359.159 199.968 358.714C199.683 357.806 199.598 356.855 199.449 355.99C199.285 355.118 199.26 354.298 199.263 353.587C199.257 352.18 199.325 351.246 199.325 351.246C199.325 351.246 199.57 352.163 199.844 353.519C199.911 353.866 199.976 354.23 200.047 354.627C200.12 355.011 200.241 355.409 200.315 355.84C200.422 356.249 200.54 356.675 200.602 357.126C200.69 357.566 200.82 358.012 200.952 358.437C201.203 359.323 201.423 360.197 201.733 360.998C201.886 361.393 201.993 361.81 202.142 362.163C202.289 362.518 202.438 362.865 202.56 363.184C202.684 363.502 202.856 363.768 202.957 364.027C203.098 364.275 203.203 364.498 203.321 364.659C203.513 365.02 203.651 365.22 203.651 365.22Z" fill="#DD8B5E"/>
<path d="M102.385 263.545C102.385 263.545 103.065 257.443 91.1328 241.325C82.8275 230.115 68.1288 200.442 68.1288 200.442L54.9615 203.702C54.9615 203.702 69.0341 257.981 84.074 270.043C84.074 270.043 95.693 275.365 102.385 263.545Z" fill="#FFCFAE"/>
<path d="M51.4528 172.711C50.1132 171.019 42.8964 171.938 41.6274 179.448C38.9059 176.687 34.1906 181.651 36.0124 189.003C36.0124 189.003 30.7444 189.559 32.6875 195.024C34.6249 200.506 39.1907 205.876 42.8654 201.555C44.549 205.278 50.2429 209.029 56.2301 209.553C63.9432 208.194 67.4233 210.055 71.3377 203.225C73.9942 197.932 73.3118 187.474 68.9462 178.049C56.6729 151.563 53.8499 138.257 48.1053 139.673C40.9026 141.441 51.4528 172.711 51.4528 172.711Z" fill="#FFCFAE"/>
<g opacity="0.5">
<path d="M64.7537 202.436C64.0514 201.582 63.4959 200.62 63.0587 199.585C62.8472 199.074 62.6611 198.544 62.5257 198.003C62.396 197.458 62.2663 196.909 62.2183 196.35C62.1253 195.789 62.1676 195.216 62.1591 194.655C62.2268 194.091 62.2578 193.522 62.4045 192.977C62.4863 192.698 62.5229 192.413 62.6188 192.148L62.9093 191.342C63.0926 190.811 63.3802 190.318 63.6087 189.796L64.1755 190.371C63.3633 190.82 62.5539 191.24 61.7248 191.612C60.8731 191.985 60.0158 192.306 59.1274 192.585C58.2476 192.856 57.3395 193.076 56.406 193.209C55.481 193.327 54.5221 193.375 53.5661 193.254C52.6072 193.113 51.6343 192.811 50.7939 192.207C49.9535 191.598 49.3895 190.67 49.0962 189.731C49.0257 189.472 48.9439 189.286 48.9044 188.973C48.8649 188.761 48.8339 188.524 48.8621 188.214C48.8931 187.642 49.0539 187.159 49.2879 186.694C49.7476 185.783 50.4188 185.061 51.1464 184.449C52.6185 183.228 54.3191 182.43 56.076 181.832C57.8471 181.262 59.6717 180.944 61.5077 180.842C65.1767 180.614 68.8965 181.344 72.1171 183C70.4334 182.345 68.6821 181.883 66.9083 181.652C65.1231 181.448 63.3351 181.375 61.5556 181.57C59.7958 181.753 58.0445 182.154 56.3806 182.749C54.728 183.344 53.1262 184.128 51.812 185.242C51.1718 185.8 50.6106 186.449 50.2637 187.165C50.0917 187.509 49.9845 187.907 49.9761 188.242C49.9535 188.38 49.9648 188.595 50.0071 188.832C50.0324 188.956 50.1199 189.204 50.1594 189.384C50.4329 190.143 50.839 190.831 51.4736 191.311C52.1109 191.776 52.8836 192.047 53.7128 192.185C54.5475 192.298 55.4105 192.278 56.2819 192.176C57.1308 192.069 57.9966 191.872 58.8342 191.635C60.5291 191.122 62.1789 190.436 63.7835 189.635L64.9088 189.08L64.3363 190.211C64.0994 190.687 63.8061 191.141 63.6115 191.638L63.3154 192.371C63.1997 192.616 63.1659 192.884 63.0869 193.141C62.9234 193.646 62.8698 194.181 62.788 194.706C62.7626 195.236 62.709 195.775 62.7485 196.308C62.7485 196.852 62.8388 197.38 62.9206 197.915C63.0221 198.448 63.1631 198.973 63.3238 199.492C63.6848 200.516 64.1389 201.517 64.7537 202.436Z" fill="#F2A686"/>
<path d="M36.0115 189.004C36.0115 189.004 36.2681 189.494 36.7701 190.326C37.2608 191.15 38.0307 192.301 39.0601 193.575C39.5508 194.218 40.1543 194.861 40.8339 195.493C41.5136 196.096 42.292 196.677 43.169 197.078C44.0235 197.529 45.0247 197.65 45.9779 197.56L46.6999 197.43C46.7055 197.442 47.0016 197.337 46.965 197.329C46.9621 197.32 46.9762 197.329 46.9706 197.315C47.0326 197.258 46.8352 196.646 46.5899 196.226C46.0963 195.287 45.4957 194.342 44.9626 193.389C44.4099 192.436 43.922 191.457 43.4933 190.501C42.6247 188.575 42.103 186.666 41.8041 185.008C41.508 183.352 41.508 181.942 41.5221 180.972C41.5446 180.005 41.6292 179.449 41.6292 179.449C41.6292 179.449 41.6546 180.002 41.742 180.966C41.8238 181.928 42.0438 183.282 42.4414 184.872C42.8221 186.471 43.5131 188.242 44.4099 190.075C44.8414 190.989 45.3772 191.897 45.913 192.834C46.4573 193.767 47.0552 194.678 47.6023 195.699C47.7349 195.958 47.873 196.226 47.9717 196.534C48.0592 196.838 48.1945 197.216 48.014 197.732C47.9181 197.978 47.7264 198.189 47.4895 198.316C47.2272 198.448 47.2611 198.426 46.9931 198.499L46.1076 198.649C44.9175 198.77 43.7049 198.516 42.7291 197.977C41.7223 197.487 40.9467 196.776 40.253 196.085C39.5846 195.375 39.0036 194.65 38.5327 193.959C37.571 192.577 36.9873 191.302 36.5812 190.422C36.1779 189.534 36.0115 189.004 36.0115 189.004Z" fill="#F2A686"/>
<path d="M47.5458 196.428C47.5458 196.428 48.1126 196.42 48.9051 196.355C49.6919 196.307 50.7043 196.191 51.5391 195.827C51.7168 195.715 51.9452 195.65 52.0975 195.495C52.2808 195.371 52.4387 195.23 52.5628 195.066C52.7208 194.919 52.8138 194.725 52.9182 194.561C53.0535 194.392 53.1043 194.2 53.1861 194.034C53.3581 193.687 53.4427 193.36 53.5132 193.129C53.5837 192.909 53.6486 192.765 53.6486 192.765C53.6486 192.765 53.6881 192.9 53.7416 193.143C53.7614 193.385 53.8855 193.735 53.8262 194.175C53.8037 194.389 53.8178 194.643 53.7106 194.88C53.6288 195.128 53.5696 195.413 53.3778 195.65C53.2312 195.904 53.0451 196.16 52.7912 196.346C52.5684 196.586 52.2836 196.702 52.0101 196.868C51.7196 196.964 51.4319 197.094 51.1386 197.128C50.8482 197.201 50.5436 197.207 50.2813 197.209C49.7398 197.209 49.2407 197.122 48.8317 197.001C48.0139 196.758 47.5458 196.428 47.5458 196.428Z" fill="#F2A686"/>
<path d="M51.4551 172.711C51.4551 172.711 51.472 173.49 51.4776 174.646C51.4663 175.213 51.4607 175.878 51.4353 176.597C51.4128 177.294 51.3874 178.05 51.3648 178.806C51.3479 179.547 51.3451 180.3 51.3112 181.002C51.331 181.702 51.331 182.362 51.3112 182.929C51.3987 184.048 51.3987 184.841 51.3987 184.841C51.3987 184.841 51.0659 184.144 50.657 183.024C50.5329 182.458 50.4031 181.781 50.3016 181.048C50.2424 180.326 50.2227 179.544 50.2227 178.76C50.2847 177.209 50.5216 175.672 50.8346 174.547C51.1279 173.419 51.4551 172.711 51.4551 172.711Z" fill="#F2A686"/>
</g>
<path opacity="0.3" d="M87.8301 266.013C75.8078 256.371 64.4087 219.771 60.3167 205.467C60.2039 205.487 60.0967 205.498 59.9811 205.52C53.9939 204.999 48.3 201.245 46.6164 197.522C42.9417 201.846 38.3759 196.473 36.4384 190.991L36.0069 188.997C36.0069 188.997 30.7389 189.553 32.682 195.018C34.6194 200.501 39.1853 205.87 42.8599 201.55C44.5435 205.272 50.2374 209.023 56.2246 209.548C56.3402 209.528 56.4446 209.514 56.5602 209.494C60.6523 223.795 72.0485 260.398 84.0736 270.04C84.0736 270.04 94.8353 274.927 101.607 264.744C95.2189 269.372 87.8301 266.013 87.8301 266.013Z" fill="#F2A686"/>
<g filter="url(#filter0_d_708_5092)">
<path d="M54.9622 320.475C50.6953 340.422 78.6768 361.48 91.8723 360.854C96.2802 331.35 70.4674 314.2 54.9622 320.475Z" fill="#282828"/>
</g>
<g filter="url(#filter1_d_708_5092)">
<path d="M128.217 345.471C105.952 339.853 91.8713 360.855 91.8713 360.855C124.013 384.18 150.158 374.702 150.158 374.702C150.158 374.702 154.696 352.152 128.217 345.471Z" fill="#282828"/>
</g>
<g filter="url(#filter2_d_708_5092)">
<path d="M76.9741 315.961C76.9741 315.961 33.366 339.568 33.4112 354.876C33.4958 383.453 32.8133 424.971 38.4931 449.298C38.4931 449.298 40.1993 450.75 45.6619 452.4C45.6619 452.4 49.2238 450.967 49.5706 447.346C55.4253 385.153 57.6927 362.093 57.6927 362.093L93.0659 342.259C93.675 338.037 76.9741 315.961 76.9741 315.961Z" fill="#FFC39C"/>
<path opacity="0.3" d="M76.9741 315.961C76.9741 315.961 75.4822 316.767 73.0597 318.175C77.7524 324.619 86.9292 337.701 86.4752 340.849L51.102 360.683C51.102 360.683 48.8346 383.743 42.98 445.936C42.7656 448.184 41.3104 449.585 40.2388 450.327C41.3584 450.885 43.0787 451.616 45.6619 452.397C45.6619 452.397 49.2238 450.964 49.5706 447.343C55.4253 385.15 57.6927 362.09 57.6927 362.09L93.0659 342.256C93.675 338.037 76.9741 315.961 76.9741 315.961Z" fill="#F2A686"/>
<path d="M32.9738 412.285C34.1046 425.317 35.8616 438.028 38.4956 449.297C38.4956 449.297 40.2018 450.749 45.6644 452.399C45.6644 452.399 49.2263 450.966 49.5732 447.345C50.7943 434.364 51.8011 423.064 52.6274 413.267C46.079 414.183 39.3529 413.977 32.9738 412.285Z" fill="#EAEAEA"/>
<path d="M43.3297 443.956C43.3297 443.956 38.7103 438.97 35.9719 442.287C35.9719 442.287 26.2367 449.258 16.1237 456.667C6.01341 464.078 7.55321 468.277 9.19736 474.25C9.19736 474.25 16.558 480.441 32.6385 473.985C32.6385 473.985 41.9252 471.667 47.6643 466.01C51.8437 461.892 57.9493 462.005 57.9465 457.964C57.9437 453.923 55.3125 440.6 53.1325 440.284C52.1878 440.143 51.3643 439.819 50.4477 440.394C49.5425 440.958 48.9587 441.926 48.0252 442.453C47.4415 442.789 43.8176 444.546 43.3297 443.956Z" fill="url(#paint10_linear_708_5092)"/>
<path d="M30.4895 458.914C26.7923 455.112 22.9456 454.198 18.5405 454.898C17.7368 455.482 16.9302 456.068 16.1237 456.666C6.01341 464.077 7.55321 468.277 9.19736 474.25C9.19736 474.25 16.558 480.44 32.6385 473.985C32.6385 473.985 34.3559 473.556 36.7615 472.617C36.0311 467.589 34.0062 462.535 30.4895 458.914Z" fill="#DADBDC"/>
<path d="M53.0036 459.298C49.7717 460.906 47.5071 462.691 44.9464 465.201C40.6683 469.392 33.5248 472.302 27.7745 473.551C23.8602 474.395 21.776 474.347 17.7771 474.397C15.9045 474.423 13.5553 473.847 11.7363 473.255C10.188 472.753 9.29125 471.927 8.8231 470.923C8.74132 471.969 8.86257 473.055 9.19535 474.254C9.19535 474.254 16.556 480.444 32.6365 473.988C32.6365 473.988 41.9232 471.67 47.6622 466.013C51.8417 461.896 57.9473 462.008 57.9445 457.967C57.9445 457.618 57.9163 457.175 57.8768 456.693C56.3032 457.62 54.676 458.472 53.0036 459.298Z" fill="#A1A3A5"/>
<path d="M33.6239 458.032C33.3955 458.007 33.184 457.882 33.0543 457.671C29.3035 451.385 22.6958 452.262 22.631 452.268C22.2221 452.332 21.8667 452.053 21.8019 451.661C21.7455 451.258 22.0218 450.891 22.4167 450.832C22.4928 450.818 30.0677 449.811 34.3064 456.926C34.5151 457.265 34.4023 457.713 34.0554 457.925C33.9229 458.001 33.7734 458.035 33.6239 458.032Z" fill="#DADBDC"/>
<path d="M37.2023 455.191C36.9767 455.171 36.7567 455.056 36.6355 454.838C32.8818 448.547 26.2714 449.429 26.2037 449.443C25.792 449.5 25.4366 449.221 25.383 448.831C25.3238 448.425 25.603 448.059 26.0006 447.999C26.0768 447.988 33.6461 446.979 37.8876 454.088C38.0907 454.435 37.9778 454.883 37.6338 455.087C37.4956 455.168 37.3461 455.199 37.2023 455.191Z" fill="#DADBDC"/>
<path d="M40.8045 452.806C40.5817 452.795 40.3674 452.671 40.2405 452.454C36.4897 446.171 29.8736 447.053 29.8116 447.062C29.3942 447.118 29.0417 446.839 28.9853 446.447C28.9261 446.041 29.2024 445.677 29.6029 445.618C29.679 445.615 37.2483 444.6 41.4927 451.715C41.6957 452.053 41.5857 452.51 41.2389 452.713C41.1035 452.795 40.954 452.818 40.8045 452.806Z" fill="#DADBDC"/>
<path d="M15.7266 459.151C15.7266 459.151 7.99937 463.609 9.86631 468.435C11.7361 473.251 22.1537 470.592 21.7871 464.368C21.4148 458.144 17.5258 457.915 15.7266 459.151Z" fill="white"/>
</g>
<g filter="url(#filter3_d_708_5092)">
<path d="M127.967 335.265C127.967 335.265 96.3161 352.011 94.1192 368.969C90.0187 400.625 85.529 445.245 88.2476 473.018C88.2476 473.018 89.9228 474.877 95.7295 477.508C95.7295 477.508 99.8836 476.442 100.8 472.488C116.412 404.477 119.949 380.528 119.949 380.528L154.809 356.842C153.856 352.175 127.967 335.265 127.967 335.265Z" fill="#FFC39C"/>
<path opacity="0.3" d="M127.966 335.265C127.966 335.265 127.811 335.347 127.543 335.493C135.132 340.682 148.589 350.291 149.275 353.635L114.415 377.322C114.415 377.322 110.878 401.271 95.266 469.281C94.3495 473.238 90.1954 474.301 90.1954 474.301C89.8287 474.135 89.527 473.983 89.1942 473.825C90.2236 474.609 92.209 475.912 95.7313 477.508C95.7313 477.508 99.8854 476.442 100.802 472.488C116.414 404.477 119.951 380.528 119.951 380.528L154.811 356.842C153.855 352.175 127.966 335.265 127.966 335.265Z" fill="#F2A686"/>
<path d="M87.5682 431.223C86.9083 445.823 86.9873 460.152 88.2479 473.018C88.2479 473.018 89.923 474.876 95.7297 477.507C95.7297 477.507 99.8838 476.441 100.8 472.488C104.06 458.291 106.833 445.925 109.187 435.2C101.802 435.248 94.3845 434.035 87.5682 431.223Z" fill="#EAEAEA"/>
<path d="M92.7036 469.673C92.7036 469.673 87.4892 464.154 84.4688 467.888C84.4688 467.888 73.6704 475.779 62.4547 484.169C51.2418 492.556 53.0072 497.229 54.9108 503.888C54.9108 503.888 63.1992 510.721 81.0931 503.338C81.0931 503.338 91.4402 500.647 97.7884 494.265C102.411 489.62 109.233 489.68 109.187 485.167C109.139 480.652 106.054 465.801 103.618 465.471C102.56 465.325 101.638 464.969 100.62 465.624C99.6158 466.264 98.9728 467.352 97.935 467.95C97.2864 468.325 93.2564 470.325 92.7036 469.673Z" fill="url(#paint11_linear_708_5092)"/>
<path d="M78.5238 486.521C74.3528 482.314 70.0464 481.338 65.1337 482.167C64.2426 482.827 63.3486 483.49 62.4518 484.166C51.2388 492.554 53.0043 497.227 54.9079 503.885C54.9079 503.885 63.1963 510.718 81.0901 503.335C81.0901 503.335 83.005 502.836 85.6813 501.761C84.8127 496.152 82.4946 490.526 78.5238 486.521Z" fill="#DADBDC"/>
<path d="M103.677 486.704C100.084 488.534 97.577 490.553 94.7427 493.385C90.0077 498.111 82.0633 501.442 75.6531 502.9C71.2903 503.884 68.9637 503.853 64.4966 503.955C62.404 504.003 59.7757 503.385 57.7367 502.745C55.9995 502.201 54.9899 501.29 54.4597 500.17C54.3779 501.341 54.5274 502.55 54.9109 503.887C54.9109 503.887 63.1993 510.72 81.0932 503.337C81.0932 503.337 91.4403 500.647 97.7885 494.265C102.411 489.62 109.233 489.679 109.188 485.167C109.182 484.775 109.145 484.281 109.1 483.743C107.346 484.795 105.535 485.765 103.677 486.704Z" fill="#A1A3A5"/>
<path d="M82.0206 485.5C81.7667 485.471 81.527 485.336 81.3804 485.105C77.1219 478.125 69.7501 479.177 69.6796 479.182C69.2227 479.259 68.8222 478.951 68.7489 478.514C68.6812 478.063 68.9858 477.651 69.4286 477.583C69.5132 477.566 77.9652 476.359 82.7764 484.262C83.0132 484.637 82.892 485.139 82.5056 485.381C82.3533 485.463 82.1869 485.5 82.0206 485.5Z" fill="#DADBDC"/>
<path d="M85.9791 482.289C85.7253 482.269 85.4799 482.142 85.3418 481.899C81.0805 474.914 73.7058 475.971 73.6297 475.985C73.17 476.053 72.7695 475.746 72.7075 475.311C72.637 474.857 72.9443 474.446 73.3871 474.378C73.4717 474.364 81.9181 473.154 86.7321 481.05C86.9633 481.434 86.8421 481.939 86.4613 482.17C86.3091 482.26 86.1427 482.3 85.9791 482.289Z" fill="#DADBDC"/>
<path d="M89.9838 479.587C89.7328 479.575 89.4931 479.44 89.3493 479.198C85.0908 472.221 77.7105 473.278 77.6428 473.287C77.1775 473.354 76.7798 473.047 76.7122 472.61C76.6417 472.158 76.9463 471.747 77.3947 471.676C77.4793 471.671 85.9228 470.455 90.7396 478.357C90.9709 478.735 90.8524 479.243 90.466 479.474C90.3138 479.57 90.1474 479.598 89.9838 479.587Z" fill="#DADBDC"/>
<path d="M62.0394 486.947C62.0394 486.947 53.4576 492.012 55.5953 497.381C57.7358 502.742 69.3436 499.657 68.867 492.711C68.3791 485.762 64.0332 485.548 62.0394 486.947Z" fill="white"/>
</g>
<path d="M192.882 307.624C130.931 322.379 99.4725 304.085 99.4725 304.085C71.9394 302.5 54.9592 320.476 54.9592 320.476C70.4644 314.201 96.2773 331.35 91.8694 360.854C91.8694 360.854 105.95 339.853 128.216 345.471C154.694 352.151 150.156 374.701 150.156 374.701C198.299 349.732 192.882 307.624 192.882 307.624Z" fill="#4A4F47"/>
<path d="M91.8713 360.854C91.8713 360.854 101.872 334.717 122.357 325.89C122.357 325.89 106.973 336.437 91.8713 360.854Z" fill="#282828"/>
<g opacity="0.5" filter="url(#filter4_d_708_5092)">
<path d="M192.881 307.624C130.931 322.379 99.4718 304.084 99.4718 304.084C98.7498 304.042 98.0645 304.067 97.3538 304.05C113.364 318.075 148.898 315.678 165.912 314.702C182.948 313.724 199.345 324.488 169.234 340.422C141.819 354.929 102.777 340.385 124.01 323.859C102.388 335.264 85.8786 326.843 74.7165 320.472C64.2678 314.51 71.9386 309.276 72.7931 308.794C61.4166 313.661 54.9585 320.472 54.9585 320.472C70.4637 314.197 96.2765 331.347 91.8686 360.851C91.8686 360.851 105.95 339.849 128.215 345.467C154.693 352.148 150.156 374.698 150.156 374.698C198.298 349.731 192.881 307.624 192.881 307.624Z" fill="#4A4F47"/>
</g>
<defs>
<filter id="filter0_d_708_5092" x="46.524" y="313.187" width="61.8475" height="65.6812" filterUnits="userSpaceOnUse" color-interpolation-filters="sRGB">
<feFlood flood-opacity="0" result="BackgroundImageFix"/>
<feColorMatrix in="SourceAlpha" type="matrix" values="0 0 0 0 0 0 0 0 0 0 0 0 0 0 0 0 0 0 127 0" result="hardAlpha"/>
<feOffset dx="4" dy="6"/>
<feGaussianBlur stdDeviation="6"/>
<feComposite in2="hardAlpha" operator="out"/>
<feColorMatrix type="matrix" values="0 0 0 0 0 0 0 0 0 0 0 0 0 0 0 0 0 0 0.31 0"/>
<feBlend mode="normal" in2="BackgroundImageFix" result="effect1_dropShadow_708_5092"/>
<feBlend mode="normal" in="SourceGraphic" in2="effect1_dropShadow_708_5092" result="shape"/>
</filter>
<filter id="filter1_d_708_5092" x="83.8713" y="338.516" width="82.5825" height="56.0912" filterUnits="userSpaceOnUse" color-interpolation-filters="sRGB">
<feFlood flood-opacity="0" result="BackgroundImageFix"/>
<feColorMatrix in="SourceAlpha" type="matrix" values="0 0 0 0 0 0 0 0 0 0 0 0 0 0 0 0 0 0 127 0" result="hardAlpha"/>
<feOffset dx="4" dy="6"/>
<feGaussianBlur stdDeviation="6"/>
<feComposite in2="hardAlpha" operator="out"/>
<feColorMatrix type="matrix" values="0 0 0 0 0 0 0 0 0 0 0 0 0 0 0 0 0 0 0.31 0"/>
<feBlend mode="normal" in2="BackgroundImageFix" result="effect1_dropShadow_708_5092"/>
<feBlend mode="normal" in="SourceGraphic" in2="effect1_dropShadow_708_5092" result="shape"/>
</filter>
<filter id="filter2_d_708_5092" x="0" y="309.961" width="109.082" height="184.967" filterUnits="userSpaceOnUse" color-interpolation-filters="sRGB">
<feFlood flood-opacity="0" result="BackgroundImageFix"/>
<feColorMatrix in="SourceAlpha" type="matrix" values="0 0 0 0 0 0 0 0 0 0 0 0 0 0 0 0 0 0 127 0" result="hardAlpha"/>
<feOffset dx="4" dy="6"/>
<feGaussianBlur stdDeviation="6"/>
<feComposite in2="hardAlpha" operator="out"/>
<feColorMatrix type="matrix" values="0 0 0 0 0 0 0 0 0 0 0 0 0 0 0 0 0 0 0.31 0"/>
<feBlend mode="normal" in2="BackgroundImageFix" result="effect1_dropShadow_708_5092"/>
<feBlend mode="normal" in="SourceGraphic" in2="effect1_dropShadow_708_5092" result="shape"/>
</filter>
<filter id="filter3_d_708_5092" x="45.5017" y="329.265" width="125.309" height="195.503" filterUnits="userSpaceOnUse" color-interpolation-filters="sRGB">
<feFlood flood-opacity="0" result="BackgroundImageFix"/>
<feColorMatrix in="SourceAlpha" type="matrix" values="0 0 0 0 0 0 0 0 0 0 0 0 0 0 0 0 0 0 127 0" result="hardAlpha"/>
<feOffset dx="4" dy="6"/>
<feGaussianBlur stdDeviation="6"/>
<feComposite in2="hardAlpha" operator="out"/>
<feColorMatrix type="matrix" values="0 0 0 0 0 0 0 0 0 0 0 0 0 0 0 0 0 0 0.31 0"/>
<feBlend mode="normal" in2="BackgroundImageFix" result="effect1_dropShadow_708_5092"/>
<feBlend mode="normal" in="SourceGraphic" in2="effect1_dropShadow_708_5092" result="shape"/>
</filter>
<filter id="filter4_d_708_5092" x="46.9585" y="298.05" width="162.105" height="94.6476" filterUnits="userSpaceOnUse" color-interpolation-filters="sRGB">
<feFlood flood-opacity="0" result="BackgroundImageFix"/>
<feColorMatrix in="SourceAlpha" type="matrix" values="0 0 0 0 0 0 0 0 0 0 0 0 0 0 0 0 0 0 127 0" result="hardAlpha"/>
<feOffset dx="4" dy="6"/>
<feGaussianBlur stdDeviation="6"/>
<feComposite in2="hardAlpha" operator="out"/>
<feColorMatrix type="matrix" values="0 0 0 0 0 0 0 0 0 0 0 0 0 0 0 0 0 0 0.31 0"/>
<feBlend mode="normal" in2="BackgroundImageFix" result="effect1_dropShadow_708_5092"/>
<feBlend mode="normal" in="SourceGraphic" in2="effect1_dropShadow_708_5092" result="shape"/>
</filter>
<linearGradient id="paint0_linear_708_5092" x1="136.558" y1="216.086" x2="89.1006" y2="216.086" gradientUnits="userSpaceOnUse">
<stop stop-color="#002382"/>
<stop offset="1" stop-color="#6E82FF"/>
</linearGradient>
<linearGradient id="paint1_linear_708_5092" x1="194.369" y1="254.802" x2="97.2881" y2="254.802" gradientUnits="userSpaceOnUse">
<stop stop-color="#002382"/>
<stop offset="1" stop-color="#6E82FF"/>
</linearGradient>
<linearGradient id="paint2_linear_708_5092" x1="194.366" y1="254.812" x2="97.2883" y2="254.812" gradientUnits="userSpaceOnUse">
<stop stop-color="#002382"/>
<stop offset="1" stop-color="#6E82FF"/>
</linearGradient>
<linearGradient id="paint3_linear_708_5092" x1="298.129" y1="165.335" x2="222.122" y2="165.335" gradientUnits="userSpaceOnUse">
<stop stop-color="#002382"/>
<stop offset="1" stop-color="#6E82FF"/>
</linearGradient>
<linearGradient id="paint4_linear_708_5092" x1="298.128" y1="165.334" x2="255.6" y2="165.334" gradientUnits="userSpaceOnUse">
<stop stop-color="#002382"/>
<stop offset="1" stop-color="#6E82FF"/>
</linearGradient>
<radialGradient id="paint5_radial_708_5092" cx="0" cy="0" r="1" gradientUnits="userSpaceOnUse" gradientTransform="translate(84.4838 123.963) rotate(46.021) scale(20.2074)">
<stop offset="0.0011" stop-color="#EF7B63"/>
<stop offset="0.1221" stop-color="#F2907C"/>
<stop offset="0.42" stop-color="#F7BFB4"/>
<stop offset="0.6763" stop-color="#FBE2DD"/>
<stop offset="0.8779" stop-color="#FEF7F6"/>
<stop offset="1" stop-color="white"/>
</radialGradient>
<linearGradient id="paint6_linear_708_5092" x1="267.836" y1="69.936" x2="208.726" y2="69.936" gradientUnits="userSpaceOnUse">
<stop stop-color="#002382"/>
<stop offset="1" stop-color="#6E82FF"/>
</linearGradient>
<linearGradient id="paint7_linear_708_5092" x1="208.629" y1="29.0029" x2="83.7136" y2="29.0029" gradientUnits="userSpaceOnUse">
<stop stop-color="#002382"/>
<stop offset="1" stop-color="#6E82FF"/>
</linearGradient>
<linearGradient id="paint8_linear_708_5092" x1="267.835" y1="71.3751" x2="83.7135" y2="71.3751" gradientUnits="userSpaceOnUse">
<stop stop-color="#002382"/>
<stop offset="1" stop-color="#6E82FF"/>
</linearGradient>
<linearGradient id="paint9_linear_708_5092" x1="205.374" y1="230.412" x2="170.756" y2="230.412" gradientUnits="userSpaceOnUse">
<stop stop-color="#002382"/>
<stop offset="1" stop-color="#6E82FF"/>
</linearGradient>
<linearGradient id="paint10_linear_708_5092" x1="57.9465" y1="458.397" x2="8" y2="458.397" gradientUnits="userSpaceOnUse">
<stop stop-color="#002382"/>
<stop offset="1" stop-color="#6E82FF"/>
</linearGradient>
<linearGradient id="paint11_linear_708_5092" x1="109.188" y1="485.895" x2="53.5046" y2="485.895" gradientUnits="userSpaceOnUse">
<stop stop-color="#002382"/>
<stop offset="1" stop-color="#6E82FF"/>
</linearGradient>
</defs>
</svg>
