<svg width="1824" height="718" viewBox="0 0 1824 718" fill="none" xmlns="http://www.w3.org/2000/svg">
<g opacity="0.1">
<path d="M249.924 565.412C216.209 564.454 182.42 563.913 148.626 563.753C149.848 552.788 150.563 541.714 151.105 530.615C161.423 532.143 171.751 532.051 182.048 534.473C193.22 537.102 203.901 541.143 214.099 546.392C215.386 547.052 216.848 546.044 216.556 544.59C208.036 502.085 197.203 451.729 161.675 422.837C161.659 422.667 161.583 422.503 161.416 422.398C160.86 422.05 160.317 421.687 159.772 421.326C159.548 421.152 159.334 420.97 159.108 420.797C158.992 420.709 158.871 420.673 158.75 420.659C158.717 420.638 158.687 420.617 158.654 420.595C157.95 420.149 157.214 419.615 156.418 419.315C156.539 415.878 156.649 412.442 156.741 409.009C156.75 408.658 156.616 408.403 156.419 408.234C156.122 407.694 155.488 407.337 154.895 407.764C107.781 441.787 75.5563 497.266 63.2421 553.384C62.9655 554.645 63.9362 555.67 65.2162 555.444C92.0375 550.656 118.907 548.017 146.005 545.589C145.757 551.648 145.598 557.7 145.6 563.736C108.433 563.586 71.2595 563.911 34.1727 564.721C34.1403 564.61 34.106 564.502 34.0736 564.391C33.6989 563.155 31.9316 563.623 32.143 564.879C32.1544 564.952 32.1715 565.026 32.1855 565.098C31.8494 565.539 31.9257 566.26 32.4529 566.513C34.3572 576.766 37.9715 586.753 42.3931 596.171C46.8451 605.651 50.0833 608.136 60.3932 608.343C85.7777 608.848 111.168 609.141 136.553 609.54C161.92 609.94 187.343 610.935 212.712 610.793C220.815 610.749 224.806 607.316 229.265 600.759C236.401 590.268 243.287 579.583 250.222 568.958C250.318 568.81 250.378 568.667 250.423 568.521C251.903 567.995 251.785 565.464 249.924 565.412ZM156.329 421.58C156.781 421.793 157.252 421.979 157.707 422.175C157.94 422.275 158.178 422.369 158.411 422.467C173.728 437.74 185.577 454.893 194.005 474.878C203.063 496.354 208.091 519.25 212.686 542.03C203.195 537.401 193.299 533.734 182.992 531.318C173.031 528.981 161.496 526.619 151.234 527.921C151.872 514.124 152.273 500.298 153.015 486.606C154.191 464.941 155.524 443.267 156.329 421.58ZM66.9585 551.818C73.2566 524.407 84.0147 498.194 98.9297 474.313C114.068 450.075 133.137 429.867 154.491 411.138C152.417 436.23 151.2 461.402 149.774 486.534C148.723 505.041 147.015 523.724 146.147 542.345C119.662 543.457 93.0496 547.217 66.9585 551.818ZM229.449 594.491C226.854 598.427 223.994 604.347 219.551 606.499C215.084 608.666 208.015 607.461 203.261 607.39C181.955 607.073 160.647 606.771 139.34 606.441C118.486 606.118 97.6333 605.791 76.7785 605.465C71.3387 605.38 65.8966 605.306 60.4598 605.212C55.9191 605.133 51.888 605.626 48.3347 601.082C46.9899 599.362 45.9801 596.639 45.0501 594.69C40.7112 585.611 37.6722 576.198 34.7535 566.624C105.326 567.581 175.952 568.251 246.53 568.606C240.806 577.213 235.139 585.86 229.449 594.491Z" fill="url(#paint0_linear_708_5609)"/>
<path d="M1018.68 240.65C1030.49 216.489 1007.56 193.777 984.192 190.117C971.381 188.108 956.953 190.029 946.584 198.349C937.599 205.562 932.857 217.025 935.108 228.277C925.819 222.929 913.456 223.462 905.369 231.014C897.229 238.612 895.722 250.86 900.304 260.623C880.694 266.402 864.991 284.339 869.46 305.779C873.208 323.766 892.612 334.763 909.228 327.548C903.395 346.152 917.442 365.685 937.535 366.302C959.728 366.984 974.332 347.363 973.529 326.726C986.354 334.086 1002.1 324.76 1001.71 310.009C1020.17 321.789 1045.35 312.609 1052.27 291.35C1060.14 267.174 1042.2 244.644 1018.68 240.65ZM1049.64 288.652C1043.97 309.71 1018.29 319.561 1000.84 305.386C999.583 304.369 997.744 305.31 998.095 306.977C1001.22 321.818 984.603 332.069 972.802 322.287C971.477 321.188 969.85 322.263 970.06 323.88C972.531 343.035 959.799 362.461 939.444 363.025C919.639 363.572 904.749 343.238 913.804 324.849C914.484 323.466 913.022 321.674 911.552 322.614C894.537 333.481 873.835 320.43 872.126 301.429C870.397 282.209 885.57 267.643 903.126 263.257C904.173 262.996 904.639 261.751 904.118 260.84C892.388 240.314 916.005 218.718 935.668 231.433C936.188 231.769 936.676 231.633 937.002 231.304C937.999 231.333 939.052 230.543 938.715 229.296C931.297 201.885 963.696 189.458 985.399 193.64C1006.55 197.716 1027.46 218.858 1014.74 241.115C1014.08 242.272 1014.95 243.443 1016.15 243.576C1038.1 246.02 1055.68 266.245 1049.64 288.652Z" fill="url(#paint1_linear_708_5609)"/>
<path d="M788.387 330.312C787.251 318.946 776.69 311.716 766.052 310.183C751.513 308.086 738.23 316.583 726.746 324.539C726.696 323.651 726.645 322.763 726.564 321.882C726.415 320.238 726.13 318.687 725.618 317.295C729.212 316.126 732.128 312.728 732.594 308.977C733.044 305.357 731.066 301.812 728.053 299.906C728.482 296.664 729.492 293.655 731.405 290.929C733.365 288.135 736.069 286.628 738.581 284.455C739.266 283.865 738.566 282.773 737.75 282.975C731.17 284.594 727.083 292.714 726.773 299.227C726.059 298.916 725.308 298.683 724.528 298.563C723.885 298.466 723.249 298.458 722.626 298.516C721.83 292.055 717.641 285.323 711.298 283.328C710.113 282.956 709.414 284.64 710.436 285.287C715.824 288.709 719.773 292.638 721.016 298.833C718.012 299.749 715.571 302.351 714.866 305.512C714.183 308.566 715.467 312.102 718.103 313.354C716.889 316.494 715.849 319.685 714.943 322.913C702.281 296.562 647.762 297.612 642.543 329.061C640.154 343.463 648.712 356.66 661.579 362.696C674.788 368.89 689.262 366.989 702.037 361.143C695.799 368.125 689.787 375.343 684.951 383.365C681.459 389.158 673.752 401.03 678.067 408.121C686.706 422.32 702.844 389.472 708.761 375.266C708.617 383.791 709.606 392.414 714.879 398.393C715.47 399.066 716.721 398.932 717.144 398.137C720.783 391.321 722.888 384.094 724.159 376.679C726.384 384.588 731.18 391.537 737.682 396.714C741.707 399.92 750.644 406.411 755.931 402.647C762.633 397.874 756.481 389.506 753.015 385.157C746.69 377.221 739.641 369.914 732.066 363.181C744.184 367.13 756.422 368.941 768.506 362.563C779.823 356.583 789.725 343.667 788.387 330.312ZM718.84 303.01C719.643 302.151 720.599 301.566 721.619 301.266C721.977 301.534 722.531 301.483 722.714 301.057C724.105 300.92 725.551 301.274 726.847 302.144C729.462 303.896 730.806 307.174 729.683 310.18C728.724 312.749 726.716 314.138 724.356 314.909C723.665 313.953 722.77 313.587 721.625 312.959C721.502 312.804 721.317 313.158 721.077 313.155L721.074 313.156C720.817 313.151 720.594 312.45 720.314 312.349C720.088 312.265 719.882 312.016 719.689 312.035C719.46 311.912 719.169 311.8 718.922 311.923C716.1 310.394 716.788 305.206 718.84 303.01ZM709.599 359.861C709.484 362.426 709.264 365.226 709.075 368.127C708.698 368.241 708.367 368.507 708.217 368.992C705.575 377.54 702.037 385.712 697.373 393.362C695.198 396.927 692.876 400.519 690.136 403.679C689.024 405.245 687.64 406.534 685.982 407.549L680.304 405.694C679.18 404.411 680.51 400.26 680.922 398.824C685.555 382.698 698.664 369.205 709.737 357.159C709.685 358.061 709.638 358.962 709.599 359.861ZM708.261 354.382C696.15 361.761 681.58 366.146 667.587 361.733C654.359 357.559 644.051 345.809 645.346 331.423C648.146 300.332 701.945 300.322 713.833 324.748C713.954 324.995 714.131 325.13 714.323 325.184C711.843 334.754 710.552 344.624 709.898 354.503C709.482 354.136 708.89 353.998 708.261 354.382ZM723.118 356.931C722.568 369.92 721.346 382.907 715.651 394.707C711.991 389.298 712.098 382.521 712.072 376.104C712.042 369.04 712.145 361.974 712.55 354.922C713.34 341.185 715.496 327.787 719.434 314.625C719.461 314.636 719.482 314.652 719.512 314.661C720.317 314.958 720.986 315.415 721.543 315.991C721.231 316.661 721.649 317.677 722.554 317.722C722.609 317.726 722.664 317.72 722.722 317.721C725.13 322.538 723.72 331.15 723.661 335.292C723.56 342.507 723.422 349.724 723.118 356.931ZM746.443 381.65C748.632 384.155 752.476 387.51 753.631 390.585C755.692 392.461 755.189 394.389 752.121 396.366C751.53 400.278 750.074 401.421 747.754 399.788C746.268 399.426 744.696 398.401 743.379 397.627C740.274 395.802 737.418 393.555 734.934 390.944C730.012 385.768 726.827 379.542 724.746 372.77C725.241 369.049 725.561 365.29 725.783 361.52C730.434 365.43 734.932 369.503 739.194 373.837C741.687 376.372 744.106 378.976 746.443 381.65ZM763.732 361.634C750.926 366.858 738.224 362.655 725.965 357.999C726.08 355.404 726.167 352.803 726.245 350.212C726.458 343.002 727.03 335.514 726.888 328.196C736.819 321.275 747.795 313.463 760.319 312.86C772.156 312.29 785.613 319.643 785.589 332.746C785.562 345.619 775.092 357.001 763.732 361.634Z" fill="url(#paint2_linear_708_5609)"/>
<path d="M1595.48 125.752C1588.87 121.108 1580.34 121.002 1573.15 124.301C1572.51 121.212 1571.63 118.174 1570.48 115.232C1566.45 104.87 1557.39 92.6207 1546.26 84.0759C1549.9 75.9374 1556.49 70.0955 1564.9 66.8533C1566.15 66.3711 1565.69 64.3898 1564.34 64.7953C1555.3 67.5257 1548.31 74.4183 1544.9 83.0649C1533.92 75.0586 1521.11 70.7628 1509.17 75.3529C1507.47 65.434 1510.39 56.3757 1517.99 49.2352C1519.2 48.1019 1517.44 46.5055 1516.21 47.4719C1507.82 54.0434 1504.19 66.0304 1507.24 76.1808C1506.91 76.3341 1506.58 76.4664 1506.26 76.6355C1505.5 77.0246 1505.34 77.7155 1505.53 78.3336C1494.4 80.9239 1483.97 86.5659 1475.58 94.3476C1475.56 94.3174 1475.56 94.2874 1475.54 94.2579C1471.12 88.498 1468.45 82.1635 1467.04 75.0583C1466.74 73.591 1464.62 74.2281 1464.82 75.6511C1465.9 83.0587 1469.16 89.7688 1473.94 95.5016C1474.01 95.5882 1474.09 95.639 1474.18 95.6891C1466.98 102.768 1461.43 111.468 1458.51 121.218C1457.08 126.014 1456.35 131.013 1456.28 136.034C1449.65 135.926 1443.63 132.994 1438.98 127.909C1438.29 127.152 1436.9 128.187 1437.54 129.033C1441.95 134.922 1449.09 138.088 1456.31 137.828C1456.56 152.744 1462.59 167.664 1473.45 177.857C1465.78 183.266 1457.81 185.518 1448.18 185.114C1447.09 185.067 1446.8 186.852 1447.92 187.043C1457.45 188.682 1467.63 185.583 1474.67 178.954C1475.91 180.047 1477.21 181.085 1478.57 182.052C1487.52 188.401 1498.65 191.565 1510.07 191.996C1506.33 202.779 1499.56 211.192 1489.96 217.708C1489.04 218.331 1489.84 219.725 1490.84 219.201C1501.31 213.682 1509 203.48 1511.95 192.07C1521.37 192.177 1530.91 190.429 1539.51 187.045C1542.51 193.305 1543.55 199.868 1542.63 206.854C1542.5 207.904 1544.32 208.164 1544.49 207.109C1545.63 199.909 1544.45 192.801 1540.99 186.456C1545.58 184.524 1549.88 182.116 1553.73 179.269C1559.94 174.669 1564.75 168.752 1568.17 162.113C1576.2 165.518 1582.02 172.215 1584.55 180.577C1584.93 181.839 1586.88 181.328 1586.54 180.045C1584.11 170.921 1577.66 163.884 1569 160.373C1573.95 149.829 1575.49 137.657 1573.49 126.08C1580.5 122.973 1587.86 123.875 1594.51 127.437C1595.63 128.03 1596.49 126.463 1595.48 125.752ZM1554.39 174.651C1543.33 184.019 1527.51 188.984 1512.12 188.795C1511.86 188.646 1511.54 188.628 1511.29 188.784C1501.71 188.551 1492.33 186.311 1484.41 181.866C1468.7 173.045 1459.77 155.233 1459.55 137.481C1460.01 137.397 1460.48 137.305 1460.94 137.19C1461.9 136.951 1461.49 135.576 1460.55 135.73C1460.22 135.783 1459.9 135.817 1459.58 135.857C1459.64 132.489 1459.98 129.133 1460.68 125.852C1465.96 101.394 1487.61 84.7399 1510.97 79.0543C1511.59 78.9043 1511.7 78.3531 1511.5 77.9204C1532.82 70.9569 1557.61 95.3274 1565.83 112.551C1575.5 132.822 1572.04 159.687 1554.39 174.651Z" fill="url(#paint3_linear_708_5609)"/>
<path d="M1492.91 116.477C1492.95 116.402 1492.99 116.323 1493.03 116.248C1493.48 115.341 1492.21 114.603 1491.66 115.46C1491.12 116.291 1490.62 117.279 1490.32 118.298C1489.89 119.056 1489.76 119.932 1490.06 120.72C1490.17 121.676 1490.59 122.572 1491.47 123.295C1493.45 124.936 1496.82 124.527 1497.1 121.605C1497.32 119.223 1495.67 116.04 1492.91 116.477ZM1494.51 121.757C1494.04 122.241 1493.33 121.878 1492.81 121.388C1492.96 121.053 1492.98 120.671 1492.74 120.333C1492.32 119.742 1493.02 118.975 1493.66 119.204C1494.31 119.438 1494.99 121.262 1494.51 121.757Z" fill="url(#paint4_linear_708_5609)"/>
<path d="M1533.9 106.759C1533.29 105.355 1531.82 104.563 1530.41 104.522C1530.19 104.281 1529.86 104.144 1529.47 104.253C1526.41 105.118 1525.58 109.784 1528.62 111.263C1531.45 112.636 1535.3 109.935 1533.9 106.759Z" fill="url(#paint5_linear_708_5609)"/>
<path d="M1551.13 125.233C1547.73 140.528 1540.43 154.161 1524.8 159.937C1510.07 165.377 1493.36 161.28 1481.94 150.86C1481.11 150.1 1479.91 151.297 1480.71 152.11C1492.45 164.058 1510.68 168.52 1526.48 162.41C1540.83 156.857 1553.83 141.531 1553.65 125.582C1553.64 124.162 1551.45 123.771 1551.13 125.233Z" fill="url(#paint6_linear_708_5609)"/>
<path d="M1832.73 265.466C1842.34 252.575 1836.98 232.514 1820.1 228.63C1811.8 226.72 1802.89 229.116 1797.13 235.491C1791.3 241.953 1789.34 250.64 1788.07 259.079C1781.05 250.796 1769.61 246.663 1758.88 249.972C1757.85 250.289 1756.86 250.692 1755.9 251.131C1742.47 220.709 1706.67 201.017 1674.3 200.943C1637.65 200.86 1603.21 222.627 1588.54 256.294C1581.31 272.897 1579.1 291.161 1582.15 308.935C1581.98 308.969 1581.84 309.088 1581.8 309.318C1581.54 310.995 1582.23 312.542 1583.25 313.834C1579.46 314.861 1576.05 316.774 1573.52 320.262C1569.53 325.781 1568.93 333.437 1571.94 339.517C1578.74 353.241 1594.69 353.511 1605.97 346.388C1603.87 355.26 1610.12 365.185 1620.21 366.505C1635.55 368.509 1645.09 354.689 1645.51 340.919C1647.81 341.107 1650.11 341.296 1652.41 341.481C1653.39 341.561 1653.85 340.803 1653.82 340.036C1666.06 337.856 1668.87 320.034 1656.3 314.693C1665.32 305.752 1663.34 290.279 1650.7 285.053C1642.78 281.774 1637.02 284.037 1632.96 288.702C1635.24 269.289 1649.14 243.777 1670.64 244.727C1681.43 245.205 1691.06 251.3 1697.99 259.265C1701.55 263.356 1704.46 267.959 1707.09 272.686C1708.25 274.78 1709.34 276.92 1710.4 279.067C1710.66 279.595 1713.33 284.488 1715 287.05C1714.85 287.069 1714.7 287.109 1714.56 287.21C1714.44 287.299 1714.32 287.389 1714.2 287.478C1713.77 287.8 1713.38 288.387 1713.6 288.961L1713.83 289.562C1714.09 290.242 1714.55 290.608 1715.27 290.679C1715.33 290.686 1715.39 290.689 1715.44 290.696C1715.36 290.894 1715.26 291.071 1715.19 291.275C1712.09 299.876 1716.53 310.626 1725.31 313.298C1716.81 326.322 1716.79 346.011 1733.29 352.82C1750.28 359.831 1760.68 342.219 1765.89 328.603C1773.62 337.947 1787.54 343.189 1798.55 336.121C1807.27 330.528 1810.44 318.866 1806.16 309.874C1822.8 314.711 1843.5 312.187 1850.65 293.992C1855.79 280.886 1846.5 265.568 1832.73 265.466ZM1584.24 311.837C1576.75 267.191 1602.34 222.349 1645.96 208.448C1667.05 201.726 1689.94 202.839 1710.1 212.035C1729.32 220.801 1742.3 235.025 1753.36 252.47C1749.57 254.748 1746.46 257.96 1744.2 261.701C1737.82 245.006 1722.86 229.006 1707.53 220.392C1691.14 211.181 1673.18 210.254 1655.4 215.923C1622.59 226.387 1590.72 255.519 1597.16 292.672C1593.29 297.777 1593.81 306.28 1595.06 312.732C1591.54 312.678 1587.91 312.79 1584.5 313.53C1584.31 313.207 1584.14 312.877 1584 312.54C1584.18 312.373 1584.29 312.136 1584.24 311.837ZM1663.84 228.906C1636.88 235.985 1612.31 259.971 1609.96 288.444C1608.34 288.192 1606.66 288.156 1604.94 288.388C1602.23 288.756 1600.15 289.737 1598.57 291.135C1595.27 255.275 1624.89 228.035 1657.35 218.344C1674.83 213.125 1692.15 214.708 1707.86 224.168C1714.96 228.445 1721.25 234.036 1726.64 240.317C1732.95 247.678 1736.99 256.095 1742.48 263.948C1742.57 264.088 1742.69 264.194 1742.83 264.278C1740.79 268.578 1739.79 273.391 1740.07 278.22C1740.07 278.297 1740.11 278.35 1740.12 278.423C1737.27 278.147 1734.31 278.269 1731.44 278.8C1726.16 249.345 1694.83 220.767 1663.84 228.906ZM1645.87 286.774C1659.85 288.606 1663.58 305.887 1652.9 314.277C1652.11 314.896 1652.62 316.213 1653.48 316.439C1667.7 320.192 1663.28 340.156 1648.82 338.232C1648.74 338.223 1648.68 338.242 1648.61 338.252C1647.1 338.127 1645.59 338.005 1644.08 337.88C1643.31 337.816 1642.59 338.586 1642.61 339.332C1642.83 350.433 1636.85 362.841 1624.39 363.711C1612.76 364.523 1603.28 351.612 1611.32 342.091C1611.68 341.72 1612.04 341.343 1612.37 340.954C1613.6 339.543 1611.66 337.568 1610.29 338.895C1609.91 339.267 1609.56 339.648 1609.23 340.038C1600.21 349.257 1584.3 352.455 1575.87 340.327C1572.01 334.784 1571.93 327.41 1576 321.92C1580.91 315.298 1589.37 315.449 1596.83 315.662C1597.8 315.69 1598.44 314.737 1598.24 313.846C1597.31 309.721 1596.31 305.534 1596.94 301.296C1597.98 294.299 1603.63 289.812 1610.99 291.763C1618.66 293.797 1623.93 300.492 1625.37 308.064C1625.63 309.442 1627.96 309.495 1628.19 308.072C1628.93 303.481 1630.05 298.143 1632.34 293.945C1632.46 293.844 1632.54 293.695 1632.59 293.517C1635.2 288.985 1639.27 285.909 1645.87 286.774ZM1701.66 258.92C1694.21 249.8 1683.68 242.689 1671.65 241.914C1647.44 240.353 1630.57 269.891 1630.86 291.566C1628.91 294.663 1627.48 298.338 1626.5 302.034C1623.67 295.752 1618.16 290.416 1611.53 288.766C1615.42 262.115 1636.79 240.107 1662.29 232.371C1678.13 227.564 1693.76 232.641 1706.19 242.974C1717.86 252.677 1724.4 265.166 1728.67 279.451C1724.26 280.741 1720.29 283.147 1717.59 286.806C1717 283.211 1713.94 279.068 1712.59 276.406C1709.48 270.272 1706.02 264.263 1701.66 258.92ZM1844.32 298.863C1834.25 311.651 1816.93 310.859 1803.05 305.645C1801.47 305.05 1800.72 307.158 1801.58 308.199C1808.56 316.672 1804.53 330.189 1794.82 334.657C1784.5 339.406 1772.64 333.561 1766.73 324.753C1765.99 323.65 1764.42 323.875 1763.99 325.115C1759.88 336.914 1751.63 355.457 1735.77 350.598C1718.81 345.402 1720.51 324.648 1729.07 313.087C1729.59 312.375 1729.06 311.034 1728.17 310.91C1719.27 309.665 1714.87 299.426 1718.18 291.477C1722.18 281.843 1734.15 279.386 1743.45 280.756C1744.56 280.92 1745.08 279.287 1743.92 279.023C1743.63 278.959 1743.34 278.911 1743.04 278.854C1743.11 278.676 1743.15 278.475 1743.14 278.241C1742.64 267.463 1749.05 256.449 1759.74 253.13C1770.42 249.812 1781.91 254.786 1787.72 264.064C1788.64 265.544 1790.55 264.777 1790.76 263.248C1792.79 248.496 1797.92 229.373 1816.81 231.381C1834.31 233.242 1839.96 254.597 1827.77 266.317C1826.59 267.451 1827.83 269.285 1829.3 268.96C1836.57 267.356 1843.63 271.318 1847.13 277.699C1850.97 284.703 1849.06 292.842 1844.32 298.863Z" fill="url(#paint7_linear_708_5609)"/>
<path d="M1322.07 118.896C1303.6 122.398 1292.43 141.22 1291.84 158.944C1291.27 176.033 1299.54 193.237 1314.57 201.884C1331.25 211.483 1353.06 210.212 1368.21 198.304C1368.45 198.122 1368.55 197.886 1368.56 197.642C1368.03 201.368 1367.43 205.055 1366.84 208.667C1366.65 209.809 1367.26 210.593 1368.4 210.757C1371.55 211.213 1374.51 211.019 1377.31 210.235C1373.38 221.713 1378.25 235.339 1388.51 241.924C1395.85 246.627 1404.7 246.501 1412.99 248.003C1422.49 249.725 1432.4 253.477 1439.13 260.65C1453.42 275.888 1438.84 293.214 1441.46 310.495C1443.37 323.096 1455.55 333.558 1468.44 332.579C1470.27 332.439 1470.37 329.812 1468.49 329.699C1459.93 329.186 1452.05 325.441 1447.54 317.875C1443.02 310.28 1444.46 301.883 1446.35 293.745C1449.13 281.803 1451.3 270.121 1442.79 259.879C1434.01 249.312 1420.15 245.689 1407.11 244.009C1397.64 242.79 1388.73 240.717 1383.08 232.312C1378.46 225.456 1377.57 217.197 1379.82 209.369C1381.9 208.477 1383.88 207.228 1385.75 205.63C1386.64 204.873 1386.23 203.653 1385.45 203.058C1381.28 199.847 1376.95 197.186 1372.24 194.891C1374.39 178.502 1374.89 161.822 1368.22 146.33C1360.57 128.526 1342.12 115.098 1322.07 118.896ZM1381.92 204.483C1378.43 206.897 1374.56 207.908 1370.32 207.652C1370.83 204.538 1371.33 201.4 1371.78 198.247C1375.34 200.068 1378.69 202.128 1381.92 204.483ZM1361.07 139.861C1372.34 157.064 1371.39 177.878 1368.58 197.563C1368.57 196.765 1367.66 195.919 1366.86 196.471C1350.77 207.669 1328.17 208.461 1312.17 196.477C1295.4 183.904 1290.26 158.789 1299.9 140.341C1313.15 114.982 1346.23 117.209 1361.07 139.861Z" fill="url(#paint8_linear_708_5609)"/>
<path d="M1848.01 59.8663C1837.43 51.2815 1813.73 56.0329 1809.51 69.9535C1793.53 65.8021 1775.4 68.0478 1760.05 74.003C1759.79 74.103 1759.61 74.2511 1759.47 74.4114C1755.08 59.6134 1732.06 59.5803 1721.33 66.7908C1707.24 76.2605 1713.23 99.7708 1727.42 106.221C1727.46 106.237 1727.48 106.232 1727.52 106.239C1726.14 110.725 1725.44 115.411 1725.55 120.104C1726.12 143.711 1744.01 163.048 1766.2 169.046C1789.94 175.466 1816.9 171.974 1834.01 153.063C1846.94 138.77 1850.98 118.001 1844.28 100.298C1857.26 91.3199 1861.14 70.5259 1848.01 59.8663ZM1848.04 63.6634C1858.7 75.0328 1851.9 88.2713 1843.29 97.8816C1842.1 95.1782 1840.65 92.5568 1838.92 90.0579C1838.25 89.0808 1837.54 88.154 1836.82 87.2471C1841.68 85.3788 1842.07 77.7896 1838.61 74.2769C1834.04 69.6293 1827.31 71.3023 1823.32 75.5817C1819.53 73.372 1815.49 71.6714 1811.27 70.4371C1816 57.5582 1839.29 54.3301 1848.04 63.6634ZM1835.03 85.1148C1831.94 81.6665 1828.48 78.7858 1824.75 76.4396C1827.86 73.5761 1832.38 72.3513 1836.08 75.1597C1840.21 78.3019 1838.7 82.8668 1835.03 85.1148ZM1725.74 67.5081C1736.32 62.5459 1752.5 63.9974 1757.25 76.0247C1753.16 77.1708 1749.34 78.9954 1745.86 81.3247C1742.79 77.3759 1735.64 77.0782 1731.97 80.3096C1727.6 84.1499 1728.27 91.5707 1732.66 95.0249C1730.73 98.0973 1729.15 101.39 1727.98 104.815C1715.3 96.9455 1710 74.8882 1725.74 67.5081ZM1743.68 82.8885C1739.82 85.8301 1736.46 89.4184 1733.7 93.4463C1730.71 90.4808 1730.14 85.0499 1733.56 82.1208C1736.89 79.2702 1740.76 80.5123 1743.68 82.8885ZM1836.37 144.734C1811.48 182.473 1741.55 175.129 1729.91 129.638C1725.44 112.204 1732.62 94.9302 1745.98 84.662C1746.48 84.6669 1746.98 84.3617 1747.04 83.8674C1751.54 80.6129 1756.69 78.1279 1762.3 76.675C1762.48 76.6292 1762.61 76.5354 1762.71 76.4286C1785.21 68.4916 1812.34 67.5851 1830.63 85.3127C1846.56 100.755 1848.43 126.454 1836.37 144.734Z" fill="url(#paint9_linear_708_5609)"/>
<path d="M1810.97 146.013C1810.91 144.771 1809.07 144.142 1808.65 145.544C1807.39 149.788 1803.58 152.899 1798.95 151.486C1795.47 150.422 1793.03 147.469 1791.53 144.261C1793.54 143.341 1795.22 141.767 1796.26 139.641C1796.75 138.646 1795.62 137.846 1794.76 137.932C1790.93 138.314 1787.2 139.07 1783.52 140.205C1782.56 140.503 1782.24 141.468 1782.82 142.283C1784.39 144.477 1786.62 145.877 1789.22 146.211C1789.85 148.715 1789.78 151.309 1788.1 153.547C1785.3 157.276 1779.21 156.522 1779.01 151.318C1778.95 149.945 1776.71 149.17 1776.38 150.789C1775.1 157.039 1782.37 161.041 1787.54 157.988C1790.94 155.984 1792.26 152.581 1792.06 149.124C1794.01 151.954 1796.83 154.083 1800.48 154.436C1805.29 154.906 1811.23 151.278 1810.97 146.013ZM1787.29 142.426C1786.9 142.406 1786.61 142.53 1786.38 142.714C1786.19 142.55 1786.02 142.377 1785.85 142.188C1786.42 142.035 1786.99 141.914 1787.57 141.78C1787.57 141.886 1787.58 141.998 1787.64 142.113C1787.69 142.209 1787.74 142.31 1787.79 142.409C1787.62 142.413 1787.46 142.434 1787.29 142.426ZM1788.96 141.451C1790 141.23 1791.05 141.041 1792.12 140.884C1791.37 141.505 1790.49 141.926 1789.54 142.177C1789.36 141.928 1789.16 141.687 1788.96 141.451Z" fill="url(#paint10_linear_708_5609)"/>
<path d="M1748.79 134.219C1747.13 133.717 1744.48 134.626 1744.94 136.776C1744.99 137.013 1745.15 137.216 1745.35 137.367C1745.26 137.774 1745.27 138.188 1745.45 138.534C1746.4 140.367 1749.04 139.836 1750.15 138.519C1751.44 136.994 1750.65 134.779 1748.79 134.219ZM1747.56 137.738C1747.42 137.749 1747.09 137.666 1747.09 137.666C1747.07 137.615 1747.08 137.56 1747.09 137.505C1747.62 137.697 1748.2 137.147 1748.09 136.547C1748.31 136.583 1748.54 136.674 1748.56 136.885C1748.61 137.324 1747.95 137.71 1747.56 137.738Z" fill="url(#paint11_linear_708_5609)"/>
<path d="M1829.81 124.367C1829.11 123.158 1827.55 123.25 1826.33 123.077C1825.87 123.013 1825.38 123.297 1825.13 123.664C1824.62 124.397 1824.43 125.303 1824.6 126.177C1824.78 127.094 1825.41 128.148 1826.42 128.259C1826.88 128.309 1827.25 128.16 1827.49 127.904C1828.26 128.093 1829.09 127.896 1829.68 127.096C1830.24 126.319 1830.29 125.201 1829.81 124.367Z" fill="url(#paint12_linear_708_5609)"/>
<path d="M427.966 581.453C426.228 581.919 424.526 582.54 422.855 583.257C421.278 568.836 413.231 555.65 399.984 549.15C399.142 548.738 398.143 549.201 397.916 550.112C396.517 555.738 396.713 561.056 398.516 566.457C381.996 572.019 366.337 579.869 352.236 590.153C349.385 592.232 346.605 594.409 343.894 596.664C341.942 598.288 340.017 599.944 338.143 601.655C336.7 602.968 334.34 606.461 332.659 606.936C330.08 607.665 327.647 605.72 325.071 604.995C321.676 604.038 318.261 603.834 314.75 604.039C312.871 604.148 312.969 607.053 314.85 606.957C320.949 606.651 326.101 607.965 331.316 611.129C331.906 611.487 332.682 611.255 333.138 610.804C352.371 591.733 375.077 577.353 400.821 568.787C401.535 568.549 402.105 567.704 401.809 566.941C399.94 562.131 399.452 557.546 400.338 552.603C412.001 559.057 418.834 571.466 419.942 584.624C417.459 585.901 415.073 587.377 412.819 588.934C411.941 589.542 412.814 590.943 413.71 590.342C415.782 588.958 417.907 587.786 420.082 586.719C420.21 590.151 419.908 593.5 419.231 596.735C417.373 597.29 415.491 597.789 413.545 598.169C412.62 598.349 413.067 599.704 413.965 599.553C415.534 599.29 417.152 598.996 418.775 598.656C418.124 601.172 417.257 603.618 416.183 605.973C414.955 606.161 413.731 606.353 412.514 606.519C411.573 606.649 411.598 608.123 412.564 608.016C413.478 607.915 414.396 607.829 415.319 607.742C411.582 615.087 405.896 621.5 399.053 626.458C390.936 632.338 380.902 636.478 370.644 637.987C371.16 636.809 371.689 635.635 372.177 634.442C372.51 633.625 371.339 632.979 370.936 633.802C370.218 635.263 369.546 636.741 368.877 638.222C365.629 638.603 362.366 638.728 359.145 638.539C359.868 637.759 360.578 636.966 361.263 636.154C361.808 635.509 360.918 634.734 360.307 635.286C359.21 636.275 358.161 637.312 357.121 638.365C355.761 638.232 354.408 638.065 353.073 637.819C350.73 637.388 348.502 636.757 346.361 635.98C349.536 633.823 352.652 631.521 355.547 629.129C356.279 628.523 355.594 627.307 354.731 627.84C351.164 630.045 347.612 632.54 344.233 635.154C331.891 629.899 322.921 619.187 315.763 607.745C315.357 607.095 314.158 607.582 314.493 608.326C319.945 620.481 329.657 631.356 341.825 637.076C341.403 637.418 340.968 637.754 340.554 638.098C339.885 638.655 340.509 639.765 341.3 639.279C342.045 638.821 342.788 638.334 343.532 637.855C346.387 639.059 349.364 639.992 352.45 640.578C353.18 640.716 353.917 640.818 354.652 640.922C353.669 641.963 352.692 643.007 351.707 644.039C351.051 644.726 352.133 645.708 352.797 645.03C354.064 643.742 355.349 642.466 356.62 641.172C360.217 641.556 363.874 641.554 367.524 641.241C367.016 642.401 366.505 643.557 365.998 644.72C365.626 645.575 366.898 646.253 367.295 645.391C367.96 643.955 368.619 642.518 369.275 641.079C381.582 639.666 393.697 634.551 403.127 627.08C409.875 621.735 415.338 614.988 418.85 607.383C420.511 607.196 422.167 606.975 423.785 606.628C424.636 606.447 424.379 605.119 423.538 605.149C422.253 605.194 420.97 605.326 419.682 605.484C420.691 603.027 421.488 600.482 422.068 597.877C425.059 597.092 427.986 596.071 430.591 594.64C431.332 594.232 430.764 593.083 429.982 593.311C427.444 594.051 424.976 594.897 422.501 595.707C423.064 592.418 423.267 589.036 423.061 585.587C423.054 585.502 423.043 585.421 423.038 585.338C424.813 584.555 426.618 583.822 428.457 583.095C429.484 582.695 429.046 581.164 427.966 581.453Z" fill="url(#paint13_linear_708_5609)"/>
<path d="M396.699 615.228C395.672 615.881 395.036 616.774 393.774 617.058C392.478 617.348 391.153 617.051 390.091 616.274C391.55 615.323 391.463 613.214 390.564 611.877C390.18 611.308 389.537 611.233 388.955 611.515C386.572 612.658 384.149 613.723 381.743 614.822C380.873 615.22 380.656 616.338 381.553 616.866C383.459 617.988 385.655 618.391 387.803 618.107C387.926 618.737 387.869 619.398 387.659 620.006C387.448 620.617 387.091 621.234 386.608 621.673C386.083 622.151 385.413 622.327 384.987 622.922C384.659 623.382 384.617 624.17 385.26 624.436C386.788 625.064 388.216 623.869 389.075 622.669C389.949 621.446 390.345 619.892 390.174 618.4C390.158 618.258 390.126 618.109 390.097 617.959C391.202 618.665 392.554 618.928 393.889 618.766C395.464 618.575 397.474 617.745 397.888 616.064C398.045 615.4 397.267 614.87 396.699 615.228ZM385.956 616.205C385.547 616.122 385.144 616.018 384.747 615.886C386.075 615.291 387.405 614.703 388.739 614.129C388.665 614.515 388.488 614.899 388.348 615.288C388.228 615.238 388.111 615.188 387.978 615.158C387.028 614.951 386.024 615.264 385.956 616.205Z" fill="url(#paint14_linear_708_5609)"/>
<path d="M368.176 607.862C364.546 605.314 359.15 608.833 357.56 612.225C357.137 613.123 358.483 613.833 358.936 612.937C359.79 611.261 361.178 609.976 362.961 609.324C364.628 608.715 366.076 609.098 367.759 608.995C368.268 608.965 368.672 608.21 368.176 607.862Z" fill="url(#paint15_linear_708_5609)"/>
<path d="M398.29 586.835C396.887 585.404 394.316 586.028 392.807 586.973C391.084 588.054 390 589.863 390.109 591.912C390.156 592.777 391.412 592.715 391.439 591.865C391.494 590.283 392.53 588.954 393.927 588.27C395.28 587.606 396.422 587.982 397.823 588.095C398.509 588.148 398.684 587.237 398.29 586.835Z" fill="url(#paint16_linear_708_5609)"/>
<path d="M1060.35 367.444C1076.8 372.305 1093.92 370.861 1109.37 363.431C1109.46 363.388 1109.5 363.324 1109.58 363.271C1114.32 379.713 1130.94 389.408 1146.91 393.182C1167.7 398.095 1189.73 395.759 1210.36 391.144C1245.99 383.176 1281.49 363.918 1297.02 329.26C1298.63 325.66 1299.95 321.928 1300.97 318.117C1301.25 317.881 1301.55 317.656 1301.82 317.411C1302.39 316.909 1302.03 316.243 1301.48 316.037C1307.79 289.54 1299.87 259.699 1275.94 244.263C1259.95 233.95 1240.55 231.464 1221.79 234.407C1218.23 224.796 1216.53 214.607 1218.89 204.47C1220.21 198.771 1222.9 192.798 1227.57 189.092C1233.66 184.25 1244.85 185.349 1244.53 195.31C1244.49 196.387 1246.15 196.614 1246.39 195.568C1247.63 190.243 1244.41 185.699 1239.34 183.849C1233.05 181.559 1226.79 185.197 1222.88 190.022C1218.66 195.219 1216.45 201.496 1215.75 208.043C1214.69 203.294 1213.49 198.575 1212.17 193.9C1208.81 182.071 1205.34 168.148 1197.62 158.278C1192.69 151.976 1184.24 147.158 1176.08 149.608C1169.24 151.662 1164.72 158.684 1166.84 165.598C1167.27 167.014 1169.22 166.415 1169.02 165.015C1168 158.254 1172.86 152.678 1179.4 152.019C1184.6 151.496 1189.4 154.044 1193.12 157.473C1200.1 163.914 1203.11 174.46 1206.13 183.153C1211.97 200.04 1215.69 217.361 1218.53 234.969C1204.19 237.71 1190.36 243.572 1178.89 251.507C1149.64 271.754 1136.87 304.345 1131.14 338.086C1131 337.65 1130.86 337.236 1130.76 336.864C1129.26 331.484 1127.2 326.266 1124.7 321.277C1119.2 310.291 1111.48 300.712 1102.15 292.749C1101.25 291.987 1099.98 292.299 1099.6 293.433C1094.41 308.879 1094.77 325.244 1100.63 340.38C1084.3 343.146 1069.87 351.729 1059.65 364.855C1058.95 365.76 1059.13 367.086 1060.35 367.444ZM1063.47 365.076C1073.63 353.021 1087.43 345.349 1103.16 343.087C1103.91 342.978 1104.56 341.901 1104.26 341.188C1098.27 326.809 1097.43 311.39 1101.83 296.545C1108.41 302.421 1114.15 309.08 1118.75 316.642C1121.32 320.853 1123.55 325.276 1125.37 329.863C1126.22 332.032 1127 334.25 1127.69 336.477C1127.77 336.72 1129.29 340.976 1130.21 342.975C1129.98 342.942 1129.74 342.995 1129.55 343.182C1129.44 343.297 1129.32 343.412 1129.2 343.528C1128.84 343.889 1128.87 344.467 1129.21 344.825C1129.36 344.988 1129.52 345.15 1129.67 345.315C1129.77 345.424 1129.89 345.501 1130.02 345.551C1130.07 347.352 1132.87 348.026 1133.14 346.092C1138.42 308.447 1151.77 271.211 1185.97 250.67C1213.15 234.346 1253.03 229.162 1279.2 250.409C1299.71 267.055 1304.37 294.336 1297.5 318.416C1286.14 326.123 1273.56 327.219 1259.94 324.378C1258.57 324.091 1258.12 325.936 1259.38 326.436C1271.48 331.229 1285.79 328.388 1296.61 321.351C1294.71 327.132 1292.15 332.694 1288.98 337.834C1270.3 368.09 1236.09 383.35 1202.29 389.666C1172.69 395.2 1120.8 397.117 1110.72 359.854C1110.4 358.643 1108.63 359.149 1108.86 360.353C1108.89 360.479 1108.92 360.599 1108.94 360.723C1108.6 360.619 1108.22 360.615 1107.82 360.807C1093.83 367.507 1078.39 368.939 1063.47 365.076Z" fill="url(#paint17_linear_708_5609)"/>
<path d="M1262.71 272.475C1267.19 271.118 1272.69 275.451 1270.99 280.202C1270.67 281.098 1269.28 280.751 1269.54 279.804C1270.61 275.85 1265.16 273.066 1262.14 275.287C1258.93 277.652 1259.75 281.296 1260.23 284.614C1260.4 285.775 1259.04 286.398 1258.33 285.41C1255.41 281.351 1257.95 273.919 1262.71 272.475Z" fill="url(#paint18_linear_708_5609)"/>
<path d="M906.713 405.076C900.591 397.738 890.6 395.91 881.859 399.426C874.59 402.349 866.67 409.141 864.811 417.164C864.762 416.756 864.731 416.349 864.661 415.944C862.479 403.459 851.001 393.351 838.384 392.502C822.524 391.433 808.097 404.174 800.201 416.792C791.582 430.559 795.398 445.38 806.462 456.376C798.345 462.77 789.9 468.613 781.011 473.88C780.182 474.371 780.156 475.397 780.734 476.075C784.483 480.474 791.241 477.025 795.677 475.698C804.952 472.925 814.262 470.132 823.43 467.012C833.373 470.455 844.409 470.326 854.453 465.937C861.531 462.842 869.678 457.106 872.374 449.491C872.67 448.657 872.854 447.801 872.988 446.931C873.26 447.173 873.624 447.325 874.077 447.261C893.549 444.456 925.45 427.538 906.713 405.076ZM804.197 470.473C800.45 471.502 789.3 476.6 784.352 475.093C792.742 469.984 800.774 464.387 808.409 458.193C812.116 461.473 816.276 464.102 820.721 465.975C815.191 467.4 809.694 468.965 804.197 470.473ZM870.321 441.482C872.096 450.544 864.194 457.66 857.055 461.713C847.559 467.105 836.369 468.158 826.145 465.147C826.006 464.893 825.731 464.719 825.35 464.811C825.297 464.822 825.241 464.84 825.187 464.852C822.477 463.981 819.839 462.835 817.328 461.389C805.139 454.362 794.068 439.714 799.075 425.094C803.127 413.261 814.726 401.737 826.251 397.201C839.067 392.156 853.61 397.292 859.904 409.751C866.072 421.961 860.28 437.612 848.298 443.851C841.015 447.642 830.971 447.75 825.991 440.165C821.775 433.746 822.289 423.923 827.484 418.193C832.51 412.655 843.357 411.549 847.41 418.898C849.121 422.007 849.22 426.577 847.171 429.576C843.014 435.061 839.468 433.892 836.535 426.074C837.265 424.056 838.479 422.47 840.179 421.314C840.811 420.8 839.986 419.76 839.307 420.192C830.612 425.717 835.297 439.924 845.558 434.376C854.886 429.334 851.816 415.096 842.673 411.939C830.28 407.662 820.164 419.331 820.642 431.042C821.234 445.542 834.743 452.43 847.567 447.008C856.795 443.106 863.41 433.926 864.764 424.061C866.738 429.777 869.17 435.615 870.321 441.482ZM873.428 444.838C873.324 444.866 873.257 444.919 873.173 444.961C873.425 437.214 868.681 428.512 866.32 421.772C866.147 412.245 876.437 403.438 885.051 401.22C895.452 398.541 905.227 404.17 908.842 414.2C915.547 432.8 885.993 441.373 873.428 444.838Z" fill="url(#paint19_linear_708_5609)"/>
<path d="M890.05 410.298C886.628 410.465 884.768 414.495 886.302 417.358C886.814 418.313 888.121 417.468 887.719 416.527C886.961 414.753 888.458 412.121 890.555 412.548C891.317 412.702 891.996 413.235 892.401 413.887C892.846 414.602 892.733 415.349 892.968 416.123C893.23 416.99 894.346 417.104 894.828 416.366C896.655 413.573 892.678 410.17 890.05 410.298Z" fill="url(#paint20_linear_708_5609)"/>
<path d="M272.85 698.112C263.638 704.329 258.409 688.201 252.716 684.464C248.89 681.955 244.02 681.654 239.828 683.413C234.627 685.597 233.11 689.891 231.029 694.711C225.642 707.192 213.059 704.584 204.243 697.612C203.279 690.006 199.545 682.83 192.487 677.261C177.202 665.204 155.339 664.861 139.082 675.12C131.62 679.828 125.571 686.026 119.993 692.731C117.213 689.855 111.111 691.783 109.008 694.582C106.456 697.977 107.386 702.441 110.366 705.006C104.84 712.213 99.2315 719.342 92.5101 725.302C91.9101 724.93 91.3134 724.56 90.716 724.188C90.2389 723.889 89.7546 724.497 90.1757 724.881C90.7398 725.393 91.3272 725.89 91.9095 726.389C91.8692 727.305 92.7459 728.192 93.6591 727.855C122.681 751.435 171.774 758.818 196.331 725.189C201.915 717.54 204.87 708.65 204.474 700.126C209.45 704.174 215.376 707.15 222.018 705.916C229.004 704.618 231.681 699.834 234.273 693.798C237.836 685.506 246.698 681.741 253.724 689.23C256.19 691.856 257.621 695.32 260.126 697.928C263.934 701.892 269.957 704.253 274.538 700.303C275.888 699.14 274.333 697.112 272.85 698.112ZM110.942 695.74C112.046 694.472 113.77 693.801 115.429 693.742C116.609 693.7 117.549 694.152 118.556 694.501C116.014 697.638 113.549 700.852 111.083 704.072C109.288 701.725 108.966 698.008 110.942 695.74ZM97.563 725.689C97.1307 725.628 96.6971 725.603 96.2697 725.653C96.7398 725.225 97.2177 724.807 97.6775 724.371C97.6957 724.814 97.666 725.251 97.563 725.689ZM161.043 744.128C138.662 749.098 118.394 740.531 99.6333 729.59C100.091 729.521 100.504 729.155 100.463 728.533C100.385 727.383 100.313 726.24 100.226 725.093C100.266 724.419 100.188 723.774 100.044 723.085C100.036 723.014 100.028 722.904 100.028 722.904L100.007 722.907C99.9965 722.907 99.9687 722.651 99.9388 722.54C99.9124 722.441 99.8542 722.356 99.8115 722.278C112.538 709.368 121.527 692.994 135.739 681.56C145.128 674.008 156.538 669.926 168.652 671.122C181.54 672.395 195.938 679.882 200.451 692.774C209.1 717.503 182.312 739.405 161.043 744.128Z" fill="url(#paint21_linear_708_5609)"/>
<path d="M107.83 718.559C105.978 718.903 105.018 720.997 105.801 722.659C106.182 723.472 107.276 722.959 107.056 722.135C106.882 721.486 107.467 720.563 108.162 720.51C109.114 720.44 109.217 721.412 109.458 722.059C109.75 722.845 111.047 722.894 111.328 722.066C112 720.096 109.703 718.215 107.83 718.559Z" fill="url(#paint22_linear_708_5609)"/>
<path d="M134.401 700.294C128.299 698.133 121.275 701.787 119.638 707.987C119.514 708.458 119.897 708.782 120.313 708.844C120.28 709.168 120.372 709.518 120.687 709.822C126.28 715.221 133.073 719.744 139.204 724.523C139.812 724.996 140.829 724.783 141.111 724.028C143.896 716.51 143.513 703.521 134.401 700.294ZM139.342 721.444C133.716 716.899 128.13 711.895 122.057 708.056C121.811 707.899 121.572 707.857 121.346 707.866C123.248 703.195 129.143 700.328 133.96 702.476C140.683 705.472 141.15 715.059 139.342 721.444Z" fill="url(#paint23_linear_708_5609)"/>
<path d="M1677.66 -2.79041C1669.7 5.03679 1666.58 16.5657 1669.85 27.1694C1659.83 29.1042 1649.19 31.4634 1639.55 35.6316C1639.55 35.0983 1639.2 34.5721 1638.55 34.6283C1630.77 35.311 1606.79 43.099 1615.52 54.7515C1607.87 66.6384 1603.28 85.7838 1615.42 95.5667C1630.38 107.629 1649.18 93.2307 1658.51 81.2705C1669.45 67.253 1676.18 47.8152 1673.75 29.9171C1684.14 30.5984 1692.7 23.5535 1700.47 17.1071C1701.38 16.3526 1700.56 14.8069 1699.48 14.8578C1693.61 15.1388 1687.73 15.4231 1681.86 15.7066C1683.48 9.46369 1682.77 3.33066 1679.81 -2.53997C1679.4 -3.34586 1678.25 -3.36633 1677.66 -2.79041ZM1625.97 40.1276C1629.18 38.9143 1632.48 38.1705 1635.79 37.3795C1629.09 40.7299 1623.02 45.1028 1618.19 51.042C1617.57 51.8095 1616.96 52.6341 1616.36 53.5011C1613.42 47.2062 1620.59 42.1601 1625.97 40.1276ZM1660.15 74.3029C1652.06 86.7631 1630.63 107.687 1615.7 92.0264C1602.84 78.5322 1615.97 54.7732 1627.79 45.6319C1640.18 36.0538 1655.92 32.9418 1670.88 29.7025C1671.21 30.033 1671.66 30.1341 1672.09 30.0823C1671.73 45.9764 1669.01 60.6647 1660.15 74.3029ZM1678.76 16.8244C1678.49 17.6438 1679.29 18.5143 1680.1 18.4756C1685.37 18.2126 1690.64 17.9521 1695.91 17.6897C1689.51 23.3661 1681.86 28.6035 1673.19 28.2486C1673.17 28.2414 1673.14 28.2392 1673.12 28.232C1669.69 18.4743 1671.45 8.2495 1678.23 0.562618C1680.44 5.84389 1680.59 11.2521 1678.76 16.8244Z" fill="url(#paint24_linear_708_5609)"/>
<path d="M1619.05 75.6305C1617.25 75.7224 1615.43 76.6497 1614.69 78.3644C1613.45 81.2194 1616.26 85.3777 1619.5 84.1379C1620.51 83.7547 1620.1 82.2079 1619.03 82.5119C1617.25 83.0216 1615.84 80.3251 1616.92 78.975C1617.54 78.1999 1618.64 77.9527 1619.59 78.0441C1620.76 78.1565 1621.53 78.9269 1622.61 79.2483C1623.32 79.4603 1624.16 78.6605 1623.87 77.938C1623.15 76.1902 1620.81 75.5433 1619.05 75.6305Z" fill="url(#paint25_linear_708_5609)"/>
<path d="M1648.16 50.2136C1645.37 49.1408 1642.41 47.5562 1639.51 46.8883C1638.38 46.6299 1637.27 46.442 1636.44 47.481C1635.31 48.8942 1635.82 51.7393 1635.75 53.3496C1635.62 56.4442 1635.41 59.5439 1635.4 62.6408C1635.38 62.6311 1635.36 62.6181 1635.33 62.6076C1634.52 62.2198 1633.87 63.3812 1634.65 63.8414C1638.08 65.8503 1641.62 67.6965 1645.02 69.7518C1645.62 70.1189 1646.41 69.7128 1646.58 69.0626C1647.43 65.71 1648.78 62.5851 1651.01 59.9099C1652.12 58.5771 1654.54 57.2786 1654.93 55.4318C1655.62 52.1068 1650.22 51.0029 1648.16 50.2136ZM1651.45 56.127C1650.77 57.3341 1649.28 58.3341 1648.43 59.5013C1646.71 61.8693 1645.53 64.4845 1644.82 67.2899C1642.3 66.0903 1639.81 64.8164 1637.32 63.5789C1637.52 63.3883 1637.67 63.1254 1637.7 62.7837C1638.01 59.0341 1637.56 54.9483 1638.24 51.2536C1638.18 50.4985 1638.41 49.8216 1638.95 49.2218C1639.36 49.3803 1639.77 49.5362 1640.19 49.694C1640.84 49.7777 1641.58 50.1648 1642.24 50.4603C1641.53 51.7913 1640.89 53.1696 1640.2 54.5009C1639.86 55.1508 1640.83 55.6806 1641.2 55.0485C1641.99 53.7015 1642.85 52.3704 1643.62 51.004C1645.16 51.5888 1646.7 52.1711 1648.23 52.7541C1650.06 53.4447 1652.75 53.8304 1651.45 56.127Z" fill="url(#paint26_linear_708_5609)"/>
<path d="M1646.32 52.6336C1645.44 54.6461 1644.95 56.8703 1644.29 58.9655C1644.11 59.5548 1645 59.7395 1645.21 59.1841C1645.97 57.1699 1646.93 55.1573 1647.46 53.0738C1647.62 52.4211 1646.6 51.9871 1646.32 52.6336Z" fill="url(#paint27_linear_708_5609)"/>
<path d="M587.432 384.7C594.117 379.284 596.701 368.679 595.43 360.639C594.276 353.337 587.922 342.665 579.642 344.949C581.082 329.59 578.105 311.358 559.114 310.212C543.669 309.281 522.339 324.73 523.508 341.474C512.565 334.926 497.141 339.737 491.429 351.127C486.377 361.198 491.073 373.275 501.183 377.127C494.714 379.971 488.167 383.719 484.965 390.17C481.084 397.991 484.074 408.643 488.146 415.834C492.601 423.701 500.939 425.082 509.313 425.058C514.348 425.042 520.138 424.751 524.275 421.994C523.459 427.168 526.883 433.514 531.346 435.445C537.431 438.077 544.243 434.255 546.56 428.541C548.181 444.444 548.936 460.373 549.466 476.388C549.494 477.202 550.437 477.353 550.862 476.887C552.688 479.024 555.633 479.968 558.231 478.207C563.021 474.962 560.083 464.566 559.791 459.822C559.167 449.74 558.264 439.672 557.085 429.641C556.873 427.823 556.685 425.955 556.498 424.071C569.183 434.429 589.661 433.5 599.212 419.285C606.823 407.957 604.676 383.578 587.432 384.7ZM557.264 465.109C557.356 466.864 557.438 468.618 557.514 470.375C558.46 473.479 556.936 475.028 552.937 475.021C552.46 474.369 551.71 474.299 551.118 474.547C551.46 462.75 550.988 450.891 550.14 439.13C549.692 432.933 549.113 426.751 548.39 420.583C548.078 417.939 547.746 415.298 547.388 412.661C546.955 409.465 544.845 405.689 548.395 403.939C550.349 401.821 551.164 402.258 550.843 405.25C551.126 406.984 551.4 408.719 551.667 410.457C552.178 413.806 552.661 417.159 553.115 420.517C553.937 426.61 554.647 432.72 555.261 438.839C555.876 444.957 556.386 451.085 556.796 457.221C556.969 459.847 557.125 462.479 557.264 465.109ZM593.11 421.732C582.621 431.391 567.528 428.597 556.877 421.039C556.645 420.873 556.406 420.836 556.177 420.854C555.535 414.419 554.791 407.844 553.124 401.879C552.349 399.107 550.735 396.972 547.489 397.999C540.797 400.121 544.4 410.837 545.009 415.322C545.387 418.103 545.724 420.884 546.04 423.665C545.963 423.775 545.904 423.9 545.894 424.066C545.479 430.849 537.261 436.653 531.109 432.357C525.961 428.763 526.778 423.062 528.777 418.071C528.976 417.575 528.765 417.213 528.419 417.01C528.534 416.303 527.571 415.792 527.158 416.516C526.909 416.955 526.627 417.357 526.335 417.737C526.123 417.959 525.931 418.187 525.75 418.426C521.781 422.703 514.856 422.787 509.293 422.749C500.376 422.688 492.791 420.767 489.061 411.851C485.977 404.482 483.762 395.464 489.047 388.628C493.088 383.403 499.495 380.54 505.466 378.122C506.513 377.698 506.853 375.852 505.447 375.617C493.228 373.583 488.433 359.962 495.207 350.046C502.161 339.868 514.056 339.924 524.264 344.61C525.576 345.212 526.474 343.551 525.358 342.704C525.313 342.669 525.263 342.645 525.218 342.61C524.743 327.166 543.443 312.651 558.1 312.923C576.728 313.27 578.372 332.69 576.551 346.842C576.397 348.043 577.497 349.142 578.693 348.461C580.941 348.562 583.188 348.663 585.436 348.762C586.953 349.643 588.146 350.82 589.024 352.291C590.12 353.804 590.981 355.453 591.586 357.225C592.758 360.654 593.051 364.232 592.624 367.816C591.75 375.17 587.955 379.61 583.108 384.78C582.181 385.767 583.363 387.164 584.524 386.584C584.728 386.484 584.915 386.358 585.113 386.245C585.221 386.324 585.345 386.389 585.492 386.401C604.323 387.951 604.558 411.188 593.11 421.732Z" fill="url(#paint28_linear_708_5609)"/>
<path d="M584.106 405.158C581.67 403.404 578.266 403.477 575.723 404.938C575.635 404.902 575.532 404.883 575.415 404.885C570.297 404.976 568.308 411.081 571.055 414.906C573.931 418.914 580.972 420.284 584.67 416.65C587.782 413.589 587.748 407.779 584.106 405.158ZM583.792 414.104C581.911 417.235 577.378 417.053 574.582 415.336C573.033 414.384 571.657 412.781 571.624 410.872C571.599 409.49 572.227 408.129 573.257 407.264C573.037 407.611 572.838 407.971 572.687 408.365C572.237 409.526 574.021 410.134 574.631 409.164C576.11 406.817 578.876 405.37 581.655 406.413C584.736 407.57 585.362 411.488 583.792 414.104Z" fill="url(#paint29_linear_708_5609)"/>
<path d="M567.616 372.906C564.835 371.66 560.457 373.202 559.524 376.155C557.868 378.104 557.605 381.385 558.933 383.521C561.29 387.314 567.171 386.73 569.826 383.639C572.593 380.417 571.578 374.68 567.616 372.906ZM567.789 382.645C565.809 384.561 561.873 384.792 560.36 382.169C559.717 381.056 559.672 379.845 560.017 378.748C560.377 378.782 560.788 378.569 560.931 378.201C561.283 377.311 561.854 376.438 562.565 375.772C562.598 375.755 562.63 375.731 562.663 375.713C562.793 375.651 562.868 375.566 562.917 375.472C564.1 374.541 565.607 374.186 567.149 375.142C569.663 376.698 569.832 380.668 567.789 382.645Z" fill="url(#paint30_linear_708_5609)"/>
<path d="M583.836 355.782C581.234 354.585 576.434 355.122 575.806 358.542C575.776 358.707 575.793 358.85 575.825 358.979C574.214 360.354 573.741 363.167 575.222 365.101C577.861 368.548 582.885 367.894 585.445 364.761C587.818 361.856 587.45 357.446 583.836 355.782ZM584.848 361.468C584.397 363.561 582.386 365.349 580.246 365.502C578.837 365.602 577.463 364.99 576.597 363.88C575.229 362.125 576.385 359.069 578.985 359.589C579.778 359.748 580.075 358.634 579.308 358.378C578.961 358.261 578.632 358.211 578.312 358.185C579.238 357.348 580.322 356.968 581.805 357.233C583.878 357.604 585.31 359.323 584.848 361.468Z" fill="url(#paint31_linear_708_5609)"/>
<path d="M563.329 336.367C558.623 331.285 551.333 336.341 548.501 340.933C548.294 341.268 548.327 341.585 548.48 341.84C547.421 343.613 547.105 345.895 547.885 348.245C549.788 354.01 557.136 355.359 561.764 351.959C566.441 348.519 567.324 340.679 563.329 336.367ZM561.609 349.056C558.835 352.344 552.838 352.756 550.354 348.877C548.841 346.517 549.064 343.653 550.476 341.667C550.929 341.236 551.414 340.753 551.922 340.255C552.946 339.552 554.227 339.154 555.712 339.267C556.142 339.301 556.242 338.565 555.809 338.505C555.145 338.411 554.505 338.406 553.892 338.464C555.896 336.827 558.163 335.698 560.546 337.013C564.593 339.245 564.214 345.962 561.609 349.056Z" fill="url(#paint32_linear_708_5609)"/>
<path d="M551.256 318.892C547.762 316.883 542.552 320.346 541.139 323.61C540.948 324.052 541.22 324.64 541.64 324.758C540.792 326.444 541.141 328.719 542.468 330.203C545.228 333.286 549.83 331.373 551.972 328.58C554.074 325.846 554.725 320.888 551.256 318.892ZM550.989 326.35C549.919 328.467 546.862 330.919 544.402 329.443C542.618 328.375 541.995 325.127 544.006 324.018C544.454 323.77 544.329 323.274 544 323.061C545.146 321.949 546.282 320.83 547.906 320.417C551.646 319.466 552.258 323.839 550.989 326.35Z" fill="url(#paint33_linear_708_5609)"/>
<path d="M538.171 343.413C535.907 341.642 531.87 341.92 529.895 344.079C527.209 345.361 526.172 349 527.86 351.889C529.968 355.494 535.173 356.218 538.335 353.575C541.396 351.016 541.316 345.876 538.171 343.413ZM537.381 351.709C535.657 353.537 532.347 353.696 530.438 352.083C528.889 350.779 528.439 348.582 529.069 346.914C529.398 347.198 529.968 347.184 530.305 346.737C530.959 345.869 531.805 345.108 532.752 344.642C532.895 344.631 533.002 344.572 533.07 344.481C534.137 344.048 535.32 344.027 536.515 344.723C538.877 346.098 539.204 349.775 537.381 351.709Z" fill="url(#paint34_linear_708_5609)"/>
<path d="M535.257 368.92C530.904 365.626 524.221 367.202 521.164 371.526C520.827 372.002 521.181 372.613 521.66 372.808C520.892 375.176 521.605 378.063 523.559 380.088C526.817 383.466 532.652 383.677 536.206 380.592C539.963 377.33 539.022 371.769 535.257 368.92ZM535.227 378.48C533.488 380.505 530.219 381.123 527.741 380.401C524.006 379.311 521.703 374.633 523.882 371.642C526.198 370.003 528.707 368.711 531.713 369.577C535.378 370.629 538.01 375.238 535.227 378.48Z" fill="url(#paint35_linear_708_5609)"/>
<path d="M510.871 353.733C507.711 351.811 502.926 352.648 501.065 355.964C500.61 356.773 501.769 357.739 502.402 356.977C502.894 356.386 503.476 355.899 504.111 355.509C501.864 357.382 501.876 360.94 503.59 363.268C505.782 366.242 509.89 365.709 512.059 362.996C514.35 360.13 514.177 355.74 510.871 353.733ZM511.026 361.311C509.625 363.645 506.497 364.576 504.688 362.148C503.287 360.269 503.211 357.255 505.277 355.84C505.646 355.586 505.507 355.105 505.194 354.974C506.364 354.538 507.651 354.46 508.93 354.891C511.742 355.836 512.49 358.871 511.026 361.311Z" fill="url(#paint36_linear_708_5609)"/>
<path d="M511.853 390.591C507.928 389.869 502.22 392.265 502.261 396.861C502.261 396.973 502.291 397.074 502.332 397.166C502.089 399.994 503.48 403.003 505.83 404.701C509.98 407.708 515.16 405.217 516.943 400.8C518.689 396.467 516.675 391.478 511.853 390.591ZM515.089 399.594C514.02 402.871 510.516 405.282 507.224 403.347C505.02 402.053 503.861 399.587 503.916 397.141C505.291 394.398 507.529 392.448 510.816 392.711C514.368 392.995 516.162 396.304 515.089 399.594Z" fill="url(#paint37_linear_708_5609)"/>
<path d="M349.017 409.104C336.215 408.528 323.596 413.78 314.574 422.674C313.842 414.916 310.373 394.564 299.187 397.064C290.333 399.043 292.392 408.282 295.493 414.677C291.447 413.503 286.971 413.47 284.755 417.706C281.853 423.262 286.116 428.031 290.403 431.264C286.458 432.343 281.91 432.671 279.68 436.455C278.4 438.631 278.12 441.301 280.068 443.172C282.87 445.866 289.291 444.841 292.618 444.227C297.193 443.381 301.339 441.591 305.067 438.97C295.595 468.959 342.248 494.898 367.161 481.051C370.617 479.13 373.532 476.613 375.933 473.691C379.393 485.021 386.816 500.516 401.004 497.82C410.663 495.984 410.319 486.723 405.775 480.511C409.865 481.14 413.98 480.211 415.633 475.693C417.492 470.613 413.51 465.983 409.009 463.606C415.868 462.058 419.648 453.564 413.737 447.699C406.881 440.898 392.454 445.29 384.373 449.757C384.495 445.698 384.085 441.638 383.127 437.79C379.034 421.319 366.187 409.877 349.017 409.104ZM289.345 441.928C287.794 442.077 286.238 442.076 284.68 441.923C281.855 437.268 282.974 434.926 288.037 434.895C290.161 434.296 292.002 434.014 294.051 433.052C294.933 432.64 295.46 431.227 294.466 430.575C293.155 429.761 291.89 428.877 290.677 427.923C285.79 424.562 285.435 421.754 289.609 419.5C293.07 416.241 294.334 417.09 298.237 418.94C299.63 419.602 300.88 417.906 300.083 416.696C297.936 413.444 295.063 409.519 295.706 405.345L297.144 401.882C302.316 399.304 305.651 400.687 307.148 406.031C309.828 411.455 310.879 417.623 311.564 423.568C311.641 424.24 312.044 424.637 312.531 424.803C309.567 428.121 307.076 431.863 305.217 435.947C305.145 436.105 305.105 436.26 305.082 436.41C300.276 439.439 295.11 441.513 289.345 441.928ZM307.196 438.087C307.571 437.973 307.914 437.713 308.139 437.262C316.103 421.175 333.428 410.478 351.633 412.595C352.565 412.704 353.473 412.857 354.367 413.036C343.613 416.235 333.411 425.404 326.185 433.581C319.643 440.981 311.92 451.078 312.019 461.467C307.373 454.692 305.139 446.669 307.196 438.087ZM313.469 463.458C313.601 463.311 313.694 463.121 313.701 462.88C313.927 451.567 322.985 440.648 330.61 432.933C338.423 425.029 347.484 420.829 356.507 414.761C356.952 414.462 357.073 414.052 356.991 413.675C363.759 415.632 369.288 419.643 373.339 424.877C373.218 424.86 373.101 424.842 372.964 424.866C357.238 427.607 342.974 439.022 334.484 452.182C330.457 458.423 327.013 465.737 325.948 473.159C325.896 473.532 325.866 473.95 325.863 474.383C321.122 471.437 316.817 467.731 313.469 463.458ZM399.879 447.558C402.441 447.11 405.332 446.719 407.87 447.473C417.242 450.256 415.389 462.725 405.574 462.263C405.454 462.233 405.332 462.192 405.211 462.168C404.257 461.959 403.646 463.34 404.42 463.917C407.929 466.536 413.911 468.201 413.544 473.681C413.19 478.945 408.017 479.147 403.701 478.171C402.658 477.201 401.498 476.381 400.252 475.792C399.39 475.384 398.647 476.336 398.938 477.078C398.674 477.404 398.668 477.957 399.156 478.226C399.786 478.57 400.474 478.902 401.202 479.204C403.916 481.693 405.846 484.235 405.663 488.395C406.455 491.635 404.948 493.288 401.148 493.353C399.202 495.244 397.156 495.708 395.009 494.748C392.532 494.244 390.273 492.917 388.35 491.311C382.427 486.368 379.861 478.903 377.363 471.841C381.301 466.292 383.55 459.534 384.201 452.628C389.458 450.994 394.38 448.52 399.879 447.558ZM380.399 456.361C377.308 472.105 365.269 481.226 350.995 481.75C351.029 481.546 350.98 481.331 350.787 481.179C348.653 479.506 353.557 469.342 354.506 467.281C356.341 463.31 358.606 459.527 361.251 456.042C366.344 449.331 372.764 444.987 379.224 439.816C380.207 439.029 379.414 437.258 378.143 437.792C368.482 441.855 360.415 451.36 355.32 460.272C353.392 463.641 345.531 477.833 349.48 481.773C346.294 481.755 343.007 481.321 339.697 480.434C335.891 479.414 332.062 477.861 328.42 475.871C327.957 473.156 332.46 461.14 333.204 459.675C335.887 454.395 339.361 449.536 343.424 445.225C351.902 436.23 362.029 431.278 373.576 427.445C374.118 427.265 374.374 426.811 374.403 426.33C380.207 434.688 382.489 445.719 380.399 456.361Z" fill="url(#paint38_linear_708_5609)"/>
</g>
<defs>
<linearGradient id="paint0_linear_708_5609" x1="232.482" y1="496.008" x2="27.9357" y2="550.815" gradientUnits="userSpaceOnUse">
<stop stop-color="#B15CDE"/>
<stop offset="1" stop-color="#EC4899"/>
</linearGradient>
<linearGradient id="paint1_linear_708_5609" x1="1048.13" y1="252.564" x2="868.079" y2="300.808" gradientUnits="userSpaceOnUse">
<stop stop-color="#B15CDE"/>
<stop offset="1" stop-color="#EC4899"/>
</linearGradient>
<linearGradient id="paint2_linear_708_5609" x1="788.075" y1="328.152" x2="649.53" y2="365.275" gradientUnits="userSpaceOnUse">
<stop stop-color="#B15CDE"/>
<stop offset="1" stop-color="#EC4899"/>
</linearGradient>
<linearGradient id="paint3_linear_708_5609" x1="1591.68" y1="110.593" x2="1437.96" y2="151.782" gradientUnits="userSpaceOnUse">
<stop stop-color="#B15CDE"/>
<stop offset="1" stop-color="#EC4899"/>
</linearGradient>
<linearGradient id="paint4_linear_708_5609" x1="1496.66" y1="118.767" x2="1489.97" y2="120.561" gradientUnits="userSpaceOnUse">
<stop stop-color="#B15CDE"/>
<stop offset="1" stop-color="#EC4899"/>
</linearGradient>
<linearGradient id="paint5_linear_708_5609" x1="1533.98" y1="106.886" x2="1526.76" y2="108.821" gradientUnits="userSpaceOnUse">
<stop stop-color="#B15CDE"/>
<stop offset="1" stop-color="#EC4899"/>
</linearGradient>
<linearGradient id="paint6_linear_708_5609" x1="1557.19" y1="138.601" x2="1482.33" y2="158.657" gradientUnits="userSpaceOnUse">
<stop stop-color="#B15CDE"/>
<stop offset="1" stop-color="#EC4899"/>
</linearGradient>
<linearGradient id="paint7_linear_708_5609" x1="1840.48" y1="240.216" x2="1564.77" y2="314.092" gradientUnits="userSpaceOnUse">
<stop stop-color="#B15CDE"/>
<stop offset="1" stop-color="#EC4899"/>
</linearGradient>
<linearGradient id="paint8_linear_708_5609" x1="1438.4" y1="213.479" x2="1313.19" y2="247.028" gradientUnits="userSpaceOnUse">
<stop stop-color="#B15CDE"/>
<stop offset="1" stop-color="#EC4899"/>
</linearGradient>
<linearGradient id="paint9_linear_708_5609" x1="1860.72" y1="91.2616" x2="1724.45" y2="127.774" gradientUnits="userSpaceOnUse">
<stop stop-color="#B15CDE"/>
<stop offset="1" stop-color="#EC4899"/>
</linearGradient>
<linearGradient id="paint10_linear_708_5609" x1="1810.12" y1="142.703" x2="1775.91" y2="151.869" gradientUnits="userSpaceOnUse">
<stop stop-color="#B15CDE"/>
<stop offset="1" stop-color="#EC4899"/>
</linearGradient>
<linearGradient id="paint11_linear_708_5609" x1="1750.67" y1="136.067" x2="1745.15" y2="137.547" gradientUnits="userSpaceOnUse">
<stop stop-color="#B15CDE"/>
<stop offset="1" stop-color="#EC4899"/>
</linearGradient>
<linearGradient id="paint12_linear_708_5609" x1="1830" y1="124.748" x2="1824.6" y2="126.196" gradientUnits="userSpaceOnUse">
<stop stop-color="#B15CDE"/>
<stop offset="1" stop-color="#EC4899"/>
</linearGradient>
<linearGradient id="paint13_linear_708_5609" x1="429.705" y1="584.639" x2="315.906" y2="615.131" gradientUnits="userSpaceOnUse">
<stop stop-color="#B15CDE"/>
<stop offset="1" stop-color="#EC4899"/>
</linearGradient>
<linearGradient id="paint14_linear_708_5609" x1="397.778" y1="615.309" x2="381.913" y2="619.56" gradientUnits="userSpaceOnUse">
<stop stop-color="#B15CDE"/>
<stop offset="1" stop-color="#EC4899"/>
</linearGradient>
<linearGradient id="paint15_linear_708_5609" x1="368.423" y1="608.293" x2="357.119" y2="611.322" gradientUnits="userSpaceOnUse">
<stop stop-color="#B15CDE"/>
<stop offset="1" stop-color="#EC4899"/>
</linearGradient>
<linearGradient id="paint16_linear_708_5609" x1="398.631" y1="587.767" x2="389.626" y2="590.18" gradientUnits="userSpaceOnUse">
<stop stop-color="#B15CDE"/>
<stop offset="1" stop-color="#EC4899"/>
</linearGradient>
<linearGradient id="paint17_linear_708_5609" x1="1291.44" y1="243.471" x2="1044.11" y2="309.744" gradientUnits="userSpaceOnUse">
<stop stop-color="#B15CDE"/>
<stop offset="1" stop-color="#EC4899"/>
</linearGradient>
<linearGradient id="paint18_linear_708_5609" x1="1270.97" y1="276.489" x2="1256.56" y2="280.351" gradientUnits="userSpaceOnUse">
<stop stop-color="#B15CDE"/>
<stop offset="1" stop-color="#EC4899"/>
</linearGradient>
<linearGradient id="paint19_linear_708_5609" x1="910.975" y1="411.159" x2="773.071" y2="448.11" gradientUnits="userSpaceOnUse">
<stop stop-color="#B15CDE"/>
<stop offset="1" stop-color="#EC4899"/>
</linearGradient>
<linearGradient id="paint20_linear_708_5609" x1="894.834" y1="412.762" x2="885.61" y2="415.234" gradientUnits="userSpaceOnUse">
<stop stop-color="#B15CDE"/>
<stop offset="1" stop-color="#EC4899"/>
</linearGradient>
<linearGradient id="paint21_linear_708_5609" x1="269.376" y1="677.883" x2="90.3507" y2="725.852" gradientUnits="userSpaceOnUse">
<stop stop-color="#B15CDE"/>
<stop offset="1" stop-color="#EC4899"/>
</linearGradient>
<linearGradient id="paint22_linear_708_5609" x1="111.179" y1="720.065" x2="105.469" y2="721.596" gradientUnits="userSpaceOnUse">
<stop stop-color="#B15CDE"/>
<stop offset="1" stop-color="#EC4899"/>
</linearGradient>
<linearGradient id="paint23_linear_708_5609" x1="142.161" y1="710.145" x2="121.6" y2="715.654" gradientUnits="userSpaceOnUse">
<stop stop-color="#B15CDE"/>
<stop offset="1" stop-color="#EC4899"/>
</linearGradient>
<linearGradient id="paint24_linear_708_5609" x1="1705.8" y1="34.5312" x2="1602.6" y2="62.1816" gradientUnits="userSpaceOnUse">
<stop stop-color="#B15CDE"/>
<stop offset="1" stop-color="#EC4899"/>
</linearGradient>
<linearGradient id="paint25_linear_708_5609" x1="1624.03" y1="78.5301" x2="1614.56" y2="81.0673" gradientUnits="userSpaceOnUse">
<stop stop-color="#B15CDE"/>
<stop offset="1" stop-color="#EC4899"/>
</linearGradient>
<linearGradient id="paint26_linear_708_5609" x1="1655.02" y1="54.6573" x2="1633.51" y2="60.4194" gradientUnits="userSpaceOnUse">
<stop stop-color="#B15CDE"/>
<stop offset="1" stop-color="#EC4899"/>
</linearGradient>
<linearGradient id="paint27_linear_708_5609" x1="1648.12" y1="55.2672" x2="1643.55" y2="56.4907" gradientUnits="userSpaceOnUse">
<stop stop-color="#B15CDE"/>
<stop offset="1" stop-color="#EC4899"/>
</linearGradient>
<linearGradient id="paint28_linear_708_5609" x1="601.224" y1="381.848" x2="485.965" y2="412.732" gradientUnits="userSpaceOnUse">
<stop stop-color="#B15CDE"/>
<stop offset="1" stop-color="#EC4899"/>
</linearGradient>
<linearGradient id="paint29_linear_708_5609" x1="586.753" y1="409.308" x2="570.302" y2="413.716" gradientUnits="userSpaceOnUse">
<stop stop-color="#B15CDE"/>
<stop offset="1" stop-color="#EC4899"/>
</linearGradient>
<linearGradient id="paint30_linear_708_5609" x1="571.218" y1="377.564" x2="558.049" y2="381.093" gradientUnits="userSpaceOnUse">
<stop stop-color="#B15CDE"/>
<stop offset="1" stop-color="#EC4899"/>
</linearGradient>
<linearGradient id="paint31_linear_708_5609" x1="586.852" y1="359.539" x2="574.298" y2="362.903" gradientUnits="userSpaceOnUse">
<stop stop-color="#B15CDE"/>
<stop offset="1" stop-color="#EC4899"/>
</linearGradient>
<linearGradient id="paint32_linear_708_5609" x1="565.858" y1="341.734" x2="547.446" y2="346.668" gradientUnits="userSpaceOnUse">
<stop stop-color="#B15CDE"/>
<stop offset="1" stop-color="#EC4899"/>
</linearGradient>
<linearGradient id="paint33_linear_708_5609" x1="553.881" y1="323.281" x2="540.985" y2="326.736" gradientUnits="userSpaceOnUse">
<stop stop-color="#B15CDE"/>
<stop offset="1" stop-color="#EC4899"/>
</linearGradient>
<linearGradient id="paint34_linear_708_5609" x1="540.409" y1="347" x2="527.271" y2="350.52" gradientUnits="userSpaceOnUse">
<stop stop-color="#B15CDE"/>
<stop offset="1" stop-color="#EC4899"/>
</linearGradient>
<linearGradient id="paint35_linear_708_5609" x1="538.141" y1="372.722" x2="521.734" y2="377.118" gradientUnits="userSpaceOnUse">
<stop stop-color="#B15CDE"/>
<stop offset="1" stop-color="#EC4899"/>
</linearGradient>
<linearGradient id="paint36_linear_708_5609" x1="513.441" y1="357.271" x2="502.002" y2="360.336" gradientUnits="userSpaceOnUse">
<stop stop-color="#B15CDE"/>
<stop offset="1" stop-color="#EC4899"/>
</linearGradient>
<linearGradient id="paint37_linear_708_5609" x1="517.45" y1="396.173" x2="502.646" y2="400.14" gradientUnits="userSpaceOnUse">
<stop stop-color="#B15CDE"/>
<stop offset="1" stop-color="#EC4899"/>
</linearGradient>
<linearGradient id="paint38_linear_708_5609" x1="410.688" y1="430.883" x2="285.101" y2="464.534" gradientUnits="userSpaceOnUse">
<stop stop-color="#B15CDE"/>
<stop offset="1" stop-color="#EC4899"/>
</linearGradient>
</defs>
</svg>
